<?xml version="1.0" standalone="no"?>
<!DOCTYPE svg PUBLIC "-//W3C//DTD SVG 1.1//EN" "http://www.w3.org/Graphics/SVG/1.1/DTD/svg11.dtd" >
<svg xmlns="http://www.w3.org/2000/svg">
<metadata></metadata>
<defs>
<font id="minimobold" horiz-adv-x="1064" >
<font-face units-per-em="2048" ascent="1536" descent="-512" />
<missing-glyph horiz-adv-x="614" />
<glyph unicode="&#xfb01;" horiz-adv-x="1386" d="M76 819h129v277q0 94 33 165.5t87.5 111t115 58.5t124.5 19q145 0 260 -70q28 -24 13 -51l-64 -119q-6 -12 -19.5 -15t-25.5 3q-56 33 -129 33q-24 0 -49.5 -7.5t-51 -24t-41.5 -47t-16 -71.5v-262h238q14 0 24.5 -10.5t10.5 -24.5v-159q0 -13 -10.5 -24t-24.5 -11h-238 v-555q0 -14 -10.5 -24.5t-23.5 -10.5h-168q-14 0 -24.5 11t-10.5 24v555h-129q-14 0 -24.5 11t-10.5 24v159q0 14 10.5 24.5t24.5 10.5zM1239 819v-819h-238v819h238zM1264 1171q0 -60 -42 -101.5t-102 -41.5t-101.5 41.5t-41.5 101.5t41.5 102t101.5 42t102 -42t42 -102z " />
<glyph unicode="&#xfb02;" horiz-adv-x="1378" d="M76 819h129v277q0 94 33 165.5t87.5 111t115 58.5t124.5 19q145 0 260 -70q28 -24 13 -51l-64 -119q-6 -12 -19.5 -15t-25.5 3q-56 33 -129 33q-24 0 -49.5 -7.5t-51 -24t-41.5 -47t-16 -71.5v-262h238q14 0 24.5 -10.5t10.5 -24.5v-159q0 -13 -10.5 -24t-24.5 -11h-238 v-555q0 -14 -10.5 -24.5t-23.5 -10.5h-168q-14 0 -24.5 11t-10.5 24v555h-129q-14 0 -24.5 11t-10.5 24v159q0 14 10.5 24.5t24.5 10.5zM1235 1399v-1364q0 -13 -10.5 -24t-24.5 -11h-168q-14 0 -24.5 11t-10.5 24v1364q0 13 10.5 24t24.5 11h168q14 0 24.5 -11t10.5 -24z " />
<glyph horiz-adv-x="0" />
<glyph horiz-adv-x="682" />
<glyph unicode=" "  horiz-adv-x="614" />
<glyph unicode="&#x09;" horiz-adv-x="614" />
<glyph unicode="&#xa0;" horiz-adv-x="614" />
<glyph unicode="!" horiz-adv-x="577" d="M143 125q0 60 43 102.5t103 42.5t102.5 -42.5t42.5 -102.5t-42.5 -102.5t-102.5 -42.5t-103 42.5t-43 102.5zM201 1434h178q14 0 24 -11t9 -24l-27 -885q0 -16 -10.5 -25.5t-24.5 -9.5h-123q-34 0 -37 35l-24 885q0 13 11 24t24 11z" />
<glyph unicode="&#x22;" horiz-adv-x="808" d="M705 1399l-19 -473q-3 -35 -37 -35h-108q-34 0 -37 35l-19 473q-1 13 9 24t24 11h154q14 0 24 -11t9 -24zM324 1399l-19 -473q-3 -35 -37 -35h-108q-34 0 -37 35l-19 473q-1 13 9 24t24 11h154q14 0 24 -11t9 -24z" />
<glyph unicode="#" horiz-adv-x="1329" d="M1135 354h-193l-22 -319q-3 -35 -37 -35h-90q-14 0 -24 11t-9 24l22 319h-284l-23 -319q-3 -35 -37 -35h-90q-14 0 -24 11t-9 24l23 319h-180q-14 0 -24.5 11t-10.5 24v90q0 13 10.5 24t24.5 11h192l27 387h-180q-13 0 -24 10.5t-11 24.5v88q0 14 11 24.5t24 10.5h190 l25 340q0 35 37 35h90q13 0 22.5 -10.5t9.5 -24.5l-24 -340h284l25 340q0 35 37 35h90q13 0 23 -10.5t10 -24.5l-25 -340h180q13 0 24 -10.5t11 -24.5v-88q0 -14 -11 -24.5t-24 -10.5h-190l-27 -387h181q13 0 23.5 -10.5t10.5 -24.5v-90q0 -14 -10.5 -24.5t-23.5 -10.5z M795 514l26 387h-284l-27 -387h285z" />
<glyph unicode="$" horiz-adv-x="1298" d="M748 1210v-393q40 -12 67.5 -20.5t65.5 -23t65 -28t59 -33.5t54 -41.5t44.5 -50.5t35.5 -61t21.5 -73t8.5 -87q0 -174 -118.5 -287.5t-302.5 -134.5v-141q0 -14 -11 -24.5t-24 -10.5h-129q-14 0 -24.5 10.5t-10.5 24.5v146q-160 21 -274.5 111t-145.5 237q-6 36 27 45 l157 43q12 4 24 -3.5t17 -21.5q41 -134 195 -168v416q-58 16 -100 30.5t-92.5 38t-85 52.5t-65 68.5t-46 93t-15.5 118.5q0 92 31.5 165.5t88 123t127.5 80t157 43.5v162q0 14 10.5 24.5t24.5 10.5h129q13 0 24 -10.5t11 -24.5v-158q161 -18 271.5 -103.5t147.5 -236.5 q4 -13 -3 -25.5t-21 -17.5l-158 -45q-31 -9 -45 23q-26 64 -72.5 102t-119.5 55zM549 877v329q-71 -19 -113.5 -59t-42.5 -103q0 -62 39.5 -100t116.5 -67zM748 582v-359q82 19 124.5 71.5t42.5 104.5q1 67 -41.5 108.5t-125.5 74.5z" />
<glyph unicode="%" horiz-adv-x="1841" d="M1739 334q0 -169 -96 -260.5t-248 -91.5t-248 91.5t-96 260.5t96 260.5t248 91.5t248 -91.5t96 -260.5zM1530 334q0 74 -42 111.5t-93 37.5q-52 0 -93.5 -37t-41.5 -112t41.5 -112.5t93.5 -37.5q51 0 93 37.5t42 112.5zM791 1100q0 -169 -96.5 -260.5t-248.5 -91.5 t-248 91.5t-96 260.5t96 260.5t248 91.5t248.5 -91.5t96.5 -260.5zM582 1100q0 74 -42.5 111.5t-93.5 37.5q-52 0 -93.5 -37t-41.5 -112t41.5 -112.5t93.5 -37.5q51 0 93.5 38t42.5 112zM1247 1434h174q12 0 17.5 -10t-0.5 -21l-793 -1372q-15 -31 -51 -31h-174 q-12 0 -18 10t-1 21l793 1372q22 31 53 31z" />
<glyph unicode="&#x26;" horiz-adv-x="1556" d="M1219 322l211 -203q10 -11 10 -25t-10 -24l-115 -115q-25 -25 -49 0l-181 176q-164 -157 -417 -160q-139 0 -252.5 50.5t-182.5 151.5t-69 235q0 191 176 317l90 63q-84 102 -115.5 186t-31.5 169q0 133 101.5 226t264.5 93q110 0 191.5 -49t119.5 -125.5t35 -165.5 q-4 -116 -66 -198.5t-169 -155.5l264 -256q16 88 16 147q0 13 11 24t24 11h176q14 0 24.5 -9.5t10.5 -25.5q3 -188 -67 -337zM645 1225q-68 0 -100 -54q-16 -22 -19 -51q0 -86 90 -202q60 51 92.5 99t36.5 105q0 9 -3.5 23t-13 33.5t-31.5 33t-52 13.5zM647 207 q167 0 264 94l-342 338q-76 -56 -116.5 -114t-36.5 -132q0 -26 11.5 -55.5t36.5 -60t72.5 -50.5t110.5 -20z" />
<glyph unicode="'" horiz-adv-x="428" d="M137 1434h154q14 0 24 -11t9 -24l-19 -473q-3 -35 -37 -35h-108q-34 0 -37 35l-19 473q-1 13 9 24t24 11z" />
<glyph unicode="(" horiz-adv-x="786" d="M416 668q0 -293 82.5 -525.5t242.5 -390.5q23 -22 -2 -47l-112 -98q-28 -22 -52 2q-193 185 -302 454.5t-109 604.5t109 604t302 454q24 24 52 3l112 -99q25 -24 2 -47q-325 -322 -325 -915z" />
<glyph unicode=")" horiz-adv-x="786" d="M211 1726q193 -186 302.5 -454.5t109.5 -603.5t-109.5 -604t-302.5 -455q-11 -11 -25.5 -11.5t-25.5 9.5l-113 98q-25 25 -2 47q159 159 242.5 391.5t83.5 524.5q0 291 -83.5 523.5t-242.5 391.5q-23 23 2 47l113 99q11 10 25.5 9t25.5 -12z" />
<glyph unicode="*" horiz-adv-x="925" d="M795 1167l-170 -110l170 -109q12 -7 15 -22t-5 -27l-35 -59q-6 -13 -20.5 -18t-26.5 3l-178 90l-10 -198q-3 -35 -37 -35h-70q-34 0 -37 35l-10 198l-178 -90q-12 -8 -27 -3t-22 18l-35 59q-6 12 -3 27t15 22l168 109l-168 110q-27 15 -12 50l35 59q7 12 22 16t27 -2 l178 -92l10 201q2 15 11.5 25t25.5 10h70q13 0 24 -10.5t13 -24.5l10 -201l178 92q12 6 26.5 2t20.5 -16l35 -59q19 -31 -10 -50z" />
<glyph unicode="+" horiz-adv-x="999" d="M592 500h229q13 0 24 -11t11 -24v-113q0 -14 -11 -24.5t-24 -10.5h-229v-229q0 -14 -11 -24.5t-24 -10.5h-113q-13 0 -23.5 10.5t-10.5 24.5v229h-232q-14 0 -24.5 10.5t-10.5 24.5v113q0 13 10.5 24t24.5 11h232v219q0 14 10.5 24.5t23.5 10.5h113q13 0 24 -11t11 -24 v-219z" />
<glyph unicode="," horiz-adv-x="563" d="M414 154l-88 -416q-6 -35 -41 -35h-107q-13 0 -23 10.5t-8 24.5l37 416q3 34 39 34h162q13 0 22 -10t7 -24z" />
<glyph unicode="-" horiz-adv-x="956" d="M778 317h-600q-14 0 -24.5 10.5t-10.5 24.5v113q0 13 10.5 24t24.5 11h600q14 0 24.5 -11t10.5 -24v-113q0 -14 -10.5 -24.5t-24.5 -10.5z" />
<glyph unicode="." horiz-adv-x="577" d="M143 125q0 60 43 102.5t103 42.5t102.5 -42.5t42.5 -102.5t-42.5 -102.5t-102.5 -42.5t-103 42.5t-43 102.5z" />
<glyph unicode="/" horiz-adv-x="901" d="M225 0h-170q-12 0 -19 10.5t-3 22.5l594 1470q9 33 47 33h172q12 0 19 -10.5t3 -22.5l-596 -1470q-11 -33 -47 -33z" />
<glyph unicode="0" horiz-adv-x="1314" d="M657 1462q92 0 171 -25.5t147 -82.5t115.5 -142.5t74.5 -211.5t27 -283t-27 -283t-74.5 -212t-115.5 -143t-147 -82.5t-171 -25.5t-171 25.5t-146.5 82.5t-115 143t-74.5 212t-27 283q0 196 40.5 342t114 232.5t168.5 128.5t211 42zM657 209q289 0 289 508t-289 508 q-288 0 -288 -508t288 -508z" />
<glyph unicode="1" horiz-adv-x="784" d="M641 1399v-1364q0 -13 -10.5 -24t-24.5 -11h-176q-14 0 -24.5 11t-10.5 24v1087l-184 -129q-24 -21 -51 6l-78 101q-8 10 -7 24.5t11 24.5l283 260q25 25 61 25h176q14 0 24.5 -11t10.5 -24z" />
<glyph unicode="2" horiz-adv-x="1157" d="M451 238h569q14 0 24.5 -11t10.5 -24v-168q0 -13 -10.5 -24t-24.5 -11h-850q-14 0 -24.5 11t-10.5 24v176q0 34 25 59l495 480q148 141 148 276q0 25 -5.5 50.5t-21 54.5t-39 51t-63.5 36.5t-90 14.5q-110 0 -175 -50t-79 -143q-2 -14 -13 -22.5t-24 -7.5l-156 20 q-36 3 -33 39q24 187 153.5 290t326.5 103q207 0 331.5 -109t124.5 -309q0 -45 -7.5 -87t-30 -101t-72.5 -129t-125 -145z" />
<glyph unicode="3" horiz-adv-x="1234" d="M899 795q96 -51 154 -147t59 -222q-2 -110 -42 -197.5t-108.5 -143.5t-159 -85t-196.5 -29q-128 0 -233 41.5t-176.5 127.5t-90.5 206q-3 35 31 41l160 27q13 4 24.5 -5t16.5 -24q16 -78 86 -133t182 -55q126 0 197 69.5t71 159.5q5 112 -63 180t-205 72h-80 q-13 0 -23.5 10.5t-10.5 24.5v141q0 14 10.5 24.5t23.5 10.5h80q107 4 154.5 58t42.5 126q0 59 -49 108.5t-148 49.5q-132 0 -182 -111q-8 -31 -45 -28l-170 22q-34 3 -31 39q28 150 145.5 229.5t282.5 79.5q91 0 167.5 -24t136 -70.5t94 -122t36.5 -172.5 q-3 -185 -141 -278z" />
<glyph unicode="4" horiz-adv-x="1114" d="M78 547l428 858q16 31 51 31h199q12 0 18 -10.5t0 -20.5l-444 -897h303v194q0 14 10.5 24.5t24.5 10.5h168q13 0 23.5 -10.5t10.5 -24.5v-194h148q14 0 24.5 -11t10.5 -24v-168q0 -13 -10.5 -24t-24.5 -11h-148v-235q0 -14 -10.5 -24.5t-23.5 -10.5h-168q-14 0 -24.5 11 t-10.5 24v235h-537q-14 0 -24.5 11t-10.5 24v176q0 27 17 66z" />
<glyph unicode="5" horiz-adv-x="1216" d="M848 436q3 60 -20.5 114.5t-80 92t-135.5 37.5q-122 0 -198 -47q-33 -17 -62 -8l-110 30q-33 9 -33 45v699q0 13 10.5 24t24.5 11h749q13 0 24 -11t11 -24v-168q0 -13 -11 -24t-24 -11h-547v-340q74 35 191 35q91 0 172 -29t145.5 -84t102 -143.5t37.5 -198.5 q0 -197 -139.5 -331t-344.5 -134q-197 0 -329 103.5t-156 290.5q-3 32 33 41l143 30q34 3 39 -28q13 -92 83 -148.5t187 -50.5q52 2 94 19t67 41t42.5 55.5t25 58.5t9.5 53z" />
<glyph unicode="6" horiz-adv-x="1216" d="M612 881q217 0 347.5 -117.5t134.5 -337.5q-5 -195 -139.5 -325t-342.5 -130q-211 0 -347 129t-140 338q0 153 73.5 346t176.5 358t223 306q27 27 51 6l133 -90q26 -26 6 -47q-124 -153 -184.5 -244t-122.5 -217q18 10 60 17.5t71 7.5zM612 207q52 0 94 16.5t68 41t43 55 t24 57.5t7 49q0 38 -12 75t-37.5 73t-73.5 58.5t-113 22.5t-114.5 -22t-76 -57t-39.5 -73t-13 -77q0 -27 7.5 -55.5t26 -58.5t45 -53t69.5 -37.5t95 -14.5z" />
<glyph unicode="7" horiz-adv-x="1048" d="M96 1434h856q14 0 24.5 -11t10.5 -24v-176q0 -29 -16 -66l-563 -1126q-16 -31 -52 -31h-196q-12 0 -18.5 10.5t-0.5 20.5l578 1165h-623q-14 0 -24.5 11t-10.5 24v168q0 13 10.5 24t24.5 11z" />
<glyph unicode="8" horiz-adv-x="1257" d="M629 -29q-106 0 -196.5 29t-159 85t-108.5 143.5t-42 197.5q1 126 59 222t154 147q-138 93 -141 278q2 97 36.5 172.5t94 122t136 70.5t167.5 24t167.5 -24t136 -70.5t94 -122t36.5 -172.5q-3 -185 -141 -278q96 -51 154 -147t59 -222q-2 -110 -42 -197.5t-108.5 -143.5 t-159 -85t-196.5 -29zM629 201q127 0 197.5 67t70.5 158q5 113 -63 181.5t-205 72.5q-137 -4 -205.5 -72.5t-63.5 -181.5q0 -91 71 -158t198 -67zM629 885q106 4 153.5 59.5t42.5 128.5q0 27 -10.5 53.5t-32.5 51t-61.5 40t-91.5 15.5t-91.5 -15.5t-61.5 -40t-33 -51 t-11 -53.5q-5 -72 43 -128t154 -60z" />
<glyph unicode="9" horiz-adv-x="1216" d="M604 1460q212 0 348 -129.5t140 -337.5q0 -153 -73.5 -345.5t-177 -357.5t-223.5 -306q-26 -29 -51 -7l-133 91q-12 8 -14 22t8 25q121 144 181 235.5t126 224.5q-18 -10 -60 -17t-71 -7q-217 0 -347 117.5t-134 337.5q5 195 139 324.5t342 129.5zM604 776 q65 0 114.5 21.5t76.5 56.5t40 73.5t13 78.5q0 35 -13 71t-40 70.5t-76.5 56t-114.5 21.5q-52 0 -94 -16.5t-67.5 -41t-43 -55t-24 -57.5t-6.5 -49q0 -38 11.5 -75.5t37 -73.5t73.5 -58.5t113 -22.5z" />
<glyph unicode=":" horiz-adv-x="577" d="M143 125q0 60 43 102.5t103 42.5t102.5 -42.5t42.5 -102.5t-42.5 -102.5t-102.5 -42.5t-103 42.5t-43 102.5zM143 694q0 60 43 103t103 43t102.5 -43t42.5 -103t-42.5 -102.5t-102.5 -42.5t-103 42.5t-43 102.5z" />
<glyph unicode=";" horiz-adv-x="600" d="M166 694q0 60 42.5 103t102.5 43t103 -43t43 -103t-43 -102.5t-103 -42.5t-102.5 42.5t-42.5 102.5zM414 154l-88 -416q-6 -35 -41 -35h-107q-13 0 -23 10.5t-8 24.5l37 416q3 34 39 34h162q13 0 22 -10t7 -24z" />
<glyph unicode="&#x3c;" horiz-adv-x="817" d="M666 580l-234 -168l234 -168q28 -19 28 -56v-172q0 -11 -9 -15.5t-19 1.5l-521 367q-22 16 -22 43q0 28 22 41l521 368q10 6 19 1.5t9 -15.5v-172q0 -36 -28 -55z" />
<glyph unicode="=" horiz-adv-x="999" d="M821 524h-643q-14 0 -24.5 11t-10.5 24v113q0 14 10.5 24.5t24.5 10.5h643q13 0 24 -10.5t11 -24.5v-113q0 -13 -11 -24t-24 -11zM821 113h-643q-14 0 -24.5 10.5t-10.5 23.5v113q0 14 10.5 24.5t24.5 10.5h643q13 0 24 -10.5t11 -24.5v-113q0 -13 -10.5 -23.5 t-24.5 -10.5z" />
<glyph unicode="&#x3e;" horiz-adv-x="817" d="M385 412l-233 168q-29 19 -29 55v172q0 11 9.5 15.5t19.5 -1.5l520 -368q22 -13 22 -41q0 -27 -22 -43l-520 -367q-10 -6 -19.5 -1.5t-9.5 15.5v172q0 37 29 56z" />
<glyph unicode="?" horiz-adv-x="1175" d="M385 127q0 60 42.5 102.5t102.5 42.5t103 -42.5t43 -102.5t-43 -102.5t-103 -42.5t-102.5 42.5t-42.5 102.5zM414 465v205q0 37 32 45q72 24 130 53.5t94.5 56.5t63 58.5t39 54.5t19.5 49.5t8 38.5t1 25q0 15 -4 34t-18 44.5t-35.5 46t-61 35t-90.5 14.5 q-109 0 -166 -56.5t-66 -134.5q-11 -33 -38 -30l-164 24q-40 4 -31 39q20 179 147 287t318 108q100 0 184 -26t146.5 -76t96.5 -130t32 -183q0 -36 -7.5 -76.5t-33.5 -99t-68 -109.5t-118.5 -103t-176.5 -86v-108q0 -13 -10.5 -24t-24.5 -11h-163q-13 0 -24 11t-11 24z" />
<glyph unicode="@" horiz-adv-x="2179" d="M893 -322l-66 -127q-14 -29 -49 -20q-143 50 -261.5 136.5t-207 206t-137.5 279t-49 343.5q0 296 127.5 522.5t346.5 346.5t493 120q203 0 380.5 -71t307 -198.5t204 -313.5t74.5 -406q0 -161 -51.5 -297t-150.5 -221.5t-226 -88.5q-146 -5 -242 79.5t-96 242.5 q-35 -46 -99 -73t-122 -27q-166 0 -270.5 107.5t-104.5 277.5q0 171 112.5 278t278.5 107q82 0 152.5 -25t125 -73.5t85.5 -125t31 -172.5v-258q0 -72 35.5 -110t95.5 -33q64 4 108.5 47t64.5 111.5t28 129t8 124.5q0 162 -47 299.5t-136.5 240.5t-229.5 161t-316 58 q-122 0 -227.5 -31t-183 -86.5t-138 -128t-98 -158t-57 -175t-21.5 -180.5q-4 -290 128.5 -487.5t383.5 -289.5q12 -5 17 -17t-1 -24zM1085 344q64 0 104.5 43.5t45.5 108.5q0 44 -15 76t-39.5 47t-47.5 21.5t-48 6.5q-57 0 -102 -39.5t-45 -111.5q0 -79 46 -115.5 t101 -36.5z" />
<glyph unicode="A" horiz-adv-x="1658" d="M96 33l582 1368q11 33 49 33h205q38 0 49 -33l582 -1368q4 -12 -2.5 -22.5t-18.5 -10.5h-207q-38 0 -49 33l-106 254h-701l-106 -254q-11 -33 -49 -33h-207q-12 0 -19.5 10.5t-1.5 22.5zM829 1118l-247 -586h493z" />
<glyph unicode="B" horiz-adv-x="1341" d="M807 0h-608q-13 0 -24 11t-11 24v1364q0 13 11 24t24 11h608q181 0 294.5 -107t117.5 -313q-1 -97 -37.5 -174.5t-98.5 -122.5q59 -46 97 -122.5t39 -174.5q-4 -206 -117.5 -313t-294.5 -107zM418 840h391q74 0 116 47.5t42 126.5q0 80 -44 127t-114 47h-391v-348z M815 594h-397v-348h391q70 0 114 47t44 127q0 76 -40.5 123t-111.5 51z" />
<glyph unicode="C" horiz-adv-x="1609" d="M1313 465l164 -80q12 -6 17 -19.5t-1 -25.5q-93 -182 -259 -275.5t-386 -93.5q-124 0 -233.5 30t-199.5 91.5t-155 149t-101 209t-36 266.5q0 180 55 323t153 234.5t229.5 139.5t287.5 48q220 0 385.5 -92t257.5 -274q7 -12 2.5 -25.5t-16.5 -21.5l-164 -80 q-12 -7 -25.5 -2.5t-19.5 16.5q-32 63 -81.5 110t-107 73t-115.5 38.5t-116 12.5q-66 0 -128 -14t-126 -50t-111 -90.5t-76.5 -143.5t-29.5 -202t29.5 -202t76.5 -143.5t111 -90.5t126 -50t128 -14q126 0 242.5 56t177.5 176q6 14 19.5 18.5t25.5 -2.5z" />
<glyph unicode="D" horiz-adv-x="1529" d="M199 1434h512q150 0 276 -46t220 -134t147 -225.5t53 -311.5t-53 -311.5t-147 -225.5t-220 -134t-276 -46h-512q-13 0 -24 11t-11 24v1364q0 13 11 24t24 11zM418 246h293q150 0 251 61.5t146 165t45 244.5t-45 244.5t-146 165t-251 61.5h-293v-942z" />
<glyph unicode="E" horiz-adv-x="1249" d="M418 840h536q14 0 24.5 -11t10.5 -24v-176q0 -13 -10.5 -24t-24.5 -11h-536v-348h674q13 0 23.5 -10.5t10.5 -24.5v-176q0 -14 -10.5 -24.5t-23.5 -10.5h-893q-13 0 -24 11t-11 24v1364q0 13 11 24t24 11h893q13 0 23.5 -10.5t10.5 -24.5v-176q0 -14 -10.5 -24.5 t-23.5 -10.5h-674v-348z" />
<glyph unicode="F" horiz-adv-x="1249" d="M418 840h536q14 0 24.5 -11t10.5 -24v-176q0 -13 -10.5 -24t-24.5 -11h-536v-559q0 -13 -11 -24t-24 -11h-184q-13 0 -24 11t-11 24v1364q0 13 11 24t24 11h893q13 0 23.5 -10.5t10.5 -24.5v-176q0 -14 -10.5 -24.5t-23.5 -10.5h-674v-348z" />
<glyph unicode="G" horiz-adv-x="1675" d="M758 762h780q14 0 24.5 -11t10.5 -24v-10q0 -145 -36 -266.5t-101 -209t-155 -149t-199.5 -91.5t-233.5 -30t-233.5 30t-199.5 91.5t-155 149t-101 209t-36 266.5q0 180 55 323t153 234.5t229.5 139.5t287.5 48q220 0 385.5 -92t257.5 -274q7 -12 2.5 -25.5t-16.5 -21.5 l-164 -80q-12 -7 -25.5 -2.5t-19.5 16.5q-32 63 -81.5 110t-107 73t-115.5 38.5t-116 12.5q-66 0 -128 -14t-126 -50t-111 -90.5t-76.5 -143.5t-29.5 -202t29.5 -202t76.5 -143.5t111 -90.5t126 -50t128 -14t129 15t124 48t110.5 93.5t76.5 142.5h-530q-14 0 -24.5 11 t-10.5 24v176q0 13 10.5 24t24.5 11z" />
<glyph unicode="H" horiz-adv-x="1542" d="M164 35v1364q0 13 11 24t24 11h184q13 0 24 -11t11 -24v-559h706v559q0 13 11 24t24 11h184q13 0 24 -11t11 -24v-1364q0 -13 -11 -24t-24 -11h-184q-13 0 -24 11t-11 24v559h-706v-559q0 -13 -11 -24t-24 -11h-184q-13 0 -24 11t-11 24z" />
<glyph unicode="I" horiz-adv-x="581" d="M418 1399v-1364q0 -13 -11 -24t-24 -11h-184q-13 0 -24 11t-11 24v1364q0 13 11 24t24 11h184q13 0 24 -11t11 -24z" />
<glyph unicode="J" horiz-adv-x="1275" d="M117 487l176 19q13 1 24 -8t13 -23q20 -260 270 -260q107 0 182.5 73.5t75.5 205.5v694h-399q-13 0 -24 11t-11 24v176q0 13 11 24t24 11h618q13 0 24 -11t11 -24v-903q0 -253 -142 -389t-370 -136q-213 0 -356 123.5t-160 354.5q-3 35 33 38z" />
<glyph unicode="K" horiz-adv-x="1429" d="M418 1399v-559h211l389 565q19 29 55 29h240q11 0 15.5 -9t-1.5 -20l-485 -690l485 -686q6 -11 1.5 -20t-15.5 -9h-242q-36 0 -55 29l-391 565h-207v-559q0 -13 -11 -24t-24 -11h-184q-13 0 -24 11t-11 24v1364q0 13 11 24t24 11h184q13 0 24 -11t11 -24z" />
<glyph unicode="L" horiz-adv-x="1105" d="M164 35v1364q0 13 11 24t24 11h184q13 0 24 -11t11 -24v-1182h571q13 0 24 -10.5t11 -24.5v-147q0 -13 -11 -24t-24 -11h-790q-13 0 -24 11t-11 24z" />
<glyph unicode="M" horiz-adv-x="1712" d="M1329 1434h184q13 0 24 -11t11 -24v-1364q0 -13 -11 -24t-24 -11h-184q-13 0 -24 11t-11 24v971l-413 -566q-9 -12 -27 -12t-27 12l-409 566v-971q0 -13 -11 -24t-24 -11h-184q-13 0 -24 11t-11 24v1364q0 13 11 24t24 11h184q36 0 55 -29l418 -569l418 569q19 29 55 29z " />
<glyph unicode="N" horiz-adv-x="1572" d="M199 1434h184q36 0 55 -29l717 -973v967q0 13 10.5 24t24.5 11h184q14 0 24.5 -11t10.5 -24v-1364q0 -13 -10.5 -24t-24.5 -11h-184q-36 0 -55 29l-717 970v-964q0 -13 -11 -24t-24 -11h-184q-13 0 -24 11t-11 24v1364q0 13 11 24t24 11z" />
<glyph unicode="O" horiz-adv-x="1695" d="M848 1462q156 0 287.5 -48t229.5 -139.5t153 -234.5t55 -323q0 -145 -36 -266.5t-101 -209t-155 -149t-199.5 -91.5t-233.5 -30t-233.5 30t-199.5 91.5t-155 149t-101 209t-36 266.5q0 180 55 323t153 234.5t229.5 139.5t287.5 48zM848 217q66 0 128 14t126 50t111 90.5 t76.5 143.5t29.5 202t-29.5 202t-76.5 143.5t-111 90.5t-126 50t-128 14t-128 -14t-126 -50t-111 -90.5t-76.5 -143.5t-29.5 -202t29.5 -202t76.5 -143.5t111 -90.5t126 -50t128 -14z" />
<glyph unicode="P" horiz-adv-x="1341" d="M199 1434h528q104 0 192.5 -32t156 -93t105.5 -158t38 -219t-38 -219t-105.5 -158t-156 -93t-192.5 -32h-309v-395q0 -13 -11 -24t-24 -11h-184q-13 0 -24 11t-11 24v1364q0 13 11 24t24 11zM418 1188v-512h280q136 0 203.5 69.5t67.5 186.5t-67.5 186.5t-203.5 69.5 h-280z" />
<glyph unicode="Q" horiz-adv-x="1695" d="M848 1462q156 0 287.5 -48t229.5 -139.5t153 -234.5t55 -323q0 -405 -260 -602l237 -287q10 -11 8.5 -25t-12.5 -22l-131 -103q-11 -8 -25 -6t-24 13l-274 319q-109 -33 -244 -33q-124 0 -233.5 30t-199.5 91.5t-155 149t-101 209t-36 266.5q0 180 55 323t153 234.5 t229.5 139.5t287.5 48zM848 217q66 0 128 14t126 50t111 90.5t76.5 143.5t29.5 202t-29.5 202t-76.5 143.5t-111 90.5t-126 50t-128 14t-128 -14t-126 -50t-111 -90.5t-76.5 -143.5t-29.5 -202t29.5 -202t76.5 -143.5t111 -90.5t126 -50t128 -14z" />
<glyph unicode="R" horiz-adv-x="1341" d="M199 1434h528q104 0 192.5 -32t156 -93t105.5 -158t38 -219q0 -189 -91 -312t-239 -161l309 -430q6 -11 1.5 -20t-15.5 -9h-228q-36 0 -55 29l-283 401h-200v-395q0 -13 -11 -24t-24 -11h-184q-13 0 -24 11t-11 24v1364q0 13 11 24t24 11zM418 1188v-512h280 q136 0 203.5 69.5t67.5 186.5t-67.5 186.5t-203.5 69.5h-280z" />
<glyph unicode="S" horiz-adv-x="1298" d="M156 375l157 43q12 4 24 -3.5t17 -21.5q56 -178 310 -178q65 0 115.5 18t79 46.5t42.5 59t14 60.5q1 50 -24.5 87t-69.5 60.5t-102 42t-122 35.5t-128 37t-122.5 51.5t-103.5 73t-71.5 107t-26.5 149.5q0 106 42 188.5t114.5 132t162.5 74.5t193 25q195 0 331 -85.5 t179 -256.5q9 -34 -24 -45l-158 -45q-31 -9 -45 23q-36 84 -102.5 125t-180.5 41q-71 0 -129 -17.5t-96.5 -58t-38.5 -99.5q0 -47 26.5 -81.5t71.5 -56t103 -39t122.5 -34.5t129 -37.5t122.5 -53.5t103 -76.5t71.5 -111.5t26.5 -155q0 -129 -68.5 -228t-182.5 -149.5 t-254 -50.5q-95 0 -182.5 22.5t-160 66t-123.5 113t-69 157.5q-6 36 27 45z" />
<glyph unicode="T" horiz-adv-x="1200" d="M117 1434h966q13 0 24 -11t11 -24v-178q0 -13 -11 -24t-24 -11h-356v-1151q0 -13 -10.5 -24t-24.5 -11h-184q-14 0 -24.5 11t-10.5 24v1151h-356q-13 0 -24 11t-11 24v178q0 13 11 24t24 11z" />
<glyph unicode="U" horiz-adv-x="1495" d="M1077 565v834q0 13 10.5 24t24.5 11h184q14 0 24.5 -11t10.5 -24v-834q0 -143 -45 -257t-124 -187t-184.5 -111.5t-229.5 -38.5t-230 38.5t-185 111.5t-124 187t-45 257v834q0 13 11 24t24 11h184q13 0 24 -11t11 -24v-834q0 -86 22.5 -151t55.5 -101.5t80 -59t87 -29.5 t85 -7q48 0 91 9t88 33.5t77 62t52.5 100.5t20.5 143z" />
<glyph unicode="V" horiz-adv-x="1658" d="M678 33l-582 1368q-6 12 1.5 22.5t19.5 10.5h207q38 0 49 -33l456 -1086l457 1086q11 33 49 33h207q12 0 18.5 -10.5t2.5 -22.5l-582 -1368q-11 -33 -49 -33h-205q-38 0 -49 33z" />
<glyph unicode="W" horiz-adv-x="2406" d="M2312 1401l-471 -1368q-9 -33 -45 -33h-199q-36 0 -47 33l-346 1020l-350 -1020q-9 -33 -45 -33h-199q-36 0 -47 33l-471 1368q-4 12 4.5 22.5t20.5 10.5h198q36 0 45 -33l351 -1020l346 1020q14 33 47 33h199q36 0 45 -33l350 -1020l346 1020q14 33 47 33h199 q12 0 19 -10.5t3 -22.5z" />
<glyph unicode="X" horiz-adv-x="1476" d="M1374 1405l-485 -690l485 -686q6 -11 1.5 -20t-15.5 -9h-242q-36 0 -55 29l-324 473l-325 -473q-19 -29 -56 -29h-241q-11 0 -16 9t1 20l488 686l-488 690q-6 11 -1 20t16 9h239q37 0 56 -29l327 -475l326 475q19 29 55 29h240q11 0 15.5 -9t-1.5 -20z" />
<glyph unicode="Y" horiz-adv-x="1536" d="M1436 1405l-541 -827v-543q0 -13 -10.5 -24t-24.5 -11h-184q-14 0 -24.5 11t-10.5 24v543l-541 827q-6 10 0 19.5t17 9.5h233q34 0 53 -29l365 -563l365 563q16 29 53 29h233q11 0 17 -9.5t0 -19.5z" />
<glyph unicode="Z" horiz-adv-x="1306" d="M123 35v176q0 33 22 61l729 916h-716q-14 0 -24.5 11t-10.5 24v176q0 13 10.5 24t24.5 11h991q13 0 24 -11t11 -24v-176q0 -32 -23 -62l-731 -915h719q13 0 24 -11t11 -24v-176q0 -13 -11 -24t-24 -11h-991q-14 0 -24.5 11t-10.5 24z" />
<glyph unicode="[" horiz-adv-x="608" d="M164 -375v2081q0 14 11 24.5t24 10.5h354q13 0 24 -10.5t11 -24.5v-176q0 -14 -11 -24.5t-24 -10.5h-135v-1659h135q13 0 24 -11t11 -24v-176q0 -13 -11 -24t-24 -11h-354q-13 0 -24 11t-11 24z" />
<glyph unicode="\" horiz-adv-x="901" d="M846 0h-170q-38 0 -47 33l-596 1470q-4 12 3 22.5t19 10.5h172q36 0 47 -33l594 -1470q4 -12 -3 -22.5t-19 -10.5z" />
<glyph unicode="]" horiz-adv-x="608" d="M444 1706v-2081q0 -14 -10.5 -24.5t-23.5 -10.5h-355q-13 0 -24 11t-11 24v176q0 13 11 24t24 11h135v1659h-135q-13 0 -24 10.5t-11 24.5v176q0 14 11 24.5t24 10.5h355q13 0 23.5 -10.5t10.5 -24.5z" />
<glyph unicode="^" horiz-adv-x="954" d="M528 1407l344 -504q6 -11 1.5 -20t-15.5 -9h-145q-37 0 -56 29l-180 252l-182 -252q-19 -29 -55 -29h-144q-11 0 -16 9t2 20l344 504q21 27 51 27t51 -27z" />
<glyph unicode="_" horiz-adv-x="886" d="M852 -180h-817q-13 0 -24 11t-11 24v110q0 13 11 24t24 11h817q14 0 24.5 -11t10.5 -24v-110q0 -13 -10.5 -24t-24.5 -11z" />
<glyph unicode="`" horiz-adv-x="485" d="M150 1413l307 -227q27 -21 8 -49l-62 -82q-22 -29 -49 -11l-325 201q-12 8 -15 21t6 26l80 113q21 27 50 8z" />
<glyph unicode="a" horiz-adv-x="1089" d="M537 844q189 0 309.5 -112.5t120.5 -317.5v-379q0 -13 -10.5 -24t-24.5 -11h-146q-13 0 -23.5 10.5t-10.5 24.5v90q-41 -72 -115 -112t-162 -40q-172 0 -272.5 120t-100.5 315q0 198 124.5 317t310.5 119zM530 197q75 0 140 56.5t65 154.5q0 105 -61 157.5t-137 52.5 q-77 0 -141 -53.5t-64 -154.5q0 -113 56.5 -163t141.5 -50z" />
<glyph unicode="b" horiz-adv-x="1110" d="M627 844q122 -5 210.5 -66t129.5 -154.5t41 -207.5q0 -198 -124.5 -319.5t-310.5 -121.5q-188 0 -309 116t-121 319v989q0 13 10.5 24t24.5 11h168q14 0 24.5 -11t10.5 -24v-647q85 92 246 92zM573 201q75 0 137 54t62 155q0 102 -59 155t-133 53q-35 0 -68.5 -10.5 t-63.5 -33.5t-48.5 -64.5t-18.5 -97.5q0 -109 58 -160t134 -51z" />
<glyph unicode="c" horiz-adv-x="1017" d="M532 203q111 0 166 76q18 27 50 18l149 -64q13 -4 18.5 -18t-0.5 -27q-53 -104 -152.5 -158.5t-230.5 -54.5q-189 0 -309.5 113.5t-120.5 321.5t120.5 321t309.5 113q137 0 239.5 -59t152.5 -173q6 -13 -0.5 -26.5t-20.5 -18.5l-155 -53q-13 -4 -27.5 2.5t-22.5 18.5 q-50 81 -166 81q-35 0 -67 -10.5t-61.5 -33t-47.5 -64.5t-18 -98t18 -98.5t47.5 -65t61.5 -33t67 -10.5z" />
<glyph unicode="d" horiz-adv-x="1069" d="M483 844q158 0 246 -92v647q0 13 10.5 24t24.5 11h168q14 0 24.5 -11t10.5 -24v-981q0 -202 -122 -322.5t-308 -120.5t-310.5 121.5t-124.5 319.5q0 114 41 207.5t129.5 154.5t210.5 66zM537 201q76 0 134 51t58 160q0 56 -18.5 97.5t-49 64.5t-63.5 33.5t-68 10.5 q-74 0 -133 -53t-59 -155q0 -101 61.5 -155t137.5 -54z" />
<glyph unicode="e" d="M963 410v-2q0 -35 -37 -35h-586q20 -176 192 -176q90 0 142 39q27 21 55 6l127 -76q13 -8 16.5 -22t-6.5 -25q-125 -144 -334 -144q-189 0 -309.5 113.5t-120.5 321.5t120.5 321t309.5 113q123 0 219 -47.5t154 -147.5t58 -239zM352 504h359q-23 58 -72.5 85t-106.5 27 q-58 0 -107.5 -27t-72.5 -85z" />
<glyph unicode="f" horiz-adv-x="854" d="M76 819h129v277q0 94 33 165.5t87.5 111t115 58.5t124.5 19q145 0 260 -70q28 -24 13 -51l-64 -119q-6 -12 -19.5 -15t-25.5 3q-56 33 -129 33q-24 0 -49.5 -7.5t-51 -24t-41.5 -47t-16 -71.5v-262h238q14 0 24.5 -10.5t10.5 -24.5v-159q0 -13 -10.5 -24t-24.5 -11h-238 v-555q0 -14 -10.5 -24.5t-23.5 -10.5h-168q-14 0 -24.5 11t-10.5 24v555h-129q-14 0 -24.5 11t-10.5 24v159q0 14 10.5 24.5t24.5 10.5z" />
<glyph unicode="g" horiz-adv-x="1138" d="M983 410q0 -237 -160 -355q135 -111 135 -284q0 -118 -55 -207.5t-146.5 -135.5t-203.5 -46q-108 0 -196.5 42.5t-143.5 128t-55 199.5q0 54 12 109q8 32 43 26l164 -24q13 -1 20 -13t2 -24q-8 -21 -8 -53q0 -74 40.5 -121t121.5 -47q77 0 127.5 53.5t50.5 132.5 q0 66 -35.5 115.5t-81.5 73.5q-58 -5 -61 -5q-189 0 -309.5 113.5t-120.5 321.5t120.5 321t309.5 113q118 0 197 -39l135 147q11 11 25.5 12.5t25.5 -8.5l94 -75q11 -11 12.5 -25t-8.5 -25l-127 -155q76 -116 76 -266zM553 203q35 0 67.5 10.5t62 33t47.5 65t18 98.5t-18 98 t-47.5 64.5t-62 33t-67.5 10.5t-67.5 -10.5t-62 -33t-47.5 -64.5t-18 -98t18 -98.5t47.5 -65t62 -33t67.5 -10.5z" />
<glyph unicode="h" horiz-adv-x="1077" d="M596 844q94 0 164.5 -31.5t112 -88t61.5 -129t20 -161.5v-399q0 -14 -10.5 -24.5t-23.5 -10.5h-168q-14 0 -24.5 11t-10.5 24v401q0 185 -168 185q-80 0 -124 -50.5t-44 -119.5v-416q0 -13 -10.5 -24t-24.5 -11h-168q-14 0 -24.5 11t-10.5 24v1364q0 13 10.5 24t24.5 11 h168q14 0 24.5 -11t10.5 -24v-647q35 47 100.5 69.5t114.5 22.5z" />
<glyph unicode="i" horiz-adv-x="532" d="M410 1171q0 -60 -42 -101.5t-102 -41.5t-101.5 41.5t-41.5 101.5t41.5 102t101.5 42t102 -42t42 -102zM385 784v-749q0 -13 -10.5 -24t-24.5 -11h-168q-14 0 -24.5 11t-10.5 24v749q0 14 10.5 24.5t24.5 10.5h168q14 0 24.5 -10.5t10.5 -24.5z" />
<glyph unicode="j" horiz-adv-x="532" d="M410 1171q0 -60 -42 -101.5t-102 -41.5t-101.5 41.5t-41.5 101.5t41.5 102t101.5 42t102 -42t42 -102zM147 -289v1073q0 14 10.5 24.5t24.5 10.5h168q14 0 24.5 -10.5t10.5 -24.5v-1091q0 -76 -31 -137t-81.5 -97t-108.5 -54.5t-117 -18.5q-72 0 -129 8q-34 6 -31 41 l13 123q2 14 14 23t25 5q46 -4 65 -4q143 0 143 129z" />
<glyph unicode="k" horiz-adv-x="1060" d="M979 791l-279 -381l279 -381q6 -11 1.5 -20t-15.5 -9h-220q-36 0 -55 29l-182 266h-127v-260q0 -13 -10.5 -24t-24.5 -11h-168q-14 0 -24.5 11t-10.5 24v1364q0 13 10.5 24t24.5 11h168q14 0 24.5 -11t10.5 -24v-875h127l182 267q19 28 55 28h220q11 0 15.5 -8.5 t-1.5 -19.5z" />
<glyph unicode="l" horiz-adv-x="524" d="M381 1399v-1364q0 -13 -10.5 -24t-24.5 -11h-168q-14 0 -24.5 11t-10.5 24v1364q0 13 10.5 24t24.5 11h168q14 0 24.5 -11t10.5 -24z" />
<glyph unicode="m" horiz-adv-x="1507" d="M1010 844q167 0 270.5 -90.5t103.5 -276.5v-442q0 -14 -10.5 -24.5t-23.5 -10.5h-168q-14 0 -24.5 11t-10.5 24v434q0 149 -137 149q-76 0 -107 -40.5t-31 -94.5v-448q0 -14 -10.5 -24.5t-23.5 -10.5h-168q-14 0 -24.5 11t-10.5 24v448q0 33 -10 61t-42.5 51t-84.5 23 q-138 0 -138 -149v-434q0 -14 -10.5 -24.5t-23.5 -10.5h-168q-14 0 -24.5 11t-10.5 24v442q0 95 29 167t80.5 115t118 64t147.5 21q76 0 146 -35.5t110 -99.5q40 64 109.5 99.5t146.5 35.5z" />
<glyph unicode="n" horiz-adv-x="1056" d="M528 844q178 0 292 -106.5t114 -303.5v-399q0 -13 -11 -24t-24 -11h-168q-13 0 -24 11t-11 24v399q0 82 -42 132t-126 50q-86 0 -127 -49.5t-41 -132.5v-399q0 -14 -10.5 -24.5t-23.5 -10.5h-168q-14 0 -24.5 11t-10.5 24v399q0 197 113.5 303.5t291.5 106.5z" />
<glyph unicode="o" d="M532 844q123 0 219 -47.5t154 -147.5t58 -239q0 -208 -121 -321.5t-310 -113.5t-309.5 113.5t-120.5 321.5t120.5 321t309.5 113zM532 203q35 0 67.5 10.5t62 33t47.5 65t18 98.5t-18 98t-47.5 64.5t-62 33t-67.5 10.5t-67 -10.5t-61.5 -33t-47.5 -64.5t-18 -98t18 -98.5 t47.5 -65t61.5 -33t67 -10.5z" />
<glyph unicode="p" horiz-adv-x="1110" d="M573 844q186 0 310.5 -121.5t124.5 -319.5q0 -84 -24.5 -159t-70.5 -134.5t-120 -96t-166 -38.5q-160 0 -246 93v-648q0 -13 -10.5 -23.5t-24.5 -10.5h-168q-14 0 -24.5 10.5t-10.5 23.5v990q0 203 121 318.5t309 115.5zM580 201q74 0 133 53.5t59 155.5q0 101 -62 154.5 t-137 53.5q-35 0 -67 -11t-61 -33.5t-46.5 -65.5t-17.5 -100q0 -56 18.5 -98t48.5 -64.5t63.5 -33.5t68.5 -11z" />
<glyph unicode="q" horiz-adv-x="1110" d="M537 844q188 0 309 -115.5t121 -318.5v-990q0 -13 -10.5 -23.5t-24.5 -10.5h-168q-14 0 -24.5 10.5t-10.5 23.5v648q-88 -93 -246 -93q-92 2 -166 38.5t-120 96t-70.5 134.5t-24.5 159q0 198 124.5 319.5t310.5 121.5zM530 201q77 0 138 50.5t61 156.5q0 57 -17.5 100 t-46.5 65.5t-61 33.5t-67 11q-76 0 -137.5 -53.5t-61.5 -154.5q0 -102 59 -155.5t133 -53.5z" />
<glyph unicode="r" horiz-adv-x="745" d="M698 776l-26 -129q-9 -33 -41 -29q-64 11 -99 11q-74 0 -123 -42.5t-49 -129.5v-422q0 -14 -10.5 -24.5t-23.5 -10.5h-168q-14 0 -24.5 11t-10.5 24v452q0 100 33.5 173t90.5 111t123 54.5t142 14.5q91 -4 158 -21q34 -9 28 -43z" />
<glyph unicode="s" horiz-adv-x="956" d="M530 494q300 -37 293 -252q0 -65 -31 -117.5t-81.5 -84t-110.5 -48.5t-123 -17q-286 0 -346 207q-9 34 25 45l123 39q28 9 47 -22q22 -31 62 -47.5t83 -16.5q55 0 85.5 18t35.5 42q5 34 -21.5 47t-89.5 24q-13 3 -20 4q-139 23 -198 50q-132 61 -132 206q0 60 20 107 t53 77t79 50t93 28.5t101 10.5q108 5 205 -46t139 -155q6 -13 0 -26.5t-20 -18.5l-123 -49q-29 -10 -47 18q-46 66 -148 66q-57 0 -90 -17.5t-33 -42.5q0 -16 7 -27.5t16 -18.5t28 -12.5t33 -7.5l42 -6t44 -7z" />
<glyph unicode="t" horiz-adv-x="851" d="M545 590v-555q0 -13 -10.5 -24t-24.5 -11h-168q-14 0 -24.5 11t-10.5 24v555h-211q-14 0 -24.5 11t-10.5 24v159q0 14 10.5 24.5t24.5 10.5h211v314q0 13 10.5 23.5t24.5 10.5h168q14 0 24.5 -10.5t10.5 -23.5v-314h211q14 0 24.5 -10.5t10.5 -24.5v-159q0 -13 -10.5 -24 t-24.5 -11h-211z" />
<glyph unicode="u" horiz-adv-x="1056" d="M528 -25q-178 0 -291.5 106.5t-113.5 303.5v399q0 14 10.5 24.5t24.5 10.5h168q13 0 23.5 -10.5t10.5 -24.5v-399q0 -83 41 -132.5t127 -49.5q84 0 126 50t42 132v399q0 14 11 24.5t24 10.5h168q13 0 24 -10.5t11 -24.5v-399q0 -197 -114 -303.5t-292 -106.5z" />
<glyph unicode="v" horiz-adv-x="1077" d="M1001 786l-319 -753q-11 -33 -49 -33h-189q-38 0 -49 33l-319 753q-6 12 1 22.5t19 10.5h189q38 0 49 -33l205 -491l204 491q11 33 50 33h188q12 0 18.5 -10.5t1.5 -22.5z" />
<glyph unicode="w" horiz-adv-x="1501" d="M1427 786l-258 -753q-9 -33 -45 -33h-184q-36 0 -45 33l-143 426l-146 -426q-9 -33 -45 -33h-184q-36 0 -47 33l-258 753q-4 12 4 22.5t20 10.5h183q36 0 45 -33l145 -428l145 428q9 33 45 33h183q36 0 45 -33l145 -428l146 428q9 33 45 33h182q12 0 19 -10.5t3 -22.5z " />
<glyph unicode="x" horiz-adv-x="985" d="M903 791l-272 -381l272 -381q6 -11 1.5 -20t-15.5 -9h-219q-37 0 -56 29l-120 182l-123 -182q-19 -29 -56 -29h-219q-11 0 -15.5 9t1.5 20l272 381l-272 381q-6 11 -1.5 19.5t15.5 8.5h219q38 0 54 -28l125 -185l122 185q16 28 54 28h219q11 0 15.5 -8.5t-1.5 -19.5z" />
<glyph unicode="y" horiz-adv-x="1112" d="M1036 786l-602 -1355q-15 -27 -47 -19l-156 58q-13 4 -18.5 18t0.5 27l213 485l-350 786q-5 12 1.5 22.5t18.5 10.5h191q38 0 49 -33l221 -497l219 497q11 33 49 33h191q12 0 18.5 -10.5t1.5 -22.5z" />
<glyph unicode="z" horiz-adv-x="837" d="M127 254l317 336h-307q-13 0 -24 11t-11 24v159q0 14 11 24.5t24 10.5h563q14 0 24.5 -10.5t10.5 -24.5v-159q0 -36 -24 -60l-316 -336h305q14 0 24.5 -10.5t10.5 -23.5v-160q0 -13 -10.5 -24t-24.5 -11h-563q-13 0 -24 11t-11 24v160q0 34 25 59z" />
<glyph unicode="{" horiz-adv-x="718" d="M561 -193l78 5q13 4 25 -5.5t14 -23.5l16 -148q3 -35 -30 -41q-102 -12 -150 -12q-130 0 -220.5 89.5t-90.5 226.5q0 87 34.5 262.5t34.5 265.5q0 63 -29.5 99t-72.5 36h-74q-14 0 -24.5 10.5t-10.5 24.5v139q0 13 10.5 24t24.5 11h74q43 0 72.5 36t29.5 99 q0 91 -34.5 266t-34.5 263q0 137 90.5 226t220.5 89q48 0 150 -12q33 -6 30 -41l-16 -148q-1 -13 -13 -22.5t-26 -7.5q-31 6 -78 6q-50 0 -81 -30.5t-31 -88.5q0 -94 38.5 -268.5t38.5 -262.5q0 -79 -28 -127.5t-80 -80.5q52 -32 80 -81t28 -128q0 -88 -38.5 -262.5 t-38.5 -268.5q0 -58 31 -88.5t81 -30.5z" />
<glyph unicode="|" horiz-adv-x="485" d="M342 1522v-1686q0 -14 -11 -24.5t-24 -10.5h-129q-14 0 -24.5 10.5t-10.5 24.5v1686q0 13 10.5 23.5t24.5 10.5h129q14 0 24.5 -10.5t10.5 -23.5z" />
<glyph unicode="}" horiz-adv-x="718" d="M549 770h74q13 0 23.5 -10.5t10.5 -24.5v-139q0 -14 -10.5 -24.5t-23.5 -10.5h-74q-44 0 -73.5 -36t-29.5 -99q0 -90 35 -265t35 -263q0 -137 -90.5 -226.5t-220.5 -89.5q-48 0 -150 12q-33 6 -30 41l16 148q2 14 14 23.5t25 5.5q77 -5 78 -5q50 0 81 30.5t31 88.5 q0 94 -38.5 268.5t-38.5 262.5q0 79 28 128t80 81q-52 32 -80 80.5t-28 127.5q0 88 38.5 262.5t38.5 268.5q0 58 -31 88.5t-81 30.5q-32 0 -78 -6q-14 -2 -26 7.5t-13 22.5l-16 148q-3 35 30 41q102 12 150 12q130 0 220.5 -89t90.5 -226q0 -87 -35 -262.5t-35 -266.5 q0 -63 29.5 -99t73.5 -36z" />
<glyph unicode="~" horiz-adv-x="1175" d="M586 268l-119 82q-103 73 -186 -43q-23 -30 -35 -57q-6 -12 -19.5 -16t-25.5 2l-109 61q-13 6 -17.5 20.5t1.5 26.5q6 11 21 36.5t25.5 43t20.5 31.5q47 68 115.5 110t156 47t175.5 -57l119 -82q103 -73 186 43q23 30 35 57q6 12 19.5 16.5t25.5 -1.5l108 -62 q12 -6 17.5 -20.5t-0.5 -26.5q-53 -89 -68 -110q-34 -48 -82 -85.5t-106.5 -59t-126.5 -11.5t-131 55z" />
<glyph unicode="&#xa1;" horiz-adv-x="577" d="M143 686q0 60 43 102.5t103 42.5t102.5 -42.5t42.5 -102.5t-42.5 -102.5t-102.5 -42.5t-103 42.5t-43 102.5zM385 297l27 -885q1 -13 -9 -24t-24 -11h-178q-13 0 -24 10.5t-11 24.5l24 885q2 15 11.5 25t25.5 10h123q14 0 24.5 -11t10.5 -24z" />
<glyph unicode="&#xa2;" horiz-adv-x="1058" d="M768 602l150 -63q13 -4 18.5 -18t-0.5 -27q-80 -171 -301 -209v-250q0 -13 -10.5 -24t-24.5 -11h-115q-13 0 -23.5 10.5t-10.5 24.5v256q-150 31 -239 138t-89 286q0 178 89.5 285.5t238.5 138.5v260q0 14 10.5 24.5t23.5 10.5h115q14 0 24.5 -11t10.5 -24v-256 q227 -38 309 -225q6 -13 0 -27t-20 -19l-156 -53q-13 -4 -27 2.5t-22 18.5q-51 82 -166 82q-35 0 -67.5 -10.5t-62 -33t-47.5 -65t-18 -98.5t18 -98.5t47.5 -65t62 -33t67.5 -10.5q111 0 166 76q18 27 49 18z" />
<glyph unicode="&#xa3;" horiz-adv-x="1095" d="M164 819h129v277q0 94 33 165.5t87.5 111t115 58.5t124.5 19q145 0 260 -70q28 -24 13 -51l-64 -119q-6 -12 -19.5 -15t-25.5 3q-56 33 -129 33q-24 0 -49.5 -7.5t-51 -24t-41.5 -47t-16 -71.5v-262h238q14 0 24.5 -10.5t10.5 -24.5v-159q0 -13 -10.5 -24t-24.5 -11h-238 v-344h469q13 0 24 -11t11 -24v-176q0 -13 -11 -24t-24 -11h-882q-13 0 -24 11t-11 24v176q0 13 11 24t24 11h176v344h-129q-14 0 -24.5 11t-10.5 24v159q0 14 10.5 24.5t24.5 10.5z" />
<glyph unicode="&#xa4;" horiz-adv-x="1021" d="M848 410q0 -112 -47 -189l94 -92q25 -25 0 -49l-53 -53q-24 -25 -49 0l-95 92q-74 -45 -184 -45q-107 0 -190 47l-95 -94q-25 -25 -49 0l-53 53q-25 24 0 49l96 96q-43 78 -43 185q0 110 45 184l-98 98q-25 24 0 49l53 54q24 25 49 0l97 -99q79 49 188 49q104 0 184 -45 l95 95q25 25 49 0l53 -54q25 -25 0 -49l-94 -94q47 -77 47 -188zM635 410q0 66 -36 95.5t-85 29.5q-48 0 -84.5 -31.5t-36.5 -93.5q0 -66 36 -95.5t85 -29.5q48 0 84.5 31.5t36.5 93.5z" />
<glyph unicode="&#xa5;" horiz-adv-x="1536" d="M1090 152h-195v-117q0 -13 -10.5 -24t-24.5 -11h-184q-14 0 -24.5 11t-10.5 24v117h-195q-14 0 -24 10t-10 24v113q0 14 10.5 24.5t23.5 10.5h195v162h-195q-14 0 -24 10t-10 24v113q0 14 10.5 24.5t23.5 10.5h129l-475 727q-6 10 0 19.5t17 9.5h233q34 0 53 -29 l365 -563l365 563q16 29 53 29h233q11 0 17 -9.5t0 -19.5l-475 -727h129q13 0 23.5 -10.5t10.5 -24.5v-113q0 -14 -10 -24t-24 -10h-195v-162h195q13 0 23.5 -10.5t10.5 -24.5v-113q0 -14 -10 -24t-24 -10z" />
<glyph unicode="&#xa6;" horiz-adv-x="485" d="M342 479v-643q0 -14 -11 -24.5t-24 -10.5h-129q-14 0 -24.5 10.5t-10.5 24.5v643q0 13 10.5 24t24.5 11h129q13 0 24 -11t11 -24zM178 1556h129q14 0 24.5 -10.5t10.5 -23.5v-643q0 -13 -11 -24t-24 -11h-129q-14 0 -24.5 11t-10.5 24v643q0 13 10.5 23.5t24.5 10.5z" />
<glyph unicode="&#xa7;" horiz-adv-x="1298" d="M1169 678q0 -152 -88 -256q88 -94 88 -250q0 -129 -68.5 -228t-182.5 -149.5t-254 -50.5q-129 0 -239 38t-191 120.5t-105 199.5q-6 36 27 45l157 43q12 4 24 -3t17 -21q56 -178 310 -178q65 0 115.5 18t79 46.5t42.5 59t14 60.5q2 50 -23.5 88t-69.5 61.5t-102 42 t-122 36t-128.5 37.5t-123 51t-103.5 72.5t-71.5 106.5t-26.5 148q0 152 93 260q-93 96 -93 246q0 106 42 188.5t114.5 132t162.5 74.5t193 25q195 0 331 -85.5t179 -256.5q9 -34 -24 -45l-158 -45q-31 -9 -45 22q-36 84 -102.5 125t-180.5 41q-71 0 -128.5 -17t-96.5 -57.5 t-39 -99.5q0 -48 26.5 -84t71.5 -58.5t103 -40.5t122.5 -35t129 -37.5t122.5 -52.5t103 -74.5t71.5 -109.5t26.5 -153zM915 678q1 43 -17.5 77t-47.5 55.5t-78 41t-91.5 31t-107 29.5t-106.5 32q-74 -53 -74 -127q0 -35 14 -63.5t41 -49t59 -36.5t77 -30t85.5 -25 t93.5 -26.5t93 -29.5q59 56 59 121z" />
<glyph unicode="&#xa8;" horiz-adv-x="724" d="M287 1171q0 -60 -42 -101.5t-102 -41.5t-101.5 41.5t-41.5 101.5t41.5 102t101.5 42t102 -42t42 -102zM725 1171q0 -60 -41.5 -101.5t-101.5 -41.5t-102 41.5t-42 101.5t42 102t102 42t101.5 -42t41.5 -102z" />
<glyph unicode="&#xa9;" horiz-adv-x="1427" d="M82 831q0 130 49.5 247t134 201.5t201.5 134.5t246 50q130 0 247 -50t201.5 -134.5t134.5 -201.5t50 -247q0 -129 -50 -245.5t-134.5 -201t-201.5 -134t-247 -49.5q-172 0 -317.5 84t-229.5 229t-84 317zM227 831q0 -133 64.5 -244.5t176.5 -176t245 -64.5t245 64.5 t177 176t65 244.5t-65 245.5t-177 177.5t-245 65q-99 0 -189.5 -38.5t-155 -104t-103 -155.5t-38.5 -190zM942 748l88 -19q13 -1 21.5 -14t3.5 -25q-40 -116 -131 -175.5t-213 -59.5q-162 0 -263.5 97t-101.5 277t101.5 277.5t263.5 97.5q121 0 212.5 -60t131.5 -175 q9 -33 -23 -41l-88 -25q-30 -6 -45 25q-26 56 -75.5 87.5t-112.5 31.5q-99 0 -153 -57.5t-54 -160.5q0 -100 54.5 -158.5t152.5 -58.5q62 0 110 28.5t74 82.5q15 31 47 25z" />
<glyph unicode="&#xaa;" horiz-adv-x="624" d="M166 1260l-64 22q-14 5 -18.5 18t2.5 25q34 55 95.5 85t131.5 30q110 0 180 -61.5t70 -178.5v-115q0 -113 -70.5 -174t-179.5 -61q-112 0 -182 47.5t-70 146.5q0 100 69.5 145t182.5 40q16 0 29.5 -2.5t37 -9t26.5 -7.5q-5 42 -25.5 66t-67.5 24q-59 0 -92 -26 q-27 -27 -55 -14zM406 1044q0 19 -22 36.5t-71 17.5q-24 0 -41.5 -5t-26.5 -11.5t-14.5 -15t-6.5 -13.5t-1 -9q0 -8 2.5 -15.5t10.5 -18.5t28 -18t49 -7t49 7t28.5 18t12 19.5t3.5 14.5z" />
<glyph unicode="&#xab;" horiz-adv-x="1396" d="M696 694l-250 -280l250 -281q10 -11 9.5 -25.5t-11.5 -25.5l-88 -88q-24 -24 -49 0l-410 395q-25 25 0 49l410 396q25 24 49 0l88 -89q11 -11 11.5 -25.5t-9.5 -25.5zM1251 694l-250 -280l250 -281q10 -11 9.5 -25.5t-11.5 -25.5l-88 -88q-25 -24 -49 0l-410 395 q-24 25 0 49l410 396q24 24 49 0l88 -89q11 -11 11.5 -25.5t-9.5 -25.5z" />
<glyph unicode="&#xac;" horiz-adv-x="1056" d="M700 68v237h-522q-14 0 -24.5 10.5t-10.5 24.5v137q0 13 10.5 24t24.5 11h701q13 0 23.5 -10.5t10.5 -24.5v-409q0 -14 -10.5 -24.5t-23.5 -10.5h-144q-13 0 -24 10.5t-11 24.5z" />
<glyph unicode="&#xad;" horiz-adv-x="956" d="M778 317h-600q-14 0 -24.5 10.5t-10.5 24.5v113q0 13 10.5 24t24.5 11h600q14 0 24.5 -11t10.5 -24v-113q0 -14 -10.5 -24.5t-24.5 -10.5z" />
<glyph unicode="&#xae;" horiz-adv-x="1427" d="M82 831q0 130 49.5 247t134 201.5t201.5 134.5t246 50q130 0 247 -50t201.5 -134.5t134.5 -201.5t50 -247q0 -129 -50 -245.5t-134.5 -201t-201.5 -134t-247 -49.5q-172 0 -317.5 84t-229.5 229t-84 317zM227 831q0 -133 64.5 -244.5t176.5 -176t245 -64.5t245 64.5 t177 176t65 244.5t-65 245.5t-177 177.5t-245 65q-99 0 -189.5 -38.5t-155 -104t-103 -155.5t-38.5 -190zM485 539v591q0 14 10.5 24.5t24.5 10.5h221q106 0 173 -62t67 -181q0 -149 -111 -213l125 -177q6 -10 1.5 -19t-15.5 -9h-129q-37 0 -53 28l-99 148h-55v-141 q0 -13 -10.5 -24t-24.5 -11h-90q-14 0 -24.5 11t-10.5 24zM645 838h96q76 0 76 84q0 82 -76 82h-96v-166z" />
<glyph unicode="&#xaf;" horiz-adv-x="624" d="M0 1065v119q0 14 11 24.5t24 10.5h555q14 0 24.5 -10.5t10.5 -24.5v-119q0 -13 -10.5 -24t-24.5 -11h-555q-13 0 -24 11t-11 24z" />
<glyph unicode="&#xb0;" horiz-adv-x="727" d="M82 1169q0 117 81.5 200t198.5 83t200 -83t83 -200t-83 -198.5t-200 -81.5t-198.5 81.5t-81.5 198.5zM219 1169q0 -61 40.5 -102t102.5 -41t104 41t42 102t-42 103.5t-104 42.5q-61 0 -102 -42t-41 -104z" />
<glyph unicode="&#xb1;" horiz-adv-x="999" d="M803 0h-606q-13 0 -24 11t-11 24v98q0 13 11 24t24 11h606q13 0 24 -11t11 -24v-98q0 -13 -11 -24t-24 -11zM821 449h-229v-132q0 -13 -10.5 -23.5t-24.5 -10.5h-113q-14 0 -24 10.5t-10 23.5v132h-232q-14 0 -24.5 10.5t-10.5 23.5v113q0 14 10.5 24.5t24.5 10.5h232 v188q0 14 10.5 24.5t23.5 10.5h113q13 0 24 -11t11 -24v-188h229q13 0 24 -10.5t11 -24.5v-113q0 -13 -10.5 -23.5t-24.5 -10.5z" />
<glyph unicode="&#xb2;" horiz-adv-x="663" d="M547 928h-412q-13 0 -24 11t-11 24v79q0 35 25 60l227 219q64 64 64 115q0 27 -19 50t-61 23q-76 0 -94 -73q-5 -14 -15.5 -23t-23.5 -8l-86 10q-17 1 -26.5 13t-4.5 26q17 101 83.5 155t166.5 54q108 0 172.5 -56t64.5 -163q0 -52 -23.5 -107.5t-94.5 -128.5l-125 -123 h217q14 0 24.5 -10.5t10.5 -23.5v-88q0 -13 -11 -24t-24 -11z" />
<glyph unicode="&#xb3;" horiz-adv-x="690" d="M287 1286v57q0 13 10.5 24t24.5 11h24q37 1 53.5 24t16.5 52q0 20 -17.5 35.5t-52.5 15.5q-52 0 -72 -39q-17 -33 -45 -26l-77 10q-35 6 -29 41q18 83 79 127.5t144 44.5q97 0 161.5 -53.5t65.5 -153.5q0 -83 -63 -133q96 -63 98 -172q-1 -114 -75 -177t-187 -63 q-95 0 -166.5 55t-91.5 148q-6 35 29 41l78 16q29 3 43 -28q13 -34 41 -57t67 -23q50 0 76.5 26.5t28.5 61.5q2 43 -25.5 71t-79.5 29h-24q-14 0 -24.5 10.5t-10.5 24.5z" />
<glyph unicode="&#xb4;" horiz-adv-x="485" d="M29 1186l307 227q28 19 49 -8l80 -113q7 -12 5 -25.5t-13 -21.5l-326 -201q-27 -18 -49 11l-62 82q-20 23 9 49z" />
<glyph unicode="&#xb5;" horiz-adv-x="1077" d="M717 -31v92q-22 -39 -70.5 -60t-97.5 -21q-120 0 -168 77v-635q0 -13 -10.5 -23.5t-24.5 -10.5h-168q-14 0 -24.5 10.5t-10.5 23.5v1362q0 14 10.5 24.5t24.5 10.5h168q14 0 24.5 -10.5t10.5 -24.5v-399q0 -83 41 -132.5t127 -49.5q84 0 126 50t42 132v399 q0 14 10.5 24.5t24.5 10.5h168q13 0 23.5 -10.5t10.5 -24.5q0 -185 -1 -364.5t-1 -450.5q0 -14 -10.5 -24.5t-23.5 -10.5h-166q-14 0 -24.5 11t-10.5 24z" />
<glyph unicode="&#xb6;" horiz-adv-x="1368" d="M815 0h-180q-13 0 -24 11t-11 24v633q-52 -15 -115 -15q-169 0 -276 103t-107 288q0 184 107.5 287t275.5 103h330q13 0 24 -11t11 -24v-1364q0 -13 -11 -24t-24 -11zM1204 1399v-1364q0 -13 -11 -24t-24 -11h-131q-13 0 -23.5 10.5t-10.5 24.5v1364q0 14 10.5 24.5 t23.5 10.5h131q13 0 24 -11t11 -24z" />
<glyph unicode="&#xb7;" horiz-adv-x="581" d="M143 410q0 63 42.5 105t105.5 42q61 0 104 -42.5t43 -104.5q0 -59 -44.5 -103.5t-102.5 -44.5q-62 0 -105 43.5t-43 104.5z" />
<glyph unicode="&#xb8;" horiz-adv-x="477" d="M27 -342l57 45q10 8 24.5 6t24.5 -12q49 -49 100 -49q45 0 62.5 23t17.5 50q0 31 -21 48.5t-52 17.5q-15 0 -19 -2q-35 0 -49 10q-22 13 -22 41v215h116v-127q95 0 153 -58t58 -147q0 -99 -71 -159t-166 -60q-64 0 -121.5 28t-98.5 81q-20 22 7 49z" />
<glyph unicode="&#xb9;" horiz-adv-x="487" d="M406 1624v-653q0 -13 -11 -24t-24 -11h-92q-13 0 -24 11t-11 24v473l-72 -49q-12 -7 -26.5 -5t-22.5 13l-41 51q-10 12 -8 26t14 25l143 131q30 23 62 23h78q13 0 24 -10.5t11 -24.5z" />
<glyph unicode="&#xba;" horiz-adv-x="772" d="M690 1143q0 -148 -84 -227.5t-219 -79.5t-220 80t-85 227t85 227t220 80t219 -79.5t84 -227.5zM498 1145q0 59 -35 85.5t-76 26.5t-76 -27t-35 -87q0 -61 35 -89t76 -28q40 0 75.5 29t35.5 90zM111 537v112q0 14 10.5 24.5t23.5 10.5h482q13 0 24 -11t11 -24v-112 q0 -13 -11 -24t-24 -11h-482q-13 0 -23.5 10.5t-10.5 24.5z" />
<glyph unicode="&#xbb;" horiz-adv-x="1396" d="M395 414l-250 280q-10 11 -9.5 25.5t11.5 25.5l89 89q24 24 49 0l409 -396q21 -24 0 -49l-409 -395q-25 -24 -49 0l-89 88q-11 11 -11.5 25.5t9.5 25.5zM950 414l-250 280q-10 11 -9.5 25.5t11.5 25.5l89 89q25 24 49 0l409 -396q21 -24 0 -49l-409 -395q-24 -24 -49 0 l-89 88q-11 11 -11.5 25.5t9.5 25.5z" />
<glyph unicode="&#xbc;" horiz-adv-x="1404" d="M457 0h-123q-12 0 -19.5 10.5t-3.5 22.5l553 1368q9 33 47 33h125q12 0 19.5 -10.5t3.5 -22.5l-555 -1368q-11 -33 -47 -33zM406 1399v-654q0 -13 -10.5 -23.5t-24.5 -10.5h-92q-14 0 -24.5 10.5t-10.5 23.5v474l-72 -50q-12 -7 -26.5 -4.5t-22.5 13.5l-41 51 q-10 12 -8 26t14 25l143 131q30 23 62 23h78q13 0 24 -11t11 -24zM815 303l193 391q16 31 51 31h106q12 0 18.5 -10.5t0.5 -20.5l-199 -407h92v73q0 14 10.5 24.5t24.5 10.5h88q14 0 24.5 -10.5t10.5 -24.5v-73h53q14 0 24.5 -10.5t10.5 -24.5v-90q0 -14 -10.5 -24.5 t-24.5 -10.5h-53v-92q0 -13 -10.5 -24t-24.5 -11h-88q-14 0 -24.5 11t-10.5 24v92h-241q-14 0 -24.5 10.5t-10.5 24.5v76q0 25 14 65z" />
<glyph unicode="&#xbd;" horiz-adv-x="1458" d="M492 0h-193l578 1434h194zM406 1434v-723h-162v508l-101 -68l-82 106l197 177h148zM1376 0h-481v150l252 243q63 63 63 115q0 27 -19 50.5t-61 23.5q-47 0 -71.5 -28.5t-26.5 -80.5l-155 19q7 116 76.5 179.5t176.5 63.5q108 0 173 -56t65 -163q0 -51 -23.5 -106 t-95.5 -129l-125 -123h252v-158z" />
<glyph unicode="&#xbe;" horiz-adv-x="1544" d="M631 0h-193l578 1434h194zM940 272l223 453h176l-215 -438h93v108h157v-108h88v-160h-88v-127h-157v127h-277v145zM287 1036v127h59q37 1 53.5 24t16.5 52q0 20 -17.5 35.5t-52.5 15.5q-70 0 -82 -71l-147 22q10 100 73.5 153.5t155.5 53.5q97 0 161.5 -53.5t65.5 -153.5 q0 -83 -63 -133q96 -63 98 -172q-1 -114 -75 -177t-187 -63q-105 0 -178.5 65t-85.5 173l147 29q5 -45 37 -80t80 -35q50 0 76.5 26.5t28.5 61.5q2 43 -25.5 71t-79.5 29h-59z" />
<glyph unicode="&#xbf;" horiz-adv-x="1175" d="M791 717q0 -60 -43 -103t-103 -43t-102.5 43t-42.5 103t42.5 102.5t102.5 42.5t103 -42.5t43 -102.5zM762 379v-205q0 -36 -33 -45q-100 -32 -172 -76t-106 -80.5t-53 -79.5t-21 -61t-2 -39q0 -15 4 -34t18 -44.5t35.5 -46t61 -35t90.5 -14.5q57 0 100.5 16.5t69.5 45.5 t40 60.5t21 68.5q11 33 39 30l164 -24q17 -1 26.5 -13t4.5 -26q-20 -179 -147 -287t-318 -108q-210 0 -336.5 106t-122.5 309q0 37 7.5 77.5t33.5 97.5t67.5 107.5t118 102.5t176.5 88v109q0 13 11 24t24 11h164q13 0 24 -11t11 -24z" />
<glyph unicode="&#xc0;" horiz-adv-x="1658" d="M96 33l582 1368q11 33 49 33h205q38 0 49 -33l582 -1368q4 -12 -2.5 -22.5t-18.5 -10.5h-207q-38 0 -49 33l-106 254h-701l-106 -254q-11 -33 -49 -33h-207q-12 0 -19.5 10.5t-1.5 22.5zM829 1118l-247 -586h493zM735 2028l307 -228q27 -21 9 -49l-62 -82 q-22 -28 -49 -10l-326 201q-11 8 -14.5 21t6.5 26l80 112q21 27 49 9z" />
<glyph unicode="&#xc1;" horiz-adv-x="1658" d="M96 33l582 1368q11 33 49 33h205q38 0 49 -33l582 -1368q4 -12 -2.5 -22.5t-18.5 -10.5h-207q-38 0 -49 33l-106 254h-701l-106 -254q-11 -33 -49 -33h-207q-12 0 -19.5 10.5t-1.5 22.5zM829 1118l-247 -586h493zM614 1800l308 228q28 18 49 -9l80 -112q7 -12 4.5 -25.5 t-13.5 -21.5l-325 -201q-27 -18 -49 10l-62 82q-21 24 8 49z" />
<glyph unicode="&#xc2;" horiz-adv-x="1658" d="M96 33l582 1368q11 33 49 33h205q38 0 49 -33l582 -1368q4 -12 -2.5 -22.5t-18.5 -10.5h-207q-38 0 -49 33l-106 254h-701l-106 -254q-11 -33 -49 -33h-207q-12 0 -19.5 10.5t-1.5 22.5zM829 1118l-247 -586h493zM522 1800l279 205q29 22 57 0l279 -205q27 -21 8 -49 l-62 -82q-20 -26 -51 -10l-203 125l-204 -125q-28 -19 -50 10l-61 82q-21 24 8 49z" />
<glyph unicode="&#xc3;" horiz-adv-x="1658" d="M96 33l582 1368q11 33 49 33h205q38 0 49 -33l582 -1368q4 -12 -2.5 -22.5t-18.5 -10.5h-207q-38 0 -49 33l-106 254h-701l-106 -254q-11 -33 -49 -33h-207q-12 0 -19.5 10.5t-1.5 22.5zM829 1118l-247 -586h493zM1014 1909h90q14 0 24.5 -10.5t10.5 -24.5 q-4 -105 -60 -166t-149 -66q-41 2 -73.5 17.5t-49.5 32.5t-37 31t-39 14q-37 0 -51 -58q-2 -14 -12 -24t-23 -10h-92q-14 0 -24.5 10.5t-10.5 23.5q4 109 58.5 168t148.5 64q42 -2 73 -17.5t46 -33t35 -31.5t41 -14q20 0 33 11t17.5 21.5t8.5 26.5q2 14 12 24.5t23 10.5z " />
<glyph unicode="&#xc4;" horiz-adv-x="1658" d="M754 1786q0 -60 -42 -102t-102 -42t-101.5 42t-41.5 102t41.5 101.5t101.5 41.5t102 -41.5t42 -101.5zM1192 1786q0 -60 -41.5 -102t-101.5 -42t-102 42t-42 102t42 101.5t102 41.5t101.5 -41.5t41.5 -101.5zM96 33l582 1368q11 33 49 33h205q38 0 49 -33l582 -1368 q4 -12 -2.5 -22.5t-18.5 -10.5h-207q-38 0 -49 33l-106 254h-701l-106 -254q-11 -33 -49 -33h-207q-12 0 -19.5 10.5t-1.5 22.5zM829 1118l-247 -586h493z" />
<glyph unicode="&#xc5;" horiz-adv-x="1658" d="M616 1849q0 91 61 152t152 61t152 -61t61 -152t-61 -152t-152 -61t-152 61t-61 152zM756 1849q0 -31 21 -52t52 -21t52.5 21t21.5 52t-21.5 52.5t-52.5 21.5t-52 -21.5t-21 -52.5zM96 33l582 1368q11 33 49 33h205q38 0 49 -33l582 -1368q4 -12 -2.5 -22.5t-18.5 -10.5 h-207q-38 0 -49 33l-106 254h-701l-106 -254q-11 -33 -49 -33h-207q-12 0 -19.5 10.5t-1.5 22.5zM829 1118l-247 -586h493z" />
<glyph unicode="&#xc6;" horiz-adv-x="2385" d="M1554 840h537q13 0 24 -11t11 -24v-176q0 -13 -11 -24t-24 -11h-537v-348h674q14 0 24.5 -11t10.5 -24v-176q0 -13 -10.5 -24t-24.5 -11h-893q-38 0 -49 33l-106 254h-701l-106 -254q-11 -33 -49 -33h-207q-12 0 -19.5 10.5t-1.5 22.5l582 1368q11 33 49 33h205 q38 0 49 -33l319 -752v750q0 13 11 24t24 11h893q14 0 24.5 -11t10.5 -24v-176q0 -13 -10.5 -24t-24.5 -11h-674v-348zM829 1118l-247 -586h493z" />
<glyph unicode="&#xc7;" horiz-adv-x="1609" d="M645 -342l57 45q10 8 25 6t25 -12q49 -49 100 -49q45 0 62.5 23t17.5 50q0 31 -21.5 48.5t-52.5 17.5q-14 0 -18 -2q-35 0 -49 10q-23 13 -23 41v139q-141 10 -258.5 63t-204 144.5t-134.5 228.5t-48 306q0 180 55 323t153 234.5t229.5 139.5t287.5 48q220 0 385.5 -92 t257.5 -274q7 -12 2.5 -25.5t-16.5 -21.5l-164 -80q-12 -7 -25.5 -2.5t-19.5 16.5q-32 63 -81.5 110t-107 73t-115.5 38.5t-116 12.5q-66 0 -128 -14t-126 -50t-111 -90.5t-76.5 -143.5t-29.5 -202t29.5 -202t76.5 -143.5t111 -90.5t126 -50t128 -14q126 0 242.5 56 t177.5 176q6 14 19.5 18.5t25.5 -2.5l164 -80q12 -6 17 -19.5t-1 -25.5q-90 -175 -245.5 -267t-362.5 -100v-49q95 0 153 -58t58 -147q0 -99 -71.5 -159t-166.5 -60q-136 0 -219 109q-20 23 6 49z" />
<glyph unicode="&#xc8;" horiz-adv-x="1249" d="M418 840h536q14 0 24.5 -11t10.5 -24v-176q0 -13 -10.5 -24t-24.5 -11h-536v-348h674q13 0 23.5 -10.5t10.5 -24.5v-176q0 -14 -10.5 -24.5t-23.5 -10.5h-893q-13 0 -24 11t-11 24v1364q0 13 11 24t24 11h893q13 0 23.5 -10.5t10.5 -24.5v-176q0 -14 -10.5 -24.5 t-23.5 -10.5h-674v-348zM500 2028l307 -228q27 -21 8 -49l-61 -82q-22 -28 -49 -10l-326 201q-11 8 -14.5 21t6.5 26l80 112q21 27 49 9z" />
<glyph unicode="&#xc9;" horiz-adv-x="1249" d="M418 840h536q14 0 24.5 -11t10.5 -24v-176q0 -13 -10.5 -24t-24.5 -11h-536v-348h674q13 0 23.5 -10.5t10.5 -24.5v-176q0 -14 -10.5 -24.5t-23.5 -10.5h-893q-13 0 -24 11t-11 24v1364q0 13 11 24t24 11h893q13 0 23.5 -10.5t10.5 -24.5v-176q0 -14 -10.5 -24.5 t-23.5 -10.5h-674v-348zM436 1800l307 228q28 19 50 -9l79 -112q7 -12 5 -25.5t-13 -21.5l-325 -201q-28 -19 -50 10l-61 82q-21 24 8 49z" />
<glyph unicode="&#xca;" horiz-adv-x="1249" d="M1092 1188h-674v-348h536q14 0 24.5 -11t10.5 -24v-176q0 -13 -10.5 -24t-24.5 -11h-536v-348h674q13 0 23.5 -10.5t10.5 -24.5v-176q0 -14 -10.5 -24.5t-23.5 -10.5h-893q-13 0 -24 11t-11 24v1364q0 13 11 24t24 11h893q13 0 23.5 -10.5t10.5 -24.5v-176 q0 -14 -10.5 -24.5t-23.5 -10.5zM625 1784l-205 -125q-27 -18 -49 10l-62 82q-21 24 8 49l279 205q28 22 57 0l279 -205q27 -21 8 -49l-61 -82q-20 -26 -52 -10z" />
<glyph unicode="&#xcb;" horiz-adv-x="1249" d="M549 1786q0 -60 -41.5 -102t-101.5 -42t-102 42t-42 102t42 101.5t102 41.5t101.5 -41.5t41.5 -101.5zM987 1786q0 -60 -41.5 -102t-101.5 -42t-102 42t-42 102t42 101.5t102 41.5t101.5 -41.5t41.5 -101.5zM418 840h536q14 0 24.5 -11t10.5 -24v-176q0 -13 -10.5 -24 t-24.5 -11h-536v-348h674q13 0 23.5 -10.5t10.5 -24.5v-176q0 -14 -10.5 -24.5t-23.5 -10.5h-893q-13 0 -24 11t-11 24v1364q0 13 11 24t24 11h893q13 0 23.5 -10.5t10.5 -24.5v-176q0 -14 -10.5 -24.5t-23.5 -10.5h-674v-348z" />
<glyph unicode="&#xcc;" horiz-adv-x="526" d="M137 35v1364q0 13 10.5 24t24.5 11h184q14 0 24.5 -11t10.5 -24v-1364q0 -13 -10.5 -24t-24.5 -11h-184q-14 0 -24.5 11t-10.5 24zM170 2028l307 -228q27 -21 8 -49l-61 -82q-22 -28 -49 -10l-326 201q-11 8 -14.5 21t6.5 26l80 112q21 27 49 9z" />
<glyph unicode="&#xcd;" horiz-adv-x="526" d="M391 1399v-1364q0 -13 -10.5 -24t-24.5 -11h-184q-14 0 -24.5 11t-10.5 24v1364q0 13 10.5 24t24.5 11h184q14 0 24.5 -11t10.5 -24zM49 1800l307 228q28 19 50 -9l79 -112q7 -12 5 -25.5t-13 -21.5l-325 -201q-28 -19 -50 10l-61 82q-21 24 8 49z" />
<glyph unicode="&#xce;" horiz-adv-x="712" d="M483 1399v-1364q0 -14 -10.5 -24.5t-23.5 -10.5h-185q-14 0 -24.5 11t-10.5 24v1364q0 13 10.5 24t24.5 11h185q13 0 23.5 -10.5t10.5 -24.5zM49 1800l279 205q28 22 57 0l279 -205q27 -21 8 -49l-62 -82q-20 -26 -51 -10l-203 125l-204 -125q-28 -19 -50 10l-61 82 q-21 24 8 49z" />
<glyph unicode="&#xcf;" horiz-adv-x="765" d="M307 1786q0 -60 -41.5 -102t-101.5 -42t-102 42t-42 102t42 101.5t102 41.5t101.5 -41.5t41.5 -101.5zM745 1786q0 -60 -41.5 -102t-101.5 -42t-101.5 42t-41.5 102t41.5 101.5t101.5 41.5t101.5 -41.5t41.5 -101.5zM510 1399v-1364q0 -13 -11 -24t-24 -11h-184 q-13 0 -24 11t-11 24v1364q0 13 11 24t24 11h184q13 0 24 -11t11 -24z" />
<glyph unicode="&#xd0;" horiz-adv-x="1570" d="M240 1434h512q150 0 276 -46t220 -134t147 -225.5t53 -311.5t-53 -311.5t-147 -225.5t-220 -134t-276 -46h-512q-14 0 -24.5 11t-10.5 24v577h-150q-13 0 -24 11t-11 24v137q0 14 11 24.5t24 10.5h150v580q0 13 10.5 24t24.5 11zM459 246h293q150 0 251 61.5t146 165 t45 244.5t-45 244.5t-146 165t-251 61.5h-293v-369h297q14 0 24.5 -10.5t10.5 -24.5v-137q0 -13 -10.5 -24t-24.5 -11h-297v-366z" />
<glyph unicode="&#xd1;" horiz-adv-x="1572" d="M199 1434h184q36 0 55 -29l717 -973v967q0 13 10.5 24t24.5 11h184q14 0 24.5 -11t10.5 -24v-1364q0 -13 -10.5 -24t-24.5 -11h-184q-36 0 -55 29l-717 970v-964q0 -13 -11 -24t-24 -11h-184q-13 0 -24 11t-11 24v1364q0 13 11 24t24 11zM971 1909h90q13 0 24 -10.5 t11 -24.5q-4 -105 -60 -166t-149 -66q-41 2 -73.5 17.5t-49.5 32.5t-37 31t-39 14q-37 0 -51 -58q-2 -14 -12 -24t-23 -10h-92q-14 0 -24.5 10.5t-10.5 23.5q4 109 58.5 168t148.5 64q42 -2 73 -17.5t46 -33t35 -31.5t41 -14q20 0 33 11t17.5 21.5t8.5 26.5q2 14 12 24.5 t23 10.5z" />
<glyph unicode="&#xd2;" horiz-adv-x="1695" d="M848 1462q156 0 287.5 -48t229.5 -139.5t153 -234.5t55 -323q0 -145 -36 -266.5t-101 -209t-155 -149t-199.5 -91.5t-233.5 -30t-233.5 30t-199.5 91.5t-155 149t-101 209t-36 266.5q0 180 55 323t153 234.5t229.5 139.5t287.5 48zM848 217q66 0 128 14t126 50t111 90.5 t76.5 143.5t29.5 202t-29.5 202t-76.5 143.5t-111 90.5t-126 50t-128 14t-128 -14t-126 -50t-111 -90.5t-76.5 -143.5t-29.5 -202t29.5 -202t76.5 -143.5t111 -90.5t126 -50t128 -14zM721 2028l307 -228q27 -21 8 -49l-61 -82q-22 -28 -49 -10l-326 201q-11 8 -14.5 21 t6.5 26l80 112q21 27 49 9z" />
<glyph unicode="&#xd3;" horiz-adv-x="1695" d="M848 1462q156 0 287.5 -48t229.5 -139.5t153 -234.5t55 -323q0 -145 -36 -266.5t-101 -209t-155 -149t-199.5 -91.5t-233.5 -30t-233.5 30t-199.5 91.5t-155 149t-101 209t-36 266.5q0 180 55 323t153 234.5t229.5 139.5t287.5 48zM848 217q66 0 128 14t126 50t111 90.5 t76.5 143.5t29.5 202t-29.5 202t-76.5 143.5t-111 90.5t-126 50t-128 14t-128 -14t-126 -50t-111 -90.5t-76.5 -143.5t-29.5 -202t29.5 -202t76.5 -143.5t111 -90.5t126 -50t128 -14zM666 1800l307 228q28 18 49 -9l80 -112q7 -12 5 -25.5t-13 -21.5l-326 -201 q-27 -18 -49 10l-62 82q-20 23 9 49z" />
<glyph unicode="&#xd4;" horiz-adv-x="1695" d="M848 1462q156 0 287.5 -48t229.5 -139.5t153 -234.5t55 -323q0 -145 -36 -266.5t-101 -209t-155 -149t-199.5 -91.5t-233.5 -30t-233.5 30t-199.5 91.5t-155 149t-101 209t-36 266.5q0 180 55 323t153 234.5t229.5 139.5t287.5 48zM848 217q66 0 128 14t126 50t111 90.5 t76.5 143.5t29.5 202t-29.5 202t-76.5 143.5t-111 90.5t-126 50t-128 14t-128 -14t-126 -50t-111 -90.5t-76.5 -143.5t-29.5 -202t29.5 -202t76.5 -143.5t111 -90.5t126 -50t128 -14zM541 1800l278 205q29 23 58 0l278 -205q27 -21 8 -49l-61 -82q-20 -26 -51 -10l-203 125 l-205 -125q-27 -18 -49 10l-62 82q-20 23 9 49z" />
<glyph unicode="&#xd5;" horiz-adv-x="1695" d="M848 1462q156 0 287.5 -48t229.5 -139.5t153 -234.5t55 -323q0 -145 -36 -266.5t-101 -209t-155 -149t-199.5 -91.5t-233.5 -30t-233.5 30t-199.5 91.5t-155 149t-101 209t-36 266.5q0 180 55 323t153 234.5t229.5 139.5t287.5 48zM848 217q66 0 128 14t126 50t111 90.5 t76.5 143.5t29.5 202t-29.5 202t-76.5 143.5t-111 90.5t-126 50t-128 14t-128 -14t-126 -50t-111 -90.5t-76.5 -143.5t-29.5 -202t29.5 -202t76.5 -143.5t111 -90.5t126 -50t128 -14zM1032 1909h90q14 0 24.5 -10.5t10.5 -24.5q-4 -105 -60 -166t-149 -66q-41 2 -73.5 17.5 t-49 32.5t-36.5 31t-39 14q-38 0 -52 -58q-2 -14 -11.5 -24t-22.5 -10h-93q-13 0 -23.5 10.5t-10.5 23.5q4 109 58 168t148 64q42 -2 73 -17.5t46 -33t35 -31.5t41 -14q20 0 33 11t17.5 21.5t8.5 26.5q2 14 12 24.5t23 10.5z" />
<glyph unicode="&#xd6;" horiz-adv-x="1695" d="M848 1462q156 0 287.5 -48t229.5 -139.5t153 -234.5t55 -323q0 -145 -36 -266.5t-101 -209t-155 -149t-199.5 -91.5t-233.5 -30t-233.5 30t-199.5 91.5t-155 149t-101 209t-36 266.5q0 180 55 323t153 234.5t229.5 139.5t287.5 48zM848 217q66 0 128 14t126 50t111 90.5 t76.5 143.5t29.5 202t-29.5 202t-76.5 143.5t-111 90.5t-126 50t-128 14t-128 -14t-126 -50t-111 -90.5t-76.5 -143.5t-29.5 -202t29.5 -202t76.5 -143.5t111 -90.5t126 -50t128 -14zM772 1786q0 -60 -41.5 -102t-101.5 -42t-102 42t-42 102t42 101.5t102 41.5t101.5 -41.5 t41.5 -101.5zM1210 1786q0 -60 -41.5 -102t-101.5 -42t-101.5 42t-41.5 102t41.5 101.5t101.5 41.5t101.5 -41.5t41.5 -101.5z" />
<glyph unicode="&#xd7;" horiz-adv-x="919" d="M752 569l-162 -161l162 -162q24 -24 0 -49l-80 -80q-24 -25 -49 0l-162 162l-164 -164q-25 -25 -49 0l-80 80q-24 25 0 49l164 164l-156 155q-24 25 0 49l80 80q24 24 49 0l156 -155l162 161q25 24 49 0l80 -80q24 -24 0 -49z" />
<glyph unicode="&#xd8;" horiz-adv-x="1695" d="M848 1462q221 0 393 -96l121 143q24 24 49 7l105 -82q12 -8 14 -22.5t-8 -25.5l-125 -147q176 -195 176 -522q0 -145 -36 -266.5t-101 -209t-155 -149t-199.5 -91.5t-233.5 -30q-241 0 -424 115l-102 -123q-11 -11 -25 -12.5t-25 8.5l-104 82q-26 27 -4 49l110 131 q-151 193 -151 496q0 180 55 323t153 234.5t229.5 139.5t287.5 48zM848 217q66 0 128 14t126 50t111 90.5t76.5 143.5t29.5 202q0 197 -90 321l-639 -755q115 -66 258 -66zM377 717q0 -174 69 -293l627 743q-106 50 -225 50q-66 0 -128 -14t-126 -50t-111 -90.5 t-76.5 -143.5t-29.5 -202z" />
<glyph unicode="&#xd9;" horiz-adv-x="1495" d="M1077 565v834q0 13 10.5 24t24.5 11h184q14 0 24.5 -11t10.5 -24v-834q0 -143 -45 -257t-124 -187t-184.5 -111.5t-229.5 -38.5t-230 38.5t-185 111.5t-124 187t-45 257v834q0 13 11 24t24 11h184q13 0 24 -11t11 -24v-834q0 -86 22.5 -151t55.5 -101.5t80 -59t87 -29.5 t85 -7q48 0 91 9t88 33.5t77 62t52.5 100.5t20.5 143zM653 2028l308 -228q27 -21 8 -49l-62 -82q-22 -28 -49 -10l-326 201q-11 8 -14.5 21t6.5 26l80 112q21 27 49 9z" />
<glyph unicode="&#xda;" horiz-adv-x="1495" d="M1077 565v834q0 13 10.5 24t24.5 11h184q14 0 24.5 -11t10.5 -24v-834q0 -143 -45 -257t-124 -187t-184.5 -111.5t-229.5 -38.5t-230 38.5t-185 111.5t-124 187t-45 257v834q0 13 11 24t24 11h184q13 0 24 -11t11 -24v-834q0 -86 22.5 -151t55.5 -101.5t80 -59t87 -29.5 t85 -7q48 0 91 9t88 33.5t77 62t52.5 100.5t20.5 143zM532 1800l308 228q28 18 49 -9l80 -112q7 -12 5 -25.5t-13 -21.5l-326 -201q-27 -18 -49 10l-62 82q-21 24 8 49z" />
<glyph unicode="&#xdb;" horiz-adv-x="1495" d="M1077 565v834q0 13 10.5 24t24.5 11h184q14 0 24.5 -11t10.5 -24v-834q0 -143 -45 -257t-124 -187t-184.5 -111.5t-229.5 -38.5t-230 38.5t-185 111.5t-124 187t-45 257v834q0 13 11 24t24 11h184q13 0 24 -11t11 -24v-834q0 -86 22.5 -151t55.5 -101.5t80 -59t87 -29.5 t85 -7q48 0 91 9t88 33.5t77 62t52.5 100.5t20.5 143zM440 1800l279 205q28 22 57 0l279 -205q27 -21 8 -49l-62 -82q-20 -26 -51 -10l-202 125l-205 -125q-27 -18 -49 10l-62 82q-21 24 8 49z" />
<glyph unicode="&#xdc;" horiz-adv-x="1495" d="M672 1786q0 -60 -42 -102t-102 -42t-101.5 42t-41.5 102t41.5 101.5t101.5 41.5t102 -41.5t42 -101.5zM1110 1786q0 -60 -41.5 -102t-101.5 -42t-102 42t-42 102t42 101.5t102 41.5t101.5 -41.5t41.5 -101.5zM1077 565v834q0 13 10.5 24t24.5 11h184q14 0 24.5 -11 t10.5 -24v-834q0 -143 -45 -257t-124 -187t-184.5 -111.5t-229.5 -38.5t-230 38.5t-185 111.5t-124 187t-45 257v834q0 13 11 24t24 11h184q13 0 24 -11t11 -24v-834q0 -86 22.5 -151t55.5 -101.5t80 -59t87 -29.5t85 -7q48 0 91 9t88 33.5t77 62t52.5 100.5t20.5 143z" />
<glyph unicode="&#xdd;" horiz-adv-x="1536" d="M1436 1405l-541 -827v-543q0 -13 -10.5 -24t-24.5 -11h-184q-14 0 -24.5 11t-10.5 24v543l-541 827q-6 10 0 19.5t17 9.5h233q34 0 53 -29l365 -563l365 563q16 29 53 29h233q11 0 17 -9.5t0 -19.5zM594 1800l307 228q28 18 49 -9l80 -112q7 -12 5 -25.5t-13 -21.5 l-326 -201q-27 -18 -49 10l-61 82q-21 24 8 49z" />
<glyph unicode="&#xde;" horiz-adv-x="1366" d="M418 215v-180q0 -13 -11 -24t-24 -11h-184q-13 0 -24 11t-11 24v1364q0 13 11 24t24 11h184q13 0 24 -11t11 -24v-180h334q104 0 192.5 -31.5t155.5 -92.5t105 -158t38 -220q0 -126 -38 -223.5t-105 -157.5t-155 -90.5t-193 -30.5h-334zM752 973h-334v-512h334 q68 0 116 24t72 64t34.5 81t10.5 87t-10.5 87t-34.5 81t-72 64t-116 24z" />
<glyph unicode="&#xdf;" horiz-adv-x="1318" d="M516 35l33 153q5 14 16.5 22.5t24.5 4.5q50 -12 98 -12q120 0 185 66.5t65 158.5q0 108 -66.5 167.5t-199.5 59.5h-31q-13 0 -24 10.5t-11 24.5v158q0 14 11 24.5t24 10.5h37q94 0 140 51t46 119q0 51 -23.5 87t-58.5 51.5t-61 21.5t-45 6q-52 0 -96 -11.5t-81.5 -37.5 t-59 -73t-21.5 -112v-950q0 -13 -11 -24t-24 -11h-184q-13 0 -24 11t-11 24v966q2 97 33.5 176.5t82.5 131.5t118.5 87t139 50.5t146.5 15.5q123 0 217.5 -41.5t153 -131.5t61.5 -220q-3 -170 -137 -274q96 -44 156 -139t61 -230q-2 -108 -42 -195t-107.5 -143.5t-156 -86.5 t-190.5 -30q-74 0 -157 21q-33 9 -27 43z" />
<glyph unicode="&#xe0;" horiz-adv-x="1089" d="M739 1137l-61 -82q-22 -29 -49 -11l-326 201q-11 8 -14.5 21t6.5 26l80 113q21 27 49 8l307 -227q27 -21 8 -49zM537 844q189 0 309.5 -112.5t120.5 -317.5v-379q0 -13 -10.5 -24t-24.5 -11h-146q-13 0 -23.5 10.5t-10.5 24.5v90q-41 -72 -115 -112t-162 -40 q-172 0 -272.5 120t-100.5 315q0 198 124.5 317t310.5 119zM530 197q75 0 140 56.5t65 154.5q0 105 -61 157.5t-137 52.5q-77 0 -141 -53.5t-64 -154.5q0 -113 56.5 -163t141.5 -50z" />
<glyph unicode="&#xe1;" horiz-adv-x="1089" d="M381 1055l-62 82q-18 28 9 49l307 227q28 19 49 -8l80 -113q10 -13 6.5 -26t-14.5 -21l-326 -201q-27 -18 -49 11zM537 844q189 0 309.5 -112.5t120.5 -317.5v-379q0 -13 -10.5 -24t-24.5 -11h-146q-13 0 -23.5 10.5t-10.5 24.5v90q-41 -72 -115 -112t-162 -40 q-172 0 -272.5 120t-100.5 315q0 198 124.5 317t310.5 119zM530 197q75 0 140 56.5t65 154.5q0 105 -61 157.5t-137 52.5q-77 0 -141 -53.5t-64 -154.5q0 -113 56.5 -163t141.5 -50z" />
<glyph unicode="&#xe2;" horiz-adv-x="1089" d="M545 1169l-205 -125q-27 -18 -49 11l-62 82q-20 23 9 49l278 205q28 22 57 0l279 -205q27 -21 8 -49l-61 -82q-20 -26 -51 -11zM537 844q189 0 309.5 -112.5t120.5 -317.5v-379q0 -13 -10.5 -24t-24.5 -11h-146q-13 0 -23.5 10.5t-10.5 24.5v90q-41 -72 -115 -112 t-162 -40q-172 0 -272.5 120t-100.5 315q0 198 124.5 317t310.5 119zM530 197q75 0 140 56.5t65 154.5q0 105 -61 157.5t-137 52.5q-77 0 -141 -53.5t-64 -154.5q0 -113 56.5 -163t141.5 -50z" />
<glyph unicode="&#xe3;" horiz-adv-x="1089" d="M446 1122q-37 0 -51 -57q-2 -14 -12 -24.5t-23 -10.5h-92q-14 0 -24.5 11t-10.5 24q4 109 58.5 167.5t148.5 63.5q42 -2 73 -17.5t46 -33t35 -31.5t41 -14q20 0 33 11.5t17.5 21.5t8.5 27q2 14 12 24t23 10h90q14 0 24.5 -10.5t10.5 -23.5q-4 -105 -60 -166t-149 -66 q-41 2 -73.5 17t-49.5 32t-37 31t-39 14zM537 844q189 0 309.5 -112.5t120.5 -317.5v-379q0 -13 -10.5 -24t-24.5 -11h-146q-13 0 -23.5 10.5t-10.5 24.5v90q-41 -72 -115 -112t-162 -40q-172 0 -272.5 120t-100.5 315q0 198 124.5 317t310.5 119zM530 197q75 0 140 56.5 t65 154.5q0 105 -61 157.5t-137 52.5q-77 0 -141 -53.5t-64 -154.5q0 -113 56.5 -163t141.5 -50z" />
<glyph unicode="&#xe4;" horiz-adv-x="1089" d="M469 1171q0 -60 -41.5 -101.5t-101.5 -41.5t-102 41.5t-42 101.5t42 102t102 42t101.5 -42t41.5 -102zM907 1171q0 -60 -41.5 -101.5t-101.5 -41.5t-101.5 41.5t-41.5 101.5t41.5 102t101.5 42t101.5 -42t41.5 -102zM537 844q189 0 309.5 -112.5t120.5 -317.5v-379 q0 -13 -10.5 -24t-24.5 -11h-146q-13 0 -23.5 10.5t-10.5 24.5v90q-41 -72 -115 -112t-162 -40q-172 0 -272.5 120t-100.5 315q0 198 124.5 317t310.5 119zM530 197q75 0 140 56.5t65 154.5q0 105 -61 157.5t-137 52.5q-77 0 -141 -53.5t-64 -154.5q0 -113 56.5 -163 t141.5 -50z" />
<glyph unicode="&#xe5;" horiz-adv-x="1089" d="M332 1235q0 91 61 152t152 61t152 -61t61 -152t-61 -152t-152 -61t-152 61t-61 152zM471 1235q0 -31 21.5 -52.5t52.5 -21.5t52 21.5t21 52.5t-21 52.5t-52 21.5t-52.5 -21.5t-21.5 -52.5zM537 844q189 0 309.5 -112.5t120.5 -317.5v-379q0 -13 -10.5 -24t-24.5 -11h-146 q-13 0 -23.5 10.5t-10.5 24.5v90q-41 -72 -115 -112t-162 -40q-172 0 -272.5 120t-100.5 315q0 198 124.5 317t310.5 119zM530 197q75 0 140 56.5t65 154.5q0 105 -61 157.5t-137 52.5q-77 0 -141 -53.5t-64 -154.5q0 -113 56.5 -163t141.5 -50z" />
<glyph unicode="&#xe6;" horiz-adv-x="1568" d="M1466 410v-2q0 -35 -36 -35h-586q20 -176 192 -176q90 0 142 39q27 21 55 6l127 -76q13 -8 16.5 -22t-6.5 -25q-125 -144 -334 -144q-157 0 -288 109q-94 -107 -277 -107q-164 0 -266.5 71t-102.5 214q0 141 103 211.5t266 65.5q76 -3 143 -25q0 129 -143 129 q-87 0 -137 -57q-28 -28 -53 -21l-142 37q-31 8 -22 41q36 105 132 157t222 52q186 0 281 -119q143 111 284 111q189 0 309.5 -113t120.5 -321zM608 287q-26 47 -137 47q-44 0 -75 -8.5t-45 -21t-19.5 -23t-5.5 -19.5q0 -11 5.5 -22t19.5 -23.5t45 -20.5t75 -8q105 0 135 50 q15 24 2 49zM1036 616q-58 0 -107.5 -27t-72.5 -85h358q-23 58 -72.5 85t-105.5 27z" />
<glyph unicode="&#xe7;" horiz-adv-x="1017" d="M334 -342l57 45q10 8 24.5 6t24.5 -12q49 -49 101 -49q45 0 62.5 23t17.5 50q0 31 -21.5 48.5t-52.5 17.5q-15 0 -19 -2q-35 0 -49 10q-22 13 -22 41v146q-160 21 -257.5 131t-97.5 297q0 208 120.5 321t309.5 113q137 0 239.5 -59t152.5 -173q6 -13 -0.5 -26.5 t-20.5 -18.5l-155 -53q-13 -4 -27.5 2.5t-22.5 18.5q-50 81 -166 81q-35 0 -67 -10.5t-61.5 -33t-47.5 -64.5t-18 -98t18 -98.5t47.5 -65t61.5 -33t67 -10.5q111 0 166 76q18 27 50 18l149 -64q13 -4 18.5 -18t-0.5 -27q-49 -97 -137 -150t-205 -61v-53q95 0 153 -58 t58 -147q0 -99 -71 -159t-166 -60q-136 0 -219 109q-20 23 6 49z" />
<glyph unicode="&#xe8;" d="M963 410v-2q0 -35 -37 -35h-586q20 -176 192 -176q90 0 142 39q27 21 55 6l127 -76q13 -8 16.5 -22t-6.5 -25q-125 -144 -334 -144q-189 0 -309.5 113.5t-120.5 321.5t120.5 321t309.5 113q123 0 219 -47.5t154 -147.5t58 -239zM410 1413l307 -227q27 -21 8 -49l-61 -82 q-23 -29 -50 -11l-325 201q-11 8 -14.5 21t6.5 26l79 113q21 27 50 8zM498 614q-112 -19 -146 -110h359q-34 91 -144 110q-35 3 -69 0z" />
<glyph unicode="&#xe9;" d="M963 410v-2q0 -35 -37 -35h-586q20 -176 192 -176q90 0 142 39q27 21 55 6l127 -76q13 -8 16.5 -22t-6.5 -25q-125 -144 -334 -144q-189 0 -309.5 113.5t-120.5 321.5t120.5 321t309.5 113q123 0 219 -47.5t154 -147.5t58 -239zM352 1186l307 227q29 19 50 -8l79 -113 q7 -12 5 -25.5t-13 -21.5l-325 -201q-27 -18 -49 11l-62 82q-21 24 8 49zM498 614q-112 -19 -146 -110h359q-34 91 -144 110q-35 3 -69 0z" />
<glyph unicode="&#xea;" d="M532 1169l-204 -125q-27 -18 -49 11l-62 82q-21 24 8 49l279 205q28 22 57 0l279 -205q27 -21 8 -49l-62 -82q-20 -26 -51 -11zM963 410v-2q0 -35 -37 -35h-586q20 -176 192 -176q90 0 142 39q27 21 55 6l127 -76q13 -8 16.5 -22t-6.5 -25q-125 -144 -334 -144 q-189 0 -309.5 113.5t-120.5 321.5t120.5 321t309.5 113q123 0 219 -47.5t154 -147.5t58 -239zM352 504h359q-23 58 -72.5 85t-106.5 27q-58 0 -107.5 -27t-72.5 -85z" />
<glyph unicode="&#xeb;" d="M457 1171q0 -60 -42 -101.5t-102 -41.5t-101.5 41.5t-41.5 101.5t41.5 102t101.5 42t102 -42t42 -102zM895 1171q0 -60 -41.5 -101.5t-101.5 -41.5t-102 41.5t-42 101.5t42 102t102 42t101.5 -42t41.5 -102zM963 410v-2q0 -35 -37 -35h-586q20 -176 192 -176q90 0 142 39 q27 21 55 6l127 -76q13 -8 16.5 -22t-6.5 -25q-125 -144 -334 -144q-189 0 -309.5 113.5t-120.5 321.5t120.5 321t309.5 113q123 0 219 -47.5t154 -147.5t58 -239zM352 504h359q-23 58 -72.5 85t-106.5 27q-58 0 -107.5 -27t-72.5 -85z" />
<glyph unicode="&#xec;" horiz-adv-x="526" d="M383 784v-749q0 -13 -10.5 -24t-24.5 -11h-168q-14 0 -24.5 11t-10.5 24v749q0 14 10.5 24.5t24.5 10.5h168q14 0 24.5 -10.5t10.5 -24.5zM170 1413l307 -227q27 -21 8 -49l-61 -82q-22 -29 -49 -11l-326 201q-11 8 -14.5 21t6.5 26l80 113q21 27 49 8z" />
<glyph unicode="&#xed;" horiz-adv-x="526" d="M383 784v-749q0 -13 -10.5 -24t-24.5 -11h-168q-14 0 -24.5 11t-10.5 24v749q0 14 10.5 24.5t24.5 10.5h168q14 0 24.5 -10.5t10.5 -24.5zM49 1186l307 227q29 19 50 -8l79 -113q7 -12 5 -25.5t-13 -21.5l-325 -201q-27 -18 -50 11l-61 82q-21 24 8 49z" />
<glyph unicode="&#xee;" horiz-adv-x="712" d="M475 784v-749q0 -13 -10.5 -24t-24.5 -11h-168q-13 0 -23.5 10.5t-10.5 24.5v749q0 14 10.5 24.5t23.5 10.5h168q14 0 24.5 -10.5t10.5 -24.5zM49 1186l279 205q28 22 57 0l279 -205q27 -21 8 -49l-62 -82q-20 -26 -51 -11l-203 125l-204 -125q-27 -18 -50 11l-61 82 q-21 24 8 49z" />
<glyph unicode="&#xef;" horiz-adv-x="765" d="M307 1171q0 -60 -41.5 -101.5t-101.5 -41.5t-102 41.5t-42 101.5t42 102t102 42t101.5 -42t41.5 -102zM745 1171q0 -60 -41.5 -101.5t-101.5 -41.5t-101.5 41.5t-41.5 101.5t41.5 102t101.5 42t101.5 -42t41.5 -102zM502 784v-749q0 -13 -11 -24t-24 -11h-168 q-13 0 -24 11t-11 24v749q0 14 11 24.5t24 10.5h168q13 0 24 -10.5t11 -24.5z" />
<glyph unicode="&#xf0;" horiz-adv-x="1114" d="M958 1208l-129 -61q168 -385 160 -733q-7 -200 -131 -319.5t-309 -119.5q-181 0 -303.5 123.5t-122.5 311.5q0 207 117.5 318.5t304.5 111.5q43 0 99.5 -17t96.5 -53q-22 129 -94 289l-98 -47q-12 -6 -25.5 -1t-21.5 17l-37 74q-7 12 -2.5 25.5t16.5 19.5l103 49 q-34 69 -74 133q-6 12 -2 26.5t16 20.5l115 64q12 6 27 2t22 -17q63 -110 80 -143l125 61q12 6 25.5 1t21.5 -17l35 -74q7 -12 2 -25.5t-17 -19.5zM553 203q35 0 68 10.5t64 33t50 65t19 98.5t-19 97.5t-50 64.5t-64 33.5t-68 10.5t-67.5 -10.5t-62 -33t-47.5 -64.5t-18 -98 t18 -98.5t47.5 -65t62 -33t67.5 -10.5z" />
<glyph unicode="&#xf1;" horiz-adv-x="1056" d="M528 844q178 0 292 -106.5t114 -303.5v-399q0 -13 -11 -24t-24 -11h-168q-13 0 -24 11t-11 24v399q0 82 -42 132t-126 50q-86 0 -127 -49.5t-41 -132.5v-399q0 -14 -10.5 -24.5t-23.5 -10.5h-168q-14 0 -24.5 11t-10.5 24v399q0 197 113.5 303.5t291.5 106.5zM713 1294 h90q14 0 24.5 -10.5t10.5 -23.5q-4 -105 -60 -166t-149 -66q-41 2 -73.5 17t-49.5 32t-37 31t-39 14q-37 0 -51 -57q-2 -14 -12 -24.5t-23 -10.5h-92q-14 0 -24.5 11t-10.5 24q4 109 58.5 167.5t148.5 63.5q34 -2 60.5 -12.5t42.5 -24t29 -27t28.5 -23t33.5 -9.5q44 0 60 60 q2 14 12 24t23 10z" />
<glyph unicode="&#xf2;" d="M532 844q123 0 219 -47.5t154 -147.5t58 -239q0 -208 -121 -321.5t-310 -113.5t-309.5 113.5t-120.5 321.5t120.5 321t309.5 113zM532 203q35 0 67.5 10.5t62 33t47.5 65t18 98.5t-18 98t-47.5 64.5t-62 33t-67.5 10.5t-67 -10.5t-61.5 -33t-47.5 -64.5t-18 -98t18 -98.5 t47.5 -65t61.5 -33t67 -10.5zM408 1413l307 -227q27 -21 8 -49l-61 -82q-23 -29 -50 -11l-325 201q-11 8 -14.5 21t6.5 26l79 113q21 27 50 8z" />
<glyph unicode="&#xf3;" d="M532 844q123 0 219 -47.5t154 -147.5t58 -239q0 -208 -121 -321.5t-310 -113.5t-309.5 113.5t-120.5 321.5t120.5 321t309.5 113zM532 203q35 0 67.5 10.5t62 33t47.5 65t18 98.5t-18 98t-47.5 64.5t-62 33t-67.5 10.5t-67 -10.5t-61.5 -33t-47.5 -64.5t-18 -98t18 -98.5 t47.5 -65t61.5 -33t67 -10.5zM344 1186l307 227q28 19 49 -8l80 -113q7 -12 5 -25.5t-13 -21.5l-326 -201q-27 -18 -49 11l-61 82q-21 24 8 49z" />
<glyph unicode="&#xf4;" d="M532 844q123 0 219 -47.5t154 -147.5t58 -239q0 -208 -121 -321.5t-310 -113.5t-309.5 113.5t-120.5 321.5t120.5 321t309.5 113zM532 203q35 0 67.5 10.5t62 33t47.5 65t18 98.5t-18 98t-47.5 64.5t-62 33t-67.5 10.5t-67 -10.5t-61.5 -33t-47.5 -64.5t-18 -98t18 -98.5 t47.5 -65t61.5 -33t67 -10.5zM225 1186l279 205q28 22 57 0l279 -205q27 -21 8 -49l-62 -82q-20 -26 -51 -11l-203 125l-204 -125q-27 -18 -49 11l-62 82q-21 24 8 49z" />
<glyph unicode="&#xf5;" d="M532 844q123 0 219 -47.5t154 -147.5t58 -239q0 -208 -121 -321.5t-310 -113.5t-309.5 113.5t-120.5 321.5t120.5 321t309.5 113zM532 203q35 0 67.5 10.5t62 33t47.5 65t18 98.5t-18 98t-47.5 64.5t-62 33t-67.5 10.5t-67 -10.5t-61.5 -33t-47.5 -64.5t-18 -98t18 -98.5 t47.5 -65t61.5 -33t67 -10.5zM717 1294h90q14 0 24.5 -10.5t10.5 -23.5q-4 -105 -60 -166t-149 -66q-41 2 -73.5 17t-49.5 32t-37 31t-39 14q-37 0 -51 -57q-2 -14 -12 -24.5t-23 -10.5h-92q-14 0 -24.5 11t-10.5 24q4 109 58.5 167.5t148.5 63.5q42 -2 73 -17.5t46 -33 t35 -31.5t41 -14q20 0 33 11.5t17.5 21.5t8.5 27q2 14 12 24t23 10z" />
<glyph unicode="&#xf6;" d="M532 844q123 0 219 -47.5t154 -147.5t58 -239q0 -208 -121 -321.5t-310 -113.5t-309.5 113.5t-120.5 321.5t120.5 321t309.5 113zM532 203q35 0 67.5 10.5t62 33t47.5 65t18 98.5t-18 98t-47.5 64.5t-62 33t-67.5 10.5t-67 -10.5t-61.5 -33t-47.5 -64.5t-18 -98t18 -98.5 t47.5 -65t61.5 -33t67 -10.5zM457 1171q0 -60 -42 -101.5t-102 -41.5t-101.5 41.5t-41.5 101.5t41.5 102t101.5 42t102 -42t42 -102zM895 1171q0 -60 -41.5 -101.5t-101.5 -41.5t-102 41.5t-42 101.5t42 102t102 42t101.5 -42t41.5 -102z" />
<glyph unicode="&#xf7;" horiz-adv-x="956" d="M330 115q0 60 42.5 102.5t102.5 42.5t103 -42.5t43 -102.5t-43 -103t-103 -43t-102.5 43t-42.5 103zM330 733q0 60 42.5 103t102.5 43t103 -43t43 -103t-43 -102.5t-103 -42.5t-102.5 42.5t-42.5 102.5zM778 328h-600q-14 0 -24.5 10.5t-10.5 23.5v113q0 13 10.5 24 t24.5 11h600q14 0 24.5 -11t10.5 -24v-113q0 -13 -10.5 -23.5t-24.5 -10.5z" />
<glyph unicode="&#xf8;" horiz-adv-x="1069" d="M537 844q115 0 215 -47l75 92q11 11 25 12.5t25 -8.5l63 -53q26 -26 4 -49l-74 -89q97 -118 97 -292q0 -208 -120.5 -321.5t-309.5 -113.5q-127 0 -232 54l-63 -76q-11 -11 -24.5 -12.5t-24.5 8.5l-64 53q-11 11 -12.5 24.5t8.5 24.5l65 78q-84 110 -84 281q0 139 58 239 t154 147.5t219 47.5zM537 203q35 0 67 10.5t61.5 33t47.5 65t18 98.5q0 58 -20 102l-250 -297q30 -12 76 -12zM342 410q0 -48 12 -86l240 284q-24 8 -57 8q-35 0 -67.5 -10.5t-62 -33t-47.5 -64.5t-18 -98z" />
<glyph unicode="&#xf9;" horiz-adv-x="1056" d="M563 -25h-69q-166 13 -268.5 117.5t-102.5 292.5v399q0 14 10.5 24.5t24.5 10.5h168q13 0 23.5 -10.5t10.5 -24.5v-399q0 -83 41 -132.5t127 -49.5q84 0 126 50t42 132v399q0 14 11 24.5t24 10.5h168q13 0 24 -10.5t11 -24.5v-399q0 -188 -102.5 -292.5t-268.5 -117.5z M418 1413l307 -227q27 -21 8 -49l-61 -82q-22 -29 -49 -11l-326 201q-11 8 -14.5 21t6.5 26l80 113q21 27 49 8z" />
<glyph unicode="&#xfa;" horiz-adv-x="1056" d="M563 -25h-69q-166 13 -268.5 117.5t-102.5 292.5v399q0 14 10.5 24.5t24.5 10.5h168q13 0 23.5 -10.5t10.5 -24.5v-399q0 -83 41 -132.5t127 -49.5q84 0 126 50t42 132v399q0 14 11 24.5t24 10.5h168q13 0 24 -10.5t11 -24.5v-399q0 -188 -102.5 -292.5t-268.5 -117.5z M328 1186l307 227q28 19 49 -8l80 -113q7 -12 5 -25.5t-13 -21.5l-326 -201q-27 -18 -49 11l-62 82q-20 23 9 49z" />
<glyph unicode="&#xfb;" horiz-adv-x="1056" d="M563 -25h-69q-166 13 -268.5 117.5t-102.5 292.5v399q0 14 10.5 24.5t24.5 10.5h168q13 0 23.5 -10.5t10.5 -24.5v-399q0 -83 41 -132.5t127 -49.5q84 0 126 50t42 132v399q0 14 11 24.5t24 10.5h168q13 0 24 -10.5t11 -24.5v-399q0 -188 -102.5 -292.5t-268.5 -117.5z M221 1186l279 205q28 22 57 0l279 -205q27 -21 8 -49l-62 -82q-20 -26 -51 -11l-203 125l-204 -125q-27 -18 -50 11l-61 82q-21 24 8 49z" />
<glyph unicode="&#xfc;" horiz-adv-x="1056" d="M453 1171q0 -60 -42 -101.5t-102 -41.5t-101.5 41.5t-41.5 101.5t41.5 102t101.5 42t102 -42t42 -102zM891 1171q0 -60 -41.5 -101.5t-101.5 -41.5t-102 41.5t-42 101.5t42 102t102 42t101.5 -42t41.5 -102zM528 -25q-178 0 -291.5 106.5t-113.5 303.5v399 q0 14 10.5 24.5t24.5 10.5h168q13 0 23.5 -10.5t10.5 -24.5v-399q0 -83 41 -132.5t127 -49.5q84 0 126 50t42 132v399q0 14 11 24.5t24 10.5h168q13 0 24 -10.5t11 -24.5v-399q0 -197 -114 -303.5t-292 -106.5z" />
<glyph unicode="&#xfd;" horiz-adv-x="1112" d="M1036 786l-602 -1355q-15 -27 -47 -19l-156 58q-13 4 -18.5 18t0.5 27l213 485l-350 786q-5 12 1.5 22.5t18.5 10.5h191q38 0 49 -33l221 -497l219 497q11 33 49 33h191q12 0 18.5 -10.5t1.5 -22.5zM371 1186l307 227q28 19 49 -8l80 -113q7 -12 5 -25.5t-13 -21.5 l-326 -201q-27 -18 -49 11l-62 82q-20 23 9 49z" />
<glyph unicode="&#xfe;" horiz-adv-x="1110" d="M627 -23q-160 0 -246 93v-648q0 -13 -10.5 -23.5t-24.5 -10.5h-168q-14 0 -24.5 10.5t-10.5 23.5v1977q0 13 10.5 24t24.5 11h168q14 0 24.5 -11t10.5 -24v-647q85 92 246 92q180 -7 280.5 -130.5t100.5 -303.5q0 -85 -25 -161.5t-71.5 -136.5t-120 -96.5t-164.5 -38.5z M381 414q0 -56 18.5 -98.5t48.5 -66t63.5 -35t68.5 -11.5q72 0 130 52.5t62 154.5q0 54 -18 95.5t-47 65t-61.5 35.5t-65.5 12q-35 0 -68 -10.5t-63.5 -33t-49 -64t-18.5 -96.5z" />
<glyph unicode="&#xff;" horiz-adv-x="1112" d="M1036 786l-602 -1355q-15 -27 -47 -19l-156 58q-13 4 -18.5 18t0.5 27l213 485l-350 786q-5 12 1.5 22.5t18.5 10.5h191q38 0 49 -33l221 -497l219 497q11 33 49 33h191q12 0 18.5 -10.5t1.5 -22.5zM479 1171q0 -60 -41.5 -101.5t-101.5 -41.5t-101.5 41.5t-41.5 101.5 t41.5 102t101.5 42t101.5 -42t41.5 -102zM918 1171q0 -60 -42 -101.5t-102 -41.5t-101.5 41.5t-41.5 101.5t41.5 102t101.5 42t102 -42t42 -102z" />
<glyph unicode="&#x152;" horiz-adv-x="2406" d="M2249 1188h-674v-348h536q13 0 24 -11t11 -24v-176q0 -13 -11 -24t-24 -11h-536v-348h674q13 0 24 -11t11 -24v-176q0 -13 -11 -24t-24 -11h-893q-14 0 -24.5 11t-10.5 24v135q-78 -92 -205.5 -145.5t-267.5 -53.5q-124 0 -233.5 30t-199.5 91.5t-155 149t-101 209 t-36 266.5q0 180 55 323t153 234.5t229.5 139.5t287.5 48q141 0 268.5 -53.5t204.5 -146.5v137q0 13 10.5 24t24.5 11h893q13 0 24 -11t11 -24v-176q0 -13 -11 -24t-24 -11zM848 217q66 0 128.5 14t127 50t112 90.5t77.5 143.5t30 202t-30 202t-77.5 143.5t-112 90.5 t-127 50t-128.5 14t-128 -14t-126 -50t-111 -90.5t-76.5 -143.5t-29.5 -202t29.5 -202t76.5 -143.5t111 -90.5t126 -50t128 -14z" />
<glyph unicode="&#x153;" horiz-adv-x="1691" d="M1589 410v-2q0 -35 -37 -35h-585q20 -176 192 -176q89 0 141 39q28 22 56 6l127 -76q13 -8 16.5 -22t-6.5 -25q-125 -144 -334 -144q-94 0 -176.5 37t-136.5 103q-54 -66 -137 -103t-177 -37q-189 0 -309.5 113.5t-120.5 321.5t120.5 321t309.5 113q94 0 177 -37.5 t137 -104.5q54 67 136.5 104.5t176.5 37.5q189 0 309.5 -113t120.5 -321zM532 203q35 0 67.5 10.5t62 33t47.5 65t18 98.5t-18 98t-47.5 64.5t-62 33t-67.5 10.5t-67 -10.5t-61.5 -33t-47.5 -64.5t-18 -98t18 -98.5t47.5 -65t61.5 -33t67 -10.5zM979 504h358 q-23 58 -72.5 85t-105.5 27q-58 0 -107.5 -27t-72.5 -85z" />
<glyph unicode="&#x178;" horiz-adv-x="1536" d="M692 1786q0 -60 -41.5 -102t-101.5 -42t-101.5 42t-41.5 102t41.5 101.5t101.5 41.5t101.5 -41.5t41.5 -101.5zM1130 1786q0 -60 -41.5 -102t-101.5 -42t-101.5 42t-41.5 102t41.5 101.5t101.5 41.5t101.5 -41.5t41.5 -101.5zM1436 1405l-541 -827v-543q0 -13 -10.5 -24 t-24.5 -11h-184q-14 0 -24.5 11t-10.5 24v543l-541 827q-6 10 0 19.5t17 9.5h233q34 0 53 -29l365 -563l365 563q16 29 53 29h233q11 0 17 -9.5t0 -19.5z" />
<glyph unicode="&#x2c6;" horiz-adv-x="671" d="M29 1186l278 205q29 23 58 0l278 -205q27 -21 8 -49l-61 -82q-20 -26 -51 -11l-203 125l-205 -125q-27 -18 -49 11l-62 82q-20 23 9 49z" />
<glyph unicode="&#x2dc;" horiz-adv-x="620" d="M496 1294h90q14 0 24.5 -10.5t10.5 -23.5q-4 -105 -60 -166t-149 -66q-41 2 -73.5 17t-49.5 32t-37 31t-39 14q-37 0 -51 -57q-2 -14 -12 -24.5t-23 -10.5h-92q-13 0 -24 11t-11 24q4 109 58.5 167.5t148.5 63.5q34 -2 60.5 -12.5t42.5 -24t29 -27t28.5 -23t33.5 -9.5 q44 0 60 60q2 14 12 24t23 10z" />
<glyph unicode="&#x2000;" horiz-adv-x="1031" />
<glyph unicode="&#x2001;" horiz-adv-x="2062" />
<glyph unicode="&#x2002;" horiz-adv-x="1031" />
<glyph unicode="&#x2003;" horiz-adv-x="2062" />
<glyph unicode="&#x2004;" horiz-adv-x="687" />
<glyph unicode="&#x2005;" horiz-adv-x="515" />
<glyph unicode="&#x2006;" horiz-adv-x="343" />
<glyph unicode="&#x2007;" horiz-adv-x="343" />
<glyph unicode="&#x2008;" horiz-adv-x="257" />
<glyph unicode="&#x2009;" horiz-adv-x="412" />
<glyph unicode="&#x200a;" horiz-adv-x="114" />
<glyph unicode="&#x2010;" horiz-adv-x="956" d="M778 317h-600q-14 0 -24.5 10.5t-10.5 24.5v113q0 13 10.5 24t24.5 11h600q14 0 24.5 -11t10.5 -24v-113q0 -14 -10.5 -24.5t-24.5 -10.5z" />
<glyph unicode="&#x2011;" horiz-adv-x="956" d="M778 317h-600q-14 0 -24.5 10.5t-10.5 24.5v113q0 13 10.5 24t24.5 11h600q14 0 24.5 -11t10.5 -24v-113q0 -14 -10.5 -24.5t-24.5 -10.5z" />
<glyph unicode="&#x2012;" horiz-adv-x="956" d="M778 317h-600q-14 0 -24.5 10.5t-10.5 24.5v113q0 13 10.5 24t24.5 11h600q14 0 24.5 -11t10.5 -24v-113q0 -14 -10.5 -24.5t-24.5 -10.5z" />
<glyph unicode="&#x2013;" d="M887 317h-709q-14 0 -24.5 10.5t-10.5 24.5v113q0 13 10.5 24t24.5 11h709q13 0 24 -11t11 -24v-113q0 -14 -11 -24.5t-24 -10.5z" />
<glyph unicode="&#x2014;" horiz-adv-x="1241" d="M1063 317h-885q-14 0 -24.5 10.5t-10.5 24.5v113q0 13 10.5 24t24.5 11h885q13 0 24 -11t11 -24v-113q0 -14 -11 -24.5t-24 -10.5z" />
<glyph unicode="&#x2018;" horiz-adv-x="471" d="M152 1102l73 297q9 35 43 35h66q14 0 24.5 -11t10.5 -24v-469q0 -14 -10.5 -24.5t-24.5 -10.5h-156q-14 0 -24.5 10.5t-10.5 24.5v104q0 38 9 68z" />
<glyph unicode="&#x2019;" horiz-adv-x="471" d="M319 1225l-73 -297q-9 -33 -43 -33h-66q-13 0 -24 10.5t-11 24.5v469q0 13 11 24t24 11h156q13 0 24 -11t11 -24v-105q0 -39 -9 -69z" />
<glyph unicode="&#x201a;" horiz-adv-x="563" d="M414 154l-88 -416q-6 -35 -41 -35h-107q-13 0 -23 10.5t-8 24.5l37 416q3 34 39 34h162q13 0 22 -10t7 -24z" />
<glyph unicode="&#x201c;" horiz-adv-x="841" d="M152 1102l73 297q9 35 43 35h66q14 0 24.5 -11t10.5 -24v-469q0 -14 -10.5 -24.5t-24.5 -10.5h-156q-14 0 -24.5 10.5t-10.5 24.5v104q0 38 9 68zM522 1102l74 297q9 35 43 35h66q13 0 23.5 -10.5t10.5 -24.5v-469q0 -14 -10.5 -24.5t-23.5 -10.5h-156q-13 0 -24 10.5 t-11 24.5v104q0 41 8 68z" />
<glyph unicode="&#x201d;" horiz-adv-x="841" d="M690 1225l-74 -297q-9 -33 -43 -33h-65q-14 0 -24.5 10.5t-10.5 24.5v469q0 13 10.5 24t24.5 11h156q13 0 23.5 -10.5t10.5 -24.5v-105q0 -42 -8 -69zM319 1225l-73 -297q-9 -33 -43 -33h-66q-13 0 -24 10.5t-11 24.5v469q0 13 11 24t24 11h156q13 0 24 -11t11 -24v-105 q0 -39 -9 -69z" />
<glyph unicode="&#x201e;" horiz-adv-x="946" d="M414 154l-88 -416q-6 -35 -41 -35h-107q-13 0 -23 10.5t-8 24.5l37 416q3 34 39 34h162q13 0 22 -10t7 -24zM797 154l-88 -416q-6 -35 -41 -35h-107q-13 0 -23 10.5t-8 24.5l37 416q3 34 39 34h162q13 0 22 -10t7 -24z" />
<glyph unicode="&#x2022;" horiz-adv-x="663" d="M143 410q0 79 54.5 133.5t134.5 54.5t134 -54t54 -134t-54.5 -134.5t-133.5 -54.5q-80 0 -134.5 54.5t-54.5 134.5z" />
<glyph unicode="&#x2026;" horiz-adv-x="1726" d="M143 125q0 60 43 102.5t103 42.5t102.5 -42.5t42.5 -102.5t-42.5 -102.5t-102.5 -42.5t-103 42.5t-43 102.5zM721 125q0 60 42.5 102.5t102.5 42.5t103 -42.5t43 -102.5t-43 -102.5t-103 -42.5t-102.5 42.5t-42.5 102.5zM1292 125q0 60 43 102.5t103 42.5t102.5 -42.5 t42.5 -102.5t-42.5 -102.5t-102.5 -42.5t-103 42.5t-43 102.5z" />
<glyph unicode="&#x202f;" horiz-adv-x="412" />
<glyph unicode="&#x2039;" horiz-adv-x="841" d="M696 694l-250 -280l250 -281q10 -11 9.5 -25.5t-11.5 -25.5l-88 -88q-24 -24 -49 0l-410 395q-25 25 0 49l410 396q25 24 49 0l88 -89q11 -11 11.5 -25.5t-9.5 -25.5z" />
<glyph unicode="&#x203a;" horiz-adv-x="841" d="M395 414l-250 280q-10 11 -9.5 25.5t11.5 25.5l89 89q24 24 49 0l409 -396q21 -24 0 -49l-409 -395q-25 -24 -49 0l-89 88q-11 11 -11.5 25.5t9.5 25.5z" />
<glyph unicode="&#x205f;" horiz-adv-x="515" />
<glyph unicode="&#x20ac;" horiz-adv-x="1343" d="M41 799v125q0 13 10.5 23.5t24.5 10.5h160q22 131 70 229t116.5 157.5t150.5 88.5t179 29q166 0 290.5 -87t188.5 -267q9 -35 -23 -43l-166 -45q-30 -6 -45 24q-71 181 -245 181q-207 0 -269 -267h254q14 0 24.5 -10.5t10.5 -23.5v-125q0 -13 -11 -24t-24 -11h-274v-47 v-53h274q13 0 24 -11t11 -24v-125q0 -14 -11 -24.5t-24 -10.5h-252q61 -260 267 -260q166 0 239 162q15 29 45 20l160 -57q13 -4 19.5 -17.5t1.5 -27.5q-67 -162 -187 -240t-278 -78q-198 0 -333 121.5t-183 376.5h-160q-14 0 -24.5 10.5t-10.5 24.5v125q0 13 10.5 24 t24.5 11h141v53v47h-141q-14 0 -24.5 11t-10.5 24z" />
<glyph unicode="&#x2122;" horiz-adv-x="1566" d="M1366 1434h84q14 0 24.5 -11t10.5 -24v-629q0 -14 -10.5 -24.5t-24.5 -10.5h-104q-14 0 -24.5 10.5t-10.5 24.5v348l-146 -194q-10 -13 -26 -13q-17 0 -27 13l-145 194v-348q0 -14 -10.5 -24.5t-24.5 -10.5h-105q-13 0 -23.5 10.5t-10.5 24.5v629q0 14 10.5 24.5 t23.5 10.5h84q37 0 56 -29l172 -234l172 234q19 29 55 29zM117 1434h469q14 0 24.5 -11t10.5 -24v-103q0 -13 -10.5 -23.5t-24.5 -10.5h-146v-492q0 -14 -10.5 -24.5t-23.5 -10.5h-107q-13 0 -24 10.5t-11 24.5v492h-147q-14 0 -24.5 10.5t-10.5 23.5v103q0 13 11 24t24 11z " />
<glyph unicode="&#x25fc;" horiz-adv-x="819" d="M0 819h819v-819h-819v819z" />
</font>
</defs>
</svg>
