<?xml version="1.0" standalone="no"?>
<!DOCTYPE svg PUBLIC "-//W3C//DTD SVG 1.1//EN" "http://www.w3.org/Graphics/SVG/1.1/DTD/svg11.dtd" >
<svg xmlns="http://www.w3.org/2000/svg" xmlns:xlink="http://www.w3.org/1999/xlink" version="1.1">
<metadata></metadata>
<defs>
<font id="nexa_scriptthin" horiz-adv-x="0" >
<font-face units-per-em="2048" ascent="1638" descent="-410" />
<missing-glyph horiz-adv-x="491" />
<glyph unicode=" "  horiz-adv-x="491" />
<glyph unicode="&#x09;" horiz-adv-x="491" />
<glyph unicode="&#xa0;" horiz-adv-x="491" />
<glyph unicode="!" horiz-adv-x="679" d="M211 344q46 157 147 570t113 460q14 55 60 53q35 -1 53 -29q10 -16 6 -32q-54 -195 -152.5 -585.5t-115.5 -454.5q-8 -33 -38.5 -37.5t-55 14t-17.5 41.5zM190 -2q-31 0 -51 23t-18 55q2 31 26 53.5t56 22.5q33 0 52 -22.5t17 -55.5q-3 -31 -27 -53.5t-55 -22.5z" />
<glyph unicode="&#x22;" horiz-adv-x="653" d="M129 1106q-5 -17 -28 -23t-42.5 4t-13.5 33l59 260q7 29 33.5 35.5t48 -9.5t13.5 -42zM356 1106q-5 -17 -28 -23t-42.5 4t-13.5 33l60 260q7 29 33.5 35.5t47.5 -9.5t13 -42z" />
<glyph unicode="#" horiz-adv-x="1097" d="M295 164q-6 -23 -31 -29.5t-46.5 4.5t-16.5 31l92 342h-156q-24 0 -26 29q-2 32 22 47q9 6 19 6h161l62 225h-156q-24 0 -26 29q-3 32 21 47q9 6 19 6h162l82 303q8 30 49 30q35 -1 46 -21q3 -7 1 -15l-79 -297h190l82 303q8 30 49 30q35 -1 46 -21q3 -7 1 -15l-80 -297 h156q24 0 28 -28q3 -31 -20 -47q-10 -7 -22 -7h-164l-60 -225h158q24 0 28 -28q3 -31 -20 -47q-10 -7 -22 -7h-166l-94 -348q-6 -23 -31.5 -29.5t-47 4.5t-16.5 31l93 342h-193zM412 594h190l62 225h-193z" />
<glyph unicode="$" horiz-adv-x="1064" d="M807 1395l-33 -119q106 -23 156 -91.5t45 -156.5q0 -19 -23.5 -30.5t-47 -8t-23.5 20.5q0 66 -35.5 106.5t-100.5 54.5l-122 -469q3 -3 37 -34.5t40 -37.5l34.5 -34.5t35.5 -40t27.5 -38t26.5 -44t16 -43.5t12 -50.5t0 -51.5q-11 -165 -117 -258t-303 -93l-37 -141 q-7 -33 -33 -38.5t-45 14t-10 43.5q6 21 17.5 64t17.5 65q-109 20 -179 89.5t-90.5 157t-0.5 177.5q0 20 34 16q39 -4 54 -29q4 -8 4 -16q-8 -100 47.5 -181.5t161.5 -103.5q25 95 72 280t69 271q-46 42 -75.5 74.5t-59.5 77t-42.5 93.5t-6.5 103q13 144 105 218.5t245 74.5 q5 17 14.5 53.5t14.5 53.5q2 42 44 39q33 -2 50 -22q6 -8 4 -15zM651 1180q-80 0 -128.5 -38t-61.5 -100q-14 -63 8 -134.5t78 -133.5zM590 578l-129 -490q77 1 135 28.5t88 69.5t40.5 95.5t-2 107t-46.5 104t-86 85.5z" />
<glyph unicode="%" horiz-adv-x="1110" d="M233 39q-17 -21 -42.5 -19.5t-44 22t-5.5 40.5l690 1139q31 51 77 40q31 -7 39 -34q4 -16 -5 -31zM270 827q-85 0 -130 65t-23 152q20 85 89.5 137t158.5 52q83 0 130 -60t27 -147q-20 -88 -93 -143.5t-159 -55.5zM291 924q45 0 84 30.5t49 75.5t-15 76t-67 31 q-46 0 -83 -30.5t-48 -76.5q-10 -46 13 -76t67 -30zM723 68q-83 0 -130.5 63t-25.5 148q20 85 92.5 139.5t157.5 54.5q86 0 131 -60.5t25 -148.5t-90.5 -142t-159.5 -54zM745 164q46 0 84 30t48 76t-13 76.5t-67 30.5q-45 0 -84 -31t-49 -76t14.5 -75.5t66.5 -30.5z" />
<glyph unicode="&#x26;" horiz-adv-x="1130" d="M449 1067q41 133 155 192q99 51 194 21q90 -28 119 -115q19 -63 1 -143q-8 -35 -28 -68t-41.5 -57t-57.5 -53t-60.5 -45.5t-67.5 -44.5t-63 -41q52 -105 75.5 -152.5t74 -135.5t96.5 -151q115 143 137 322q4 29 32 28q28 0 40 -25q5 -13 4 -26q-24 -216 -160 -366 q64 -83 148 -170q22 -22 -8 -39q-32 -18 -66 -5q-9 4 -15 9q-38 35 -120 133q-159 -156 -377 -153q-93 1 -162 32.5t-106 82.5t-51 112t-5 127q28 236 336 409q-69 178 -24 322zM563 1063q-48 -137 -2 -260q9 6 57 37.5t63 43.5t46.5 39.5t48.5 54.5t29 60q33 91 -22 131 q-44 32 -110 8q-74 -26 -106 -103zM516 657q-134 -90 -193 -160.5t-69 -160.5q-5 -47 4.5 -90t34 -79.5t72 -59t112.5 -23.5q164 -3 305 121q-47 63 -100 150.5t-82 141.5t-84 160z" />
<glyph unicode="'" horiz-adv-x="464" d="M262 1106q-5 -17 -28 -23t-42.5 4t-13.5 33l60 260q7 29 33.5 35.5t47.5 -9.5t13 -42z" />
<glyph unicode="(" horiz-adv-x="946" d="M434 -303q-125 197 -168.5 401.5t-9.5 464.5q35 263 164.5 472t337.5 345q21 14 42 -2t22.5 -40t-19.5 -42q-170 -115 -279.5 -313t-144.5 -432q-31 -211 4.5 -422t136.5 -381q7 -13 4.5 -27.5t-13.5 -24.5t-24.5 -16t-28.5 -2t-24 19z" />
<glyph unicode=")" horiz-adv-x="776" d="M102 -317q-21 -14 -42 2t-22.5 40t19.5 42q181 122 292 335.5t138 464.5q22 199 -15 393.5t-132 354.5q-7 13 -4.5 27.5t13.5 24.5t24.5 16t28.5 2t24 -19q125 -197 168.5 -401.5t9.5 -464.5q-35 -263 -164.5 -472t-337.5 -345z" />
<glyph unicode="*" horiz-adv-x="692" d="M616 934q13 -14 7 -34.5t-26.5 -33.5t-35.5 0l-137 103l-14 -178q-2 -26 -38 -31q-37 -6 -50 14q-4 8 -3 17l19 180l-160 -105q-15 -11 -34 3t-24 33.5t9 31.5l180 110l-153 109q-14 14 -8.5 33.5t27 32.5t38.5 2l133 -103l21 180q1 18 24.5 26t45.5 0t20 -26l-21 -180 l156 103q17 9 36.5 -5t23.5 -33t-11 -30l-170 -113z" />
<glyph unicode="+" horiz-adv-x="989" d="M455 242q-5 -18 -32 -22t-50.5 7t-18.5 29l82 289h-205q-20 0 -25.5 24t7 48t35.5 24l215 -2l80 285q7 26 34.5 30.5t49.5 -10.5t16 -37l-76 -268h209q27 0 29 -32q2 -34 -21 -53q-11 -9 -24 -9h-219z" />
<glyph unicode="," horiz-adv-x="512" d="M125 -229q-13 -9 -31.5 -2t-25 21t3.5 26q84 76 108 186q-19 8 -33 27t-14 43q0 37 25 59.5t57 22.5q32 -2 52.5 -23.5t19.5 -60.5q-3 -83 -47.5 -164.5t-114.5 -134.5z" />
<glyph unicode="-" horiz-adv-x="946" d="M293 473q-20 0 -25.5 26.5t7.5 52.5t36 26h342q20 0 25.5 -26t-7.5 -52.5t-36 -26.5h-342z" />
<glyph unicode="." horiz-adv-x="421" d="M115 -2q-32 0 -52 23t-18 55q2 31 26 53.5t56 22.5q33 0 52.5 -22.5t17.5 -55.5q-3 -31 -27 -53.5t-55 -22.5z" />
<glyph unicode="/" horiz-adv-x="776" d="M47 41q60 98 162 355t207 519.5t172 372.5q33 52 84 43q33 -6 41 -31q5 -14 -4 -26q-71 -106 -158 -300t-153.5 -372t-140 -356t-120.5 -252q-20 -19 -46.5 -19t-43 20.5t-0.5 45.5z" />
<glyph unicode="0" horiz-adv-x="989" d="M633 1329q353 -6 260 -567q-19 -113 -48.5 -217.5t-78.5 -208.5t-109 -180.5t-144.5 -124t-180.5 -47.5q-157 0 -221 150.5t-21 449.5q21 144 68 276t114.5 239t161.5 169.5t199 60.5zM623 1229q-84 2 -159 -67.5t-126 -178.5t-85 -222.5t-48 -217.5q-59 -449 141 -449 q82 0 155.5 59.5t126 159t89.5 218.5t57 249q8 49 12.5 86.5t7 86t-0.5 84.5t-14 73.5t-30 61.5t-51 40t-75 17z" />
<glyph unicode="1" horiz-adv-x="716" d="M512 1280q23 57 73 55q37 -2 53 -31q8 -15 3 -30q-66 -203 -181.5 -695t-142.5 -583q-12 -15 -39 -15.5t-51 14.5t-16 32q6 27 51.5 221t72 306.5t69 279t73.5 274.5q-148 -178 -340 -287q-20 -7 -40.5 11t-24.5 40t8 33q111 64 225.5 159.5t206.5 215.5z" />
<glyph unicode="2" horiz-adv-x="976" d="M717 6q-105 1 -305.5 0t-298.5 0q-47 0 -68 28t-9 64t48 58q107 64 229.5 181t230 269.5t142.5 282.5q41 156 -12.5 240.5t-153.5 84.5q-96 -2 -169 -79t-66 -205q4 -31 -24 -47.5t-57.5 -3.5t-29.5 51q3 183 109 287t245 106q96 1 171 -48.5t110.5 -149.5t-2.5 -251 q-54 -209 -243 -436.5t-384 -335.5q262 20 568 2q33 -5 29 -40q-4 -34 -33 -51q-13 -8 -27 -7z" />
<glyph unicode="3" horiz-adv-x="956" d="M428 733q152 15 241.5 86t96.5 187q8 119 -76 175q-72 48 -164 24q-98 -25 -146 -117q-29 -53 -32 -121q-2 -24 -29.5 -35.5t-53.5 -2t-25 37.5q14 197 151 292q107 75 240 58q126 -16 198 -105q76 -94 52 -231q-22 -119 -109 -192.5t-197 -94.5q61 -8 108 -34t74 -63 t44 -84t16.5 -96.5t-8.5 -99.5q-37 -189 -183 -281q-123 -78 -266 -57q-140 21 -219 125q-85 112 -61 281q3 21 31.5 26.5t54.5 -6.5t22 -36q-11 -93 29 -163.5t107.5 -95.5t140 -19t134.5 66t83 160q8 49 10 96t-14 89t-44.5 74t-82.5 50t-127 17q-22 0 -32 23.5t0 46 t36 20.5z" />
<glyph unicode="4" horiz-adv-x="1040" d="M776 1311q22 23 51.5 23.5t47 -17.5t10.5 -43q-27 -104 -52 -239.5t-55 -322t-47 -280.5q127 0 156 -2q17 -1 28.5 -11.5t13.5 -24.5t-1.5 -27.5t-17.5 -22.5t-33 -8q-70 4 -162 4q-42 -214 -68 -320q-9 -23 -57 -20q-43 3 -50 23q-2 5 1 12q16 64 63 301 q-365 -21 -504 -8q-30 5 -40 28t10 56q97 129 362 456.5t344 442.5zM752 1126q-103 -149 -295 -387.5t-252 -318.5q32 1 111 1t154.5 1.5t150.5 5.5q93 526 131 698z" />
<glyph unicode="5" horiz-adv-x="999" d="M850 1321q21 4 39.5 -14t19 -39.5t-19.5 -38.5q-103 -45 -232.5 -49t-226.5 32q-44 -257 -90 -395q154 49 259 35t165 -80.5t79 -157.5t1 -196q-15 -83 -52 -159.5t-91.5 -138.5t-131 -99t-163.5 -37q-69 0 -127 17.5t-97.5 48.5t-67.5 72.5t-40.5 90t-12.5 100t13 103.5 q2 21 28.5 28.5t52 -2.5t23.5 -34q-25 -137 37 -225t191 -91q114 -3 200.5 90.5t116.5 225.5q19 84 6.5 158t-60 128t-137 64.5t-223.5 -33.5q-23 -6 -47.5 -8t-39.5 12.5t-7 42.5q33 95 109 440q9 47 19 70t21 31.5t33.5 4.5t47 -11.5t72 -15.5t99.5 -9q106 -3 234 39z" />
<glyph unicode="6" horiz-adv-x="1005" d="M367 -18q-86 -2 -148.5 36t-95.5 106t-44.5 152.5t-2.5 182.5q7 81 25 172t48 190t75.5 188.5t101 161.5t131.5 115t161 43q98 1 168 -42.5t101 -123.5q8 -19 -15 -37.5t-49 -19.5t-35 16q-42 110 -174 107q-61 -2 -116.5 -39.5t-96.5 -95t-77 -136t-59.5 -155 t-41.5 -158.5q62 99 149 162.5t195 64.5q104 1 173 -58.5t92 -153.5t4 -205q-34 -200 -163 -337t-306 -136zM369 88q133 -1 225.5 106t122.5 265q13 60 9 116t-20 99.5t-55 69.5t-96 26q-108 -1 -206 -85.5t-156 -211.5q-36 -382 176 -385z" />
<glyph unicode="7" horiz-adv-x="788" d="M707 1309q39 9 66 -16.5t7 -57.5q-50 -79 -109 -194t-104.5 -213t-107.5 -244t-91.5 -218.5t-84 -209.5t-58.5 -148q-12 -15 -42 -15.5t-51 15.5t-9 41q324 844 514 1155q-157 -37 -292 -34t-247 40q-27 8 -28 36.5t17 51.5t36 17q250 -87 584 -6z" />
<glyph unicode="8" horiz-adv-x="931" d="M268 1087q17 143 137 209q104 56 227 31q119 -25 175 -112q54 -82 27 -193q-38 -161 -265 -303q260 -191 236 -404q-18 -151 -128 -243.5t-308 -89.5q-70 1 -127 22t-94 55.5t-60.5 80t-31 95t-1.5 101.5q14 124 107.5 225.5t245.5 173.5q-82 65 -120 157.5t-20 194.5z M379 1069q-13 -73 19.5 -149.5t99.5 -141.5q93 55 155 126t74 140q24 93 -47 151q-60 49 -143 40q-92 -10 -135 -88q-18 -34 -23 -78zM471 666q-126 -50 -205.5 -138t-91.5 -192q-12 -98 42 -173t169 -79q131 -4 212 68.5t89 183.5q7 92 -53.5 177t-161.5 153z" />
<glyph unicode="9" horiz-adv-x="970" d="M358 -18q-85 -1 -152.5 37t-103.5 104q-8 14 10 33t39.5 25t32.5 -5q68 -97 178 -94q62 2 117 35.5t95 85.5t74 124.5t56 143t39 150.5q-108 -180 -319 -183q-69 -1 -124 22.5t-88 63.5t-54 94t-23 114t6 124q21 131 79.5 237t155 171.5t214.5 64.5q93 2 159 -36 t99.5 -106.5t45 -152t3.5 -182.5q-7 -84 -23.5 -172.5t-44.5 -189.5t-71.5 -189t-98.5 -160.5t-133 -115.5t-168 -43zM436 541q259 3 346 323q9 75 2.5 140t-25.5 113.5t-62.5 76.5t-108.5 29q-132 1 -216.5 -105t-111.5 -266q-12 -57 -8 -113t20 -100.5t58 -71.5t106 -26z " />
<glyph unicode=":" horiz-adv-x="563" d="M299 625q-33 0 -55.5 24.5t-22.5 57.5q0 32 22 53.5t56 23.5q33 0 56.5 -23t23.5 -56q-2 -33 -25 -56.5t-55 -23.5zM143 -2q-33 0 -56.5 23.5t-23.5 56.5q0 32 23 55t57 25q31 0 54.5 -24.5t23.5 -57.5q-1 -32 -24 -55t-54 -23z" />
<glyph unicode=";" horiz-adv-x="651" d="M346 625q-33 0 -55.5 24.5t-22.5 57.5q0 32 22 53.5t56 23.5q33 0 56.5 -23t23.5 -56q-2 -33 -25 -56.5t-55 -23.5zM100 -227q-13 -9 -30.5 -2.5t-23 20t4.5 25.5q86 77 109 186q-19 8 -33 27t-14 43q0 36 22.5 58t52.5 24q33 0 56 -22t22 -62q-3 -82 -49.5 -163.5 t-116.5 -133.5z" />
<glyph unicode="&#x3c;" horiz-adv-x="706" d="M330 215l-201 340q-22 33 -17 62t40 59l350 293q21 18 45.5 5t28 -38.5t-18.5 -48.5l-334 -281l201 -334q5 -10 0 -23.5t-17.5 -24.5t-26.5 -18.5t-28 -5.5t-22 15z" />
<glyph unicode="=" horiz-adv-x="1034" d="M276 657q-25 0 -27 33q-2 37 23 55q10 7 21 7h528q27 0 29 -33q2 -36 -23 -54q-10 -8 -22 -8h-529zM233 426q-25 0 -27 32q-2 36 22 54q10 8 22 8h528q27 0 29 -32q2 -34 -21 -53q-11 -9 -24 -9h-529z" />
<glyph unicode="&#x3e;" horiz-adv-x="706" d="M356 961l201 -340q22 -33 17.5 -62t-39.5 -59l-351 -293q-21 -18 -45.5 -5t-28 38.5t18.5 48.5l334 280l-199 334q-5 10 -0.5 23.5t16.5 25t26 18.5t28 5.5t22 -14.5z" />
<glyph unicode="?" horiz-adv-x="927" d="M203 330q3 48 14.5 89.5t33 78.5t40 62t49.5 61q33 38 94.5 99t102.5 103.5t83 107.5t60 132q54 204 -102 248q-103 28 -192 -44.5t-112 -211.5q-5 -32 -34.5 -44.5t-55 4.5t-20.5 54q16 102 60 178.5t104 118.5t130 57t142 2q122 -23 180.5 -121t20.5 -251 q-18 -71 -50 -131.5t-74.5 -108t-83.5 -85t-92.5 -84.5t-84.5 -85q-51 -57 -79.5 -108t-35.5 -125q-2 -20 -27 -28t-48.5 1.5t-22.5 30.5zM229 -2q-31 0 -51 23t-18 55q2 31 26 53.5t56 22.5q33 0 52 -22.5t17 -55.5q-3 -31 -27 -53.5t-55 -22.5z" />
<glyph unicode="@" horiz-adv-x="1622" d="M936 1108q113 -1 204.5 -27t162 -78t110 -137.5t41.5 -199.5q4 -149 -57 -292t-172.5 -236t-239.5 -93q-74 0 -106.5 57.5t-10.5 155.5q-33 -53 -55.5 -84.5t-57 -68t-73.5 -54t-84 -18.5q-100 -3 -144 77.5t-23 201t95 235.5q66 100 149 160.5t167 74.5q80 16 167 -6 t152 -80q12 -13 1.5 -33.5t-29 -29t-35.5 1.5q-54 43 -117 59t-119 4q-71 -15 -138.5 -74t-115.5 -145q-53 -94 -64.5 -196t29.5 -146q43 -46 118.5 10.5t150.5 186t116 280.5q6 22 32 24.5t47.5 -10t17.5 -28.5q-5 -22 -41 -156.5t-45 -197.5q-11 -57 -5.5 -85t37.5 -28 q58 0 108.5 26t86 69.5t63.5 98t44.5 114.5t24.5 116t7 105q-1 158 -106.5 247t-290.5 92q-112 2 -213.5 -31.5t-180 -94t-139.5 -142t-99.5 -176t-53.5 -195.5q-26 -167 8.5 -298.5t120.5 -204t217.5 -85t300.5 57.5q23 9 33 -21q11 -34 -8 -57q-7 -9 -17 -12 q-205 -80 -362.5 -63.5t-259 105t-143 240t-15.5 341.5q19 144 84.5 277t167 238.5t246.5 167.5t311 60z" />
<glyph unicode="A" horiz-adv-x="1519" d="M305 -20q-122 0 -172.5 83.5t-17.5 206.5q31 112 119 191t205 111t241 14q107 266 199 453.5t178 273.5q50 50 100.5 74.5t89 21t68 -27.5t37 -72t-3.5 -111q-95 -458 -144 -655q246 25 369 176q17 22 35 8q20 -16 8 -45q-3 -7 -8 -14q-67 -98 -183 -153.5t-243 -65.5 q-10 -46 -32 -133.5t-37 -157t-21 -131.5q-2 -18 -34 -25t-61.5 1.5t-25.5 27.5q7 47 19 104t19.5 88.5t28.5 114.5t27 106q-26 1 -72.5 7t-118 16t-120.5 16q-37 -94 -68.5 -161.5t-73.5 -136t-85.5 -110.5t-100.5 -68.5t-121 -26.5zM1087 537q102 396 162 690 q15 73 -21 86.5t-87 -39.5q-34 -35 -70.5 -90t-62.5 -103t-62.5 -131t-53.5 -124.5t-53.5 -135t-45.5 -115.5q261 -37 294 -38zM313 84q43 0 79.5 19t66.5 52t58 80.5t54 103t55 120.5q10 23 15 35q-164 5 -266 -51.5t-142 -182.5q-25 -70 -4 -123t84 -53z" />
<glyph unicode="B" horiz-adv-x="1675" d="M1053 1434q149 -1 259 -56.5t160 -149.5t31 -208q-19 -110 -111 -187.5t-196 -93.5q59 -10 115 -40.5t100.5 -77t68.5 -114t17 -142.5q-19 -193 -136.5 -291.5t-322.5 -91.5q-56 2 -103.5 13t-93.5 34t-77 42.5t-84 57.5q-45 -70 -117.5 -107.5t-148.5 -39.5 q-93 0 -155.5 50t-61.5 138q2 110 77.5 164t180 41t194.5 -82q42 103 80.5 243.5t65 244t61 202.5t86.5 158.5t125 72.5q25 5 41.5 -10t12.5 -36.5t-31 -34.5q-30 -13 -55.5 -38.5t-41 -52.5t-30.5 -66.5t-22.5 -68.5t-18.5 -71.5t-17 -63.5q184 -11 312 52.5t159 193.5 q31 131 -52 216.5t-273 88.5q-87 1 -168 -20.5t-145.5 -59t-110 -91t-65.5 -114t-7.5 -131t59.5 -139.5q10 -14 3.5 -31t-21.5 -26t-31.5 -11.5t-27.5 11.5q-61 49 -89 117.5t-22.5 137t31 132.5t67.5 114q88 102 224 162.5t305 59.5zM879 688q-2 -6 -32 -118.5t-57.5 -195 t-60.5 -153.5q90 -76 198.5 -108.5t202.5 -18t162 85t78 187.5q10 129 -64.5 207.5t-189.5 99.5q-113 19 -237 14zM453 281q-81 13 -125 -40q-36 -43 -18 -91q22 -59 109 -65q12 -1 25 -1q88 3 160 121q-91 69 -151 76z" />
<glyph unicode="C" horiz-adv-x="1198" d="M995 1432q86 -5 142.5 -58.5t65 -135t-35.5 -181.5q-51 -106 -163.5 -157t-244 -33.5t-233.5 98.5q-94 -198 -100 -396q-9 -232 58.5 -356t207.5 -125q68 -1 133 17.5t132.5 61.5t129.5 124.5t109 195.5q6 8 20.5 6.5t27.5 -14.5t7 -26q-98 -247 -235.5 -357.5 t-337.5 -113.5q-85 -1 -153 28.5t-113 81.5t-74 125t-39.5 156.5t-5.5 177.5q16 279 153 520q-49 75 -82 162t-34 156q-3 23 26 29q33 7 51 -14q8 -9 9 -20q3 -88 84 -229q213 293 495 277zM973 1319q-125 7 -220.5 -62t-174.5 -198q56 -52 128.5 -73.5t137.5 -14 t119.5 35.5t80.5 70q36 57 39.5 112.5t-26.5 91t-84 38.5z" />
<glyph unicode="D" horiz-adv-x="1710" d="M952 1432q148 -4 267 -60.5t194 -149.5t113.5 -214t36.5 -258q-2 -117 -23.5 -228.5t-67 -213.5t-109.5 -177t-156.5 -116t-202.5 -33q-121 8 -220 49.5t-163 99.5q-49 -75 -115 -113t-135 -38q-124 -1 -183.5 58.5t-52.5 143.5q11 106 87 155.5t176.5 35.5t187.5 -80 q32 86 77.5 244t79 270t88 225t115.5 162q27 22 62 0q30 -18 22 -40l-6 -11q-62 -64 -116.5 -195t-87 -258.5t-73 -265.5t-73.5 -201q54 -51 153.5 -90.5t188.5 -42.5q79 -2 147.5 33.5t117.5 98.5t84.5 148t53.5 181.5t19 198.5q2 121 -29.5 224t-93 181.5t-160.5 123 t-225 44.5q-94 0 -179 -36t-140 -95.5t-84.5 -130.5t-17.5 -149t66 -142q13 -15 0 -38t-36 -30.5t-43 7.5q-74 76 -97.5 168.5t-0.5 181t85 166.5q78 98 200.5 154.5t268.5 52.5zM383 283q-80 9 -119.5 -43t-8 -107t121.5 -55q14 0 26 1.5t24 7t20.5 9t19.5 13.5t16.5 14.5 t17 18.5t15.5 18.5t17 21.5t16 21q-43 34 -80 53.5t-86 26.5z" />
<glyph unicode="E" horiz-adv-x="1036" d="M467 1559q-4 -134 27 -213q68 57 161.5 76.5t174.5 2t136.5 -73.5t51.5 -137q-3 -80 -68 -132t-178 -42q-178 16 -276 134q-25 -56 -11.5 -117t49.5 -112.5t101.5 -88.5t144.5 -45q17 -2 21 -25.5t-5 -45.5t-26 -21q-55 3 -114.5 -7t-122 -37.5t-113 -68.5t-85.5 -107 t-42 -147q-9 -112 53.5 -186.5t173.5 -77.5q340 -7 514 399q6 7 21 6t28 -13.5t7 -26.5q-187 -489 -598 -471q-101 5 -180 56t-118.5 131t-33.5 173q10 176 132.5 303t287.5 139q-108 35 -168 122.5t-55.5 194t71.5 197.5q-34 90 -27 261q0 12 16.5 20t33 3t16.5 -23z M553 1260q84 -108 217 -117q62 -6 94.5 17.5t32.5 60.5q0 64 -64.5 93t-147 13.5t-132.5 -67.5z" />
<glyph unicode="F" horiz-adv-x="1224" d="M1032 1393q18 33 53 37.5t59.5 -14t16.5 -42.5q-50 -145 -87 -280t-111 -426q15 0 141 12q16 2 24.5 -17.5t2 -40.5t-28.5 -24q-109 -12 -162 -14q-27 -110 -50.5 -187t-52 -149.5t-59 -118.5t-70 -81.5t-87 -51.5t-107.5 -16q-75 -1 -134.5 29t-91.5 81.5t-40 114 t19 133.5t87 133q17 24 51.5 1.5t22.5 -46.5q-56 -79 -62 -158t41 -130t132 -50q44 1 78.5 22t60 59t48.5 96t44 127.5t45 158.5q5 21 8 31q-8 0 -90.5 -2.5t-97.5 0.5q-27 2 -34.5 22.5t4.5 40t32 19.5q135 -3 211 6q25 95 53 203t43.5 167.5t30.5 116.5t24 86t15 41 q-50 -49 -116 -66t-132 -11t-132 14t-133.5 1.5t-117.5 -40.5q-43 -28 -63 -69t-15.5 -78t27.5 -62q29 -32 110.5 -29.5t122.5 37.5q12 14 32.5 4t29 -29.5t-1.5 -38.5q-47 -52 -121.5 -70.5t-141.5 -5t-106 47.5q-54 46 -69.5 117t24 147.5t133.5 122.5q81 40 164.5 47.5 t149 -3t129 -17.5t126.5 13t119 79z" />
<glyph unicode="G" horiz-adv-x="1550" d="M1065 1427q172 -3 249.5 -99t14.5 -255q-56 -140 -186.5 -203.5t-286.5 -36t-287 137.5q-31 -47 -58 -110t-47.5 -133.5t-31 -146t-11 -146.5t15.5 -134.5t46 -111.5t82.5 -76t122.5 -29q267 0 465 438q11 15 35.5 15.5t48 -12t18.5 -27.5q-76 -261 -135 -506 q133 50 247 181.5t181 313.5q6 8 21 6.5t28 -14.5t7 -26q-98 -233 -212.5 -361.5t-301.5 -210.5q-30 -121 -63.5 -209t-65.5 -140.5t-70 -83t-72 -41t-76 -11.5q-75 -2 -117.5 38.5t-41.5 114.5q1 60 35 116.5t96.5 106t128.5 88.5t151 79q71 251 84 307 q-175 -269 -420 -264q-107 2 -185 47.5t-117.5 119t-56.5 167.5t-7.5 197t34 204t64.5 191t88 155q-125 147 -125 338q-1 23 30 24q33 1 49 -22q7 -10 5 -21q6 -77 27.5 -130.5t69.5 -112.5q97 126 243.5 208.5t286.5 79.5zM1057 1319q-108 1 -224.5 -70t-209.5 -194 q105 -82 225.5 -106t218 15t139.5 132q43 95 -7.5 158t-141.5 65zM969 -172q-54 -35 -84 -55t-74.5 -55.5t-69.5 -69t-32 -66.5q-10 -43 5 -62.5t44 -19.5q69 0 118.5 77.5t92.5 250.5z" />
<glyph unicode="H" horiz-adv-x="1667" d="M1020 1403q12 23 44 26.5t55.5 -12.5t15.5 -43q-22 -73 -46.5 -162t-43 -162t-54 -210.5t-61.5 -239.5q28 -4 93.5 -18.5t129.5 -25t123 -13.5q12 50 42.5 188t50 217t56 193t76.5 200q13 17 41 14.5t53.5 -21t16.5 -36.5q-35 -71 -69.5 -178t-51 -170t-52.5 -219.5 t-42 -183.5q197 24 329 168q21 22 41 7q24 -18 7 -55q-7 -16 -21 -32q-77 -83 -180.5 -130.5t-198.5 -55.5q-21 -80 -66 -232.5t-57 -196.5q-5 -17 -38 -21t-62 6.5t-23 29.5q94 301 123 411q-74 6 -201.5 32t-150.5 30q-65 -274 -159.5 -404.5t-252.5 -126.5 q-64 2 -110 21.5t-69.5 50t-33.5 72t-8 82.5t13 86q12 51 43 101t80.5 94t110.5 75.5t138 45t158 3.5q37 130 72 261.5t64.5 247t41.5 161.5q-45 -43 -107 -61t-109.5 -16t-126 10t-116.5 8q-40 0 -69.5 -2.5t-63 -10.5t-55.5 -22.5t-39 -41t-22 -63.5q-7 -44 16.5 -82 t63 -56.5t92.5 -11t100 47.5q12 14 31.5 4t26.5 -29.5t-5 -36.5q-48 -53 -118.5 -74t-137.5 -8t-112 54q-43 39 -62 98.5t-6 120.5q48 207 360 211q46 0 108.5 -7.5t105.5 -11.5t92.5 0t95.5 29.5t90 75.5zM788 514q-144 23 -254.5 -50t-136.5 -194q-38 -184 101 -184 q57 0 102.5 31.5t80 92.5t59.5 133t48 171z" />
<glyph unicode="I" horiz-adv-x="1032" d="M952 1391q13 33 46.5 38.5t59.5 -13t19 -42.5q-70 -232 -225 -831q-30 -118 -56 -198t-61.5 -155t-76.5 -118t-97 -68.5t-127 -26.5q-93 -1 -161 46.5t-93 118.5t-2.5 161t96.5 168q17 24 51.5 1.5t22.5 -46.5q-56 -79 -62 -158.5t41 -131t132 -50.5q27 0 51.5 8.5 t45 27.5t36.5 37t32 52t26 57t24 67.5t20.5 68.5t20.5 73q49 179 99.5 371.5t74.5 282t37 126.5q-59 -65 -135.5 -118.5t-139.5 -86.5t-121 -65t-95.5 -69.5t-47.5 -83.5q-28 -140 94 -152q20 -2 26 -25.5t-5.5 -45.5t-36.5 -19q-56 5 -98.5 24t-64.5 46t-36 60.5 t-12.5 66.5t6.5 63q17 74 69.5 127t128.5 90t157 74t174.5 100.5t162.5 147.5z" />
<glyph unicode="J" horiz-adv-x="1181" d="M307 -596q-110 5 -174 85t-33 200q17 59 55 108.5t76 80.5t109.5 64t112.5 48t127 43q20 7 30 10q281 1066 318 1202q-59 -61 -134 -113t-136.5 -83.5t-118 -63t-93 -68.5t-45.5 -83q-28 -140 95 -152q20 -2 26 -25.5t-6 -45.5t-37 -19q-56 5 -98.5 24t-64.5 46t-36 60.5 t-12.5 66.5t6.5 63q17 74 70 127t129 90t157.5 74t175 100.5t161.5 147.5q19 44 67 40q36 -3 49 -29q6 -13 2 -26q-39 -127 -164.5 -609.5t-177.5 -672.5q129 29 250.5 130.5t186.5 262.5q6 7 20 6t27 -13t8 -25q-23 -65 -56.5 -121.5t-64.5 -96t-77 -76.5t-76.5 -57.5 t-81.5 -44.5t-73.5 -32.5t-69.5 -25.5q-4 -2 -6.5 -2.5t-6 -2t-6.5 -2.5q-58 -265 -103 -365q-106 -233 -307 -225zM309 -492q53 -2 106 36.5t89 115.5q42 90 82 289q-305 -106 -365 -258q-29 -85 -1 -133t89 -50z" />
<glyph unicode="K" horiz-adv-x="1533" d="M1470 1401q8 16 24 22t33 2t32 -12.5t23 -21.5t3 -25q-44 -110 -100 -213t-126 -197t-155 -164.5t-174 -101.5q47 -21 80.5 -53t52.5 -75.5t29 -84t18 -96.5q29 -194 62 -283q74 -195 227 -196q23 0 21 -30q-3 -35 -33 -53q-13 -9 -29 -9q-64 0 -114.5 21t-85 60 t-59.5 86t-42 109t-28 117.5t-22 122.5q-7 45 -11 67q-23 131 -82.5 193.5t-151.5 52.5q-33 -129 -57 -212t-55 -165t-61 -129t-70 -85.5t-88.5 -54t-110.5 -16.5q-93 -1 -161 46.5t-93 118.5t-2.5 161t96.5 168q17 24 51.5 1.5t22.5 -46.5q-56 -79 -62 -158.5t40.5 -131 t131.5 -50.5q27 0 51.5 8.5t45 27.5t36.5 37t32 52t26 57t24 67.5t20.5 68.5t20.5 73q48 177 98.5 370.5t74.5 283t38 126.5q-59 -65 -135.5 -118.5t-139.5 -86.5t-120.5 -65t-95 -69.5t-47.5 -83.5q-28 -140 94 -152q20 -2 26 -25.5t-5.5 -45.5t-36.5 -19q-56 5 -98.5 24 t-64.5 46t-36 60.5t-12.5 66.5t6.5 63q17 74 69.5 127t128.5 90t157 74t174.5 100.5t162.5 147.5q10 42 61 40q42 -2 63 -29q10 -14 5 -28q-45 -132 -80 -258t-100 -383q65 17 125 49.5t106 69.5t91 90.5t74.5 96.5t62.5 104t50 96.5t41.5 90.5t32.5 71z" />
<glyph unicode="L" horiz-adv-x="1173" d="M946 1384q10 46 61 47q43 2 65 -24q11 -13 7 -27q-46 -151 -104.5 -407.5t-110.5 -452t-108 -301.5q35 -34 81.5 -82.5t77.5 -81.5t73 -72.5t75.5 -64t78 -46.5t88 -29t97 -3t111.5 23q16 10 35.5 -6t23 -41.5t-19.5 -53.5q-72 -24 -139 -30t-120 1t-108 32t-95 51 t-88.5 69.5t-80 77t-79 83.5t-77.5 79q-56 -73 -109.5 -107t-138.5 -38q-59 -3 -105 10.5t-72 38t-41.5 57t-13.5 68t11 69.5q15 48 57.5 84t101.5 52.5t137 -1t153 -71.5q60 155 145 516t113 459q-59 -66 -135.5 -120.5t-140.5 -88t-121.5 -65.5t-95.5 -70t-48 -84 q-28 -140 94 -152q20 -2 26 -25.5t-5.5 -45.5t-36.5 -19q-56 5 -98.5 24t-64.5 46t-36 60.5t-12.5 66.5t6.5 63q17 74 69.5 126.5t127 89t155 73t173.5 99t161 144.5zM332 201q-16 -49 13 -88t104 -35q106 5 178 121q-42 43 -103 65t-117.5 7.5t-74.5 -70.5z" />
<glyph unicode="M" horiz-adv-x="2396" d="M2120 -174q-52 25 -88.5 64.5t-55 94t-26.5 113.5t-1 137t19 150t36.5 166.5t47 172.5t55.5 181q60 192 63 276q5 141 -104 140q-47 -1 -110 -46t-131 -123t-128.5 -159.5t-123.5 -177.5q-14 -51 -59.5 -235.5t-86.5 -335.5t-69 -226q-13 -34 -66 -39q-45 -5 -58 15 q-4 7 -1 16q52 157 106 362.5t99 395.5t59 240q13 49 21 89t9.5 84t-7.5 73t-34.5 48.5t-66.5 18.5q-49 -1 -115.5 -49t-135.5 -127.5t-133 -168t-122 -183.5q-42 -152 -123 -428.5t-106 -337.5q-16 -37 -70 -44q-44 -5 -57 15q-5 7 -2 16q100 289 184 592q100 367 179 641 q-59 -61 -134.5 -113t-137 -84t-118.5 -64t-93.5 -69t-45.5 -83q-28 -140 94 -152q20 -2 26 -25.5t-5.5 -45.5t-36.5 -19q-56 5 -98.5 24t-64.5 46t-36 60.5t-12.5 66.5t6.5 63q17 74 70 127t129 90.5t157.5 74t175 100.5t162.5 149q8 32 39 37t56 -13.5t18 -42.5 q-15 -56 -45 -168.5t-45 -169.5q268 396 471 394q267 -2 184 -381q255 383 480 381q45 -1 79 -13t55.5 -32t33.5 -50t16.5 -60.5t2.5 -70.5t-7.5 -73t-15.5 -75.5t-18 -70.5t-19 -64.5t-15 -52.5q-14 -54 -36.5 -133t-38 -134t-34.5 -127t-28 -124t-16.5 -111.5t-3 -104 t15.5 -86.5t36.5 -73.5t63.5 -52.5q27 -10 15 -48q-12 -36 -44 -48q-18 -7 -36 0z" />
<glyph unicode="N" horiz-adv-x="1818" d="M1507 1430q64 0 109 -21.5t68 -55t32.5 -81.5t7.5 -95t-11.5 -102t-19.5 -96t-22 -83q-6 -19 -8 -28q-13 -46 -34 -120t-34.5 -122.5t-31 -117.5t-27.5 -115.5t-19.5 -106t-10.5 -100.5t3.5 -86.5t18 -76.5t36.5 -58t56 -43q20 -12 19 -38.5t-25.5 -48.5t-52.5 -11 q-56 25 -94.5 63.5t-56.5 94.5t-27 111t0.5 137t19.5 146.5t37 166.5t46.5 169t53.5 180q3 9 4 13q17 54 28 105.5t16 110t-3 101.5t-37 71.5t-78 27.5q-64 -1 -148 -65t-165 -164t-152 -206.5t-124 -207.5q-12 -39 -54.5 -192.5t-80.5 -276.5t-68 -193q-13 -30 -63 -35 q-47 -5 -59 17q-5 9 -1 20q44 123 99.5 305.5t85.5 289t98.5 354.5t76.5 278q-59 -61 -134 -113t-136.5 -83.5t-117.5 -63t-92.5 -68.5t-45.5 -83q-28 -140 94 -152q20 -2 26 -25.5t-5.5 -45.5t-36.5 -19q-56 5 -98.5 24t-64.5 46t-36 60.5t-12.5 66.5t6.5 63 q16 74 68.5 127t128.5 90t157 73.5t174.5 100t161.5 146.5q8 35 39.5 40.5t57 -13t18.5 -42.5l-123 -454q290 512 563 510z" />
<glyph unicode="O" horiz-adv-x="1417" d="M887 1427q85 -11 149.5 -49t102 -91t59.5 -122.5t27.5 -140.5t0.5 -149.5t-16.5 -143.5t-27.5 -129q140 22 286 105q16 11 21 -16q6 -35 -14 -58l-9 -8q-163 -94 -313 -115q-37 -109 -91 -203t-123.5 -169.5t-158.5 -117.5t-186 -40q-220 3 -318 176q-77 134 -58.5 350 t124.5 385q7 9 21 9.5t27.5 -6t25 -17.5t14.5 -25t-4 -29q-38 -78 -62.5 -173t-27 -193t19 -180t82 -135.5t154.5 -57.5q73 -3 140.5 30t120.5 93.5t95 134.5t74 162q-133 6 -248 64.5t-188.5 148.5t-105 205.5t-7.5 230.5q22 102 85 169.5t147.5 92.5t181.5 12zM879 1317 q-228 28 -279 -180q-31 -129 19 -251t166 -201.5t268 -88.5q20 70 32.5 154.5t11.5 182t-19.5 178t-69 138.5t-129.5 68z" />
<glyph unicode="P" horiz-adv-x="1421" d="M874 1219q35 4 57 -23t-2 -46q-7 -5 -16 -9q-28 -10 -52.5 -31t-42.5 -45.5t-35.5 -63t-29 -70t-24.5 -80.5t-20.5 -81.5t-19.5 -86t-19 -81.5q164 -59 286 -30.5t194.5 123t84.5 233.5q7 88 -21.5 161t-83.5 120.5t-127 76t-153 33.5q-84 4 -166 -17.5t-147.5 -61 t-112.5 -95.5t-66.5 -118t-5 -131.5t67.5 -131.5q21 -30 -17 -57t-59 -2q-106 100 -106 253q0 100 48.5 189t129.5 151t190.5 97.5t227.5 34.5q89 -2 172 -24.5t152.5 -67.5t119 -106t72 -145.5t10.5 -181.5q-18 -145 -88 -246.5t-169.5 -146t-218 -43.5t-235.5 51 q-16 -63 -43 -188.5t-47.5 -199.5t-44.5 -114q-16 -28 -61 -21q-39 7 -48 34q-5 14 5 30q26 44 54 152t51.5 230t59 259t73.5 247t97 186t129 84z" />
<glyph unicode="Q" horiz-adv-x="1404" d="M1284 -244q-42 0 -83.5 9.5t-73.5 21.5t-72 38.5t-63.5 43.5t-63.5 56t-57 56t-59 62.5l-54 58.5q-57 -56 -135 -88t-156 -32q-108 0 -163.5 52.5t-55.5 127.5q0 81 65.5 145t169.5 64q87 0 152.5 -37t142.5 -107q392 366 414 770q9 161 -81 244.5t-261 83.5 q-196 0 -313 -120t-117 -310q0 -128 67 -220.5t195 -111.5q19 -3 23.5 -25.5t-7 -43.5t-30.5 -19q-182 13 -281.5 129t-97.5 283q1 162 76 286.5t206 191.5t297 67q210 0 331.5 -107t121.5 -295q0 -224 -129.5 -458.5t-345.5 -409.5q32 -28 93.5 -92t102.5 -102.5 t107.5 -71.5t136.5 -33q34 0 86 10q13 1 22.5 -20t6.5 -47.5t-21 -38.5q-61 -11 -96 -11zM471 80q112 0 225 90q-48 52 -106 82.5t-111 30.5q-51 0 -84 -35.5t-33 -79.5q0 -37 27.5 -62.5t81.5 -25.5z" />
<glyph unicode="R" horiz-adv-x="1499" d="M1368 -195q-73 5 -130.5 39.5t-94 84.5t-63 121.5t-40 136.5t-22.5 143q-20 181 -129 225q-35 -3 -95 -2t-83 4q-115 -437 -185 -539q-9 -13 -25.5 -17t-33 0t-30.5 13.5t-18 24.5t3 31q49 70 95.5 223.5t92 345t68.5 262.5q78 240 194 311q33 21 79 5q36 -12 33 -33 q-2 -10 -13 -19q-54 -44 -91 -99t-74.5 -158.5t-72.5 -264.5q240 -15 384 76t163 272q17 163 -89 245.5t-300 82.5q-126 0 -237 -47.5t-179.5 -134t-68.5 -189.5t69 -184q13 -21 -2 -42t-37.5 -25.5t-36.5 8.5q-134 110 -112 294q20 133 111 232.5t222 149t283 49.5 q245 0 385 -116.5t119 -316.5q-18 -168 -116.5 -271t-258.5 -146q71 -53 101 -250q7 -44 13 -75t18.5 -78.5t26 -81t35.5 -71.5t47.5 -62t62 -41.5t79.5 -20.5q28 0 23 -31q-5 -34 -36 -54q-16 -11 -34 -10z" />
<glyph unicode="S" horiz-adv-x="1181" d="M1102 1094q-2 -24 -25.5 -33.5t-46 0.5t-20.5 33q6 117 -52.5 174t-160.5 59q-82 3 -143 -48t-68 -159q-4 -55 16.5 -110.5t56 -103t79.5 -96t87.5 -98.5t79.5 -101t56.5 -112.5t17.5 -125.5q-9 -183 -121.5 -287.5t-304.5 -103.5q-107 1 -188.5 47t-122.5 125t-47.5 184 t36.5 223q3 17 29.5 19t48.5 -12t15 -36q-37 -135 -14 -233.5t92.5 -154t166.5 -56.5q130 -1 203.5 75.5t81.5 219.5q3 56 -19 111t-58.5 101t-81 92.5t-88.5 95t-79 99t-54 114t-13 130.5q13 145 104.5 226.5t237.5 81.5q163 -1 242 -97t57 -243z" />
<glyph unicode="T" horiz-adv-x="1406" d="M512 1423q102 18 180 6.5t160.5 -42t145 -63t134 -58t128.5 -25.5q198 0 227 150q0 24 33 22q34 -2 48 -24q5 -7 5 -15q-20 -141 -131 -198q-163 -86 -424 22q-24 -84 -71 -277t-95 -378q-25 -96 -47 -167.5t-49.5 -138.5t-58 -112t-68.5 -80t-84.5 -51.5t-102.5 -16.5 q-65 -1 -117 17.5t-83.5 50t-52 73t-22.5 85.5t5 88q23 99 102 180q17 24 50.5 1.5t21.5 -46.5q-57 -79 -62.5 -159.5t43.5 -132t140 -48.5q33 1 61.5 16t51.5 45.5t41.5 62.5t36 82t29.5 88.5t28 96.5q56 207 100.5 378t66 253.5t36.5 134.5q-116 53 -201.5 76.5 t-175.5 9.5q-106 -16 -149 -93q-34 -62 -7 -119q30 -62 110 -63q62 1 138 40q16 9 34 -6t20.5 -35.5t-11.5 -32.5q-86 -55 -163.5 -69.5t-131 7t-88.5 63.5t-45 97q-12 62 10 122t87.5 111.5t166.5 71.5z" />
<glyph unicode="U" horiz-adv-x="1777" d="M913 1399q8 29 39.5 31t56 -19t15.5 -49q-36 -115 -65 -218.5t-45 -163.5t-63 -245t-79 -307q-15 -60 -21.5 -114t-1.5 -106.5t33 -83.5t78 -30q91 1 190 73t167 167.5t94 179.5q94 309 221 823q9 33 47 30q39 -2 57 -35q13 -23 4 -52q-107 -359 -208 -762 q-103 -427 30 -424q56 1 120 67.5t111.5 151t82.5 174.5q6 10 20 7.5t27 -15t8 -24.5q-20 -47 -34 -78.5t-40 -83.5t-48.5 -87.5t-55.5 -77.5t-65 -67.5t-72 -43t-82 -17.5q-81 0 -119 76t-29 209q-80 -130 -196 -218t-250 -87q-64 0 -109.5 20.5t-68.5 58t-34 84.5 t-7 108.5t15 120.5t30 130q82 315 200 737q-58 -60 -132 -110.5t-134.5 -82t-115.5 -62.5t-91 -68t-45 -82q-28 -140 94 -152q20 -2 26 -25.5t-5.5 -45.5t-36.5 -19q-56 5 -98.5 24t-64.5 46t-36 60.5t-12.5 66.5t6.5 63q12 56 43.5 98.5t75.5 72.5t96.5 56t114.5 55 t121.5 62t124 85.5t116.5 117.5z" />
<glyph unicode="V" horiz-adv-x="1738" d="M1575 1632q172 -139 172 -379q0 -155 -71 -309t-195 -262q-25 -22 -85.5 -73.5t-88.5 -77.5t-80.5 -75t-87.5 -89t-80.5 -96t-87.5 -119t-84 -136q-16 -22 -44 -28.5t-49.5 9t-19.5 50.5q27 195 35.5 413.5t19 416t43.5 378.5q-57 -64 -131 -117.5t-135.5 -86t-118 -64.5 t-92 -69.5t-43.5 -83.5q-9 -71 13 -108.5t86 -43.5q12 -1 20 -11.5t8.5 -24.5t-2.5 -27t-14 -21t-25 -6q-114 9 -172 78.5t-43 181.5q12 63 52 111t93 77.5t123 64.5t137.5 68t141.5 91t129 131q16 38 67 40q42 1 55 -21q5 -10 1 -21q-47 -115 -68 -297t-32 -477t-17 -379 q49 81 121.5 164.5t126 133.5t141.5 127.5t117 104.5q106 99 160.5 229t54.5 261q0 182 -127 290q-14 19 -5 42.5t35.5 38t45.5 1.5z" />
<glyph unicode="W" horiz-adv-x="2193" d="M2273 1487q20 0 34 -21.5t12 -46.5t-23 -33q-40 -14 -75 -49.5t-62.5 -91.5t-50 -117t-43.5 -142.5t-37 -149.5t-36 -156.5t-36 -147.5q-26 -97 -55 -174.5t-71.5 -150t-93.5 -121t-120 -77.5t-150 -29q-87 0 -145.5 42.5t-79.5 108t-12 145.5q-62 -128 -170 -211.5 t-219 -82.5q-317 5 -176 520q10 36 88 324t114 413q-58 -60 -132 -110.5t-134.5 -82t-115.5 -62.5t-91 -68t-45 -82q-28 -140 94 -152q20 -2 26 -25.5t-5.5 -45.5t-36.5 -19q-56 5 -98.5 24t-64.5 46t-36 60.5t-12.5 66.5t6.5 63q12 54 44 96.5t77 73t98.5 57t115.5 56 t121.5 62t123 84t114.5 114.5q16 26 46 31.5t50 -15t9 -57.5q-105 -363 -246 -926q-15 -60 -21.5 -114t-2.5 -107t32 -84.5t78 -30.5q122 1 240.5 154t181.5 379q22 80 98 357.5t111 395.5q10 34 49 30t56 -37q11 -23 3 -50q-58 -181 -105 -354t-142 -559q-14 -58 -14 -113 t14.5 -100.5t49 -73.5t85.5 -27q98 2 190 105t138 278q20 74 44.5 170.5t40 158.5t37 140.5t37 128.5t36.5 109t40 96.5t44 76.5t51.5 62.5t58.5 41.5t69 26z" />
<glyph unicode="X" horiz-adv-x="1572" d="M1645 1427q20 7 35 -14t13.5 -49t-20.5 -39q-35 -19 -72.5 -52t-70 -68.5t-73 -90.5t-70 -98.5t-72.5 -113.5t-69.5 -114.5t-72.5 -123t-69 -117.5q34 -100 63.5 -174.5t72.5 -161t88 -149t106 -118t131 -87.5q17 -8 20 -29.5t-6 -42t-26.5 -33.5t-36.5 -6 q-70 27 -132.5 77.5t-110 109.5t-95 144.5t-81 159.5t-75.5 177q-62 -97 -118 -168.5t-123.5 -136t-141.5 -98.5t-152 -34q-140 0 -210 73t-70 179q0 68 27.5 133t76.5 107q16 16 40.5 8.5t32.5 -26.5t-5 -37q-23 -25 -40 -72t-17 -96q0 -70 43 -115.5t141 -44.5 q58 0 118 35t120.5 103t114 143.5t118.5 181.5q-106 355 -68 663q-66 -57 -153 -109.5t-146 -82t-108 -72.5t-62 -94q-15 -65 8.5 -105.5t86.5 -46.5q21 -2 32 -25.5t-1.5 -45.5t-47.5 -19q-117 9 -172 83.5t-33 176.5q15 68 60.5 118t112 85t137.5 66.5t157 81t150 110.5 q15 42 61 45q38 2 54 -24q9 -14 4 -31q-34 -135 -29.5 -295t43.5 -332q18 30 63 106t65.5 109.5t61.5 99.5t65 100t61.5 86t66 81.5t63.5 63t68.5 53.5t67.5 32z" />
<glyph unicode="Y" horiz-adv-x="1734" d="M1731 483q7 12 22 11.5t28 -14.5t7 -29q-95 -227 -212.5 -359.5t-303.5 -210.5q-38 -151 -53 -190q-60 -163 -127 -228t-166 -67q-87 -1 -128.5 54t-25.5 134q10 46 40 90.5t66.5 78.5t93 70.5t101 60.5t107.5 55q11 34 44.5 161.5t53.5 192.5q-192 -315 -438 -313 q-64 0 -109.5 20.5t-68.5 58t-34 84.5t-7 108.5t15 120.5t30 130q82 315 200 737q-58 -60 -132 -110.5t-134.5 -82t-115.5 -62.5t-91 -68t-45 -82q-28 -140 94 -152q20 -2 26 -25.5t-5.5 -45.5t-36.5 -19q-56 5 -98.5 24t-64.5 46t-36 60.5t-12.5 66.5t6.5 63 q12 56 43.5 98.5t75.5 72.5t96.5 56t114.5 55t121.5 62t124 85.5t116.5 117.5q8 29 39.5 31t56 -19t15.5 -49q-36 -115 -65 -218.5t-45 -163.5t-63 -245t-79 -307q-15 -59 -21.5 -115t-1.5 -109.5t33 -86t78 -31.5q120 1 247 124t212 310q26 94 119.5 410.5t122.5 433.5 q5 19 34.5 21t53.5 -15.5t16 -44.5q-54 -177 -181 -650t-179 -683q129 45 244 176.5t182 314.5zM1153 -172q-206 -124 -250 -215q-15 -30 -16 -56.5t15 -43t48 -13.5q56 6 93.5 53.5t66.5 131.5q28 83 43 143z" />
<glyph unicode="Z" horiz-adv-x="1318" d="M1282 1382q32 25 56.5 30.5t36.5 -5t17 -28t0.5 -38.5t-16.5 -36q-120 -156 -240 -354t-240.5 -416t-188.5 -326q28 -27 69.5 -73.5t76 -84t79 -81t90.5 -71t98.5 -46t114.5 -15t129 30.5q15 6 32.5 -15.5t17.5 -46.5t-28 -43q-53 -20 -105.5 -27.5t-96.5 -5t-90 17 t-82 32t-76 46.5t-69 54t-65 62t-59 62.5t-55.5 63t-50.5 56.5q-72 -79 -130.5 -110.5t-144.5 -32.5q-115 -1 -171.5 53t-53.5 133q5 84 73.5 147t172.5 56q128 -9 227 -86q71 94 281.5 461.5t310.5 515.5q-77 -16 -174 -5t-174 32.5t-168 35.5t-156 4q-111 -18 -161 -98 q-39 -65 -14 -123q27 -62 108 -62q65 0 151 46q15 8 31 -6.5t18 -34t-14 -33.5q-83 -55 -160.5 -69t-131 8t-88.5 64.5t-44 98.5q-13 99 57.5 186.5t223.5 116.5q71 12 143.5 7.5t134 -21t127.5 -32.5t124 -27t123 -4t124 36zM371 281q-71 0 -105.5 -52.5t-5 -103 t110.5 -45.5q57 3 99.5 32t84.5 91q-88 78 -184 78z" />
<glyph unicode="[" horiz-adv-x="860" d="M180 -324q-52 0 -67.5 18t-1.5 77l381 1519q16 60 33 78t65 18h194q24 0 28 -30q4 -34 -21 -52q-11 -8 -25 -8h-162l-391 -1529h166q25 0 23 -34q-1 -36 -24 -52q-8 -5 -16 -5h-182z" />
<glyph unicode="\" horiz-adv-x="1130" d="M918 -6q-58 66 -163 244.5t-204 361t-219.5 375t-206.5 285.5q-26 26 -4 53t63 18q29 -7 54 -35q68 -77 180.5 -265t213.5 -374.5t209.5 -371.5t168.5 -256q20 -24 -9 -41q-31 -19 -66 -5q-10 4 -17 11z" />
<glyph unicode="]" horiz-adv-x="841" d="M647 1389q53 0 68.5 -18t1.5 -77l-381 -1519q-16 -60 -33 -78.5t-65 -18.5h-195q-24 0 -28 30q-4 34 20 52q11 9 26 9h162l391 1529h-165q-19 0 -23 23t8 45.5t31 22.5h182z" />
<glyph unicode="^" horiz-adv-x="950" d="M735 1001q13 -19 -3.5 -44.5t-39.5 -34t-37 3.5l-192 293l-270 -283q-22 -23 -45.5 -11.5t-28.5 38t10 47.5l285 299q33 34 70.5 29.5t58.5 -38.5z" />
<glyph unicode="_" horiz-adv-x="923" d="M236 -84q-20 0 -28 21t2.5 42t33.5 21l465 -2q20 0 27.5 -20.5t-3 -41t-33.5 -20.5h-464z" />
<glyph unicode="`" horiz-adv-x="344" d="M193 1729q56 -74 118 -166q17 -27 -16 -40q-34 -14 -62 3q-7 4 -12 10l-123 154q-18 22 13 42q33 21 64 10q11 -4 18 -13z" />
<glyph unicode="a" horiz-adv-x="933" d="M420 860q98 19 200 -5t175 -97q11 -11 -2 -33.5t-36 -35.5t-36 -1q-65 50 -140 69.5t-139 4.5q-83 -18 -161 -87t-136 -171q-62 -108 -75 -229t34 -171q51 -54 143 11t181.5 218.5t128.5 332.5q3 13 16.5 19t30 3.5t32.5 -8.5t25.5 -17t6.5 -22q-2 -9 -23 -84t-31.5 -115 t-25 -103.5t-21.5 -107.5t-7 -74.5t11.5 -46.5t36.5 -16q70 0 166 115.5t158 277.5q4 14 30 4q28 -11 27 -31q-1 -4 -2 -7q-192 -453 -418 -453q-70 0 -106.5 68t-11.5 180q-30 -48 -51 -79t-53 -70t-61.5 -61t-68.5 -38.5t-82 -17.5q-122 -3 -171.5 95.5t-20.5 246.5 q16 85 58.5 172.5t103.5 163.5t143.5 130t171.5 70z" />
<glyph unicode="b" horiz-adv-x="913" d="M207 -16q-76 1 -126.5 30.5t-75 77.5t-31 118.5t1 143.5t26.5 164q48 226 136.5 489.5t146.5 391.5q3 9 17 12.5t31 0t32.5 -10t23.5 -18.5t2 -25q-40 -88 -103.5 -277.5t-107.5 -341.5q150 134 293 129q82 -3 135.5 -44.5t72.5 -109.5t14.5 -153t-34.5 -178.5 t-79 -183.5q210 -23 329 288q4 14 30 4q29 -11 27 -31q0 -4 -1 -7q-157 -390 -441 -318q-141 -154 -319 -151zM221 82q126 -3 213 106q-20 27 -14 58.5t28 43t48 -0.5q16 35 31.5 78.5t30 99.5t17 107.5t-6 95.5t-41.5 71t-87 27q-123 2 -284 -143q-14 -40 -27.5 -89.5 t-26 -113t-13.5 -121.5t8 -108t41 -80.5t83 -30.5z" />
<glyph unicode="c" horiz-adv-x="823" d="M440 866q87 -1 141 -38t66 -88t-11.5 -108.5t-80.5 -99.5q-26 -20 -74 -3q-32 11 -31 26l3 6q42 46 60 91t1.5 78.5t-72.5 39.5q-77 8 -155 -54t-129.5 -164.5t-61.5 -211.5q-9 -106 41.5 -178t155.5 -82q159 -15 301.5 90.5t226.5 316.5q6 8 21 6t28 -14.5t7 -25.5 q-46 -119 -105 -207t-118 -139t-128 -81t-129 -38.5t-127 -5.5q-102 5 -175 60t-104.5 137.5t-23.5 176.5q7 90 47.5 181.5t102 165t147.5 119t176 44.5z" />
<glyph unicode="d" horiz-adv-x="937" d="M799 1399q3 8 17 11t31 0t32.5 -9.5t23.5 -18t2 -24.5q-135 -316 -261.5 -789t-8.5 -473q69 0 155 118t146 273q6 8 20 6.5t27 -13.5t8 -25q-34 -84 -71.5 -156t-87 -143t-109.5 -113t-123 -43q-77 -2 -117.5 68.5t-21.5 181.5q-49 -110 -133.5 -188.5t-180.5 -81.5 q-88 -3 -140.5 56.5t-61 151t20.5 205t93 213.5q44 67 102.5 116t116.5 74.5t117 37t108 8t87 -18.5q31 103 99.5 296t109.5 280zM563 733q-103 35 -217.5 -19t-191.5 -190q-63 -110 -75.5 -238.5t38.5 -181.5q28 -24 61.5 -24.5t73.5 26.5t79 71t77 110t67 143 q45 117 88 303z" />
<glyph unicode="e" horiz-adv-x="823" d="M459 866q70 -4 118 -36.5t66.5 -79.5t15 -102t-29.5 -107q-63 -124 -203 -168t-324 10q-25 -117 22 -199.5t152 -101.5q64 -11 135.5 4.5t146.5 59.5t145 132t118 209q6 8 20.5 6.5t27.5 -14.5t8 -26q-28 -73 -61 -135.5t-68 -108t-73 -83t-75 -60.5t-75 -42t-73 -26.5 t-68 -14t-60.5 -5t-51.5 1.5q-79 6 -140 36.5t-98 79t-55 110.5t-14 133t29 144q41 122 117 212.5t166.5 133.5t181.5 37zM434 770q-89 0 -184 -94t-129 -217q291 -65 383 100q28 50 34.5 96.5t-19 80.5t-85.5 34z" />
<glyph unicode="f" horiz-adv-x="577" d="M268 1247q64 119 158 153t155 -23.5t42 -170.5q-73 -445 -510 -706q-45 -159 -62 -242q20 -2 58 -6t59.5 -6.5t57 -4t58 1t55 8.5t55 17.5t50 30.5t48.5 44.5t43 62t40 81.5q6 7 20 5.5t27 -13t9 -24.5q-18 -51 -41 -92t-45.5 -70.5t-52.5 -51t-55.5 -35t-60.5 -20.5 t-61 -9.5t-65 -0.5t-64 4.5t-65 7.5q59 -51 90 -128t33.5 -160t-11.5 -164t-43 -154q-73 -177 -204 -180q-71 -2 -110.5 49.5t-35.5 147.5q7 145 36.5 345.5t78.5 401.5q150 598 313 901zM371 1208q-104 -194 -226 -594q142 127 235 267.5t130 324.5q14 71 -18.5 91 t-78.5 -30q-22 -23 -42 -59zM33 166q-75 -358 -78 -543q-1 -106 41 -115q34 -7 72 55q18 30 32 72q24 73 36 142t11.5 144t-29.5 139t-85 106z" />
<glyph unicode="g" horiz-adv-x="915" d="M459 866q192 19 336 -110q9 -12 -7 -35.5t-37.5 -33t-37.5 4.5q-115 90 -236 74q-95 -9 -181 -78t-151 -182q-62 -111 -76.5 -228.5t33.5 -171.5q61 -61 166.5 28.5t194.5 271.5q57 118 96 266q3 11 15.5 15t28.5 1t31.5 -9t24.5 -16t7 -20q-111 -423 -174 -647 q130 52 241.5 180t179.5 311q6 8 20.5 6.5t27.5 -13.5t8 -25q-91 -222 -207.5 -354t-300.5 -218q-25 -103 -52 -182.5t-55.5 -131t-56 -86.5t-59 -53t-58.5 -25t-61 -9q-82 -5 -127.5 40t-36.5 132q5 48 33 94.5t64.5 81.5t95.5 74t103.5 63t110.5 58q73 241 101 337 q-153 -289 -328 -294q-120 -4 -170 90.5t-25 236t111 279.5q77 125 184.5 196t223.5 82zM338 -172q-195 -114 -244 -205q-38 -70 -6 -106q27 -30 78 -9q72 31 116 138q11 25 19 53z" />
<glyph unicode="h" horiz-adv-x="897" d="M293 1399q3 9 17 12.5t31 0t32.5 -10t23.5 -18.5t2 -25q-28 -60 -65 -166t-63.5 -191t-68.5 -226t-57 -189q32 50 67 93.5t81 88.5t99 72t104 28q110 1 148 -82.5t3 -216.5q-95 -348 -104 -412q-11 -71 14 -79q7 -2 16 -2q71 1 164.5 122.5t157.5 288.5q6 16 31 4 q27 -12 26 -32l-2 -6q-36 -86 -75 -161t-90 -149.5t-110.5 -118t-119.5 -44.5q-94 -1 -122.5 53t-12.5 160q4 31 21.5 98t42 158t36.5 141q6 27 9.5 44.5t4.5 43.5t-5 41.5t-22 27t-42 11.5q-72 0 -172.5 -98.5t-173.5 -227.5q-36 -129 -51 -193.5t-43 -209.5 q-5 -18 -40.5 -27t-65.5 1.5t-23 39.5q78 379 188 757t209 599z" />
<glyph unicode="i" horiz-adv-x="411" d="M201 995q-32 0 -53.5 20.5t-20.5 57.5q1 36 25 57t57 21q32 0 53.5 -20.5t20.5 -57.5q-1 -36 -25 -57t-57 -21zM45 -20q-88 1 -115.5 61t0.5 172q38 161 164 612q6 24 36 26.5t55.5 -11t21.5 -29.5q-116 -414 -158 -584q-6 -25 -9 -40.5t-6 -35.5t-2 -32t5.5 -23 t14 -15.5t24.5 -4.5q81 3 178.5 130.5t155.5 278.5q7 11 22 10t27.5 -15t5.5 -29q-26 -64 -55.5 -124t-71.5 -125.5t-85.5 -113t-98 -78.5t-109.5 -30z" />
<glyph unicode="j" horiz-adv-x="399" d="M190 995q-32 0 -53 20.5t-20 57.5q1 36 25 57t57 21q32 0 53 -20.5t20 -57.5q-1 -36 -25 -57t-57 -21zM-399 -604q-82 -5 -127.5 40t-36.5 132q5 48 33 94.5t64.5 81.5t95.5 74t103.5 63t110.5 58q53 157 240 892q7 20 36 21t53.5 -12.5t19.5 -28.5q-19 -71 -70.5 -257.5 t-91.5 -335t-58 -222.5q131 52 243.5 180.5t180.5 310.5q6 8 20.5 6.5t27.5 -13.5t8 -25q-91 -222 -208.5 -354t-301.5 -218q-25 -103 -52 -182.5t-55.5 -131t-56 -86.5t-59 -53t-58.5 -25t-61 -9zM-383 -500q45 3 92 54t74 145l37 129q-195 -114 -244 -205 q-29 -58 -14.5 -92t55.5 -31z" />
<glyph unicode="k" horiz-adv-x="813" d="M811 487q6 8 20.5 7t27.5 -14t7 -27q-38 -92 -85.5 -172.5t-106 -150t-128 -110t-140.5 -40.5q-30 0 -55.5 6t-57 30.5t-52.5 66.5t-34.5 120t-11.5 184q89 36 159.5 79.5t111 84.5t61.5 79.5t19 68t-24 46.5q-24 22 -62.5 17t-81.5 -23t-90 -56.5t-87.5 -84.5 t-73.5 -106t-49 -121q-21 -82 -36 -147.5t-26.5 -116.5t-15.5 -70q-7 -30 -52 -37t-62 16q-9 12 -3 29q49 210 105 422t93.5 340.5t95.5 321.5t81 270q3 9 16 12.5t29.5 0.5t32 -9.5t24 -19t5.5 -25.5q-14 -50 -107 -347t-115 -386q53 91 126.5 150.5t141 77.5t124.5 10.5 t86 -40.5q30 -34 38 -80t-9.5 -99.5t-58 -106.5t-116.5 -104.5t-176 -88.5q-6 -116 25.5 -190t103.5 -74q95 0 200.5 107.5t182.5 299.5z" />
<glyph unicode="l" horiz-adv-x="585" d="M352 1366q88 71 166 42q70 -25 91 -115q25 -109 -40 -259q-145 -336 -454 -530q-84 -406 71 -424q49 -6 97 12t87 55t73 79.5t62 94.5t46 90t33 76q6 8 21 7t27.5 -14.5t6.5 -28.5q-29 -65 -50.5 -110t-53 -101.5t-60 -94t-66.5 -75.5t-76.5 -58t-86.5 -29.5t-101 -2.5 q-58 8 -97 39t-57 83t-23.5 114.5t4 143.5t25 159.5t40.5 172.5q63 238 145 421t170 253zM469 1307q-46 4 -93.5 -70t-105.5 -221q-73 -183 -131 -402q187 163 281 359q66 142 80.5 234.5t-31.5 99.5z" />
<glyph unicode="m" horiz-adv-x="1275" d="M936 -20q-82 0 -115.5 49.5t-21.5 140.5q6 44 23.5 115.5t42 165t34.5 135.5q22 92 21 121q-4 54 -50 55q-49 0 -121 -60t-135 -153.5t-86 -181.5q-15 -56 -42.5 -176.5t-39.5 -159.5q-7 -20 -39 -28t-60 1t-23 29q52 196 139 555q8 33 11 56.5t3 53t-14 45.5t-41 17 q-63 1 -158.5 -110.5t-163.5 -258.5q-47 -167 -92 -368q-4 -18 -39 -23t-64.5 9t-21.5 42q120 431 199 778q5 21 37.5 25t60.5 -10.5t21 -38.5q-11 -40 -28.5 -108t-31.5 -113q59 119 143.5 202t178.5 82q86 -1 122 -76t5 -184q32 53 61 93t69 81.5t86.5 64t96.5 21.5 q98 -1 128 -66.5t3 -199.5q-7 -35 -29.5 -109t-42 -140.5t-34.5 -132.5t-10 -105.5t34 -38.5q50 1 114 65t118 156.5t90 189.5q6 8 20.5 7t27.5 -14t7 -27q-33 -82 -73.5 -158.5t-91.5 -150.5t-110.5 -119t-117.5 -45z" />
<glyph unicode="n" horiz-adv-x="907" d="M512 868q74 -1 115 -41.5t45 -107.5t-15 -154q-13 -52 -45 -156.5t-45 -156.5q-1 -6 -4 -18q-5 -24 -7.5 -37t-6 -35t-2.5 -34.5t4 -26t12 -19.5t23 -6q68 0 160.5 121t158.5 290q6 8 21 7t28 -14t7 -27q-27 -66 -56.5 -126t-70 -125.5t-81.5 -113t-90.5 -78t-97.5 -30.5 q-149 0 -137 165q2 26 14.5 86t25.5 113t33 134.5t27 109.5q8 34 11.5 56.5t2.5 52.5t-16 46t-45 17q-73 1 -181 -96.5t-183 -223.5q-66 -226 -107 -415q-4 -18 -39 -24.5t-65 6t-23 40.5q147 560 199 778q6 25 38 30t59.5 -10.5t21.5 -39.5q-36 -143 -58 -217 q32 48 70.5 93.5t87 89.5t104.5 71t107 26z" />
<glyph unicode="o" horiz-adv-x="925" d="M446 868q99 4 162 -38.5t84.5 -114t16 -161t-36.5 -182t-80 -173.5q45 -3 82.5 5t82 35.5t87.5 90t80 157.5q6 7 20.5 6t27.5 -13.5t7 -26.5q-36 -89 -78.5 -154.5t-86 -101.5t-90.5 -56t-92.5 -18t-92.5 14q-132 -155 -318 -155q-61 0 -111 20t-90.5 65t-53.5 118.5 t1 181.5q20 132 89 245t172.5 182t217.5 74zM438 768q-80 -5 -157 -73.5t-125 -161t-60 -177.5q-9 -51 -4 -100t19 -87.5t48 -62.5t83 -24q114 0 204 108q-20 30 -14.5 56.5t29 40t45.5 0.5q40 82 61.5 166.5t20.5 157.5t-39 117t-111 40z" />
<glyph unicode="p" horiz-adv-x="927" d="M467 866q99 0 155.5 -53.5t67 -133.5t-2.5 -172.5t-42 -172.5t-63 -131q107 -25 189.5 38t154.5 246q6 7 20.5 5.5t27.5 -14t7 -25.5q-37 -92 -80 -158.5t-87 -104t-93 -54.5t-95.5 -14t-95.5 21q-72 -80 -153.5 -121.5t-152 -41.5t-129 28.5t-91.5 81.5 q-23 -108 -75.5 -335.5t-71.5 -325.5q-3 -16 -30.5 -19.5t-52.5 5.5t-22 24q160 709 324 1388q5 23 36.5 28t58 -11t19.5 -45q-14 -49 -22 -72q57 64 142 101.5t157 37.5zM430 770q-77 -3 -161.5 -55.5t-131.5 -114.5q-33 -119 -106 -426q40 -64 114.5 -86t154.5 5t134 97 q-35 27 -13 67q17 31 46 34q16 1 27 -10q36 71 58 154t24 160t-34.5 127t-111.5 48z" />
<glyph unicode="q" horiz-adv-x="942" d="M496 870q161 6 299 -114q9 -8 -4.5 -29t-35 -35.5t-34.5 -5.5q-107 84 -221 84q-70 -1 -137 -36.5t-118 -91.5t-89.5 -120t-59.5 -129q-60 -180 -13 -264q36 -62 113 -35q99 34 202 190q11 17 22 35q92 155 135 349q4 18 33 19.5t55 -13t21 -33.5q-22 -88 -89.5 -352.5 t-99.5 -399.5q35 43 111 118t134 135t122 154t98 191q6 8 20.5 7t27.5 -14t7 -27q-31 -79 -65.5 -144.5t-75 -119.5t-65.5 -83t-68 -75q-16 -17 -65 -65t-75.5 -79t-64.5 -82t-63.5 -110.5t-40.5 -128.5l-17 -129q-3 -20 -33.5 -26.5t-58.5 4t-24 30.5q6 29 30.5 166.5 t43 236t48.5 224t56 198.5q-60 -119 -142.5 -202t-179.5 -86q-119 -4 -169 86t-27 231q22 145 104 275t203 211t250 85z" />
<glyph unicode="r" horiz-adv-x="722" d="M16 369q-6 -6 -20.5 -3t-27.5 14t-7 19q60 137 91 233.5t69 248.5q-68 91 -41 155q17 40 58 45q44 5 66 -38q23 -45 5 -123q17 -21 44.5 -50.5t49.5 -54t47 -53.5t41 -54t26.5 -50t8 -47.5t-17.5 -41.5q-180 -221 -175 -366q2 -55 28 -87.5t75 -33.5q92 -3 198.5 101 t186.5 304q6 8 20 6t27 -14.5t8 -25.5q-94 -232 -213.5 -355t-261.5 -116q-96 4 -146.5 66.5t-52.5 156.5q-1 91 44.5 184t129.5 209q13 18 14 38.5t-5.5 38.5t-21 40t-28 38t-32.5 38t-29 34q-24 -91 -38 -140.5t-46.5 -138.5t-73.5 -177z" />
<glyph unicode="s" horiz-adv-x="821" d="M233 -18q-113 2 -168.5 92t-5.5 227q7 22 30 26.5t41.5 -6.5t14.5 -26q-28 -100 5.5 -156.5t101.5 -54.5q44 1 82.5 25t56.5 57q-26 20 -28 54t16.5 57.5t44.5 17.5q5 46 -15.5 115.5t-48 133t-50 146.5t-19.5 152q-80 -80 -134.5 -178t-140.5 -293q-6 -8 -19.5 -6 t-26.5 13.5t-9 20.5q159 394 309 516q63 53 111 33q31 -13 29 -47q-2 -22 -21 -41q3 -76 24 -155.5t46 -135t47.5 -123t27 -121.5t-13.5 -130q184 0 299 292q6 8 20.5 6.5t27.5 -14.5t7 -26q-76 -188 -176.5 -264t-208.5 -66q-39 -67 -109.5 -105t-146.5 -36z" />
<glyph unicode="t" horiz-adv-x="569" d="M162 -20q-57 -1 -97.5 17.5t-61 59t-32.5 83t-6.5 111.5t10.5 120t24.5 133.5t31 127t32.5 123.5q2 7 3 11h-74q-24 16 -20.5 46.5t24.5 43.5h94q75 245 170 475q4 10 18 13.5t30.5 0.5t32 -9.5t24 -16.5t4.5 -21q-65 -163 -154 -442h215q22 -12 14.5 -50t-26.5 -40h-228 q-55 -195 -81 -322q-78 -362 84 -362q58 0 119 40.5t110 104t86.5 130.5t60.5 130q6 8 20.5 6.5t27 -15t6.5 -27.5q-82 -214 -200.5 -341t-260.5 -130z" />
<glyph unicode="u" horiz-adv-x="921" d="M586 825q6 20 38 23.5t59 -11t19 -36.5q-27 -78 -56.5 -182t-57.5 -229t-25 -210t47 -86q70 -3 159 114.5t151 278.5q6 16 31 4q27 -12 26 -32l-2 -6q-69 -154 -106 -218q-138 -235 -294 -235q-43 0 -73 24.5t-40.5 61.5t-12.5 80.5t10 81.5q-86 -148 -182 -209.5 t-191 -54.5q-74 5 -117.5 63.5t-29.5 161.5q20 134 83.5 366t65.5 242q6 25 37 30t58 -7.5t22 -32.5q-10 -40 -36.5 -141.5t-52 -203t-44.5 -186.5q-8 -41 -10.5 -71.5t2 -60t23 -45.5t50.5 -17q75 -2 171 79t151 230q34 92 127 434z" />
<glyph unicode="v" horiz-adv-x="874" d="M109 817q10 32 59 30q42 -2 55 -23q4 -9 2 -17q-107 -297 -139 -436q-63 -275 43 -285q97 -9 201 109q-42 41 -18 81q18 29 51 27q20 -1 34 -18q70 101 116 239.5t58 292.5q2 24 35 32.5t63 -6t25 -46.5q-57 -389 -215 -594q31 -9 66 -7t70 10t71.5 31t69.5 55t63.5 82.5 t54.5 114.5q5 7 19.5 5.5t27.5 -14t7 -25.5q-37 -92 -85.5 -159.5t-99.5 -104.5t-107.5 -54t-107 -15t-100.5 19q-76 -82 -156.5 -124.5t-185.5 -32.5q-74 6 -117 64t-30 161q10 79 32 168t41.5 149.5t51.5 154.5t45 136z" />
<glyph unicode="w" horiz-adv-x="1353" d="M584 -18q-87 1 -122.5 61t-27.5 154q-80 -119 -171.5 -168.5t-180.5 -44.5q-74 5 -117.5 63.5t-30.5 161.5q10 79 32 168t41.5 149.5t51.5 154.5t45 136q10 32 60 30q43 -2 56 -24q4 -8 1 -16q-104 -289 -153 -531q-8 -41 -10.5 -70.5t2 -58.5t23 -45.5t50.5 -19.5 q76 -7 176 84t158 256q21 75 66.5 210.5t58.5 180.5q7 22 38.5 29.5t58.5 -3t22 -32.5q-13 -40 -47.5 -136.5t-59.5 -184.5t-47 -201q-21 -113 -8 -156t65 -43q51 0 104.5 30t90.5 79q-41 42 -18 81q17 29 48 25q18 -2 31 -18q54 52 115.5 230t61.5 306q0 19 31.5 27.5 t62.5 -3t30 -40.5q-6 -147 -77 -338.5t-140 -261.5q39 -7 80 -7.5t85.5 18.5t85.5 51t80 89t69 133q6 7 20.5 6t26.5 -14t6 -28q-39 -94 -88.5 -161.5t-100.5 -103.5t-107.5 -51.5t-107 -12t-100.5 20.5q-142 -164 -319 -161z" />
<glyph unicode="x" horiz-adv-x="952" d="M950 485q6 10 21 8.5t28 -14.5t7 -26q-45 -113 -101.5 -208.5t-132 -168t-151.5 -88.5q-178 -36 -232 172q-18 74 -33 125l-231 -285q-18 -20 -76 -20q-50 0 -51 18q0 6 6 12l322 396l-62 241q-26 95 -46 103q-15 5 -34 -23q-23 -34 -46.5 -83.5t-60 -134.5t-61.5 -140 q-5 -4 -19 -1t-27.5 13.5t-8.5 19.5q23 49 52.5 124.5t50.5 127.5t48 104.5t57.5 80.5t66.5 30q79 3 107.5 -48t86.5 -277q1 -4 2 -6l240 294q20 25 78 18q45 -6 46 -23q0 -3 -3 -7l-330 -403q8 -30 21.5 -92.5t21.5 -92.5q21 -78 44 -115t66 -30q89 15 176.5 119t157.5 280 z" />
<glyph unicode="y" horiz-adv-x="899" d="M100 -604q-82 -5 -127 40t-36 132q5 48 33 94.5t64.5 81.5t95.5 74t103.5 63t110.5 58q11 34 90 313q-88 -150 -196 -218t-199 -48q-69 15 -102 71.5t-13 157.5q19 96 80.5 300t71.5 302q2 21 32 28.5t58 -3t24 -35.5q-12 -74 -66.5 -287.5t-66.5 -265.5t-14 -85.5 t11.5 -57t45.5 -29.5q72 -14 167 75t169 244q76 160 135 424q6 22 37.5 24.5t58.5 -12t21 -34.5q-202 -761 -215 -807q128 58 244 182t180 309q5 8 19 6.5t27.5 -13.5t8.5 -25q-44 -115 -98 -204.5t-119 -156.5t-134.5 -116t-158.5 -95q-25 -103 -52 -182.5t-55.5 -131 t-56 -86.5t-59 -53t-58.5 -25t-61 -9zM133 -498q87 24 150 197q7 19 13 40.5t12.5 48t10.5 40.5q-193 -113 -243 -205q-32 -64 -12 -99t69 -22z" />
<glyph unicode="z" horiz-adv-x="927" d="M254 928q40 -74 149.5 -113.5t221.5 -17.5q49 18 83.5 7.5t36.5 -36.5t-24 -57q-51 -66 -136.5 -188.5t-160 -218.5t-156.5 -177q52 12 94 0t89 -29.5t98 -15.5q95 3 201 112.5t176 290.5q6 16 31 5q27 -12 26 -33l-2 -6q-79 -203 -197.5 -334.5t-238.5 -134.5 q-53 -1 -99 11t-71.5 25.5t-70 21t-95.5 -2.5q-64 -64 -129 -52q-45 8 -55 43q-14 47 46 89q26 18 66 33q82 84 163 184t133 172t136 194q-102 -10 -200.5 22.5t-155.5 115.5q-16 -47 -33.5 -92.5t-28.5 -74t-33.5 -78l-30 -66t-37 -78.5t-36.5 -78q-6 -9 -19.5 -6.5t-26 13 t-9.5 19.5q76 176 116 279t81 233q-58 76 -28 136q19 39 57 42q43 3 62 -47q17 -42 7 -112z" />
<glyph unicode="{" horiz-adv-x="821" d="M369 -305q-70 -28 -141.5 -6.5t-98.5 82.5q-27 63 -21 165t42 214q14 43 47 125.5t39 119.5q6 40 -22.5 62.5t-80.5 25.5q-20 1 -26.5 23.5t5.5 44.5t35 22q69 0 110 21t62 76q14 36 34.5 153.5t46.5 236t55 171.5q30 55 68 90.5t76.5 48t81.5 16.5t83 -4q20 -3 22 -25 t-11.5 -42.5t-31.5 -18.5q-64 6 -106 -17.5t-72 -84.5q-35 -68 -78 -294t-61 -269q-43 -105 -141 -115q70 -54 57 -147q-7 -45 -42 -127.5t-48 -122.5q-65 -206 -14 -314q30 -62 135 -32q22 6 27 -20q6 -30 -17 -50q-6 -5 -14 -8z" />
<glyph unicode="|" horiz-adv-x="819" d="M184 -549q-8 -30 -38.5 -38t-55 8.5t-16.5 46.5l487 1925q10 40 57 41q39 1 56 -21q6 -10 4 -20z" />
<glyph unicode="}" horiz-adv-x="933" d="M133 -315q-20 3 -22 25t11.5 42.5t31.5 18.5q64 -6 106 17.5t72 84.5q35 68 78 294t61 269q43 105 141 115q-70 54 -57 147q7 45 42 127.5t48 122.5q65 206 14 314q-30 62 -135 32q-22 -6 -27 20q-6 30 17 50l14 8q70 28 141.5 6.5t98.5 -82.5q27 -63 21.5 -164.5 t-41.5 -213.5q-14 -42 -47 -125.5t-39 -120.5q-6 -40 22 -62.5t80 -25.5q20 -1 26.5 -23.5t-5.5 -44.5t-35 -22q-69 0 -110 -21t-62 -76q-14 -36 -34.5 -153.5t-46.5 -236t-55 -171.5q-30 -55 -68 -90.5t-76.5 -48t-81.5 -16.5t-83 4z" />
<glyph unicode="~" horiz-adv-x="991" d="M627 535q-41 -1 -78 13t-59 31.5t-51.5 32t-57.5 15.5q-23 1 -42 -5t-35 -21t-22 -22t-20 -26q-9 -10 -24 -7t-26 17t-5 29q22 52 67 90t111 39q43 1 79 -13.5t57 -32.5t49.5 -32.5t58.5 -13.5q32 1 58 14.5t36 24.5t27 34q9 10 24 7.5t26 -16.5t5 -29q-22 -52 -67 -90 t-111 -39z" />
<glyph unicode="&#xa1;" horiz-adv-x="688" d="M469 838q32 0 52 -23t18 -55q-2 -31 -26 -53.5t-56 -22.5q-33 0 -52.5 22.5t-17.5 55.5q3 31 27 53.5t55 22.5zM449 492q-46 -153 -144 -558t-117 -473q-15 -55 -60 -53q-35 1 -53 30q-10 16 -5 32q62 199 163 612.5t105 427.5q14 32 44.5 36t52 -13.5t14.5 -40.5z" />
<glyph unicode="&#xa2;" horiz-adv-x="950" d="M772 387q-131 -169 -332 -180l-49 -211q-5 -22 -42 -27q-40 -5 -50 16q-4 8 0 19q8 37 25.5 104.5t25.5 104.5q-89 15 -147 72.5t-78 133t-12 163.5q9 92 46 185.5t95 172t140.5 132t172.5 61.5q15 65 39 157q6 23 32 29t49 -3.5t20 -23.5q-7 -28 -21.5 -81.5 t-21.5 -82.5q87 -19 127 -84.5t27 -140t-66 -125.5q-26 -26 -60.5 -4.5t-17.5 51.5q42 70 33.5 127t-68.5 78q-75 -302 -176 -723q153 14 254 139q10 12 29 2.5t27.5 -27t-1.5 -34.5zM231 565q-18 -220 144 -252q93 402 168 715q-78 -14 -146.5 -81.5t-112 -168 t-53.5 -213.5z" />
<glyph unicode="&#xa3;" horiz-adv-x="1083" d="M184 -27q-20 -18 -43.5 -4.5t-28 38t12.5 42.5q97 73 150.5 223.5t62.5 343.5h-117q-21 0 -28.5 23t2.5 46.5t34 23.5h111q2 54 3.5 90.5t7 91.5t13.5 94t23 87.5t34.5 82t48.5 68t65.5 55.5t85.5 34t108 13q127 0 198.5 -97t30.5 -255q-9 -32 -52 -36q-34 -4 -43 13 q-2 5 -1 11q33 127 -9.5 193.5t-127.5 66.5q-53 0 -95.5 -17t-70 -45.5t-48 -69.5t-31.5 -85t-17.5 -95.5t-9 -97t-4.5 -94.5v-8h180q19 0 24 -23.5t-7 -46.5t-32 -23h-168q-21 -291 -112 -466q60 7 147 -21q17 -5 49.5 -16t50.5 -17t48 -12.5t50 -7t47.5 3.5t50 15.5t48 32 t49.5 50.5q12 15 37 8t35.5 -26.5t-4.5 -44.5q-58 -75 -121.5 -108.5t-125 -29t-115 20t-117 36.5t-105.5 23q-31 1 -52.5 -2t-44 -17.5t-34 -24.5t-43.5 -40z" />
<glyph unicode="&#xa4;" horiz-adv-x="1183" d="M332 1155l67 -98q112 67 237.5 63t215.5 -78q53 56 98 111q32 39 73 23q30 -12 31 -38q1 -12 -7 -22l-138 -153q58 -120 27.5 -274.5t-129.5 -262.5q90 -118 129 -178q12 -17 -2.5 -39t-35 -28t-32.5 5q-22 32 -69.5 94.5t-61.5 81.5q-93 -76 -220 -89t-220 42 q-105 -120 -115 -133q-9 -12 -31.5 2t-32.5 34t1 34l106 125q-102 131 -69 316.5t168 305.5l-80 123q-19 25 5 48q25 25 57 10q16 -8 28 -25zM631 1014q-145 4 -242.5 -91t-122.5 -235q-23 -139 35 -222t170 -85q144 -3 241 92t122 234q24 137 -33.5 221t-169.5 86z" />
<glyph unicode="&#xa5;" horiz-adv-x="1024" d="M879 1305q8 13 22.5 16t28.5 -4t26.5 -17.5t16.5 -24t-2 -24.5q-122 -201 -213.5 -332.5t-225.5 -297.5l144 2q20 0 28.5 -20.5t-1.5 -41.5t-33 -22q-55 -2 -193 -2l-24 -97q69 -3 182 2q24 1 28 -27q5 -31 -19 -49q-9 -7 -21 -8q-55 -4 -193 -4q-17 -61 -41.5 -168.5 t-40.5 -171.5q-21 -45 -63 -42q-32 2 -41 28q-3 11 0 23q39 145 80 333q-26 1 -81.5 2t-82.5 2q-20 1 -27 22.5t4.5 42t34.5 19.5q118 -4 168 -4l20 97l-184 6q-25 1 -25 32q1 33 26 47q10 6 22 5l159 -6q-60 194 -92.5 321.5t-66.5 312.5q-2 32 24 50t54.5 10t33.5 -39 q32 -188 60.5 -311t85.5 -289q126 156 224 301.5t198 327.5z" />
<glyph unicode="&#xa6;" horiz-adv-x="724" d="M430 600q-8 -30 -38.5 -38t-55.5 8t-17 46l195 779q8 36 53 39q41 2 59 -22q9 -11 5 -26zM141 -549q-9 -36 -53 -38q-40 -3 -57 22q-8 11 -4 26l198 785q8 30 38.5 38t55.5 -8.5t17 -46.5z" />
<glyph unicode="&#xa7;" horiz-adv-x="972" d="M563 1432q102 -3 178 -63t97 -161q4 -20 -18.5 -33.5t-48 -12t-28.5 17.5q-10 53 -46.5 90t-82.5 49t-90.5 7.5t-77 -34.5t-36.5 -78q-3 -40 14.5 -77t48 -68.5t68.5 -63.5t76 -67t69 -73.5t49.5 -90t16.5 -108.5q-3 -79 -44.5 -147t-115.5 -113q42 -72 42.5 -150.5 t-34.5 -141.5t-109.5 -103.5t-173.5 -39.5q-119 2 -197 71.5t-77 178.5q0 15 23.5 24t48.5 2.5t30 -28.5q14 -68 62 -107.5t125 -39.5q98 0 138.5 46t43.5 130q2 42 -15.5 83t-46.5 75.5t-64.5 69.5t-70.5 73t-63.5 78t-45 91t-13.5 107q5 74 50 130t120 79q-78 88 -70 199 q8 91 82 146.5t186 52.5zM442 954q-51 -2 -94.5 -38.5t-44.5 -102.5q-1 -46 23.5 -93.5t53.5 -79t80.5 -81.5t74.5 -76q49 29 76.5 83t27.5 122q0 35 -15.5 70.5t-31.5 58.5t-51.5 55.5t-48.5 43t-50 38.5z" />
<glyph unicode="&#xa8;" horiz-adv-x="643" d="M199 1524q-31 0 -52.5 22.5t-21.5 52.5t21 51.5t53 22.5q28 0 49.5 -22.5t21.5 -53.5q-2 -29 -22.5 -51t-48.5 -22zM453 1524q-29 0 -49.5 22.5t-20.5 52.5q0 29 20.5 51t49.5 23q32 0 53.5 -22.5t21.5 -53.5q-2 -30 -23 -51.5t-52 -21.5z" />
<glyph unicode="&#xa9;" horiz-adv-x="1585" d="M643 -330q-175 -2 -304 84t-188.5 246t-31.5 365q20 145 82.5 275.5t160 234.5t239.5 167t308 66q134 2 243.5 -47.5t181.5 -140t102.5 -221.5t9.5 -285q-16 -115 -57.5 -222t-111.5 -201.5t-161 -165t-212.5 -112t-260.5 -43.5zM651 -223q146 1 268 53.5t205 142 t135 202.5t72 241q40 265 -79.5 425.5t-340.5 162.5q-141 1 -260 -51.5t-200.5 -142.5t-134 -204t-72.5 -244q-27 -176 17.5 -310.5t146.5 -205t243 -69.5zM725 33q-70 0 -121.5 27t-78.5 72.5t-37.5 100t-4.5 115.5q8 105 65.5 205t151 165t195.5 64q72 -1 117 -35.5 t53.5 -82.5t-12.5 -100t-68 -87q-25 -19 -53.5 -2.5t-16.5 41.5q34 39 45.5 79.5t-6 68t-63.5 28.5q-108 3 -197 -99t-102 -259q-8 -94 26 -155.5t119 -61.5q109 0 207 80q10 8 26 -2.5t21.5 -26.5t-4.5 -29q-115 -106 -262 -106z" />
<glyph unicode="&#xab;" horiz-adv-x="1107" d="M395 299q-41 44 -233 236q-31 28 -28.5 68.5t40.5 62.5q243 145 326 204q21 15 47.5 0.5t32 -38.5t-18.5 -44q-29 -18 -91 -57.5t-117 -73.5t-99 -61q80 -80 227 -238q13 -14 -2.5 -36.5t-39.5 -30t-44 7.5zM788 299q-41 44 -233 236q-31 28 -28.5 68.5t40.5 62.5 q243 145 326 204q21 15 47.5 0.5t32 -38.5t-18.5 -44q-29 -18 -91 -57.5t-117 -73.5t-99 -61q80 -80 227 -238q13 -14 -2.5 -36.5t-39.5 -30t-44 7.5z" />
<glyph unicode="&#xac;" horiz-adv-x="991" d="M748 385q-5 -18 -31 -23.5t-48.5 4t-17.5 27.5l41 152h-461q-25 0 -27 32q-2 36 22 54q10 8 22 8h528q18 0 26.5 -17t2.5 -38z" />
<glyph unicode="&#xad;" horiz-adv-x="946" d="M293 473q-20 0 -25.5 26.5t7.5 52.5t36 26h342q20 0 25.5 -26t-7.5 -52.5t-36 -26.5h-342z" />
<glyph unicode="&#xae;" horiz-adv-x="1585" d="M637 -330q-266 -3 -413 190.5t-105 504.5q16 114 60 222t116.5 201.5t165 164t213.5 112t254 43.5q176 3 304 -83t185 -245.5t29 -365.5q-16 -114 -60 -222t-116.5 -202t-165 -164.5t-213.5 -112t-254 -43.5zM645 -223q140 1 261.5 53.5t207.5 141.5t142 203t75 241 q41 266 -71.5 426t-329.5 162q-141 1 -263 -51.5t-207.5 -142.5t-141 -204.5t-74.5 -243.5q-41 -266 72.5 -426.5t328.5 -158.5zM844 37q-32 40 -46 100t-21 123t-17 92q-23 67 -94 62q-14 -49 -33.5 -120.5t-30 -107.5t-23 -74t-22.5 -59q-10 -13 -32.5 -13.5t-42.5 13 t-13 31.5q43 113 86.5 283t81.5 264q40 102 118.5 159.5t174.5 51.5t132 -69.5t9 -137.5q-25 -67 -110 -125.5t-162 -71.5q41 -15 60.5 -59.5t21.5 -93t15 -108t42 -95.5q22 -27 -16 -46q-36 -18 -65 -8q-9 3 -13 9zM688 487q104 9 183.5 62t101.5 115q14 39 -2 64t-58 26 q-81 4 -137 -72t-88 -195z" />
<glyph unicode="&#xaf;" horiz-adv-x="577" d="M129 1559q-20 0 -28.5 20.5t1.5 40.5t33 20q154 -2 361 -2q20 0 27.5 -20.5t-2.5 -41t-32 -20.5q-64 0 -172 1.5t-188 1.5z" />
<glyph unicode="&#xb0;" horiz-adv-x="839" d="M455 1339q117 0 192 -83.5t60 -204.5q-17 -129 -111.5 -209t-226.5 -80q-122 0 -197.5 84t-56.5 205q19 127 109.5 207.5t230.5 80.5zM434 1241q-81 0 -136.5 -52t-66.5 -136q-13 -78 32 -134.5t120 -56.5q82 0 141.5 56t67.5 135q9 81 -37.5 134.5t-120.5 53.5z" />
<glyph unicode="&#xb1;" horiz-adv-x="944" d="M784 696q27 0 29 -32q2 -34 -21 -53q-11 -9 -24 -9h-207l-55 -192q-6 -18 -32.5 -21.5t-49.5 8t-18 29.5l49 176h-215q-20 0 -26 24t6.5 48t35.5 24l225 -2l66 228q7 26 34.5 30t49.5 -11.5t16 -37.5l-59 -209h196zM682 311q27 0 29 -32q2 -34 -21 -53q-11 -9 -24 -9 h-529q-25 0 -27 32q-2 36 22 54q10 8 22 8h528z" />
<glyph unicode="&#xb2;" horiz-adv-x="548" d="M119 760q-24 0 -27 35t19 47q75 43 149.5 124.5t91.5 161.5q11 56 -8 88.5t-53 32.5q-29 3 -55.5 -22.5t-30.5 -69.5q-1 -12 -22.5 -16t-41.5 5t-18 28q3 75 53 116t125 39q73 -2 119.5 -54t32.5 -147q-14 -79 -76.5 -158t-130.5 -130l176 2q19 0 25.5 -20t-1.5 -40 t-24 -20z" />
<glyph unicode="&#xb3;" horiz-adv-x="559" d="M301 1327q82 1 125 -35.5t41 -95.5q-1 -50 -33 -83.5t-82 -47.5q44 -8 73.5 -52t18.5 -106q-13 -69 -70.5 -107t-127.5 -36q-72 0 -117 42.5t-35 125.5q2 19 37 18.5t35 -20.5q0 -42 23.5 -64t60.5 -22q40 0 67 21t33 61q6 50 -23.5 76t-78.5 26q-12 0 -15 17.5t5 35 t22 17.5q54 0 84.5 24t30.5 68q0 57 -74 57q-31 0 -57 -19.5t-33 -49.5q-4 -15 -24.5 -18t-38 8t-13.5 30q10 57 58 91.5t108 37.5z" />
<glyph unicode="&#xb4;" horiz-adv-x="348" d="M188 1729q19 25 61 12q35 -10 40 -32q1 -10 -6 -19l-123 -154q-18 -24 -59 -17q-35 6 -36 28q0 8 5 16q62 92 118 166z" />
<glyph unicode="&#xb6;" horiz-adv-x="1325" d="M1239 1432q29 0 37.5 -25t-5.5 -49.5t-40 -24.5h-201l-194 -790q-35 -143 -71.5 -241.5t-86.5 -174.5t-116.5 -112.5t-153.5 -37.5q-91 -1 -154.5 32.5t-90 88t-24 124t36.5 140.5q19 17 43.5 17t43.5 -16t11 -35q-47 -104 -7 -174.5t151 -67.5q49 1 89.5 24.5t68 57.5 t52.5 89t40 103.5t32 116.5l218 856h-173l-141 -547q-50 -187 -205 -159q-84 16 -132 141t-17 297q19 108 51 178t85.5 112.5t124.5 59.5t175 17h553z" />
<glyph unicode="&#xb7;" horiz-adv-x="397" d="M199 625q-33 0 -55.5 24.5t-22.5 57.5q0 32 22 53.5t56 23.5q33 0 56.5 -23t23.5 -56q-2 -33 -25 -56.5t-55 -23.5z" />
<glyph unicode="&#xb8;" horiz-adv-x="464" d="M221 49l80 -6l-88 -154q54 -4 89.5 -25.5t48 -52t8 -66t-26.5 -69.5q-28 -44 -74.5 -69.5t-115.5 -21t-142 49.5q-11 10 -10.5 28.5t14.5 31.5t31 2q42 -25 79 -32.5t62.5 1.5t43.5 24t28 36q19 42 -3.5 75t-84.5 25q-22 -3 -34.5 9t-0.5 36z" />
<glyph unicode="&#xb9;" horiz-adv-x="491" d="M305 1305q12 22 37 25.5t43 -9t12 -31.5q-22 -64 -47 -164.5t-49.5 -206.5t-32.5 -137q-4 -14 -29.5 -18t-47 5.5t-15.5 27.5q12 43 45.5 179.5t48.5 192.5q-54 -49 -135 -84q-17 -7 -30.5 8t-12.5 33.5t14 26.5q49 21 104 61.5t95 90.5z" />
<glyph unicode="&#xbb;" horiz-adv-x="1107" d="M215 295q-21 -15 -47.5 -0.5t-32 38.5t18.5 44q29 18 91 57.5t117 73.5t99 61q-95 95 -228 238q-13 14 2.5 36.5t39.5 30t44 -7.5q37 -39 75.5 -78t87 -86.5t71.5 -70.5q31 -28 28.5 -68.5t-40.5 -62.5q-235 -140 -326 -205zM608 295q-21 -15 -47.5 -0.5t-32 38.5 t18.5 44q29 18 91 57.5t117 73.5t99 61q-80 80 -227 238q-13 14 2.5 36.5t39.5 30t44 -7.5q37 -40 74.5 -78t88 -87.5t70.5 -69.5q31 -28 28.5 -68.5t-40.5 -62.5q-235 -140 -326 -205z" />
<glyph unicode="&#xbc;" horiz-adv-x="1243" d="M258 -10q-19 -18 -45 -7t-33.5 34t10.5 44q65 86 217.5 348.5t308 521.5t240.5 359q50 56 94 42q28 -9 28 -37q-1 -17 -15 -33q-86 -93 -208.5 -286.5t-223.5 -377t-208 -363t-165 -245.5zM301 598q-4 -16 -28 -18t-44.5 9.5t-15.5 28.5q16 55 64.5 257t74.5 294 q-76 -84 -174 -139q-24 -13 -40 -1t-14.5 31.5t15.5 33.5q143 82 244 213q33 25 56 24t35 -16.5t7 -30.5q-37 -115 -105.5 -389t-74.5 -297zM981 10q-2 -13 -23.5 -18t-41.5 2t-17 22l25 152h-267q-29 0 -37 30t7 44l391 465q12 14 32.5 14.5t35.5 -9.5t12 -22l-80 -457 l84 -2q19 0 18 -25q-1 -28 -23 -36l-10 -2h-81zM721 233h213l55 322z" />
<glyph unicode="&#xbd;" horiz-adv-x="1316" d="M238 -10q-19 -18 -45 -7t-33.5 34t10.5 44q65 86 217.5 348.5t308 521.5t240.5 359q49 55 92 42q28 -8 29 -36q0 -18 -15 -34q-86 -93 -208 -286.5t-223 -377t-208 -363t-165 -245.5zM281 598q-4 -16 -28 -18t-44.5 9.5t-15.5 28.5q16 55 64.5 257t74.5 294 q-76 -84 -174 -139q-24 -13 -40 -1t-14.5 31.5t15.5 33.5q60 34 126 90.5t117 122.5q33 25 56 24t35.5 -16.5t7.5 -30.5q-37 -115 -105.5 -389t-74.5 -297zM788 2q-35 6 -33.5 39t31.5 55q97 71 195 184.5t129 215.5q23 74 -2.5 117.5t-73.5 48.5q-50 5 -89.5 -33 t-35.5 -107q1 -20 -29 -23q-36 -3 -52 19q-5 9 -5 19q6 101 70.5 155t146.5 51q90 -5 143 -74.5t21 -185.5q-28 -109 -127 -226t-196 -183l268 -2q14 -2 18.5 -19.5t-4 -33.5t-24.5 -15z" />
<glyph unicode="&#xbe;" horiz-adv-x="1366" d="M381 -10q-19 -18 -45 -7t-33.5 34t10.5 44q65 86 217.5 348.5t308 521.5t240.5 359q50 56 94 42q28 -9 28 -37q-1 -17 -15 -33q-86 -93 -208.5 -286.5t-223.5 -377t-208 -363t-165 -245.5zM319 586q-91 -2 -149.5 59t-42.5 170q2 17 23.5 23.5t41.5 -1.5t17 -26 q-11 -65 24.5 -103t90.5 -36q45 0 82.5 27.5t48.5 78.5q16 70 -17.5 117.5t-115.5 48.5q-13 0 -18 16t0.5 32.5t19.5 17.5q75 6 119.5 43t48.5 98q4 48 -22 75t-67 29q-38 0 -74 -26.5t-55 -77.5q-1 -14 -18.5 -21t-35 -1t-17.5 22q14 87 74 132.5t133 43.5q78 -2 129.5 -52 t40.5 -136q-9 -65 -51 -107t-99 -53q67 -20 97 -76.5t16 -126.5q-18 -90 -82.5 -140t-141.5 -50zM1104 10q-2 -13 -23.5 -18t-41.5 2t-17 22l25 152h-267q-29 0 -37 30t7 44l391 465q12 14 32.5 14.5t35.5 -9.5t12 -22l-80 -457l84 -2q19 0 18 -25q-1 -28 -23 -36l-10 -2 h-82zM844 233h213l55 322z" />
<glyph unicode="&#xbf;" horiz-adv-x="843" d="M612 842q32 0 52 -23t18 -55q-2 -31 -26 -53.5t-56 -22.5q-33 0 -52.5 22.5t-17.5 55.5q3 31 27 53.5t55 22.5zM639 510q-3 -48 -14.5 -89.5t-33 -78.5t-40 -62t-49.5 -61q-33 -38 -94.5 -99t-102.5 -103.5t-83 -107.5t-60 -132q-54 -204 102 -248q103 -28 191.5 44.5 t111.5 211.5q5 32 34.5 44.5t55.5 -4.5t21 -54q-16 -102 -60 -178.5t-104 -119t-130 -57.5t-142 -2q-122 23 -180.5 121.5t-20.5 251.5q18 71 50 131.5t74.5 108t83.5 85t92.5 84.5t84.5 85q51 57 79.5 108t35.5 125q2 20 27 28t48.5 -1.5t22.5 -30.5z" />
<glyph unicode="&#xc0;" horiz-adv-x="1519" d="M1237 1767q71 -95 119 -165q17 -27 -16 -40q-34 -14 -62 3l-12 10l-123 154q-19 22 13 42q33 20 64 9q11 -4 17 -13zM305 -20q-122 0 -172.5 83.5t-17.5 206.5q31 112 119 191t205 111t241 14q107 266 199 453.5t178 273.5q50 50 100.5 74.5t89 21t68 -27.5t37 -72 t-3.5 -111q-95 -458 -144 -655q246 25 369 176q17 22 35 8q20 -16 8 -45q-3 -7 -8 -14q-67 -98 -183 -153.5t-243 -65.5q-10 -46 -32 -133.5t-37 -157t-21 -131.5q-2 -18 -34 -25t-61.5 1.5t-25.5 27.5q7 47 19 104t19.5 88.5t28.5 114.5t27 106q-26 1 -72.5 7t-118 16 t-120.5 16q-37 -94 -68.5 -161.5t-73.5 -136t-85.5 -110.5t-100.5 -68.5t-121 -26.5zM1087 537q102 396 162 690q15 73 -21 86.5t-87 -39.5q-34 -35 -70.5 -90t-62.5 -103t-62.5 -131t-53.5 -124.5t-53.5 -135t-45.5 -115.5q261 -37 294 -38zM313 84q43 0 79.5 19t66.5 52 t58 80.5t54 103t55 120.5q10 23 15 35q-164 5 -266 -51.5t-142 -182.5q-25 -70 -4 -123t84 -53z" />
<glyph unicode="&#xc1;" horiz-adv-x="1519" d="M1343 1767q19 25 61 12q36 -10 40 -32q1 -9 -6 -18l-123 -154q-18 -24 -59 -17q-35 6 -36 28q0 8 5 16q56 83 118 165zM305 -20q-122 0 -172.5 83.5t-17.5 206.5q31 112 119 191t205 111t241 14q107 266 199 453.5t178 273.5q50 50 100.5 74.5t89 21t68 -27.5t37 -72 t-3.5 -111q-95 -458 -144 -655q246 25 369 176q17 22 35 8q20 -16 8 -45q-3 -7 -8 -14q-67 -98 -183 -153.5t-243 -65.5q-10 -46 -32 -133.5t-37 -157t-21 -131.5q-2 -18 -34 -25t-61.5 1.5t-25.5 27.5q7 47 19 104t19.5 88.5t28.5 114.5t27 106q-26 1 -72.5 7t-118 16 t-120.5 16q-37 -94 -68.5 -161.5t-73.5 -136t-85.5 -110.5t-100.5 -68.5t-121 -26.5zM1087 537q102 396 162 690q15 73 -21 86.5t-87 -39.5q-34 -35 -70.5 -90t-62.5 -103t-62.5 -131t-53.5 -124.5t-53.5 -135t-45.5 -115.5q261 -37 294 -38zM313 84q43 0 79.5 19t66.5 52 t58 80.5t54 103t55 120.5q10 23 15 35q-164 5 -266 -51.5t-142 -182.5q-25 -70 -4 -123t84 -53z" />
<glyph unicode="&#xc2;" horiz-adv-x="1519" d="M1296 1765q23 13 53.5 13t47.5 -13q11 -9 31.5 -31t36 -41t39.5 -47.5t30 -35.5q18 -20 -13 -36q-35 -18 -66 -4q-9 4 -15 11l-101 119l-159 -131q-29 -25 -69 -11q-31 11 -29 33q2 10 12 19q39 35 102.5 83.5t99.5 71.5zM305 -20q-122 0 -172.5 83.5t-17.5 206.5 q31 112 119 191t205 111t241 14q107 266 199 453.5t178 273.5q50 50 100.5 74.5t89 21t68 -27.5t37 -72t-3.5 -111q-95 -458 -144 -655q246 25 369 176q17 22 35 8q20 -16 8 -45q-3 -7 -8 -14q-67 -98 -183 -153.5t-243 -65.5q-10 -46 -32 -133.5t-37 -157t-21 -131.5 q-2 -18 -34 -25t-61.5 1.5t-25.5 27.5q7 47 19 104t19.5 88.5t28.5 114.5t27 106q-26 1 -72.5 7t-118 16t-120.5 16q-37 -94 -68.5 -161.5t-73.5 -136t-85.5 -110.5t-100.5 -68.5t-121 -26.5zM1087 537q102 396 162 690q15 73 -21 86.5t-87 -39.5q-34 -35 -70.5 -90 t-62.5 -103t-62.5 -131t-53.5 -124.5t-53.5 -135t-45.5 -115.5q261 -37 294 -38zM313 84q43 0 79.5 19t66.5 52t58 80.5t54 103t55 120.5q10 23 15 35q-164 5 -266 -51.5t-142 -182.5q-25 -70 -4 -123t84 -53z" />
<glyph unicode="&#xc3;" horiz-adv-x="1519" d="M1401 1579q-41 1 -99 36.5t-88 35.5q-21 0 -36.5 -12t-36.5 -40q-9 -8 -24.5 -4t-28 18.5t-5.5 26.5q17 39 52.5 67t85.5 28q45 0 100.5 -35t85.5 -37q44 -3 76 47q13 19 39.5 -1t17.5 -40q-17 -38 -54 -64.5t-85 -25.5zM305 -20q-122 0 -172.5 83.5t-17.5 206.5 q31 112 119 191t205 111t241 14q107 266 199 453.5t178 273.5q50 50 100.5 74.5t89 21t68 -27.5t37 -72t-3.5 -111q-95 -458 -144 -655q246 25 369 176q17 22 35 8q20 -16 8 -45q-3 -7 -8 -14q-67 -98 -183 -153.5t-243 -65.5q-10 -46 -32 -133.5t-37 -157t-21 -131.5 q-2 -18 -34 -25t-61.5 1.5t-25.5 27.5q7 47 19 104t19.5 88.5t28.5 114.5t27 106q-26 1 -72.5 7t-118 16t-120.5 16q-37 -94 -68.5 -161.5t-73.5 -136t-85.5 -110.5t-100.5 -68.5t-121 -26.5zM1087 537q102 396 162 690q15 73 -21 86.5t-87 -39.5q-34 -35 -70.5 -90 t-62.5 -103t-62.5 -131t-53.5 -124.5t-53.5 -135t-45.5 -115.5q261 -37 294 -38zM313 84q43 0 79.5 19t66.5 52t58 80.5t54 103t55 120.5q10 23 15 35q-164 5 -266 -51.5t-142 -182.5q-25 -70 -4 -123t84 -53z" />
<glyph unicode="&#xc4;" horiz-adv-x="1519" d="M1192 1563q-31 0 -52.5 22.5t-21.5 52.5t21 51.5t53 22.5q28 0 50 -23t22 -53q-2 -29 -23 -51t-49 -22zM1446 1563q-29 0 -49.5 22.5t-20.5 52.5q0 29 20.5 51t49.5 23q32 0 54 -22.5t22 -53.5q-2 -30 -23 -51.5t-53 -21.5zM305 -20q-122 0 -172.5 83.5t-17.5 206.5 q31 112 119 191t205 111t241 14q107 266 199 453.5t178 273.5q50 50 100.5 74.5t89 21t68 -27.5t37 -72t-3.5 -111q-95 -458 -144 -655q246 25 369 176q17 22 35 8q20 -16 8 -45q-3 -7 -8 -14q-67 -98 -183 -153.5t-243 -65.5q-10 -46 -32 -133.5t-37 -157t-21 -131.5 q-2 -18 -34 -25t-61.5 1.5t-25.5 27.5q7 47 19 104t19.5 88.5t28.5 114.5t27 106q-26 1 -72.5 7t-118 16t-120.5 16q-37 -94 -68.5 -161.5t-73.5 -136t-85.5 -110.5t-100.5 -68.5t-121 -26.5zM1087 537q102 396 162 690q15 73 -21 86.5t-87 -39.5q-34 -35 -70.5 -90 t-62.5 -103t-62.5 -131t-53.5 -124.5t-53.5 -135t-45.5 -115.5q261 -37 294 -38zM313 84q43 0 79.5 19t66.5 52t58 80.5t54 103t55 120.5q10 23 15 35q-164 5 -266 -51.5t-142 -182.5q-25 -70 -4 -123t84 -53z" />
<glyph unicode="&#xc5;" horiz-adv-x="1519" d="M1331 1810q67 -2 106 -41.5t33 -103.5q-6 -70 -56.5 -110.5t-117.5 -38.5q-63 2 -101 43t-32 104q6 65 54.5 107t113.5 40zM1325 1741q-33 0 -56 -22t-28 -56q-4 -32 14.5 -54t49.5 -22q37 0 60 20.5t28 55.5q4 35 -15 56.5t-53 21.5zM305 -20q-122 0 -172.5 83.5 t-17.5 206.5q31 112 119 191t205 111t241 14q107 266 199 453.5t178 273.5q50 50 100.5 74.5t89 21t68 -27.5t37 -72t-3.5 -111q-95 -458 -144 -655q246 25 369 176q17 22 35 8q20 -16 8 -45q-3 -7 -8 -14q-67 -98 -183 -153.5t-243 -65.5q-10 -46 -32 -133.5t-37 -157 t-21 -131.5q-2 -18 -34 -25t-61.5 1.5t-25.5 27.5q7 47 19 104t19.5 88.5t28.5 114.5t27 106q-26 1 -72.5 7t-118 16t-120.5 16q-37 -94 -68.5 -161.5t-73.5 -136t-85.5 -110.5t-100.5 -68.5t-121 -26.5zM1087 537q102 396 162 690q15 73 -21 86.5t-87 -39.5 q-34 -35 -70.5 -90t-62.5 -103t-62.5 -131t-53.5 -124.5t-53.5 -135t-45.5 -115.5q261 -37 294 -38zM313 84q43 0 79.5 19t66.5 52t58 80.5t54 103t55 120.5q10 23 15 35q-164 5 -266 -51.5t-142 -182.5q-25 -70 -4 -123t84 -53z" />
<glyph unicode="&#xc6;" horiz-adv-x="1996" d="M1493 -23q-127 0 -225 46t-152 139q-25 -138 -29 -170q0 -18 -30.5 -25t-60 1.5t-25.5 27.5q30 201 92 448q-26 1 -72 7t-117 16t-120 16q-37 -94 -68.5 -161.5t-73.5 -136t-85.5 -110.5t-100.5 -68.5t-121 -26.5q-122 0 -172.5 83.5t-17.5 206.5q31 112 119 191t205 111 t241 14q107 266 199 453.5t178 273.5q50 50 100.5 74.5t89 21t68 -27.5t37 -72t-3.5 -111q-77 -364 -109 -504q137 103 332 94q-89 54 -129.5 148t-20.5 196t97 179q-5 42 2 106t20 105q5 13 23 16t32 -6t9 -25q-7 -24 -10.5 -73.5t-0.5 -79.5q105 59 236 53 q112 -4 174.5 -66t62.5 -143q0 -83 -62.5 -142t-176.5 -59q-102 0 -172.5 52.5t-100.5 126.5q-40 -89 -21 -169t83.5 -141.5t159.5 -93.5q13 -9 12 -30t-14.5 -41.5t-28.5 -16.5q-68 21 -141.5 22.5t-141.5 -17t-125.5 -52t-98 -86.5t-54.5 -117q-30 -145 67 -250.5 t254 -105.5q331 0 488 405q6 11 21 10t28.5 -13t7.5 -25q-99 -259 -235 -368.5t-322 -109.5zM1087 537q102 396 162 690q15 73 -21 86.5t-87 -39.5q-34 -35 -70.5 -90t-62.5 -103t-62.5 -131t-53.5 -124.5t-53.5 -135t-45.5 -115.5q261 -37 294 -38zM1825 1098q61 0 95 29 t34 69q0 45 -41.5 79t-114.5 34q-106 0 -180 -58q64 -153 207 -153zM313 84q43 0 79.5 19t66.5 52t58 80.5t54 103t55 120.5q10 23 15 35q-164 5 -266 -51.5t-142 -182.5q-25 -70 -4 -123t84 -53z" />
<glyph unicode="&#xc7;" horiz-adv-x="1198" d="M1196 487q6 8 20.5 6.5t27.5 -14.5t7 -26q-91 -229 -216 -340.5t-300 -126.5l-53 -95q54 -4 89.5 -25.5t48 -52t8 -66t-26.5 -69.5q-28 -44 -74.5 -69t-115.5 -20.5t-142 49.5q-11 10 -10.5 28t14.5 31t31 2q42 -25 79 -32.5t62.5 1.5t43.5 24t28 36q19 42 -3.5 75 t-84.5 25q-22 -3 -34.5 9t-0.5 36l59 109q-80 4 -143.5 35.5t-105.5 84t-69 123.5t-37 153t-5 173q16 279 153 520q-49 75 -82 162t-34 156q-3 23 26 29q33 7 51 -14q8 -9 9 -20q3 -88 84 -229q213 293 495 277q86 -5 142.5 -58.5t65 -135t-35.5 -181.5 q-51 -106 -163.5 -157t-244 -33.5t-233.5 98.5q-94 -198 -100 -396q-9 -232 58.5 -356t207.5 -125q68 -1 133 17.5t132.5 61.5t129.5 124.5t109 195.5zM973 1319q-125 7 -220.5 -62t-174.5 -198q56 -52 128.5 -73.5t137.5 -14t119.5 35.5t80.5 70q36 57 39.5 112.5t-26.5 91 t-84 38.5z" />
<glyph unicode="&#xc8;" horiz-adv-x="1036" d="M705 1767q62 -82 118 -165q17 -27 -16 -40q-34 -14 -62 3q-7 4 -12 10l-123 154q-18 22 13 41q33 21 64 10q11 -4 18 -13zM467 1559q-4 -134 27 -213q68 57 161.5 76.5t174.5 2t136.5 -73.5t51.5 -137q-3 -80 -68 -132t-178 -42q-178 16 -276 134q-25 -56 -11.5 -117 t49.5 -112.5t101.5 -88.5t144.5 -45q17 -2 21 -25.5t-5 -45.5t-26 -21q-55 3 -114.5 -7t-122 -37.5t-113 -68.5t-85.5 -107t-42 -147q-9 -112 53.5 -186.5t173.5 -77.5q340 -7 514 399q6 7 21 6t28 -13.5t7 -26.5q-187 -489 -598 -471q-101 5 -180 56t-118.5 131t-33.5 173 q10 176 132.5 303t287.5 139q-108 35 -168 122.5t-55.5 194t71.5 197.5q-34 90 -27 261q0 12 16.5 20t33 3t16.5 -23zM553 1260q84 -108 217 -117q62 -6 94.5 17.5t32.5 60.5q0 64 -64.5 93t-147 13.5t-132.5 -67.5z" />
<glyph unicode="&#xc9;" horiz-adv-x="1036" d="M811 1767q19 25 62 12q34 -10 38 -32q1 -9 -6 -18l-123 -154q-18 -24 -59 -17q-35 6 -36 28q0 8 5 16q48 70 119 165zM467 1559q-4 -134 27 -213q68 57 161.5 76.5t174.5 2t136.5 -73.5t51.5 -137q-3 -80 -68 -132t-178 -42q-178 16 -276 134q-25 -56 -11.5 -117 t49.5 -112.5t101.5 -88.5t144.5 -45q17 -2 21 -25.5t-5 -45.5t-26 -21q-55 3 -114.5 -7t-122 -37.5t-113 -68.5t-85.5 -107t-42 -147q-9 -112 53.5 -186.5t173.5 -77.5q340 -7 514 399q6 7 21 6t28 -13.5t7 -26.5q-187 -489 -598 -471q-101 5 -180 56t-118.5 131t-33.5 173 q10 176 132.5 303t287.5 139q-108 35 -168 122.5t-55.5 194t71.5 197.5q-34 90 -27 261q0 12 16.5 20t33 3t16.5 -23zM553 1260q84 -108 217 -117q62 -6 94.5 17.5t32.5 60.5q0 64 -64.5 93t-147 13.5t-132.5 -67.5z" />
<glyph unicode="&#xca;" horiz-adv-x="1036" d="M764 1765q23 13 53 13t47 -13q11 -9 31.5 -31t36 -41t39.5 -47.5t30 -35.5q18 -20 -13 -36q-35 -18 -66 -4q-9 4 -15 11l-100 119l-160 -131q-29 -25 -69 -11q-31 11 -29 33q2 10 12 19q39 34 103 83t100 72zM467 1559q-4 -134 27 -213q68 57 161.5 76.5t174.5 2 t136.5 -73.5t51.5 -137q-3 -80 -68 -132t-178 -42q-178 16 -276 134q-25 -56 -11.5 -117t49.5 -112.5t101.5 -88.5t144.5 -45q17 -2 21 -25.5t-5 -45.5t-26 -21q-55 3 -114.5 -7t-122 -37.5t-113 -68.5t-85.5 -107t-42 -147q-9 -112 53.5 -186.5t173.5 -77.5q340 -7 514 399 q6 7 21 6t28 -13.5t7 -26.5q-187 -489 -598 -471q-101 5 -180 56t-118.5 131t-33.5 173q10 176 132.5 303t287.5 139q-108 35 -168 122.5t-55.5 194t71.5 197.5q-34 90 -27 261q0 12 16.5 20t33 3t16.5 -23zM553 1260q84 -108 217 -117q62 -6 94.5 17.5t32.5 60.5 q0 64 -64.5 93t-147 13.5t-132.5 -67.5z" />
<glyph unicode="&#xcb;" horiz-adv-x="1036" d="M659 1563q-31 0 -52 22.5t-21 52.5t20.5 51.5t52.5 22.5q28 0 50 -23t22 -53q-2 -29 -23 -51t-49 -22zM913 1563q-29 0 -49 22.5t-20 52.5q0 29 20 51t49 23q32 0 54 -22.5t22 -53.5q-2 -30 -23.5 -51.5t-52.5 -21.5zM467 1559q-4 -134 27 -213q68 57 161.5 76.5t174.5 2 t136.5 -73.5t51.5 -137q-3 -80 -68 -132t-178 -42q-178 16 -276 134q-25 -56 -11.5 -117t49.5 -112.5t101.5 -88.5t144.5 -45q17 -2 21 -25.5t-5 -45.5t-26 -21q-55 3 -114.5 -7t-122 -37.5t-113 -68.5t-85.5 -107t-42 -147q-9 -112 53.5 -186.5t173.5 -77.5q340 -7 514 399 q6 7 21 6t28 -13.5t7 -26.5q-187 -489 -598 -471q-101 5 -180 56t-118.5 131t-33.5 173q10 176 132.5 303t287.5 139q-108 35 -168 122.5t-55.5 194t71.5 197.5q-34 90 -27 261q0 12 16.5 20t33 3t16.5 -23zM553 1260q84 -108 217 -117q62 -6 94.5 17.5t32.5 60.5 q0 64 -64.5 93t-147 13.5t-132.5 -67.5z" />
<glyph unicode="&#xcc;" horiz-adv-x="1032" d="M977 1769q71 -95 119 -165q17 -27 -16 -40q-34 -14 -62 3q-7 4 -12 10l-123 154q-19 22 13 42q33 20 64 9q11 -4 17 -13zM952 1391q13 33 46.5 38.5t59.5 -13t19 -42.5q-70 -232 -225 -831q-30 -118 -56 -198t-61.5 -155t-76.5 -118t-97 -68.5t-127 -26.5 q-93 -1 -161 46.5t-93 118.5t-2.5 161t96.5 168q17 24 51.5 1.5t22.5 -46.5q-56 -79 -62 -158.5t41 -131t132 -50.5q27 0 51.5 8.5t45 27.5t36.5 37t32 52t26 57t24 67.5t20.5 68.5t20.5 73q49 179 99.5 371.5t74.5 282t37 126.5q-59 -65 -135.5 -118.5t-139.5 -86.5 t-121 -65t-95.5 -69.5t-47.5 -83.5q-28 -140 94 -152q20 -2 26 -25.5t-5.5 -45.5t-36.5 -19q-56 5 -98.5 24t-64.5 46t-36 60.5t-12.5 66.5t6.5 63q17 74 69.5 127t128.5 90t157 74t174.5 100.5t162.5 147.5z" />
<glyph unicode="&#xcd;" horiz-adv-x="1032" d="M1083 1769q19 25 61 12q36 -10 40 -32q1 -9 -6 -18l-123 -154q-18 -24 -59 -17q-35 6 -36 28q0 8 5 16q56 83 118 165zM952 1391q13 33 46.5 38.5t59.5 -13t19 -42.5q-70 -232 -225 -831q-30 -118 -56 -198t-61.5 -155t-76.5 -118t-97 -68.5t-127 -26.5q-93 -1 -161 46.5 t-93 118.5t-2.5 161t96.5 168q17 24 51.5 1.5t22.5 -46.5q-56 -79 -62 -158.5t41 -131t132 -50.5q27 0 51.5 8.5t45 27.5t36.5 37t32 52t26 57t24 67.5t20.5 68.5t20.5 73q49 179 99.5 371.5t74.5 282t37 126.5q-59 -65 -135.5 -118.5t-139.5 -86.5t-121 -65t-95.5 -69.5 t-47.5 -83.5q-28 -140 94 -152q20 -2 26 -25.5t-5.5 -45.5t-36.5 -19q-56 5 -98.5 24t-64.5 46t-36 60.5t-12.5 66.5t6.5 63q17 74 69.5 127t128.5 90t157 74t174.5 100.5t162.5 147.5z" />
<glyph unicode="&#xce;" horiz-adv-x="1032" d="M1036 1767q23 13 53.5 13t47.5 -13q11 -9 31.5 -31t36 -41t39.5 -47.5t30 -35.5q18 -20 -13 -36q-35 -18 -66 -4q-9 4 -15 11l-101 119l-159 -131q-29 -25 -69 -11q-31 11 -29 33q2 10 12 19q39 35 102.5 83.5t99.5 71.5zM952 1391q13 33 46.5 38.5t59.5 -13t19 -42.5 q-70 -232 -225 -831q-30 -118 -56 -198t-61.5 -155t-76.5 -118t-97 -68.5t-127 -26.5q-93 -1 -161 46.5t-93 118.5t-2.5 161t96.5 168q17 24 51.5 1.5t22.5 -46.5q-56 -79 -62 -158.5t41 -131t132 -50.5q27 0 51.5 8.5t45 27.5t36.5 37t32 52t26 57t24 67.5t20.5 68.5 t20.5 73q49 179 99.5 371.5t74.5 282t37 126.5q-59 -65 -135.5 -118.5t-139.5 -86.5t-121 -65t-95.5 -69.5t-47.5 -83.5q-28 -140 94 -152q20 -2 26 -25.5t-5.5 -45.5t-36.5 -19q-56 5 -98.5 24t-64.5 46t-36 60.5t-12.5 66.5t6.5 63q17 74 69.5 127t128.5 90t157 74 t174.5 100.5t162.5 147.5z" />
<glyph unicode="&#xcf;" horiz-adv-x="1032" d="M932 1565q-31 0 -52.5 22.5t-21.5 52.5t21 51.5t53 22.5q28 0 50 -23t22 -53q-2 -29 -23 -51t-49 -22zM1186 1565q-29 0 -49.5 22.5t-20.5 52.5q0 29 20.5 51t49.5 23q32 0 54 -22.5t22 -53.5q-2 -30 -23 -51.5t-53 -21.5zM952 1391q13 33 46.5 38.5t59.5 -13t19 -42.5 q-70 -232 -225 -831q-30 -118 -56 -198t-61.5 -155t-76.5 -118t-97 -68.5t-127 -26.5q-93 -1 -161 46.5t-93 118.5t-2.5 161t96.5 168q17 24 51.5 1.5t22.5 -46.5q-56 -79 -62 -158.5t41 -131t132 -50.5q27 0 51.5 8.5t45 27.5t36.5 37t32 52t26 57t24 67.5t20.5 68.5 t20.5 73q49 179 99.5 371.5t74.5 282t37 126.5q-59 -65 -135.5 -118.5t-139.5 -86.5t-121 -65t-95.5 -69.5t-47.5 -83.5q-28 -140 94 -152q20 -2 26 -25.5t-5.5 -45.5t-36.5 -19q-56 5 -98.5 24t-64.5 46t-36 60.5t-12.5 66.5t6.5 63q17 74 69.5 127t128.5 90t157 74 t174.5 100.5t162.5 147.5z" />
<glyph unicode="&#xd0;" horiz-adv-x="1710" d="M371 -20q-124 -1 -183.5 58.5t-52.5 143.5q11 106 87 155.5t176.5 35.5t187.5 -80q31 65 65 199h-137q-20 0 -30 19t-1.5 38t31.5 20h158q58 227 132 403t142 224q29 20 64 -5q29 -20 21 -41q-2 -4 -5 -7q-122 -115 -240 -578q40 1 117 1t111 1q22 1 24 -26 q2 -30 -21 -46q-8 -6 -18 -6h-233q-52 -203 -92 -266q54 -51 153.5 -90.5t188.5 -42.5q79 -2 147.5 33.5t117.5 98.5t84.5 148t53.5 181.5t19 198.5q2 121 -29.5 224t-93 181.5t-160.5 123t-225 44.5q-94 0 -179 -36t-140 -95.5t-84.5 -130.5t-17.5 -149t66 -142 q13 -15 0 -38t-36 -30.5t-43 7.5q-74 76 -97.5 168.5t-0.5 181t85 166.5q78 98 200.5 154.5t268.5 52.5q148 -4 267 -60.5t194 -149.5t113.5 -214t36.5 -258q-2 -117 -23.5 -228.5t-67 -213.5t-109.5 -177t-156.5 -116t-202.5 -33q-121 8 -220 49.5t-163 99.5 q-49 -75 -115 -113t-135 -38zM377 78q14 0 26 1.5t24 7t20.5 9t19.5 13.5t16.5 14.5t17 18.5t15.5 18.5t17 21.5t16 21q-43 34 -80 53.5t-86 26.5q-80 9 -119.5 -43t-8 -107t121.5 -55z" />
<glyph unicode="&#xd1;" horiz-adv-x="1818" d="M1509 1579q-41 1 -98.5 36.5t-87.5 35.5q-22 0 -37.5 -12t-36.5 -40q-9 -8 -24.5 -4t-27.5 18.5t-5 26.5q17 39 52 67t85 28q45 0 101 -35t86 -37q43 -3 75 47q13 19 40 -1t18 -40q-17 -37 -54.5 -64t-85.5 -26zM1507 1430q64 0 109 -21.5t68 -55t32.5 -81.5t7.5 -95 t-11.5 -102t-19.5 -96t-22 -83q-6 -19 -8 -28q-13 -46 -34 -120t-34.5 -122.5t-31 -117.5t-27.5 -115.5t-19.5 -106t-10.5 -100.5t3.5 -86.5t18 -76.5t36.5 -58t56 -43q20 -12 19 -38.5t-25.5 -48.5t-52.5 -11q-56 25 -94.5 63.5t-56.5 94.5t-27 111t0.5 137t19.5 146.5 t37 166.5t46.5 169t53.5 180q3 9 4 13q17 54 28 105.5t16 110t-3 101.5t-37 71.5t-78 27.5q-64 -1 -148 -65t-165 -164t-152 -206.5t-124 -207.5q-12 -39 -54.5 -192.5t-80.5 -276.5t-68 -193q-13 -30 -63 -35q-47 -5 -59 17q-5 9 -1 20q44 123 99.5 305.5t85.5 289 t98.5 354.5t76.5 278q-59 -61 -134 -113t-136.5 -83.5t-117.5 -63t-92.5 -68.5t-45.5 -83q-28 -140 94 -152q20 -2 26 -25.5t-5.5 -45.5t-36.5 -19q-56 5 -98.5 24t-64.5 46t-36 60.5t-12.5 66.5t6.5 63q16 74 68.5 127t128.5 90t157 73.5t174.5 100t161.5 146.5 q8 35 39.5 40.5t57 -13t18.5 -42.5l-123 -454q290 512 563 510z" />
<glyph unicode="&#xd2;" horiz-adv-x="1417" d="M838 1769q62 -82 118 -165q17 -27 -16 -40q-34 -14 -62 3q-7 4 -12 10l-123 154q-18 22 13 41q33 21 64 10q11 -4 18 -13zM887 1427q85 -11 149.5 -49t102 -91t59.5 -122.5t27.5 -140.5t0.5 -149.5t-16.5 -143.5t-27.5 -129q140 22 286 105q16 11 21 -16q6 -35 -14 -58 l-9 -8q-163 -94 -313 -115q-37 -109 -91 -203t-123.5 -169.5t-158.5 -117.5t-186 -40q-220 3 -318 176q-77 134 -58.5 350t124.5 385q7 9 21 9.5t27.5 -6t25 -17.5t14.5 -25t-4 -29q-38 -78 -62.5 -173t-27 -193t19 -180t82 -135.5t154.5 -57.5q73 -3 140.5 30t120.5 93.5 t95 134.5t74 162q-133 6 -248 64.5t-188.5 148.5t-105 205.5t-7.5 230.5q22 102 85 169.5t147.5 92.5t181.5 12zM879 1317q-228 28 -279 -180q-31 -129 19 -251t166 -201.5t268 -88.5q20 70 32.5 154.5t11.5 182t-19.5 178t-69 138.5t-129.5 68z" />
<glyph unicode="&#xd3;" horiz-adv-x="1417" d="M944 1769q19 25 62 12q34 -10 38 -32q1 -9 -6 -18l-123 -154q-18 -24 -59 -17q-35 6 -36 28q0 8 5 16q48 70 119 165zM887 1427q85 -11 149.5 -49t102 -91t59.5 -122.5t27.5 -140.5t0.5 -149.5t-16.5 -143.5t-27.5 -129q140 22 286 105q16 11 21 -16q6 -35 -14 -58l-9 -8 q-163 -94 -313 -115q-37 -109 -91 -203t-123.5 -169.5t-158.5 -117.5t-186 -40q-220 3 -318 176q-77 134 -58.5 350t124.5 385q7 9 21 9.5t27.5 -6t25 -17.5t14.5 -25t-4 -29q-38 -78 -62.5 -173t-27 -193t19 -180t82 -135.5t154.5 -57.5q73 -3 140.5 30t120.5 93.5 t95 134.5t74 162q-133 6 -248 64.5t-188.5 148.5t-105 205.5t-7.5 230.5q22 102 85 169.5t147.5 92.5t181.5 12zM879 1317q-228 28 -279 -180q-31 -129 19 -251t166 -201.5t268 -88.5q20 70 32.5 154.5t11.5 182t-19.5 178t-69 138.5t-129.5 68z" />
<glyph unicode="&#xd4;" horiz-adv-x="1417" d="M897 1767q23 13 53 13t47 -13q22 -18 138 -155q17 -20 -13 -36q-35 -18 -66 -4q-10 4 -16 11l-100 119l-160 -131q-29 -25 -69 -11q-31 11 -29 33q2 10 12 19q39 34 103 83t100 72zM887 1427q85 -11 149.5 -49t102 -91t59.5 -122.5t27.5 -140.5t0.5 -149.5t-16.5 -143.5 t-27.5 -129q140 22 286 105q16 11 21 -16q6 -35 -14 -58l-9 -8q-163 -94 -313 -115q-37 -109 -91 -203t-123.5 -169.5t-158.5 -117.5t-186 -40q-220 3 -318 176q-77 134 -58.5 350t124.5 385q7 9 21 9.5t27.5 -6t25 -17.5t14.5 -25t-4 -29q-38 -78 -62.5 -173t-27 -193 t19 -180t82 -135.5t154.5 -57.5q73 -3 140.5 30t120.5 93.5t95 134.5t74 162q-133 6 -248 64.5t-188.5 148.5t-105 205.5t-7.5 230.5q22 102 85 169.5t147.5 92.5t181.5 12zM879 1317q-228 28 -279 -180q-31 -129 19 -251t166 -201.5t268 -88.5q20 70 32.5 154.5t11.5 182 t-19.5 178t-69 138.5t-129.5 68z" />
<glyph unicode="&#xd5;" horiz-adv-x="1417" d="M1001 1581q-41 1 -98.5 36.5t-87.5 35.5q-22 0 -37.5 -12t-36.5 -39q-9 -8 -24.5 -4t-27.5 18t-5 26q17 39 52 67t85 28q45 0 101 -35t86 -37q43 -3 75 47q13 19 40 -1t18 -40q-17 -37 -54.5 -64t-85.5 -26zM887 1427q85 -11 149.5 -49t102 -91t59.5 -122.5t27.5 -140.5 t0.5 -149.5t-16.5 -143.5t-27.5 -129q140 22 286 105q16 11 21 -16q6 -35 -14 -58l-9 -8q-163 -94 -313 -115q-37 -109 -91 -203t-123.5 -169.5t-158.5 -117.5t-186 -40q-220 3 -318 176q-77 134 -58.5 350t124.5 385q7 9 21 9.5t27.5 -6t25 -17.5t14.5 -25t-4 -29 q-38 -78 -62.5 -173t-27 -193t19 -180t82 -135.5t154.5 -57.5q73 -3 140.5 30t120.5 93.5t95 134.5t74 162q-133 6 -248 64.5t-188.5 148.5t-105 205.5t-7.5 230.5q22 102 85 169.5t147.5 92.5t181.5 12zM879 1317q-228 28 -279 -180q-31 -129 19 -251t166 -201.5t268 -88.5 q20 70 32.5 154.5t11.5 182t-19.5 178t-69 138.5t-129.5 68z" />
<glyph unicode="&#xd6;" horiz-adv-x="1417" d="M793 1565q-31 0 -52.5 22.5t-21.5 52.5t21 51.5t53 22.5q28 0 49.5 -22.5t21.5 -53.5q-2 -29 -22.5 -51t-48.5 -22zM1047 1565q-29 0 -49.5 22.5t-20.5 52.5q0 29 20.5 51t49.5 23q32 0 53.5 -22.5t21.5 -53.5q-2 -30 -23 -51.5t-52 -21.5zM887 1427q85 -11 149.5 -49 t102 -91t59.5 -122.5t27.5 -140.5t0.5 -149.5t-16.5 -143.5t-27.5 -129q140 22 286 105q16 11 21 -16q6 -35 -14 -58l-9 -8q-163 -94 -313 -115q-37 -109 -91 -203t-123.5 -169.5t-158.5 -117.5t-186 -40q-220 3 -318 176q-77 134 -58.5 350t124.5 385q7 9 21 9.5t27.5 -6 t25 -17.5t14.5 -25t-4 -29q-38 -78 -62.5 -173t-27 -193t19 -180t82 -135.5t154.5 -57.5q73 -3 140.5 30t120.5 93.5t95 134.5t74 162q-133 6 -248 64.5t-188.5 148.5t-105 205.5t-7.5 230.5q22 102 85 169.5t147.5 92.5t181.5 12zM879 1317q-228 28 -279 -180 q-31 -129 19 -251t166 -201.5t268 -88.5q20 70 32.5 154.5t11.5 182t-19.5 178t-69 138.5t-129.5 68z" />
<glyph unicode="&#xd7;" horiz-adv-x="1050" d="M281 348q-15 -10 -39 5.5t-33 36t4 34.5l248 168l-156 133q-20 17 3 45t52 25q11 -2 19 -9l164 -137l243 166q23 14 47.5 -0.5t30 -38t-9.5 -39.5l-231 -157l159 -134q23 -19 -1 -47q-23 -27 -53 -23q-11 3 -19 9l-166 141z" />
<glyph unicode="&#xd8;" horiz-adv-x="1308" d="M1092 1456q31 37 73 20q29 -12 30 -35q1 -10 -5 -18q-29 -38 -72 -100q154 -160 101 -561q-15 -109 -50 -219t-91.5 -212.5t-127 -181t-163 -125t-193.5 -44.5q-118 3 -203 57q-50 -72 -82 -113q-17 -20 -42 -13.5t-33 28.5t8 45q37 51 80 116q-81 98 -101 245t14.5 290 t106.5 256q7 9 21 9.5t27.5 -6t25 -17.5t14.5 -25t-4 -29q-46 -94 -70.5 -203.5t-17.5 -221.5t51 -191q90 148 280 517.5t310 561.5q-52 33 -109 39q-77 9 -140 -14t-100.5 -68.5t-57 -104t-15 -123.5t30.5 -124q15 -27 -11 -58q-24 -26 -43 -15q-6 5 -10 13 q-42 67 -55.5 153.5t4.5 168.5q22 102 85 169.5t147.5 92.5t181.5 12q95 -13 151 -47zM1047 1214q-132 -207 -320.5 -576t-273.5 -507q100 -76 226.5 -37.5t223.5 172.5q87 121 144 303t61 353.5t-61 291.5z" />
<glyph unicode="&#xd9;" horiz-adv-x="1777" d="M1237 1769q71 -95 119 -165q17 -27 -16 -40q-34 -14 -62 3l-12 10l-123 154q-19 22 13 42q33 20 64 9q11 -4 17 -13zM913 1399q8 29 39.5 31t56 -19t15.5 -49q-36 -115 -65 -218.5t-45 -163.5t-63 -245t-79 -307q-15 -60 -21.5 -114t-1.5 -106.5t33 -83.5t78 -30 q91 1 190 73t167 167.5t94 179.5q94 309 221 823q9 33 47 30q39 -2 57 -35q13 -23 4 -52q-107 -359 -208 -762q-103 -427 30 -424q56 1 120 67.5t111.5 151t82.5 174.5q6 10 20 7.5t27 -15t8 -24.5q-20 -47 -34 -78.5t-40 -83.5t-48.5 -87.5t-55.5 -77.5t-65 -67.5t-72 -43 t-82 -17.5q-81 0 -119 76t-29 209q-80 -130 -196 -218t-250 -87q-64 0 -109.5 20.5t-68.5 58t-34 84.5t-7 108.5t15 120.5t30 130q82 315 200 737q-58 -60 -132 -110.5t-134.5 -82t-115.5 -62.5t-91 -68t-45 -82q-28 -140 94 -152q20 -2 26 -25.5t-5.5 -45.5t-36.5 -19 q-56 5 -98.5 24t-64.5 46t-36 60.5t-12.5 66.5t6.5 63q12 56 43.5 98.5t75.5 72.5t96.5 56t114.5 55t121.5 62t124 85.5t116.5 117.5z" />
<glyph unicode="&#xda;" horiz-adv-x="1777" d="M1343 1769q19 25 61 12q36 -10 40 -32q1 -9 -6 -18l-123 -154q-18 -24 -59 -17q-35 6 -36 28q0 8 5 16q56 83 118 165zM913 1399q8 29 39.5 31t56 -19t15.5 -49q-36 -115 -65 -218.5t-45 -163.5t-63 -245t-79 -307q-15 -60 -21.5 -114t-1.5 -106.5t33 -83.5t78 -30 q91 1 190 73t167 167.5t94 179.5q94 309 221 823q9 33 47 30q39 -2 57 -35q13 -23 4 -52q-107 -359 -208 -762q-103 -427 30 -424q56 1 120 67.5t111.5 151t82.5 174.5q6 10 20 7.5t27 -15t8 -24.5q-20 -47 -34 -78.5t-40 -83.5t-48.5 -87.5t-55.5 -77.5t-65 -67.5t-72 -43 t-82 -17.5q-81 0 -119 76t-29 209q-80 -130 -196 -218t-250 -87q-64 0 -109.5 20.5t-68.5 58t-34 84.5t-7 108.5t15 120.5t30 130q82 315 200 737q-58 -60 -132 -110.5t-134.5 -82t-115.5 -62.5t-91 -68t-45 -82q-28 -140 94 -152q20 -2 26 -25.5t-5.5 -45.5t-36.5 -19 q-56 5 -98.5 24t-64.5 46t-36 60.5t-12.5 66.5t6.5 63q12 56 43.5 98.5t75.5 72.5t96.5 56t114.5 55t121.5 62t124 85.5t116.5 117.5z" />
<glyph unicode="&#xdb;" horiz-adv-x="1777" d="M1296 1767q23 13 53.5 13t47.5 -13q11 -9 31.5 -31t36 -41t39.5 -47.5t30 -35.5q18 -20 -13 -36q-35 -18 -66 -4q-9 4 -15 11l-101 119l-159 -131q-29 -25 -69 -11q-31 11 -29 33q2 10 12 19q39 35 102.5 83.5t99.5 71.5zM913 1399q8 29 39.5 31t56 -19t15.5 -49 q-36 -115 -65 -218.5t-45 -163.5t-63 -245t-79 -307q-15 -60 -21.5 -114t-1.5 -106.5t33 -83.5t78 -30q91 1 190 73t167 167.5t94 179.5q94 309 221 823q9 33 47 30q39 -2 57 -35q13 -23 4 -52q-107 -359 -208 -762q-103 -427 30 -424q56 1 120 67.5t111.5 151t82.5 174.5 q6 10 20 7.5t27 -15t8 -24.5q-20 -47 -34 -78.5t-40 -83.5t-48.5 -87.5t-55.5 -77.5t-65 -67.5t-72 -43t-82 -17.5q-81 0 -119 76t-29 209q-80 -130 -196 -218t-250 -87q-64 0 -109.5 20.5t-68.5 58t-34 84.5t-7 108.5t15 120.5t30 130q82 315 200 737q-58 -60 -132 -110.5 t-134.5 -82t-115.5 -62.5t-91 -68t-45 -82q-28 -140 94 -152q20 -2 26 -25.5t-5.5 -45.5t-36.5 -19q-56 5 -98.5 24t-64.5 46t-36 60.5t-12.5 66.5t6.5 63q12 56 43.5 98.5t75.5 72.5t96.5 56t114.5 55t121.5 62t124 85.5t116.5 117.5z" />
<glyph unicode="&#xdc;" horiz-adv-x="1777" d="M1192 1565q-31 0 -52.5 22.5t-21.5 52.5t21 51.5t53 22.5q28 0 50 -23t22 -53q-2 -29 -23 -51t-49 -22zM1446 1565q-29 0 -49.5 22.5t-20.5 52.5q0 29 20.5 51t49.5 23q32 0 54 -22.5t22 -53.5q-2 -30 -23 -51.5t-53 -21.5zM913 1399q8 29 39.5 31t56 -19t15.5 -49 q-36 -115 -65 -218.5t-45 -163.5t-63 -245t-79 -307q-15 -60 -21.5 -114t-1.5 -106.5t33 -83.5t78 -30q91 1 190 73t167 167.5t94 179.5q94 309 221 823q9 33 47 30q39 -2 57 -35q13 -23 4 -52q-107 -359 -208 -762q-103 -427 30 -424q56 1 120 67.5t111.5 151t82.5 174.5 q6 10 20 7.5t27 -15t8 -24.5q-20 -47 -34 -78.5t-40 -83.5t-48.5 -87.5t-55.5 -77.5t-65 -67.5t-72 -43t-82 -17.5q-81 0 -119 76t-29 209q-80 -130 -196 -218t-250 -87q-64 0 -109.5 20.5t-68.5 58t-34 84.5t-7 108.5t15 120.5t30 130q82 315 200 737q-58 -60 -132 -110.5 t-134.5 -82t-115.5 -62.5t-91 -68t-45 -82q-28 -140 94 -152q20 -2 26 -25.5t-5.5 -45.5t-36.5 -19q-56 5 -98.5 24t-64.5 46t-36 60.5t-12.5 66.5t6.5 63q12 56 43.5 98.5t75.5 72.5t96.5 56t114.5 55t121.5 62t124 85.5t116.5 117.5z" />
<glyph unicode="&#xdd;" horiz-adv-x="1734" d="M1391 1769q19 25 62 12q34 -10 38 -32q1 -9 -6 -18l-123 -154q-18 -24 -59 -17q-35 6 -36 28q0 8 5 16q48 70 119 165zM1731 483q7 12 22 11.5t28 -14.5t7 -29q-95 -227 -212.5 -359.5t-303.5 -210.5q-38 -151 -53 -190q-60 -163 -127 -228t-166 -67q-87 -1 -128.5 54 t-25.5 134q10 46 40 90.5t66.5 78.5t93 70.5t101 60.5t107.5 55q11 34 44.5 161.5t53.5 192.5q-192 -315 -438 -313q-64 0 -109.5 20.5t-68.5 58t-34 84.5t-7 108.5t15 120.5t30 130q82 315 200 737q-58 -60 -132 -110.5t-134.5 -82t-115.5 -62.5t-91 -68t-45 -82 q-28 -140 94 -152q20 -2 26 -25.5t-5.5 -45.5t-36.5 -19q-56 5 -98.5 24t-64.5 46t-36 60.5t-12.5 66.5t6.5 63q12 56 43.5 98.5t75.5 72.5t96.5 56t114.5 55t121.5 62t124 85.5t116.5 117.5q8 29 39.5 31t56 -19t15.5 -49q-36 -115 -65 -218.5t-45 -163.5t-63 -245 t-79 -307q-15 -59 -21.5 -115t-1.5 -109.5t33 -86t78 -31.5q120 1 247 124t212 310q26 94 119.5 410.5t122.5 433.5q5 19 34.5 21t53.5 -15.5t16 -44.5q-54 -177 -181 -650t-179 -683q129 45 244 176.5t182 314.5zM1153 -172q-206 -124 -250 -215q-15 -30 -16 -56.5t15 -43 t48 -13.5q56 6 93.5 53.5t66.5 131.5q28 83 43 143z" />
<glyph unicode="&#xde;" horiz-adv-x="1286" d="M825 1444q39 14 69.5 -20t-7.5 -62q-69 -52 -125 -184q101 -12 189 -52t153 -104t96 -158t17 -205q-14 -113 -60.5 -201t-114.5 -140t-152 -77t-176 -18.5t-184 41.5q-47 -197 -77 -246q-16 -28 -61 -22q-41 5 -51 31q-5 14 5 30q23 39 126.5 478t135.5 534 q-149 -17 -258 -97t-136 -197t62 -257q21 -30 -16.5 -57t-58.5 -2q-92 86 -105 209q-15 137 58 254t205 185t290 75q86 228 176 262zM723 1071q-38 -122 -96 -371.5t-78 -349.5q158 -52 275.5 -21.5t187.5 124.5t80 229q7 85 -20.5 156t-80 119t-121 77t-147.5 37z" />
<glyph unicode="&#xdf;" horiz-adv-x="995" d="M993 487q6 8 21 6.5t28 -14.5t7 -26q-151 -375 -402 -326q-38 -61 -93 -97t-116 -42q-105 -11 -184 64.5t-90 230.5q-1 15 24.5 27.5t52 10.5t27.5 -22q10 -77 43 -129t73 -68t83 2t74 70q-23 22 -24.5 55.5t18 53.5t47.5 8q19 115 -40.5 239.5t-166.5 198.5 q-26 17 -22.5 52t38.5 48q210 82 256 240q30 103 -8 174.5t-119 69.5q-82 -1 -136 -64.5t-124 -232.5q-57 -135 -133.5 -488t-65.5 -497q0 -24 -31.5 -33.5t-63.5 -0.5t-32 30q18 204 47.5 398t88 411.5t133.5 357.5q56 103 140 164.5t175 64.5q147 4 218 -101.5t32 -264.5 q-27 -112 -108 -184t-179 -105q86 -57 143.5 -154.5t72 -204.5t-14.5 -212q92 -10 168 52.5t143 237.5z" />
<glyph unicode="&#xe0;" horiz-adv-x="933" d="M467 1202q65 -86 119 -166q17 -27 -16 -40q-34 -13 -62 4q-7 4 -12 10l-123 153q-19 22 13 42q33 21 64 10q11 -5 17 -13zM420 860q98 19 200 -5t175 -97q11 -11 -2 -33.5t-36 -35.5t-36 -1q-65 50 -140 69.5t-139 4.5q-83 -18 -161 -87t-136 -171q-62 -108 -75 -229 t34 -171q51 -54 143 11t181.5 218.5t128.5 332.5q3 13 16.5 19t30 3.5t32.5 -8.5t25.5 -17t6.5 -22q-2 -9 -23 -84t-31.5 -115t-25 -103.5t-21.5 -107.5t-7 -74.5t11.5 -46.5t36.5 -16q70 0 166 115.5t158 277.5q4 14 30 4q28 -11 27 -31q-1 -4 -2 -7q-192 -453 -418 -453 q-70 0 -106.5 68t-11.5 180q-30 -48 -51 -79t-53 -70t-61.5 -61t-68.5 -38.5t-82 -17.5q-122 -3 -171.5 95.5t-20.5 246.5q16 85 58.5 172.5t103.5 163.5t143.5 130t171.5 70z" />
<glyph unicode="&#xe1;" horiz-adv-x="933" d="M573 1202q19 25 61 12q35 -10 40 -32q1 -10 -6 -19l-123 -153q-18 -24 -59 -17q-35 5 -36 27q0 8 5 16q62 92 118 166zM420 860q98 19 200 -5t175 -97q11 -11 -2 -33.5t-36 -35.5t-36 -1q-65 50 -140 69.5t-139 4.5q-83 -18 -161 -87t-136 -171q-62 -108 -75 -229 t34 -171q51 -54 143 11t181.5 218.5t128.5 332.5q3 13 16.5 19t30 3.5t32.5 -8.5t25.5 -17t6.5 -22q-2 -9 -23 -84t-31.5 -115t-25 -103.5t-21.5 -107.5t-7 -74.5t11.5 -46.5t36.5 -16q70 0 166 115.5t158 277.5q4 14 30 4q28 -11 27 -31q-1 -4 -2 -7q-192 -453 -418 -453 q-70 0 -106.5 68t-11.5 180q-30 -48 -51 -79t-53 -70t-61.5 -61t-68.5 -38.5t-82 -17.5q-122 -3 -171.5 95.5t-20.5 246.5q16 85 58.5 172.5t103.5 163.5t143.5 130t171.5 70z" />
<glyph unicode="&#xe2;" horiz-adv-x="933" d="M526 1200q23 14 53.5 14t47.5 -14q15 -12 38.5 -38.5t60 -71t38.5 -46.5q18 -20 -13 -36q-35 -17 -66 -3q-9 4 -15 11l-101 119l-159 -131q-29 -25 -69 -11q-32 11 -28 33q1 9 11 18q40 35 103.5 84.5t98.5 71.5zM420 860q98 19 200 -5t175 -97q11 -11 -2 -33.5 t-36 -35.5t-36 -1q-65 50 -140 69.5t-139 4.5q-83 -18 -161 -87t-136 -171q-62 -108 -75 -229t34 -171q51 -54 143 11t181.5 218.5t128.5 332.5q3 13 16.5 19t30 3.5t32.5 -8.5t25.5 -17t6.5 -22q-2 -9 -23 -84t-31.5 -115t-25 -103.5t-21.5 -107.5t-7 -74.5t11.5 -46.5 t36.5 -16q70 0 166 115.5t158 277.5q4 14 30 4q28 -11 27 -31q-1 -4 -2 -7q-192 -453 -418 -453q-70 0 -106.5 68t-11.5 180q-30 -48 -51 -79t-53 -70t-61.5 -61t-68.5 -38.5t-82 -17.5q-122 -3 -171.5 95.5t-20.5 246.5q16 85 58.5 172.5t103.5 163.5t143.5 130t171.5 70z " />
<glyph unicode="&#xe3;" horiz-adv-x="933" d="M631 1014q-41 1 -99 36t-88 35q-22 0 -37 -11.5t-36 -39.5q-9 -8 -24.5 -4t-28 18.5t-5.5 26.5q17 39 52.5 66.5t85.5 27.5q45 0 100.5 -34.5t85.5 -36.5q44 -3 76 47q13 19 39.5 -1t17.5 -40q-17 -38 -54 -64.5t-85 -25.5zM420 860q98 19 200 -5t175 -97 q11 -11 -2 -33.5t-36 -35.5t-36 -1q-65 50 -140 69.5t-139 4.5q-83 -18 -161 -87t-136 -171q-62 -108 -75 -229t34 -171q51 -54 143 11t181.5 218.5t128.5 332.5q3 13 16.5 19t30 3.5t32.5 -8.5t25.5 -17t6.5 -22q-2 -9 -23 -84t-31.5 -115t-25 -103.5t-21.5 -107.5 t-7 -74.5t11.5 -46.5t36.5 -16q70 0 166 115.5t158 277.5q4 14 30 4q28 -11 27 -31q-1 -4 -2 -7q-192 -453 -418 -453q-70 0 -106.5 68t-11.5 180q-30 -48 -51 -79t-53 -70t-61.5 -61t-68.5 -38.5t-82 -17.5q-122 -3 -171.5 95.5t-20.5 246.5q16 85 58.5 172.5t103.5 163.5 t143.5 130t171.5 70z" />
<glyph unicode="&#xe4;" horiz-adv-x="933" d="M422 997q-31 0 -52.5 23t-21.5 53t21 51.5t53 22.5q28 0 50 -23t22 -53q-2 -29 -23 -51.5t-49 -22.5zM676 997q-29 0 -49.5 23t-20.5 53q0 29 20.5 51t49.5 23q32 0 54 -22.5t22 -53.5q-2 -30 -23.5 -52t-52.5 -22zM420 860q98 19 200 -5t175 -97q11 -11 -2 -33.5 t-36 -35.5t-36 -1q-65 50 -140 69.5t-139 4.5q-83 -18 -161 -87t-136 -171q-62 -108 -75 -229t34 -171q51 -54 143 11t181.5 218.5t128.5 332.5q3 13 16.5 19t30 3.5t32.5 -8.5t25.5 -17t6.5 -22q-2 -9 -23 -84t-31.5 -115t-25 -103.5t-21.5 -107.5t-7 -74.5t11.5 -46.5 t36.5 -16q70 0 166 115.5t158 277.5q4 14 30 4q28 -11 27 -31q-1 -4 -2 -7q-192 -453 -418 -453q-70 0 -106.5 68t-11.5 180q-30 -48 -51 -79t-53 -70t-61.5 -61t-68.5 -38.5t-82 -17.5q-122 -3 -171.5 95.5t-20.5 246.5q16 85 58.5 172.5t103.5 163.5t143.5 130t171.5 70z " />
<glyph unicode="&#xe5;" horiz-adv-x="933" d="M561 1245q67 -2 106 -41.5t33 -103.5q-6 -70 -56.5 -111t-117.5 -39q-63 2 -101 43.5t-32 104.5q6 65 54.5 107t113.5 40zM555 1176q-33 0 -56 -22t-28 -56q-4 -32 14.5 -54t49.5 -22q37 0 60 20.5t28 55.5q4 35 -15 56.5t-53 21.5zM420 860q98 19 200 -5t175 -97 q11 -11 -2 -33.5t-36 -35.5t-36 -1q-65 50 -140 69.5t-139 4.5q-83 -18 -161 -87t-136 -171q-62 -108 -75 -229t34 -171q51 -54 143 11t181.5 218.5t128.5 332.5q3 13 16.5 19t30 3.5t32.5 -8.5t25.5 -17t6.5 -22q-2 -9 -23 -84t-31.5 -115t-25 -103.5t-21.5 -107.5 t-7 -74.5t11.5 -46.5t36.5 -16q70 0 166 115.5t158 277.5q4 14 30 4q28 -11 27 -31q-1 -4 -2 -7q-192 -453 -418 -453q-70 0 -106.5 68t-11.5 180q-30 -48 -51 -79t-53 -70t-61.5 -61t-68.5 -38.5t-82 -17.5q-122 -3 -171.5 95.5t-20.5 246.5q16 85 58.5 172.5t103.5 163.5 t143.5 130t171.5 70z" />
<glyph unicode="&#xe6;" horiz-adv-x="1390" d="M422 874q232 -3 291 -219q72 105 174.5 161t204.5 50q70 -4 118 -36.5t66.5 -79.5t15 -102t-29.5 -107q-62 -123 -202.5 -165t-324.5 13q-14 -80 -5 -147t55.5 -112t123.5 -48q73 -2 130.5 14t117 59.5t116.5 126t116 207.5q6 6 21 4.5t27 -15t5 -29.5 q-43 -94 -87.5 -168.5t-83 -123t-82 -83t-76.5 -52.5t-74.5 -28t-68.5 -12t-65 -2q-106 0 -178 50t-104 136q-114 -184 -310 -184q-117 0 -175.5 67t-55.5 168q3 108 54 188.5t128 117t172.5 32.5t184.5 -55q39 272 -189 282q-238 11 -416 -413q-5 -6 -19 -3.5t-27 12.5 t-9 19q53 139 114.5 237.5t122.5 148.5t115 71t109 20zM1067 770q-88 6 -183.5 -90t-129.5 -221q278 -62 374 100q22 37 31.5 72t6.5 65.5t-28 50.5t-71 23zM393 477q-93 -14 -153 -109q-56 -86 -47 -172q9 -88 86 -109q17 -4 38 -5q42 -1 78 7.5t62.5 27.5t47.5 40 t36.5 52.5t26 55.5t19 60t12.5 56t9 51q-51 30 -109.5 41t-105.5 4z" />
<glyph unicode="&#xe7;" horiz-adv-x="755" d="M754 487q6 16 31 4q27 -12 26 -32l-2 -6q-174 -440 -502 -469l-53 -95q54 -4 89.5 -25.5t48 -52t8 -66t-26.5 -69.5q-28 -44 -74.5 -69.5t-115.5 -21t-142 49.5q-11 10 -10.5 28.5t14.5 31.5t31 2q42 -25 79 -32.5t62.5 1.5t43.5 24t28 36q19 42 -3.5 75t-84.5 25 q-22 -3 -34.5 9t-0.5 36l61 113q-94 8 -157.5 64t-87 136t-15.5 172q7 90 47.5 181.5t102 165t147.5 119t176 44.5q87 -1 141 -38t66 -88t-11.5 -108.5t-80.5 -99.5q-26 -20 -74 -3q-32 11 -31 26l3 6q42 46 60 91t1.5 78.5t-72.5 39.5q-77 8 -155 -54t-129.5 -164.5 t-61.5 -211.5q-10 -111 31 -181.5t143 -76.5q87 -4 173.5 34.5t171 134t139.5 236.5z" />
<glyph unicode="&#xe8;" horiz-adv-x="823" d="M393 1202q65 -86 119 -166q17 -27 -16 -40q-34 -13 -62 4q-7 4 -12 10l-123 153q-19 22 13 42q33 21 64 10q11 -5 17 -13zM459 866q70 -4 118 -36.5t66.5 -79.5t15 -102t-29.5 -107q-63 -124 -203 -168t-324 10q-25 -117 22 -199.5t152 -101.5q64 -11 135.5 4.5 t146.5 59.5t145 132t118 209q6 8 20.5 6.5t27.5 -14.5t8 -26q-28 -73 -61 -135.5t-68 -108t-73 -83t-75 -60.5t-75 -42t-73 -26.5t-68 -14t-60.5 -5t-51.5 1.5q-79 6 -140 36.5t-98 79t-55 110.5t-14 133t29 144q41 122 117 212.5t166.5 133.5t181.5 37zM434 770 q-89 0 -184 -94t-129 -217q291 -65 383 100q28 50 34.5 96.5t-19 80.5t-85.5 34z" />
<glyph unicode="&#xe9;" horiz-adv-x="823" d="M500 1202q19 25 62 12q35 -11 38 -33q1 -9 -6 -18l-123 -153q-18 -24 -59 -17q-35 5 -36 27q0 8 5 16q54 80 119 166zM459 866q70 -4 118 -36.5t66.5 -79.5t15 -102t-29.5 -107q-63 -124 -203 -168t-324 10q-25 -117 22 -199.5t152 -101.5q64 -11 135.5 4.5t146.5 59.5 t145 132t118 209q6 8 20.5 6.5t27.5 -14.5t8 -26q-28 -73 -61 -135.5t-68 -108t-73 -83t-75 -60.5t-75 -42t-73 -26.5t-68 -14t-60.5 -5t-51.5 1.5q-79 6 -140 36.5t-98 79t-55 110.5t-14 133t29 144q41 122 117 212.5t166.5 133.5t181.5 37zM434 770q-89 0 -184 -94 t-129 -217q291 -65 383 100q28 50 34.5 96.5t-19 80.5t-85.5 34z" />
<glyph unicode="&#xea;" horiz-adv-x="823" d="M453 1200q23 14 53 14t47 -14q15 -12 38.5 -38.5t60 -71t38.5 -46.5q18 -20 -13 -36q-35 -17 -66 -3q-9 4 -15 11l-100 119l-160 -131q-29 -25 -69 -11q-32 11 -28 33q1 9 11 18q40 35 103.5 84t99.5 72zM459 866q70 -4 118 -36.5t66.5 -79.5t15 -102t-29.5 -107 q-63 -124 -203 -168t-324 10q-25 -117 22 -199.5t152 -101.5q64 -11 135.5 4.5t146.5 59.5t145 132t118 209q6 8 20.5 6.5t27.5 -14.5t8 -26q-28 -73 -61 -135.5t-68 -108t-73 -83t-75 -60.5t-75 -42t-73 -26.5t-68 -14t-60.5 -5t-51.5 1.5q-79 6 -140 36.5t-98 79 t-55 110.5t-14 133t29 144q41 122 117 212.5t166.5 133.5t181.5 37zM434 770q-89 0 -184 -94t-129 -217q291 -65 383 100q28 50 34.5 96.5t-19 80.5t-85.5 34z" />
<glyph unicode="&#xeb;" horiz-adv-x="823" d="M348 997q-31 0 -52.5 23t-21.5 53t21 51.5t53 22.5q28 0 50 -23t22 -53q-2 -29 -23 -51.5t-49 -22.5zM602 997q-29 0 -49.5 23t-20.5 53q0 29 20.5 51t49.5 23q32 0 54 -22.5t22 -53.5q-2 -30 -23.5 -52t-52.5 -22zM459 866q70 -4 118 -36.5t66.5 -79.5t15 -102 t-29.5 -107q-63 -124 -203 -168t-324 10q-25 -117 22 -199.5t152 -101.5q64 -11 135.5 4.5t146.5 59.5t145 132t118 209q6 8 20.5 6.5t27.5 -14.5t8 -26q-28 -73 -61 -135.5t-68 -108t-73 -83t-75 -60.5t-75 -42t-73 -26.5t-68 -14t-60.5 -5t-51.5 1.5q-79 6 -140 36.5 t-98 79t-55 110.5t-14 133t29 144q41 122 117 212.5t166.5 133.5t181.5 37zM434 770q-89 0 -184 -94t-129 -217q291 -65 383 100q28 50 34.5 96.5t-19 80.5t-85.5 34z" />
<glyph unicode="&#xec;" horiz-adv-x="401" d="M119 1202q65 -86 119 -166q16 -26 -16 -39q-34 -14 -63 3q-7 4 -12 10l-122 153q-19 22 13 42q33 21 64 10q11 -4 17 -13zM94 825q6 24 36 26.5t55.5 -11t21.5 -29.5q-116 -414 -158 -584q-6 -25 -9 -40.5t-6 -35.5t-2 -32t5.5 -23t14 -15.5t24.5 -4.5q48 2 110.5 67 t116 155.5t92.5 186.5q7 11 23 10t29 -15t6 -29q-25 -53 -42.5 -88t-47 -89.5t-54 -90.5t-58 -78t-64.5 -67t-68 -41.5t-74 -16.5q-88 1 -115.5 61t0.5 172q38 161 164 612z" />
<glyph unicode="&#xed;" horiz-adv-x="401" d="M225 1202q19 25 62 12q35 -11 38 -33q1 -9 -6 -18l-122 -153q-18 -24 -59 -18q-36 6 -37 28q0 7 5 16q54 80 119 166zM94 825q6 24 36 26.5t55.5 -11t21.5 -29.5q-116 -414 -158 -584q-6 -25 -9 -40.5t-6 -35.5t-2 -32t5.5 -23t14 -15.5t24.5 -4.5q48 2 110.5 67 t116 155.5t92.5 186.5q7 11 23 10t29 -15t6 -29q-25 -53 -42.5 -88t-47 -89.5t-54 -90.5t-58 -78t-64.5 -67t-68 -41.5t-74 -16.5q-88 1 -115.5 61t0.5 172q38 161 164 612z" />
<glyph unicode="&#xee;" horiz-adv-x="401" d="M178 1200q23 14 53.5 14t47.5 -14q15 -12 38.5 -38.5t60 -71t38.5 -46.5q18 -20 -13 -36q-35 -17 -66 -3q-9 4 -15 11l-101 119l-160 -131q-29 -25 -69 -11q-32 11 -28 33q1 9 11 18q40 35 103.5 84t99.5 72zM94 825q6 24 36 26.5t55.5 -11t21.5 -29.5 q-116 -414 -158 -584q-6 -25 -9 -40.5t-6 -35.5t-2 -32t5.5 -23t14 -15.5t24.5 -4.5q48 2 110.5 67t116 155.5t92.5 186.5q7 11 23 10t29 -15t6 -29q-25 -53 -42.5 -88t-47 -89.5t-54 -90.5t-58 -78t-64.5 -67t-68 -41.5t-74 -16.5q-88 1 -115.5 61t0.5 172q38 161 164 612z " />
<glyph unicode="&#xef;" horiz-adv-x="401" d="M74 997q-31 0 -52.5 23t-21.5 53t21 51.5t53 22.5q28 0 49.5 -22.5t21.5 -53.5q-2 -30 -23 -52t-48 -22zM328 997q-29 0 -49.5 23t-20.5 53q0 29 20.5 51t49.5 23q32 0 53.5 -22.5t21.5 -53.5q-2 -30 -23 -52t-52 -22zM94 825q6 24 36 26.5t55.5 -11t21.5 -29.5 q-116 -414 -158 -584q-6 -25 -9 -40.5t-6 -35.5t-2 -32t5.5 -23t14 -15.5t24.5 -4.5q48 2 110.5 67t116 155.5t92.5 186.5q7 11 23 10t29 -15t6 -29q-25 -53 -42.5 -88t-47 -89.5t-54 -90.5t-58 -78t-64.5 -67t-68 -41.5t-74 -16.5q-88 1 -115.5 61t0.5 172q38 161 164 612z " />
<glyph unicode="&#xf0;" horiz-adv-x="862" d="M154 -20q-72 0 -120.5 41t-67 106t-16.5 143.5t25 155.5q44 144 142.5 243.5t227 138t265.5 13.5q44 162 47 262q-29 -10 -86.5 -29.5t-85.5 -29.5q-19 -7 -33 10t-11.5 40t24.5 30l186 61q-30 103 -91 134.5t-167 23.5q-25 -2 -35.5 22t-3 49t26.5 27q50 6 92 6 q243 0 291 -223q17 5 49 16.5t49 16.5q19 7 33.5 -10t11.5 -39t-24 -29l-109 -37q0 -169 -55 -354q-106 -368 -215 -539q73 -29 141.5 -1.5t124.5 96t92 163.5q6 16 30 5q27 -11 25 -33l-2 -6q-44 -120 -114 -200.5t-158.5 -108.5t-187.5 12q-127 -176 -301 -176zM174 84 q90 0 184 123q-19 26 -15 52t28.5 42.5t52.5 7.5q74 125 162 422q-157 45 -302 -58.5t-192 -283.5q-22 -76 -23 -144t25.5 -114.5t79.5 -46.5z" />
<glyph unicode="&#xf1;" horiz-adv-x="907" d="M553 1016q-41 1 -98.5 36t-87.5 35q-22 0 -37.5 -12t-36.5 -39q-9 -8 -24.5 -4t-27.5 18.5t-5 26.5q17 39 52 66.5t85 27.5q45 0 100.5 -34.5t85.5 -36.5q44 -3 76 47q13 19 39.5 -1t17.5 -40q-17 -38 -54 -64.5t-85 -25.5zM512 868q74 -1 115 -41.5t45 -107.5t-15 -154 q-13 -52 -45 -156.5t-45 -156.5q-1 -6 -4 -18q-5 -24 -7.5 -37t-6 -35t-2.5 -34.5t4 -26t12 -19.5t23 -6q68 0 160.5 121t158.5 290q6 8 21 7t28 -14t7 -27q-27 -66 -56.5 -126t-70 -125.5t-81.5 -113t-90.5 -78t-97.5 -30.5q-149 0 -137 165q2 26 14.5 86t25.5 113 t33 134.5t27 109.5q8 34 11.5 56.5t2.5 52.5t-16 46t-45 17q-73 1 -181 -96.5t-183 -223.5q-66 -226 -107 -415q-4 -18 -39 -24.5t-65 6t-23 40.5q147 560 199 778q6 25 38 30t59.5 -10.5t21.5 -39.5q-36 -143 -58 -217q32 48 70.5 93.5t87 89.5t104.5 71t107 26z" />
<glyph unicode="&#xf2;" horiz-adv-x="925" d="M393 1202q65 -86 119 -166q17 -27 -16 -40q-34 -13 -62 4q-7 4 -12 10l-123 153q-19 22 13 42q33 21 64 10q11 -5 17 -13zM446 868q99 4 162 -38.5t84.5 -114t16 -161t-36.5 -182t-80 -173.5q45 -3 82.5 5t82 35.5t87.5 90t80 157.5q6 7 20.5 6t27.5 -13.5t7 -26.5 q-36 -89 -78.5 -154.5t-86 -101.5t-90.5 -56t-92.5 -18t-92.5 14q-132 -155 -318 -155q-61 0 -111 20t-90.5 65t-53.5 118.5t1 181.5q20 132 89 245t172.5 182t217.5 74zM438 768q-80 -5 -157 -73.5t-125 -161t-60 -177.5q-9 -51 -4 -100t19 -87.5t48 -62.5t83 -24 q114 0 204 108q-20 30 -14.5 56.5t29 40t45.5 0.5q40 82 61.5 166.5t20.5 157.5t-39 117t-111 40z" />
<glyph unicode="&#xf3;" horiz-adv-x="925" d="M500 1202q19 25 62 12q35 -11 38 -33q1 -9 -6 -18l-123 -153q-18 -24 -59 -17q-35 5 -36 27q0 8 5 16q54 80 119 166zM446 868q99 4 162 -38.5t84.5 -114t16 -161t-36.5 -182t-80 -173.5q45 -3 82.5 5t82 35.5t87.5 90t80 157.5q6 7 20.5 6t27.5 -13.5t7 -26.5 q-36 -89 -78.5 -154.5t-86 -101.5t-90.5 -56t-92.5 -18t-92.5 14q-132 -155 -318 -155q-61 0 -111 20t-90.5 65t-53.5 118.5t1 181.5q20 132 89 245t172.5 182t217.5 74zM438 768q-80 -5 -157 -73.5t-125 -161t-60 -177.5q-9 -51 -4 -100t19 -87.5t48 -62.5t83 -24 q114 0 204 108q-20 30 -14.5 56.5t29 40t45.5 0.5q40 82 61.5 166.5t20.5 157.5t-39 117t-111 40z" />
<glyph unicode="&#xf4;" horiz-adv-x="925" d="M453 1200q23 14 53 14t47 -14q15 -12 38.5 -38.5t60 -71t38.5 -46.5q18 -20 -13 -36q-35 -17 -66 -3q-9 4 -15 11l-100 119l-160 -131q-29 -25 -69 -11q-32 11 -28 33q1 9 11 18q40 35 103.5 84t99.5 72zM446 868q99 4 162 -38.5t84.5 -114t16 -161t-36.5 -182 t-80 -173.5q45 -3 82.5 5t82 35.5t87.5 90t80 157.5q6 7 20.5 6t27.5 -13.5t7 -26.5q-36 -89 -78.5 -154.5t-86 -101.5t-90.5 -56t-92.5 -18t-92.5 14q-132 -155 -318 -155q-61 0 -111 20t-90.5 65t-53.5 118.5t1 181.5q20 132 89 245t172.5 182t217.5 74zM438 768 q-80 -5 -157 -73.5t-125 -161t-60 -177.5q-9 -51 -4 -100t19 -87.5t48 -62.5t83 -24q114 0 204 108q-20 30 -14.5 56.5t29 40t45.5 0.5q40 82 61.5 166.5t20.5 157.5t-39 117t-111 40z" />
<glyph unicode="&#xf5;" horiz-adv-x="925" d="M557 1014q-41 1 -98.5 36t-87.5 35q-22 0 -37.5 -12t-36.5 -39q-9 -8 -24.5 -4t-27.5 18.5t-5 26.5q17 39 52 66.5t85 27.5q45 0 100.5 -34.5t85.5 -36.5q44 -3 76 47q13 19 39.5 -1t17.5 -40q-17 -38 -54 -64.5t-85 -25.5zM446 868q99 4 162 -38.5t84.5 -114t16 -161 t-36.5 -182t-80 -173.5q45 -3 82.5 5t82 35.5t87.5 90t80 157.5q6 7 20.5 6t27.5 -13.5t7 -26.5q-36 -89 -78.5 -154.5t-86 -101.5t-90.5 -56t-92.5 -18t-92.5 14q-132 -155 -318 -155q-61 0 -111 20t-90.5 65t-53.5 118.5t1 181.5q20 132 89 245t172.5 182t217.5 74z M438 768q-80 -5 -157 -73.5t-125 -161t-60 -177.5q-9 -51 -4 -100t19 -87.5t48 -62.5t83 -24q114 0 204 108q-20 30 -14.5 56.5t29 40t45.5 0.5q40 82 61.5 166.5t20.5 157.5t-39 117t-111 40z" />
<glyph unicode="&#xf6;" horiz-adv-x="925" d="M348 997q-31 0 -52.5 23t-21.5 53t21 51.5t53 22.5q28 0 50 -23t22 -53q-2 -29 -23 -51.5t-49 -22.5zM602 997q-29 0 -49.5 23t-20.5 53q0 29 20.5 51t49.5 23q32 0 54 -22.5t22 -53.5q-2 -30 -23.5 -52t-52.5 -22zM446 868q99 4 162 -38.5t84.5 -114t16 -161t-36.5 -182 t-80 -173.5q45 -3 82.5 5t82 35.5t87.5 90t80 157.5q6 7 20.5 6t27.5 -13.5t7 -26.5q-36 -89 -78.5 -154.5t-86 -101.5t-90.5 -56t-92.5 -18t-92.5 14q-132 -155 -318 -155q-61 0 -111 20t-90.5 65t-53.5 118.5t1 181.5q20 132 89 245t172.5 182t217.5 74zM438 768 q-80 -5 -157 -73.5t-125 -161t-60 -177.5q-9 -51 -4 -100t19 -87.5t48 -62.5t83 -24q114 0 204 108q-20 30 -14.5 56.5t29 40t45.5 0.5q40 82 61.5 166.5t20.5 157.5t-39 117t-111 40z" />
<glyph unicode="&#xf7;" horiz-adv-x="989" d="M580 793q-33 0 -55.5 24t-22.5 57q0 32 22 54t56 24q32 0 55.5 -23t23.5 -57q-2 -33 -24.5 -56t-54.5 -23zM231 545q-25 0 -27 32q-2 36 22 54q10 8 22 8h528q27 0 29 -32q2 -34 -21 -53q-11 -9 -24 -9h-529zM420 219q-33 0 -56.5 23.5t-23.5 56.5q0 32 23 55.5t57 24.5 q31 0 54.5 -24.5t23.5 -57.5q-2 -32 -24.5 -55t-53.5 -23z" />
<glyph unicode="&#xf8;" horiz-adv-x="935" d="M80 -94q-12 -11 -30 -8t-30 19.5t0 31.5q45 74 46 76q-138 94 -99 342q17 110 70.5 211t128 172t169.5 102t187 6q7 11 21 32.5t20 31.5q16 24 36.5 21.5t35 -22t4.5 -34.5q-26 -44 -39 -62q123 -86 116.5 -270.5t-126.5 -351.5q47 -13 93.5 -4.5t88 36.5t83 91.5 t79.5 160.5q6 7 20.5 6t27.5 -13.5t7 -26.5q-38 -96 -82.5 -163.5t-88.5 -104t-93 -51.5t-93 -12t-93 19q-81 -96 -184 -135.5t-218 -13.5q-3 -6 -57 -86zM129 135q13 24 142 269.5t196 361.5q-59 5 -114 -18t-97 -64.5t-76 -96.5t-55 -114t-29 -117q-21 -148 33 -221z M195 88q59 -17 125.5 11.5t117.5 88.5q-20 30 -13.5 56.5t31 40t46.5 0.5q78 121 89.5 249t-50.5 191q-63 -111 -180 -330.5t-166 -306.5z" />
<glyph unicode="&#xf9;" horiz-adv-x="921" d="M352 1202q65 -86 119 -166q17 -27 -16 -40q-34 -13 -62 4q-7 4 -12 10l-123 153q-19 22 13 42q33 21 64 10q11 -5 17 -13zM586 825q6 20 38 23.5t59 -11t19 -36.5q-27 -78 -56.5 -182t-57.5 -229t-25 -210t47 -86q70 -3 159 114.5t151 278.5q6 16 31 4q27 -12 26 -32 l-2 -6q-69 -154 -106 -218q-138 -235 -294 -235q-43 0 -73 24.5t-40.5 61.5t-12.5 80.5t10 81.5q-86 -148 -182 -209.5t-191 -54.5q-74 5 -117.5 63.5t-29.5 161.5q20 134 83.5 366t65.5 242q6 25 37 30t58 -7.5t22 -32.5q-10 -40 -36.5 -141.5t-52 -203t-44.5 -186.5 q-8 -41 -10.5 -71.5t2 -60t23 -45.5t50.5 -17q75 -2 171 79t151 230q34 92 127 434z" />
<glyph unicode="&#xfa;" horiz-adv-x="921" d="M459 1202q19 25 62 12q35 -11 38 -33q1 -9 -6 -18l-123 -153q-18 -24 -59 -17q-35 5 -36 27q0 8 5 16q54 80 119 166zM586 825q6 20 38 23.5t59 -11t19 -36.5q-27 -78 -56.5 -182t-57.5 -229t-25 -210t47 -86q70 -3 159 114.5t151 278.5q6 16 31 4q27 -12 26 -32l-2 -6 q-69 -154 -106 -218q-138 -235 -294 -235q-43 0 -73 24.5t-40.5 61.5t-12.5 80.5t10 81.5q-86 -148 -182 -209.5t-191 -54.5q-74 5 -117.5 63.5t-29.5 161.5q20 134 83.5 366t65.5 242q6 25 37 30t58 -7.5t22 -32.5q-10 -40 -36.5 -141.5t-52 -203t-44.5 -186.5 q-8 -41 -10.5 -71.5t2 -60t23 -45.5t50.5 -17q75 -2 171 79t151 230q34 92 127 434z" />
<glyph unicode="&#xfb;" horiz-adv-x="921" d="M412 1200q23 14 53 14t47 -14q15 -12 38.5 -38.5t60 -71t38.5 -46.5q18 -20 -13 -36q-35 -17 -66 -3q-9 4 -15 11l-100 119l-160 -131q-29 -25 -69 -11q-32 11 -28 33q1 9 11 18q40 35 103.5 84t99.5 72zM586 825q6 20 38 23.5t59 -11t19 -36.5q-27 -78 -56.5 -182 t-57.5 -229t-25 -210t47 -86q70 -3 159 114.5t151 278.5q6 16 31 4q27 -12 26 -32l-2 -6q-69 -154 -106 -218q-138 -235 -294 -235q-43 0 -73 24.5t-40.5 61.5t-12.5 80.5t10 81.5q-86 -148 -182 -209.5t-191 -54.5q-74 5 -117.5 63.5t-29.5 161.5q20 134 83.5 366t65.5 242 q6 25 37 30t58 -7.5t22 -32.5q-10 -40 -36.5 -141.5t-52 -203t-44.5 -186.5q-8 -41 -10.5 -71.5t2 -60t23 -45.5t50.5 -17q75 -2 171 79t151 230q34 92 127 434z" />
<glyph unicode="&#xfc;" horiz-adv-x="921" d="M307 997q-31 0 -52.5 23t-21.5 53t21 51.5t53 22.5q28 0 50 -23t22 -53q-2 -29 -23 -51.5t-49 -22.5zM561 997q-29 0 -49 23t-20 53q0 29 20 51t49 23q32 0 54 -22.5t22 -53.5q-2 -30 -23.5 -52t-52.5 -22zM586 825q6 20 38 23.5t59 -11t19 -36.5q-27 -78 -56.5 -182 t-57.5 -229t-25 -210t47 -86q70 -3 159 114.5t151 278.5q6 16 31 4q27 -12 26 -32l-2 -6q-69 -154 -106 -218q-138 -235 -294 -235q-43 0 -73 24.5t-40.5 61.5t-12.5 80.5t10 81.5q-86 -148 -182 -209.5t-191 -54.5q-74 5 -117.5 63.5t-29.5 161.5q20 134 83.5 366t65.5 242 q6 25 37 30t58 -7.5t22 -32.5q-10 -40 -36.5 -141.5t-52 -203t-44.5 -186.5q-8 -41 -10.5 -71.5t2 -60t23 -45.5t50.5 -17q75 -2 171 79t151 230q34 92 127 434z" />
<glyph unicode="&#xfd;" horiz-adv-x="899" d="M440 1202q19 25 61 12q35 -10 40 -32q1 -10 -6 -19l-123 -153q-18 -24 -59 -17q-35 5 -36 27q0 8 5 16q62 92 118 166zM100 -604q-82 -5 -127 40t-36 132q5 48 33 94.5t64.5 81.5t95.5 74t103.5 63t110.5 58q11 34 90 313q-88 -150 -196 -218t-199 -48q-69 15 -102 71.5 t-13 157.5q19 96 80.5 300t71.5 302q2 21 32 28.5t58 -3t24 -35.5q-12 -74 -66.5 -287.5t-66.5 -265.5t-14 -85.5t11.5 -57t45.5 -29.5q72 -14 167 75t169 244q76 160 135 424q6 22 37.5 24.5t58.5 -12t21 -34.5q-202 -761 -215 -807q128 58 244 182t180 309q5 8 19 6.5 t27.5 -13.5t8.5 -25q-44 -115 -98 -204.5t-119 -156.5t-134.5 -116t-158.5 -95q-25 -103 -52 -182.5t-55.5 -131t-56 -86.5t-59 -53t-58.5 -25t-61 -9zM133 -498q87 24 150 197q7 19 13 40.5t12.5 48t10.5 40.5q-193 -113 -243 -205q-32 -64 -12 -99t69 -22z" />
<glyph unicode="&#xfe;" horiz-adv-x="933" d="M932 487q6 7 20.5 5.5t27.5 -14t7 -25.5q-37 -92 -80 -158.5t-87 -104t-92.5 -54.5t-95 -14t-95.5 21q-72 -80 -153.5 -121.5t-152 -41.5t-129.5 28.5t-92 81.5q-23 -108 -75.5 -335.5t-71.5 -325.5q-3 -16 -30.5 -19.5t-52.5 5.5t-22 24q40 185 74 340t67 295t55.5 236 t53.5 214t46 175.5t49 174.5t45.5 156t52 175t53.5 181q8 27 38.5 28t55 -16.5t19.5 -35.5q-30 -101 -96.5 -313t-98.5 -318q53 56 140 95.5t161 39.5q99 0 155.5 -53.5t67 -133.5t-2.5 -172.5t-42 -172.5t-63 -131q107 -25 189.5 38t154.5 246zM500 281q36 71 58 154 t24 160t-34.5 127t-111.5 48q-77 -3 -161.5 -55.5t-131.5 -114.5q-85 -307 -110 -426q40 -64 115.5 -86t156.5 5.5t135 96.5q-21 16 -24 37.5t9.5 36.5t32 22.5t42.5 -5.5z" />
<glyph unicode="&#xff;" horiz-adv-x="899" d="M289 997q-31 0 -52.5 23t-21.5 53t21 51.5t53 22.5q28 0 49.5 -22.5t21.5 -53.5q-2 -30 -23 -52t-48 -22zM543 997q-29 0 -49.5 23t-20.5 53q0 29 20.5 51t49.5 23q32 0 53.5 -22.5t21.5 -53.5q-2 -30 -23 -52t-52 -22zM100 -604q-82 -5 -127 40t-36 132q5 48 33 94.5 t64.5 81.5t95.5 74t103.5 63t110.5 58q11 34 90 313q-88 -150 -196 -218t-199 -48q-69 15 -102 71.5t-13 157.5q19 96 80.5 300t71.5 302q2 21 32 28.5t58 -3t24 -35.5q-12 -74 -66.5 -287.5t-66.5 -265.5t-14 -85.5t11.5 -57t45.5 -29.5q72 -14 167 75t169 244 q76 160 135 424q6 22 37.5 24.5t58.5 -12t21 -34.5q-202 -761 -215 -807q128 58 244 182t180 309q5 8 19 6.5t27.5 -13.5t8.5 -25q-44 -115 -98 -204.5t-119 -156.5t-134.5 -116t-158.5 -95q-25 -103 -52 -182.5t-55.5 -131t-56 -86.5t-59 -53t-58.5 -25t-61 -9zM133 -498 q87 24 150 197q7 19 13 40.5t12.5 48t10.5 40.5q-193 -113 -243 -205q-32 -64 -12 -99t69 -22z" />
<glyph unicode="&#x100;" horiz-adv-x="1519" d="M1126 1597q-20 0 -28 20.5t2 41t33 20.5q154 -2 360 -2q20 0 28 -20.5t-2 -41t-32 -20.5q-64 0 -172.5 1t-188.5 1zM305 -20q-122 0 -172.5 83.5t-17.5 206.5q31 112 119 191t205 111t241 14q107 266 199 453.5t178 273.5q50 50 100.5 74.5t89 21t68 -27.5t37 -72 t-3.5 -111q-95 -458 -144 -655q246 25 369 176q17 22 35 8q20 -16 8 -45q-3 -7 -8 -14q-67 -98 -183 -153.5t-243 -65.5q-10 -46 -32 -133.5t-37 -157t-21 -131.5q-2 -18 -34 -25t-61.5 1.5t-25.5 27.5q7 47 19 104t19.5 88.5t28.5 114.5t27 106q-26 1 -72.5 7t-118 16 t-120.5 16q-37 -94 -68.5 -161.5t-73.5 -136t-85.5 -110.5t-100.5 -68.5t-121 -26.5zM1087 537q102 396 162 690q15 73 -21 86.5t-87 -39.5q-34 -35 -70.5 -90t-62.5 -103t-62.5 -131t-53.5 -124.5t-53.5 -135t-45.5 -115.5q261 -37 294 -38zM313 84q43 0 79.5 19t66.5 52 t58 80.5t54 103t55 120.5q10 23 15 35q-164 5 -266 -51.5t-142 -182.5q-25 -70 -4 -123t84 -53z" />
<glyph unicode="&#x101;" horiz-adv-x="933" d="M356 1032q-20 0 -28.5 20.5t1.5 41t33 20.5q154 -2 361 -2q20 0 28 -20.5t-2 -41t-32 -20.5q-64 0 -172.5 1t-188.5 1zM420 860q98 19 200 -5t175 -97q11 -11 -2 -33.5t-36 -35.5t-36 -1q-65 50 -140 69.5t-139 4.5q-83 -18 -161 -87t-136 -171q-62 -108 -75 -229 t34 -171q51 -54 143 11t181.5 218.5t128.5 332.5q3 13 16.5 19t30 3.5t32.5 -8.5t25.5 -17t6.5 -22q-2 -9 -23 -84t-31.5 -115t-25 -103.5t-21.5 -107.5t-7 -74.5t11.5 -46.5t36.5 -16q70 0 166 115.5t158 277.5q4 14 30 4q28 -11 27 -31q-1 -4 -2 -7q-192 -453 -418 -453 q-70 0 -106.5 68t-11.5 180q-30 -48 -51 -79t-53 -70t-61.5 -61t-68.5 -38.5t-82 -17.5q-122 -3 -171.5 95.5t-20.5 246.5q16 85 58.5 172.5t103.5 163.5t143.5 130t171.5 70z" />
<glyph unicode="&#x102;" horiz-adv-x="1519" d="M1311 1556q-82 0 -137 47t-56 130q0 15 18 24.5t37 6t23 -20.5q20 -95 115 -98q61 -2 103.5 20t68.5 80q7 17 27.5 20.5t36.5 -5.5t12 -23q-21 -85 -88.5 -133t-159.5 -48zM305 -20q-122 0 -172.5 83.5t-17.5 206.5q31 112 119 191t205 111t241 14q107 266 199 453.5 t178 273.5q50 50 100.5 74.5t89 21t68 -27.5t37 -72t-3.5 -111q-95 -458 -144 -655q246 25 369 176q17 22 35 8q20 -16 8 -45q-3 -7 -8 -14q-67 -98 -183 -153.5t-243 -65.5q-10 -46 -32 -133.5t-37 -157t-21 -131.5q-2 -18 -34 -25t-61.5 1.5t-25.5 27.5q7 47 19 104 t19.5 88.5t28.5 114.5t27 106q-26 1 -72.5 7t-118 16t-120.5 16q-37 -94 -68.5 -161.5t-73.5 -136t-85.5 -110.5t-100.5 -68.5t-121 -26.5zM1087 537q102 396 162 690q15 73 -21 86.5t-87 -39.5q-34 -35 -70.5 -90t-62.5 -103t-62.5 -131t-53.5 -124.5t-53.5 -135 t-45.5 -115.5q261 -37 294 -38zM313 84q43 0 79.5 19t66.5 52t58 80.5t54 103t55 120.5q10 23 15 35q-164 5 -266 -51.5t-142 -182.5q-25 -70 -4 -123t84 -53z" />
<glyph unicode="&#x103;" horiz-adv-x="933" d="M541 991q-82 0 -137 46.5t-56 129.5q0 15 18 25t37 6.5t23 -20.5q20 -96 115 -99q60 -2 103 20.5t69 80.5q7 17 27.5 20.5t36 -6t11.5 -23.5q-21 -85 -88 -132.5t-159 -47.5zM420 860q98 19 200 -5t175 -97q11 -11 -2 -33.5t-36 -35.5t-36 -1q-65 50 -140 69.5t-139 4.5 q-83 -18 -161 -87t-136 -171q-62 -108 -75 -229t34 -171q51 -54 143 11t181.5 218.5t128.5 332.5q3 13 16.5 19t30 3.5t32.5 -8.5t25.5 -17t6.5 -22q-2 -9 -23 -84t-31.5 -115t-25 -103.5t-21.5 -107.5t-7 -74.5t11.5 -46.5t36.5 -16q70 0 166 115.5t158 277.5q4 14 30 4 q28 -11 27 -31q-1 -4 -2 -7q-192 -453 -418 -453q-70 0 -106.5 68t-11.5 180q-30 -48 -51 -79t-53 -70t-61.5 -61t-68.5 -38.5t-82 -17.5q-122 -3 -171.5 95.5t-20.5 246.5q16 85 58.5 172.5t103.5 163.5t143.5 130t171.5 70z" />
<glyph unicode="&#x104;" horiz-adv-x="1564" d="M1096 -332q-29 -59 -83.5 -89.5t-105.5 -27.5t-89 40t-38 100q0 37 12.5 74.5t26.5 64t47.5 65t51.5 56.5l61 61q-11 6 -8 19q40 197 94 413q-26 1 -72.5 7t-118 16t-120.5 16q-37 -94 -68.5 -161.5t-73.5 -136t-85.5 -110.5t-100.5 -68.5t-121 -26.5q-122 0 -172.5 83.5 t-17.5 206.5q31 112 119 191t205 111t241 14q107 266 199 453.5t178 273.5q50 50 100.5 74.5t89 21t68 -27.5t37 -72t-3.5 -111q-95 -458 -144 -655q246 25 369 176q17 22 35 8q20 -16 8 -45q-3 -7 -8 -14q-67 -98 -183 -153.5t-243 -65.5q-6 -28 -29 -128.5t-36.5 -165 t-24.5 -128.5q-3 -13 -11 -21q-23 -29 -63 -77.5t-55.5 -68.5t-35.5 -50.5t-27 -52.5t-7 -46q0 -41 27 -56.5t65 -0.5t68 53q13 13 32 -4.5t11 -34.5zM1087 537q102 396 162 690q15 73 -21 86.5t-87 -39.5q-34 -35 -70.5 -90t-62.5 -103t-62.5 -131t-53.5 -124.5t-53.5 -135 t-45.5 -115.5q261 -37 294 -38zM313 84q43 0 79.5 19t66.5 52t58 80.5t54 103t55 120.5q10 23 15 35q-164 5 -266 -51.5t-142 -182.5q-25 -70 -4 -123t84 -53z" />
<glyph unicode="&#x105;" horiz-adv-x="917" d="M786 -305q-36 -67 -91 -100t-104.5 -29t-87.5 41.5t-42 99.5q-9 128 123 293q-88 0 -122.5 69.5t-10.5 178.5q-30 -48 -51 -79t-53 -70t-61.5 -61t-68.5 -38.5t-82 -17.5q-122 -3 -171.5 95.5t-20.5 246.5q16 85 58.5 172.5t103.5 163.5t143.5 130t171.5 70q98 19 200 -5 t175 -97q11 -11 -2 -33.5t-36 -35.5t-36 -1q-65 50 -140 69.5t-139 4.5q-83 -18 -161 -87t-136 -171q-62 -108 -75 -229t34 -171q51 -54 143 11t181.5 218.5t128.5 332.5q3 13 16.5 19t30 3.5t32.5 -8.5t25.5 -17t6.5 -22q-2 -9 -23 -84t-31.5 -115t-25 -103.5t-21.5 -107.5 t-7 -74.5t11.5 -46.5t36.5 -16q68 0 155.5 113.5t151.5 279.5q4 14 30 4q29 -11 27 -31q0 -4 -1 -7q-56 -132 -97 -202t-112 -157q-92 -114 -142.5 -202t-46.5 -154q3 -46 28.5 -66t64.5 -5.5t77 61.5q12 15 32 -1.5t11 -31.5z" />
<glyph unicode="&#x106;" horiz-adv-x="1198" d="M1034 1765q19 25 62 12q35 -11 38 -33q1 -9 -6 -18l-122 -153q-18 -24 -59 -18q-36 6 -37 28q0 8 5 16q54 80 119 166zM995 1432q86 -5 142.5 -58.5t65 -135t-35.5 -181.5q-51 -106 -163.5 -157t-244 -33.5t-233.5 98.5q-94 -198 -100 -396q-9 -232 58.5 -356t207.5 -125 q68 -1 133 17.5t132.5 61.5t129.5 124.5t109 195.5q6 8 20.5 6.5t27.5 -14.5t7 -26q-98 -247 -235.5 -357.5t-337.5 -113.5q-85 -1 -153 28.5t-113 81.5t-74 125t-39.5 156.5t-5.5 177.5q16 279 153 520q-49 75 -82 162t-34 156q-3 23 26 29q33 7 51 -14q8 -9 9 -20 q3 -88 84 -229q213 293 495 277zM973 1319q-125 7 -220.5 -62t-174.5 -198q56 -52 128.5 -73.5t137.5 -14t119.5 35.5t80.5 70q36 57 39.5 112.5t-26.5 91t-84 38.5z" />
<glyph unicode="&#x107;" horiz-adv-x="823" d="M477 1202q19 25 62 12q35 -11 38 -33q1 -9 -6 -18l-122 -153q-18 -24 -59 -18q-36 6 -37 28q0 7 5 16q54 80 119 166zM440 866q87 -1 141 -38t66 -88t-11.5 -108.5t-80.5 -99.5q-26 -20 -74 -3q-32 11 -31 26l3 6q42 46 60 91t1.5 78.5t-72.5 39.5q-77 8 -155 -54 t-129.5 -164.5t-61.5 -211.5q-9 -106 41.5 -178t155.5 -82q159 -15 301.5 90.5t226.5 316.5q6 8 21 6t28 -14.5t7 -25.5q-46 -119 -105 -207t-118 -139t-128 -81t-129 -38.5t-127 -5.5q-102 5 -175 60t-104.5 137.5t-23.5 176.5q7 90 47.5 181.5t102 165t147.5 119t176 44.5 z" />
<glyph unicode="&#x10a;" horiz-adv-x="1198" d="M997 1567q-31 0 -52 22t-21 53q0 30 21 51t52 23q31 0 53.5 -22t22.5 -54q-3 -31 -24.5 -52t-51.5 -21zM995 1432q86 -5 142.5 -58.5t65 -135t-35.5 -181.5q-51 -106 -163.5 -157t-244 -33.5t-233.5 98.5q-94 -198 -100 -396q-9 -232 58.5 -356t207.5 -125 q68 -1 133 17.5t132.5 61.5t129.5 124.5t109 195.5q6 8 20.5 6.5t27.5 -14.5t7 -26q-98 -247 -235.5 -357.5t-337.5 -113.5q-85 -1 -153 28.5t-113 81.5t-74 125t-39.5 156.5t-5.5 177.5q16 279 153 520q-49 75 -82 162t-34 156q-3 23 26 29q33 7 51 -14q8 -9 9 -20 q3 -88 84 -229q213 293 495 277zM973 1319q-125 7 -220.5 -62t-174.5 -198q56 -52 128.5 -73.5t137.5 -14t119.5 35.5t80.5 70q36 57 39.5 112.5t-26.5 91t-84 38.5z" />
<glyph unicode="&#x10b;" horiz-adv-x="823" d="M440 1004q-31 0 -52 22t-21 53t21 51.5t52 22.5q31 0 53.5 -22t22.5 -54q-3 -31 -24.5 -52t-51.5 -21zM440 866q87 -1 141 -38t66 -88t-11.5 -108.5t-80.5 -99.5q-26 -20 -74 -3q-32 11 -31 26l3 6q42 46 60 91t1.5 78.5t-72.5 39.5q-77 8 -155 -54t-129.5 -164.5 t-61.5 -211.5q-9 -106 41.5 -178t155.5 -82q159 -15 301.5 90.5t226.5 316.5q6 8 21 6t28 -14.5t7 -25.5q-46 -119 -105 -207t-118 -139t-128 -81t-129 -38.5t-127 -5.5q-102 5 -175 60t-104.5 137.5t-23.5 176.5q7 90 47.5 181.5t102 165t147.5 119t176 44.5z" />
<glyph unicode="&#x10c;" horiz-adv-x="1198" d="M1024 1569q-24 -15 -53 -14.5t-47 14.5q-22 18 -138 155q-17 20 13 36q35 18 66 4q10 -4 16 -11l100 -119l158 129q30 24 69 11q32 -11 27 -32q-1 -9 -12 -18q-124 -104 -199 -155zM995 1432q86 -5 142.5 -58.5t65 -135t-35.5 -181.5q-51 -106 -163.5 -157t-244 -33.5 t-233.5 98.5q-94 -198 -100 -396q-9 -232 58.5 -356t207.5 -125q68 -1 133 17.5t132.5 61.5t129.5 124.5t109 195.5q6 8 20.5 6.5t27.5 -14.5t7 -26q-98 -247 -235.5 -357.5t-337.5 -113.5q-85 -1 -153 28.5t-113 81.5t-74 125t-39.5 156.5t-5.5 177.5q16 279 153 520 q-49 75 -82 162t-34 156q-3 23 26 29q33 7 51 -14q8 -9 9 -20q3 -88 84 -229q213 293 495 277zM973 1319q-125 7 -220.5 -62t-174.5 -198q56 -52 128.5 -73.5t137.5 -14t119.5 35.5t80.5 70q36 57 39.5 112.5t-26.5 91t-84 38.5z" />
<glyph unicode="&#x10d;" horiz-adv-x="823" d="M467 1006q-24 -15 -53 -14.5t-47 14.5q-22 18 -138 155q-17 20 13 36q35 18 66 4q10 -4 16 -11l100 -119l158 129q30 24 69 11q32 -11 27 -32q-1 -9 -12 -18q-124 -104 -199 -155zM440 866q87 -1 141 -38t66 -88t-11.5 -108.5t-80.5 -99.5q-26 -20 -74 -3q-32 11 -31 26 l3 6q42 46 60 91t1.5 78.5t-72.5 39.5q-77 8 -155 -54t-129.5 -164.5t-61.5 -211.5q-9 -106 41.5 -178t155.5 -82q159 -15 301.5 90.5t226.5 316.5q6 8 21 6t28 -14.5t7 -25.5q-46 -119 -105 -207t-118 -139t-128 -81t-129 -38.5t-127 -5.5q-102 5 -175 60t-104.5 137.5 t-23.5 176.5q7 90 47.5 181.5t102 165t147.5 119t176 44.5z" />
<glyph unicode="&#x10e;" horiz-adv-x="1710" d="M1073 1575q-24 -15 -53 -14.5t-47 14.5q-15 12 -38.5 38.5t-60 71t-38.5 46.5q-18 20 13 36q35 17 66 3q9 -4 15 -11l100 -119l158 129q30 24 69 11q31 -10 28 -31q-3 -10 -13 -18q-130 -109 -199 -156zM952 1432q148 -4 267 -60.5t194 -149.5t113.5 -214t36.5 -258 q-2 -117 -23.5 -228.5t-67 -213.5t-109.5 -177t-156.5 -116t-202.5 -33q-121 8 -220 49.5t-163 99.5q-49 -75 -115 -113t-135 -38q-124 -1 -183.5 58.5t-52.5 143.5q11 106 87 155.5t176.5 35.5t187.5 -80q32 86 77.5 244t79 270t88 225t115.5 162q27 22 62 0q30 -18 22 -40 l-6 -11q-62 -64 -116.5 -195t-87 -258.5t-73 -265.5t-73.5 -201q54 -51 153.5 -90.5t188.5 -42.5q79 -2 147.5 33.5t117.5 98.5t84.5 148t53.5 181.5t19 198.5q2 121 -29.5 224t-93 181.5t-160.5 123t-225 44.5q-94 0 -179 -36t-140 -95.5t-84.5 -130.5t-17.5 -149t66 -142 q13 -15 0 -38t-36 -30.5t-43 7.5q-74 76 -97.5 168.5t-0.5 181t85 166.5q78 98 200.5 154.5t268.5 52.5zM383 283q-80 9 -119.5 -43t-8 -107t121.5 -55q14 0 26 1.5t24 7t20.5 9t19.5 13.5t16.5 14.5t17 18.5t15.5 18.5t17 21.5t16 21q-43 34 -80 53.5t-86 26.5z" />
<glyph unicode="&#x10f;" horiz-adv-x="937" d="M147 -20q-88 -3 -140.5 56.5t-61 151t20.5 205t93 213.5q44 67 102.5 116t116.5 74.5t117 37t108 8t87 -18.5q31 103 99.5 296t109.5 280q3 8 17 11t31 0t32.5 -9.5t23.5 -18t2 -24.5q-135 -316 -261.5 -789t-8.5 -473q69 0 155 118t146 273q6 8 20 6.5t27 -13.5t8 -25 q-34 -84 -71.5 -156t-87 -143t-109.5 -113t-123 -43q-77 -2 -117.5 68.5t-21.5 181.5q-49 -110 -133.5 -188.5t-180.5 -81.5zM1022 1143q-14 -25 -50 -25q-33 1 -36 23q-1 7 2 16l84 232q12 17 36.5 18t44 -16t7.5 -37zM117 104q28 -24 61.5 -24.5t73.5 26.5t79 71t77 110 t67 143q45 117 88 303q-103 35 -217.5 -19t-191.5 -190q-63 -110 -75.5 -238.5t38.5 -181.5z" />
<glyph unicode="&#x110;" horiz-adv-x="1710" d="M371 -20q-124 -1 -183.5 58.5t-52.5 143.5q11 106 87 155.5t176.5 35.5t187.5 -80q31 65 65 199h-137q-20 0 -30 19t-1.5 38t31.5 20h158q58 227 132 403t142 224q29 20 64 -5q29 -20 21 -41q-2 -4 -5 -7q-122 -115 -240 -578q40 1 117 1t111 1q22 1 24 -26 q2 -30 -21 -46q-8 -6 -18 -6h-233q-52 -203 -92 -266q54 -51 153.5 -90.5t188.5 -42.5q79 -2 147.5 33.5t117.5 98.5t84.5 148t53.5 181.5t19 198.5q2 121 -29.5 224t-93 181.5t-160.5 123t-225 44.5q-94 0 -179 -36t-140 -95.5t-84.5 -130.5t-17.5 -149t66 -142 q13 -15 0 -38t-36 -30.5t-43 7.5q-74 76 -97.5 168.5t-0.5 181t85 166.5q78 98 200.5 154.5t268.5 52.5q148 -4 267 -60.5t194 -149.5t113.5 -214t36.5 -258q-2 -117 -23.5 -228.5t-67 -213.5t-109.5 -177t-156.5 -116t-202.5 -33q-121 8 -220 49.5t-163 99.5 q-49 -75 -115 -113t-135 -38zM377 78q14 0 26 1.5t24 7t20.5 9t19.5 13.5t16.5 14.5t17 18.5t15.5 18.5t17 21.5t16 21q-43 34 -80 53.5t-86 26.5q-80 9 -119.5 -43t-8 -107t121.5 -55z" />
<glyph unicode="&#x111;" horiz-adv-x="937" d="M936 487q6 8 20 6.5t27 -13.5t8 -25q-34 -84 -71.5 -156t-87 -143t-109.5 -113t-123 -43q-77 -2 -117.5 68.5t-21.5 181.5q-49 -110 -133.5 -188.5t-180.5 -81.5q-88 -3 -140.5 56.5t-61 151t20.5 205t93 213.5q44 67 102.5 116t116.5 74.5t117 37t108 8t87 -18.5 q21 74 92 273q-74 2 -166 2q-20 0 -31 21t-3.5 42t30.5 21h201q52 146 86 217q3 8 17 11t31 0t32.5 -9.5t23.5 -18t2 -24.5q-32 -75 -69 -178h102q20 1 28 -19.5t-2.5 -42t-33.5 -22.5h-125q-57 -165 -104.5 -325.5t-84 -319.5t-34 -257t52.5 -98q69 0 155 118t146 273z M475 430q45 117 88 303q-103 35 -217.5 -19t-191.5 -190q-63 -110 -75.5 -238.5t38.5 -181.5q28 -24 61.5 -24.5t73.5 26.5t79 71t77 110t67 143z" />
<glyph unicode="&#x112;" horiz-adv-x="1036" d="M594 1597q-20 0 -28.5 20.5t1.5 41t33 20.5q154 -2 361 -2q20 0 27.5 -20.5t-2.5 -41t-32 -20.5q-64 0 -172 1t-188 1zM467 1559q-4 -134 27 -213q68 57 161.5 76.5t174.5 2t136.5 -73.5t51.5 -137q-3 -80 -68 -132t-178 -42q-178 16 -276 134q-25 -56 -11.5 -117 t49.5 -112.5t101.5 -88.5t144.5 -45q17 -2 21 -25.5t-5 -45.5t-26 -21q-55 3 -114.5 -7t-122 -37.5t-113 -68.5t-85.5 -107t-42 -147q-9 -112 53.5 -186.5t173.5 -77.5q340 -7 514 399q6 7 21 6t28 -13.5t7 -26.5q-187 -489 -598 -471q-101 5 -180 56t-118.5 131t-33.5 173 q10 176 132.5 303t287.5 139q-108 35 -168 122.5t-55.5 194t71.5 197.5q-34 90 -27 261q0 12 16.5 20t33 3t16.5 -23zM553 1260q84 -108 217 -117q62 -6 94.5 17.5t32.5 60.5q0 64 -64.5 93t-147 13.5t-132.5 -67.5z" />
<glyph unicode="&#x113;" horiz-adv-x="823" d="M283 1032q-20 0 -28.5 20.5t1.5 41t33 20.5q154 -2 360 -2q20 0 28 -20.5t-2 -41t-32 -20.5q-64 0 -172 1t-188 1zM459 866q70 -4 118 -36.5t66.5 -79.5t15 -102t-29.5 -107q-63 -124 -203 -168t-324 10q-25 -117 22 -199.5t152 -101.5q64 -11 135.5 4.5t146.5 59.5 t145 132t118 209q6 8 20.5 6.5t27.5 -14.5t8 -26q-28 -73 -61 -135.5t-68 -108t-73 -83t-75 -60.5t-75 -42t-73 -26.5t-68 -14t-60.5 -5t-51.5 1.5q-79 6 -140 36.5t-98 79t-55 110.5t-14 133t29 144q41 122 117 212.5t166.5 133.5t181.5 37zM434 770q-89 0 -184 -94 t-129 -217q291 -65 383 100q28 50 34.5 96.5t-19 80.5t-85.5 34z" />
<glyph unicode="&#x116;" horiz-adv-x="1036" d="M774 1569q-31 0 -52.5 22.5t-21.5 53.5q0 30 21.5 50.5t52.5 22.5q31 0 53.5 -22t22.5 -54q-3 -31 -24.5 -52t-51.5 -21zM467 1559q-4 -134 27 -213q68 57 161.5 76.5t174.5 2t136.5 -73.5t51.5 -137q-3 -80 -68 -132t-178 -42q-178 16 -276 134q-25 -56 -11.5 -117 t49.5 -112.5t101.5 -88.5t144.5 -45q17 -2 21 -25.5t-5 -45.5t-26 -21q-55 3 -114.5 -7t-122 -37.5t-113 -68.5t-85.5 -107t-42 -147q-9 -112 53.5 -186.5t173.5 -77.5q340 -7 514 399q6 7 21 6t28 -13.5t7 -26.5q-187 -489 -598 -471q-101 5 -180 56t-118.5 131t-33.5 173 q10 176 132.5 303t287.5 139q-108 35 -168 122.5t-55.5 194t71.5 197.5q-34 90 -27 261q0 12 16.5 20t33 3t16.5 -23zM553 1260q84 -108 217 -117q62 -6 94.5 17.5t32.5 60.5q0 64 -64.5 93t-147 13.5t-132.5 -67.5z" />
<glyph unicode="&#x117;" horiz-adv-x="823" d="M463 1004q-31 0 -52.5 22t-21.5 53q0 30 21.5 51t52.5 23q31 0 53.5 -22t22.5 -54q-3 -31 -24.5 -52t-51.5 -21zM459 866q70 -4 118 -36.5t66.5 -79.5t15 -102t-29.5 -107q-63 -124 -203 -168t-324 10q-25 -117 22 -199.5t152 -101.5q64 -11 135.5 4.5t146.5 59.5 t145 132t118 209q6 8 20.5 6.5t27.5 -14.5t8 -26q-28 -73 -61 -135.5t-68 -108t-73 -83t-75 -60.5t-75 -42t-73 -26.5t-68 -14t-60.5 -5t-51.5 1.5q-79 6 -140 36.5t-98 79t-55 110.5t-14 133t29 144q41 122 117 212.5t166.5 133.5t181.5 37zM434 770q-89 0 -184 -94 t-129 -217q291 -65 383 100q28 50 34.5 96.5t-19 80.5t-85.5 34z" />
<glyph unicode="&#x118;" horiz-adv-x="1036" d="M891 -305q-36 -67 -91.5 -100t-105 -29t-87.5 41.5t-42 99.5q-9 135 131 301q-93 -32 -204 -26q-153 9 -247 113.5t-85 246.5q10 176 132.5 303t287.5 139q-108 35 -168 122.5t-55.5 194t71.5 197.5q-34 90 -27 261q0 12 16.5 20t33 3t16.5 -23q-7 -126 27 -213 q68 57 161.5 76.5t174.5 2t136.5 -73.5t51.5 -137q-3 -80 -68 -132t-178 -42q-178 16 -276 134q-25 -56 -11.5 -117t49.5 -112.5t101.5 -88.5t144.5 -45q17 -2 21 -25.5t-5 -45.5t-26 -21q-55 3 -114.5 -7t-122 -37.5t-113 -68.5t-85.5 -107t-42 -147q-9 -113 49 -184 t178 -80q154 -11 291 89.5t223 309.5q5 6 20 5.5t28 -12.5t8 -27q-75 -204 -224 -353q-196 -196 -188 -362q3 -46 28.5 -66t64.5 -5.5t77 61.5q12 15 32 -1.5t11 -31.5zM770 1143q62 -6 94.5 17.5t32.5 60.5q0 64 -64.5 93t-147 13.5t-132.5 -67.5q84 -108 217 -117z" />
<glyph unicode="&#x119;" horiz-adv-x="755" d="M639 -305q-36 -67 -91.5 -100t-105 -29t-87.5 41.5t-42 99.5q-9 121 103 289q-58 -16 -144 -16q-79 0 -140.5 28.5t-98 78t-54.5 113.5t-14 137t29 146q41 122 117 212.5t166.5 133.5t181.5 37q70 -4 118 -36.5t66.5 -79.5t15 -102t-29.5 -107q-62 -123 -202.5 -165 t-324.5 13q-14 -80 -5 -147t55.5 -112t123.5 -48q58 -2 107 7t101 35.5t97 71.5t89.5 118t83.5 173q6 8 20.5 6.5t27.5 -14.5t7 -26q-52 -127 -107 -209.5t-127 -159.5q-73 -80 -112.5 -178.5t-36.5 -167.5q3 -46 28.5 -66t64.5 -5.5t77 61.5q12 15 32 -1.5t11 -31.5z M121 459q291 -65 383 100q28 50 34.5 96.5t-19 80.5t-85.5 34q-89 0 -184 -94t-129 -217z" />
<glyph unicode="&#x11a;" horiz-adv-x="1036" d="M801 1571q-24 -15 -53.5 -14.5t-47.5 14.5q-11 9 -31.5 31t-36 41t-39.5 47.5t-30 35.5q-18 20 13 36q35 18 66 4q9 -4 15 -11l101 -119l157 129q30 24 69 11q32 -11 27 -32q-1 -9 -12 -18q-128 -108 -198 -155zM467 1559q-4 -134 27 -213q68 57 161.5 76.5t174.5 2 t136.5 -73.5t51.5 -137q-3 -80 -68 -132t-178 -42q-178 16 -276 134q-25 -56 -11.5 -117t49.5 -112.5t101.5 -88.5t144.5 -45q17 -2 21 -25.5t-5 -45.5t-26 -21q-55 3 -114.5 -7t-122 -37.5t-113 -68.5t-85.5 -107t-42 -147q-9 -112 53.5 -186.5t173.5 -77.5q340 -7 514 399 q6 7 21 6t28 -13.5t7 -26.5q-187 -489 -598 -471q-101 5 -180 56t-118.5 131t-33.5 173q10 176 132.5 303t287.5 139q-108 35 -168 122.5t-55.5 194t71.5 197.5q-34 90 -27 261q0 12 16.5 20t33 3t16.5 -23zM553 1260q84 -108 217 -117q62 -6 94.5 17.5t32.5 60.5 q0 64 -64.5 93t-147 13.5t-132.5 -67.5z" />
<glyph unicode="&#x11b;" horiz-adv-x="823" d="M489 1006q-24 -15 -53 -14.5t-47 14.5q-11 9 -31.5 31t-36 41t-39.5 47.5t-30 35.5q-18 20 13 36q35 18 66 4q9 -4 15 -11l100 -119l158 129q30 24 69 11q32 -11 27 -32q-1 -9 -12 -18q-124 -104 -199 -155zM459 866q70 -4 118 -36.5t66.5 -79.5t15 -102t-29.5 -107 q-63 -124 -203 -168t-324 10q-25 -117 22 -199.5t152 -101.5q64 -11 135.5 4.5t146.5 59.5t145 132t118 209q6 8 20.5 6.5t27.5 -14.5t8 -26q-28 -73 -61 -135.5t-68 -108t-73 -83t-75 -60.5t-75 -42t-73 -26.5t-68 -14t-60.5 -5t-51.5 1.5q-79 6 -140 36.5t-98 79 t-55 110.5t-14 133t29 144q41 122 117 212.5t166.5 133.5t181.5 37zM434 770q-89 0 -184 -94t-129 -217q291 -65 383 100q28 50 34.5 96.5t-19 80.5t-85.5 34z" />
<glyph unicode="&#x11e;" horiz-adv-x="1550" d="M1075 1561q-82 0 -136.5 46.5t-55.5 129.5q0 15 18 24.5t37 6t23 -20.5q20 -95 114 -98q61 -2 103.5 20t68.5 80q7 17 27.5 20.5t36.5 -5.5t12 -23q-21 -85 -88.5 -132.5t-159.5 -47.5zM1065 1427q172 -3 249.5 -99t14.5 -255q-56 -140 -186.5 -203.5t-286.5 -36 t-287 137.5q-31 -47 -58 -110t-47.5 -133.5t-31 -146t-11 -146.5t15.5 -134.5t46 -111.5t82.5 -76t122.5 -29q267 0 465 438q11 15 35.5 15.5t48 -12t18.5 -27.5q-76 -261 -135 -506q133 50 247 181.5t181 313.5q6 8 21 6.5t28 -14.5t7 -26q-98 -233 -212.5 -361.5 t-301.5 -210.5q-30 -121 -63.5 -209t-65.5 -140.5t-70 -83t-72 -41t-76 -11.5q-75 -2 -117.5 38.5t-41.5 114.5q1 60 35 116.5t96.5 106t128.5 88.5t151 79q71 251 84 307q-175 -269 -420 -264q-107 2 -185 47.5t-117.5 119t-56.5 167.5t-7.5 197t34 204t64.5 191t88 155 q-125 147 -125 338q-1 23 30 24q33 1 49 -22q7 -10 5 -21q6 -77 27.5 -130.5t69.5 -112.5q97 126 243.5 208.5t286.5 79.5zM1057 1319q-108 1 -224.5 -70t-209.5 -194q105 -82 225.5 -106t218 15t139.5 132q43 95 -7.5 158t-141.5 65zM969 -172q-54 -35 -84 -55t-74.5 -55.5 t-69.5 -69t-32 -66.5q-10 -43 5 -62.5t44 -19.5q69 0 118.5 77.5t92.5 250.5z" />
<glyph unicode="&#x11f;" horiz-adv-x="915" d="M526 993q-82 0 -136.5 46.5t-55.5 129.5q0 15 18 25t37 6.5t23 -20.5q20 -96 114 -99q60 -2 103 20.5t69 80.5q7 17 27.5 20.5t36.5 -5.5t12 -23q-21 -85 -88.5 -133t-159.5 -48zM459 866q192 19 336 -110q9 -12 -7 -35.5t-37.5 -33t-37.5 4.5q-115 90 -236 74 q-95 -9 -181 -78t-151 -182q-62 -111 -76.5 -228.5t33.5 -171.5q61 -61 166.5 28.5t194.5 271.5q57 118 96 266q3 11 15.5 15t28.5 1t31.5 -9t24.5 -16t7 -20q-111 -423 -174 -647q130 52 241.5 180t179.5 311q6 8 20.5 6.5t27.5 -13.5t8 -25q-91 -222 -207.5 -354 t-300.5 -218q-25 -103 -52 -182.5t-55.5 -131t-56 -86.5t-59 -53t-58.5 -25t-61 -9q-82 -5 -127.5 40t-36.5 132q5 48 33 94.5t64.5 81.5t95.5 74t103.5 63t110.5 58q73 241 101 337q-153 -289 -328 -294q-120 -4 -170 90.5t-25 236t111 279.5q77 125 184.5 196t223.5 82z M338 -172q-195 -114 -244 -205q-38 -70 -6 -106q27 -30 78 -9q72 31 116 138q11 25 19 53z" />
<glyph unicode="&#x120;" horiz-adv-x="1550" d="M1071 1573q-31 0 -52.5 22.5t-21.5 53.5q0 30 21.5 50.5t52.5 22.5q31 0 53.5 -21.5t22.5 -53.5q-3 -31 -24.5 -52.5t-51.5 -21.5zM1065 1427q172 -3 249.5 -99t14.5 -255q-56 -140 -186.5 -203.5t-286.5 -36t-287 137.5q-31 -47 -58 -110t-47.5 -133.5t-31 -146 t-11 -146.5t15.5 -134.5t46 -111.5t82.5 -76t122.5 -29q267 0 465 438q11 15 35.5 15.5t48 -12t18.5 -27.5q-76 -261 -135 -506q133 50 247 181.5t181 313.5q6 8 21 6.5t28 -14.5t7 -26q-98 -233 -212.5 -361.5t-301.5 -210.5q-30 -121 -63.5 -209t-65.5 -140.5t-70 -83 t-72 -41t-76 -11.5q-75 -2 -117.5 38.5t-41.5 114.5q1 60 35 116.5t96.5 106t128.5 88.5t151 79q71 251 84 307q-175 -269 -420 -264q-107 2 -185 47.5t-117.5 119t-56.5 167.5t-7.5 197t34 204t64.5 191t88 155q-125 147 -125 338q-1 23 30 24q33 1 49 -22q7 -10 5 -21 q6 -77 27.5 -130.5t69.5 -112.5q97 126 243.5 208.5t286.5 79.5zM1057 1319q-108 1 -224.5 -70t-209.5 -194q105 -82 225.5 -106t218 15t139.5 132q43 95 -7.5 158t-141.5 65zM969 -172q-54 -35 -84 -55t-74.5 -55.5t-69.5 -69t-32 -66.5q-10 -43 5 -62.5t44 -19.5 q69 0 118.5 77.5t92.5 250.5z" />
<glyph unicode="&#x121;" horiz-adv-x="915" d="M522 1006q-31 0 -52 22t-21 53t21 51.5t52 22.5q31 0 53.5 -22t22.5 -54q-3 -31 -24.5 -52t-51.5 -21zM459 866q192 19 336 -110q9 -12 -7 -35.5t-37.5 -33t-37.5 4.5q-115 90 -236 74q-95 -9 -181 -78t-151 -182q-62 -111 -76.5 -228.5t33.5 -171.5q61 -61 166.5 28.5 t194.5 271.5q57 118 96 266q3 11 15.5 15t28.5 1t31.5 -9t24.5 -16t7 -20q-111 -423 -174 -647q130 52 241.5 180t179.5 311q6 8 20.5 6.5t27.5 -13.5t8 -25q-91 -222 -207.5 -354t-300.5 -218q-25 -103 -52 -182.5t-55.5 -131t-56 -86.5t-59 -53t-58.5 -25t-61 -9 q-82 -5 -127.5 40t-36.5 132q5 48 33 94.5t64.5 81.5t95.5 74t103.5 63t110.5 58q73 241 101 337q-153 -289 -328 -294q-120 -4 -170 90.5t-25 236t111 279.5q77 125 184.5 196t223.5 82zM338 -172q-195 -114 -244 -205q-38 -70 -6 -106q27 -30 78 -9q72 31 116 138 q11 25 19 53z" />
<glyph unicode="&#x122;" horiz-adv-x="1550" d="M1065 1427q172 -3 249.5 -99t14.5 -255q-56 -140 -186.5 -203.5t-286.5 -36t-287 137.5q-31 -47 -58 -110t-47.5 -133.5t-31 -146t-11 -146.5t15.5 -134.5t46 -111.5t82.5 -76t122.5 -29q267 0 465 438q11 15 35.5 15.5t48 -12t18.5 -27.5q-76 -261 -135 -506 q133 50 247 181.5t181 313.5q6 8 21 6.5t28 -14.5t7 -26q-98 -233 -212.5 -361.5t-301.5 -210.5q-30 -121 -63.5 -209t-65.5 -140.5t-70 -83t-72 -41t-76 -11.5q-75 -2 -117.5 38.5t-41.5 114.5q1 60 35 116.5t96.5 106t128.5 88.5t151 79q71 251 84 307 q-175 -269 -420 -264q-107 2 -185 47.5t-117.5 119t-56.5 167.5t-7.5 197t34 204t64.5 191t88 155q-125 147 -125 338q-1 23 30 24q33 1 49 -22q7 -10 5 -21q6 -77 27.5 -130.5t69.5 -112.5q97 126 243.5 208.5t286.5 79.5zM1057 1319q-108 1 -224.5 -70t-209.5 -194 q105 -82 225.5 -106t218 15t139.5 132q43 95 -7.5 158t-141.5 65zM969 -172q-54 -35 -84 -55t-74.5 -55.5t-69.5 -69t-32 -66.5q-10 -43 5 -62.5t44 -19.5q69 0 118.5 77.5t92.5 250.5zM664 -696q9 20 37.5 24.5t50.5 -8.5t14 -35l-107 -258q-8 -26 -46 -30q-37 -5 -47 17 q-4 8 -1 19q9 24 49.5 135.5t49.5 135.5z" />
<glyph unicode="&#x123;" horiz-adv-x="915" d="M526 1196q12 26 53 24q37 -3 44 -24q2 -8 -2 -16l-80 -168q-11 -22 -47 -19q-32 4 -35 25q-1 6 2 14q10 23 33 83t32 81zM459 866q192 19 336 -110q9 -12 -7 -35.5t-37.5 -33t-37.5 4.5q-115 90 -236 74q-95 -9 -181 -78t-151 -182q-62 -111 -76.5 -228.5t33.5 -171.5 q61 -61 166.5 28.5t194.5 271.5q57 118 96 266q3 11 15.5 15t28.5 1t31.5 -9t24.5 -16t7 -20q-111 -423 -174 -647q130 52 241.5 180t179.5 311q6 8 20.5 6.5t27.5 -13.5t8 -25q-91 -222 -207.5 -354t-300.5 -218q-25 -103 -52 -182.5t-55.5 -131t-56 -86.5t-59 -53 t-58.5 -25t-61 -9q-82 -5 -127.5 40t-36.5 132q5 48 33 94.5t64.5 81.5t95.5 74t103.5 63t110.5 58q73 241 101 337q-153 -289 -328 -294q-120 -4 -170 90.5t-25 236t111 279.5q77 125 184.5 196t223.5 82zM338 -172q-195 -114 -244 -205q-38 -70 -6 -106q27 -30 78 -9 q72 31 116 138q11 25 19 53z" />
<glyph unicode="&#x126;" horiz-adv-x="1574" d="M1663 989q18 -1 24 -22.5t-4.5 -42t-33.5 -19.5h-168q-20 -75 -51 -211t-39 -170q150 0 233 54q21 14 35 -9q16 -28 -8 -60q-11 -15 -31 -26q-98 -56 -250 -49q-42 -168 -123 -414q-6 -18 -38.5 -22t-60 7t-20.5 30q68 207 123 409q-68 9 -187 32.5t-163 29.5 q-64 -269 -156 -397.5t-245 -131.5q-128 -3 -185.5 66.5t-46.5 185.5q11 117 87.5 210t197 138.5t256.5 30.5q13 49 42 150.5t42 150.5q-23 1 -65.5 2t-63.5 2q-18 1 -23 23.5t7 44t36 20.5q78 -4 134 -4q59 242 71 283q-49 -48 -117.5 -65.5t-138.5 -12t-138.5 13.5 t-137.5 2.5t-117 -36.5q-40 -25 -54.5 -66t-6 -79.5t31.5 -63.5q32 -35 79.5 -42.5t89.5 6.5t71 40q11 10 30 0t26.5 -27.5t-3.5 -34.5q-45 -54 -118 -72.5t-140 -5t-110 49.5q-33 28 -53 77.5t-20 105t36 112.5t106 92q59 30 130 39t131.5 1t127.5 -13.5t122 -4.5 t110.5 28.5t97.5 84.5q17 19 47 20t51 -15t13 -40q-56 -189 -105 -379h350q3 9 18 57.5t19.5 63.5t18 55t21.5 61.5t20 52t24 56.5q17 15 45.5 12.5t51.5 -20t14 -35.5q-50 -101 -109 -305q26 -1 83 -2t77 -2zM1362 907h-352q-71 -273 -80 -311q39 -6 156.5 -29t185.5 -32 q11 43 40.5 170.5t49.5 201.5zM500 86q57 0 103 31t80.5 92t59 132.5t48.5 172.5q-88 11 -163 -9t-124.5 -62t-79 -98.5t-35.5 -121.5q-6 -64 21.5 -100.5t89.5 -36.5z" />
<glyph unicode="&#x127;" horiz-adv-x="897" d="M895 487q7 10 22 8t27.5 -15t5.5 -27q-26 -55 -43.5 -91t-47 -90.5t-53 -90.5t-55.5 -77t-61.5 -65.5t-64.5 -41.5t-70 -17q-94 -1 -122.5 53t-12.5 160q4 31 21.5 98t42 158t36.5 141q6 27 9.5 44.5t4.5 43.5t-5 41.5t-22 27t-42 11.5q-72 0 -172.5 -98.5t-173.5 -227.5 q-36 -129 -51 -193.5t-43 -209.5q-5 -18 -40.5 -27t-65.5 1.5t-23 39.5q111 537 266 1008h-78q-21 0 -31.5 19.5t-2.5 39.5t32 20q18 0 53 -1t53 -1q58 169 105 271q3 9 17 12.5t31 0t32.5 -10t23.5 -18.5t2 -25q-37 -78 -86 -230q143 5 168 7q20 1 30 -19t1.5 -41 t-31.5 -22q-53 -2 -194 -2q-29 -89 -78 -253t-64 -212q32 50 67 93.5t81 88.5t99 72t104 28q110 1 148 -82.5t3 -216.5q-95 -348 -104 -412q-11 -71 14 -79q7 -2 16 -2q69 1 159.5 120t162.5 291z" />
<glyph unicode="&#x12a;" horiz-adv-x="1032" d="M866 1599q-20 0 -28.5 20.5t1.5 41t33 20.5q154 -2 361 -2q20 0 28 -20.5t-2 -41t-32 -20.5q-64 0 -172.5 1t-188.5 1zM952 1391q13 33 46.5 38.5t59.5 -13t19 -42.5q-70 -232 -225 -831q-30 -118 -56 -198t-61.5 -155t-76.5 -118t-97 -68.5t-127 -26.5q-93 -1 -161 46.5 t-93 118.5t-2.5 161t96.5 168q17 24 51.5 1.5t22.5 -46.5q-56 -79 -62 -158.5t41 -131t132 -50.5q27 0 51.5 8.5t45 27.5t36.5 37t32 52t26 57t24 67.5t20.5 68.5t20.5 73q49 179 99.5 371.5t74.5 282t37 126.5q-59 -65 -135.5 -118.5t-139.5 -86.5t-121 -65t-95.5 -69.5 t-47.5 -83.5q-28 -140 94 -152q20 -2 26 -25.5t-5.5 -45.5t-36.5 -19q-56 5 -98.5 24t-64.5 46t-36 60.5t-12.5 66.5t6.5 63q17 74 69.5 127t128.5 90t157 74t174.5 100.5t162.5 147.5z" />
<glyph unicode="&#x12b;" horiz-adv-x="401" d="M8 1032q-20 0 -28.5 20.5t1.5 41t33 20.5q154 -2 361 -2q20 0 28 -20.5t-2 -41t-32 -20.5q-64 0 -172.5 1t-188.5 1zM94 825q6 24 36 26.5t55.5 -11t21.5 -29.5q-116 -414 -158 -584q-6 -25 -9 -40.5t-6 -35.5t-2 -32t5.5 -23t14 -15.5t24.5 -4.5q48 2 110.5 67 t116 155.5t92.5 186.5q7 11 23 10t29 -15t6 -29q-25 -53 -42.5 -88t-47 -89.5t-54 -90.5t-58 -78t-64.5 -67t-68 -41.5t-74 -16.5q-88 1 -115.5 61t0.5 172q38 161 164 612z" />
<glyph unicode="&#x12e;" horiz-adv-x="1036" d="M950 1391q9 34 45 39t65 -13.5t21 -42.5q-23 -67 -42.5 -129t-42.5 -146.5t-38 -142t-49.5 -192.5t-56.5 -221q-92 -364 -236 -508q-70 -70 -101 -148.5t-28 -148.5q3 -46 28.5 -66t64.5 -5.5t77 61.5q12 15 32 -1.5t11 -31.5q-36 -67 -91 -100t-104.5 -29t-87.5 41.5 t-42 99.5q-8 119 108 275q-35 -5 -49 -5q-93 -1 -161 46.5t-93 118.5t-2.5 161t96.5 168q17 24 51.5 1.5t22.5 -46.5q-56 -79 -62 -158.5t41 -131t132 -50.5q27 0 51.5 8.5t45 27.5t36.5 37t32 52t26 57t24 67.5t20.5 68.5t20.5 73q50 183 99 372t73.5 280.5t36.5 127.5 q-59 -65 -135 -118.5t-139.5 -86.5t-121 -65t-95 -69.5t-46.5 -83.5q-28 -140 94 -152q20 -2 26 -25.5t-5.5 -45.5t-36.5 -19q-56 5 -98.5 24t-64.5 46t-36 60.5t-12.5 66.5t6.5 63q16 74 68.5 127t128.5 90t157 74t174.5 100.5t161.5 147.5z" />
<glyph unicode="&#x12f;" horiz-adv-x="399" d="M281 -305q-36 -67 -91.5 -100t-105 -29t-87.5 41.5t-42 99.5q-8 113 108 273q-99 2 -130.5 55t-2.5 178q38 161 164 612q6 24 36 26.5t55.5 -11t21.5 -29.5q-116 -414 -158 -584q-6 -25 -9 -40.5t-6 -35.5t-2 -32t5.5 -23t14 -15.5t24.5 -4.5q48 2 110.5 67t116 155.5 t92.5 186.5q7 11 22.5 10t29 -15t6.5 -29q-28 -60 -52 -107.5t-48.5 -87.5t-35.5 -57.5t-37 -54.5t-30 -42q-64 -92 -97 -143.5t-60.5 -115t-24.5 -105.5q3 -46 28.5 -66t64.5 -5.5t77 61.5q12 15 32 -1.5t11 -31.5z" />
<glyph unicode="&#x130;" horiz-adv-x="1032" d="M1047 1571q-31 0 -52.5 22.5t-21.5 53.5q0 30 21.5 50.5t52.5 22.5q31 0 53 -21.5t22 -53.5q-3 -31 -24 -52.5t-51 -21.5zM952 1391q13 33 46.5 38.5t59.5 -13t19 -42.5q-70 -232 -225 -831q-30 -118 -56 -198t-61.5 -155t-76.5 -118t-97 -68.5t-127 -26.5 q-93 -1 -161 46.5t-93 118.5t-2.5 161t96.5 168q17 24 51.5 1.5t22.5 -46.5q-56 -79 -62 -158.5t41 -131t132 -50.5q27 0 51.5 8.5t45 27.5t36.5 37t32 52t26 57t24 67.5t20.5 68.5t20.5 73q49 179 99.5 371.5t74.5 282t37 126.5q-59 -65 -135.5 -118.5t-139.5 -86.5 t-121 -65t-95.5 -69.5t-47.5 -83.5q-28 -140 94 -152q20 -2 26 -25.5t-5.5 -45.5t-36.5 -19q-56 5 -98.5 24t-64.5 46t-36 60.5t-12.5 66.5t6.5 63q17 74 69.5 127t128.5 90t157 74t174.5 100.5t162.5 147.5z" />
<glyph unicode="&#x131;" horiz-adv-x="401" d="M94 825q6 24 36 26.5t55.5 -11t21.5 -29.5q-116 -414 -158 -584q-6 -25 -9 -40.5t-6 -35.5t-2 -32t5.5 -23t14 -15.5t24.5 -4.5q48 2 110.5 67t116 155.5t92.5 186.5q7 11 23 10t29 -15t6 -29q-25 -53 -42.5 -88t-47 -89.5t-54 -90.5t-58 -78t-64.5 -67t-68 -41.5 t-74 -16.5q-88 1 -115.5 61t0.5 172q38 161 164 612z" />
<glyph unicode="&#x132;" horiz-adv-x="2127" d="M1253 -596q-110 5 -173.5 85t-32.5 200q21 73 64.5 128t125 98t130 62t160.5 56q19 7 29 10q281 1066 318 1202q-59 -61 -134 -113t-136.5 -83.5t-117.5 -63t-92.5 -68.5t-45.5 -83q-28 -140 94 -152q20 -2 26 -25.5t-6 -45.5t-37 -19q-56 5 -98.5 24t-64.5 46 t-35.5 60.5t-12 66.5t6.5 63q17 74 70 127t128.5 90t157 74t175 100.5t161.5 147.5q19 44 66 40q38 -3 51 -29q6 -13 2 -26q-39 -127 -164.5 -609.5t-177.5 -672.5q129 29 250 130.5t186 262.5q6 7 20 6t27 -13t8 -25q-23 -65 -56.5 -121.5t-64.5 -96t-77 -76.5t-76.5 -57.5 t-81.5 -44.5t-73.5 -32.5t-69.5 -25.5q-13 -5 -19 -7q-59 -270 -102 -365q-106 -233 -308 -225zM952 1391q13 33 46.5 38.5t59.5 -13t19 -42.5q-70 -232 -225 -831q-30 -118 -56 -198t-61.5 -155t-76.5 -118t-97 -68.5t-127 -26.5q-93 -1 -161 46.5t-93 118.5t-2.5 161 t96.5 168q17 24 51.5 1.5t22.5 -46.5q-56 -79 -62 -158.5t41 -131t132 -50.5q27 0 51.5 8.5t45 27.5t36.5 37t32 52t26 57t24 67.5t20.5 68.5t20.5 73q49 179 99.5 371.5t74.5 282t37 126.5q-59 -65 -135.5 -118.5t-139.5 -86.5t-121 -65t-95.5 -69.5t-47.5 -83.5 q-28 -140 94 -152q20 -2 26 -25.5t-5.5 -45.5t-36.5 -19q-56 5 -98.5 24t-64.5 46t-36 60.5t-12.5 66.5t6.5 63q17 74 69.5 127t128.5 90t157 74t174.5 100.5t162.5 147.5zM1255 -492q53 -2 106 36.5t89 115.5q42 90 82 289q-305 -106 -365 -258q-29 -85 -1 -133t89 -50z " />
<glyph unicode="&#x133;" horiz-adv-x="811" d="M201 995q-32 0 -53.5 20.5t-20.5 57.5q1 36 25 57t57 21q32 0 53.5 -20.5t20.5 -57.5q-1 -36 -25 -57t-57 -21zM602 995q-32 0 -53.5 20.5t-20.5 57.5q1 36 25 57t57 21q32 0 53.5 -20.5t20.5 -57.5q-1 -36 -25 -57t-57 -21zM809 487q6 8 20 6.5t27 -13.5t8 -25 q-91 -222 -208.5 -354t-301.5 -218q-25 -103 -52 -182.5t-55.5 -131t-56 -86.5t-59 -53t-58.5 -25t-61 -9q-82 -5 -127.5 40t-36.5 132q5 48 33 94.5t64.5 81.5t96 74t103.5 63t111 58q17 50 70 243q-138 -205 -281 -202q-88 1 -115.5 61t0.5 172q38 161 164 612 q6 24 36 26.5t55.5 -11t21.5 -29.5q-116 -414 -158 -584q-6 -25 -9 -40.5t-6 -35.5t-2 -32t5.5 -23t14 -15.5t24.5 -4.5q78 3 171 121t154 266l95 368q7 20 35.5 21t53 -12.5t19.5 -28.5q-213 -790 -219 -815q131 52 243.5 180.5t180.5 310.5zM195 -301l36 129 q-193 -113 -243 -205q-29 -58 -14.5 -92t55.5 -31q45 3 92 54t74 145z" />
<glyph unicode="&#x136;" horiz-adv-x="1533" d="M1470 1401q8 16 24 22t33 2t32 -12.5t23 -21.5t3 -25q-44 -110 -100 -213t-126 -197t-155 -164.5t-174 -101.5q47 -21 80.5 -53t52.5 -75.5t29 -84t18 -96.5q29 -194 62 -283q74 -195 227 -196q23 0 21 -30q-3 -35 -33 -53q-13 -9 -29 -9q-64 0 -114.5 21t-85 60 t-59.5 86t-42 109t-28 117.5t-22 122.5q-7 45 -11 67q-23 131 -82.5 193.5t-151.5 52.5q-33 -129 -57 -212t-55 -165t-61 -129t-70 -85.5t-88.5 -54t-110.5 -16.5q-93 -1 -161 46.5t-93 118.5t-2.5 161t96.5 168q17 24 51.5 1.5t22.5 -46.5q-56 -79 -62 -158.5t40.5 -131 t131.5 -50.5q27 0 51.5 8.5t45 27.5t36.5 37t32 52t26 57t24 67.5t20.5 68.5t20.5 73q48 177 98.5 370.5t74.5 283t38 126.5q-59 -65 -135.5 -118.5t-139.5 -86.5t-120.5 -65t-95 -69.5t-47.5 -83.5q-28 -140 94 -152q20 -2 26 -25.5t-5.5 -45.5t-36.5 -19q-56 5 -98.5 24 t-64.5 46t-36 60.5t-12.5 66.5t6.5 63q17 74 69.5 127t128.5 90t157 74t174.5 100.5t162.5 147.5q10 42 61 40q42 -2 63 -29q10 -14 5 -28q-45 -132 -80 -258t-100 -383q65 17 125 49.5t106 69.5t91 90.5t74.5 96.5t62.5 104t50 96.5t41.5 90.5t32.5 71zM780 -201 q9 20 37.5 25t51 -8t14.5 -35l-107 -258q-8 -26 -46 -30q-37 -5 -47 17q-4 8 -1 19q9 24 49 135t49 135z" />
<glyph unicode="&#x137;" horiz-adv-x="813" d="M811 487q6 8 20.5 7t27.5 -14t7 -27q-38 -92 -85.5 -172.5t-106 -150t-128 -110t-140.5 -40.5q-30 0 -55.5 6t-57 30.5t-52.5 66.5t-34.5 120t-11.5 184q89 36 159.5 79.5t111 84.5t61.5 79.5t19 68t-24 46.5q-24 22 -62.5 17t-81.5 -23t-90 -56.5t-87.5 -84.5 t-73.5 -106t-49 -121q-21 -82 -36 -147.5t-26.5 -116.5t-15.5 -70q-7 -30 -52 -37t-62 16q-9 12 -3 29q49 210 105 422t93.5 340.5t95.5 321.5t81 270q3 9 16 12.5t29.5 0.5t32 -9.5t24 -19t5.5 -25.5q-14 -50 -107 -347t-115 -386q53 91 126.5 150.5t141 77.5t124.5 10.5 t86 -40.5q30 -34 38 -80t-9.5 -99.5t-58 -106.5t-116.5 -104.5t-176 -88.5q-6 -116 25.5 -190t103.5 -74q95 0 200.5 107.5t182.5 299.5zM37 -199q9 20 37.5 25t50.5 -8t14 -35l-106 -258q-8 -26 -46 -30q-37 -5 -47 17q-4 8 -1 19q9 23 49 135t49 135z" />
<glyph unicode="&#x139;" horiz-adv-x="1173" d="M1106 1769q19 25 62 12q34 -10 38 -32q1 -9 -6 -18l-123 -154q-18 -24 -59 -17q-35 6 -36 28q0 8 5 16q48 70 119 165zM946 1384q10 46 61 47q43 2 65 -24q11 -13 7 -27q-46 -151 -104.5 -407.5t-110.5 -452t-108 -301.5q35 -34 81.5 -82.5t77.5 -81.5t73 -72.5t75.5 -64 t78 -46.5t88 -29t97 -3t111.5 23q16 10 35.5 -6t23 -41.5t-19.5 -53.5q-72 -24 -139 -30t-120 1t-108 32t-95 51t-88.5 69.5t-80 77t-79 83.5t-77.5 79q-56 -73 -109.5 -107t-138.5 -38q-59 -3 -105 10.5t-72 38t-41.5 57t-13.5 68t11 69.5q15 48 57.5 84t101.5 52.5t137 -1 t153 -71.5q60 155 145 516t113 459q-59 -66 -135.5 -120.5t-140.5 -88t-121.5 -65.5t-95.5 -70t-48 -84q-28 -140 94 -152q20 -2 26 -25.5t-5.5 -45.5t-36.5 -19q-56 5 -98.5 24t-64.5 46t-36 60.5t-12.5 66.5t6.5 63q17 74 69.5 126.5t127 89t155 73t173.5 99t161 144.5z M332 201q-16 -49 13 -88t104 -35q106 5 178 121q-42 43 -103 65t-117.5 7.5t-74.5 -70.5z" />
<glyph unicode="&#x13a;" horiz-adv-x="585" d="M559 1729q19 25 62 12q35 -11 38 -33q1 -9 -6 -18l-123 -154q-18 -24 -59 -17q-35 6 -36 28q0 8 5 16q54 80 119 166zM352 1366q88 71 166 42q70 -25 91 -115q25 -109 -40 -259q-145 -336 -454 -530q-84 -406 71 -424q49 -6 97 12t87 55t73 79.5t62 94.5t46 90t33 76 q6 8 21 7t27.5 -14.5t6.5 -28.5q-29 -65 -50.5 -110t-53 -101.5t-60 -94t-66.5 -75.5t-76.5 -58t-86.5 -29.5t-101 -2.5q-58 8 -97 39t-57 83t-23.5 114.5t4 143.5t25 159.5t40.5 172.5q63 238 145 421t170 253zM469 1307q-46 4 -93.5 -70t-105.5 -221q-73 -183 -131 -402 q187 163 281 359q66 142 80.5 234.5t-31.5 99.5z" />
<glyph unicode="&#x13b;" horiz-adv-x="1173" d="M946 1384q10 46 61 47q43 2 65 -24q11 -13 7 -27q-46 -151 -104.5 -407.5t-110.5 -452t-108 -301.5q35 -34 81.5 -82.5t77.5 -81.5t73 -72.5t75.5 -64t78 -46.5t88 -29t97 -3t111.5 23q16 10 35.5 -6t23 -41.5t-19.5 -53.5q-72 -24 -139 -30t-120 1t-108 32t-95 51 t-88.5 69.5t-80 77t-79 83.5t-77.5 79q-56 -73 -109.5 -107t-138.5 -38q-59 -3 -105 10.5t-72 38t-41.5 57t-13.5 68t11 69.5q15 48 57.5 84t101.5 52.5t137 -1t153 -71.5q60 155 145 516t113 459q-59 -66 -135.5 -120.5t-140.5 -88t-121.5 -65.5t-95.5 -70t-48 -84 q-28 -140 94 -152q20 -2 26 -25.5t-5.5 -45.5t-36.5 -19q-56 5 -98.5 24t-64.5 46t-36 60.5t-12.5 66.5t6.5 63q17 74 69.5 126.5t127 89t155 73t173.5 99t161 144.5zM332 201q-16 -49 13 -88t104 -35q106 5 178 121q-42 43 -103 65t-117.5 7.5t-74.5 -70.5zM618 -199 q9 20 37.5 25t51 -8t14.5 -35l-107 -258q-8 -26 -46 -30q-37 -5 -47 17q-4 8 -1 19q9 23 49 135t49 135z" />
<glyph unicode="&#x13c;" horiz-adv-x="585" d="M352 1366q88 71 166 42q70 -25 91 -115q25 -109 -40 -259q-145 -336 -454 -530q-84 -406 71 -424q49 -6 97 12t87 55t73 79.5t62 94.5t46 90t33 76q6 8 21 7t27.5 -14.5t6.5 -28.5q-29 -65 -50.5 -110t-53 -101.5t-60 -94t-66.5 -75.5t-76.5 -58t-86.5 -29.5t-101 -2.5 q-58 8 -97 39t-57 83t-23.5 114.5t4 143.5t25 159.5t40.5 172.5q63 238 145 421t170 253zM469 1307q-46 4 -93.5 -70t-105.5 -221q-73 -183 -131 -402q187 163 281 359q66 142 80.5 234.5t-31.5 99.5zM106 -195q9 20 37.5 25t51 -8t14.5 -35l-107 -258q-8 -26 -46 -30 q-37 -5 -47 17q-4 8 -1 19q9 24 49 135.5t49 134.5z" />
<glyph unicode="&#x13d;" horiz-adv-x="1155" d="M946 1384q10 46 61 47q43 2 65 -24q11 -13 7 -27q-46 -151 -104.5 -407.5t-110.5 -452t-108 -301.5q35 -34 80.5 -82t75.5 -80t70 -69.5t72 -60t75 -41t84.5 -22t94 5.5t111.5 34q16 10 35.5 -6t23 -41.5t-19.5 -53.5q-72 -30 -138 -41t-118 -7.5t-105 25t-91.5 45.5 t-85 65.5t-77 74t-77 82t-76.5 78.5q-56 -73 -109.5 -107t-138.5 -38q-59 -3 -105 10.5t-72 38t-41.5 57t-13.5 68t11 69.5q15 48 57.5 84t101.5 52.5t137 -1t153 -71.5q60 155 145 516t113 459q-59 -66 -135.5 -120.5t-140.5 -88t-121.5 -65.5t-95.5 -70t-48 -84 q-28 -140 94 -152q20 -2 26 -25.5t-5.5 -45.5t-36.5 -19q-56 5 -98.5 24t-64.5 46t-36 60.5t-12.5 66.5t6.5 63q17 74 69.5 126.5t127 89t155 73t173.5 99t161 144.5zM1225 1393q7 25 52 24q42 -2 54 -24q4 -9 0 -19l-65 -219q-11 -27 -50 -31q-37 -4 -45 18q-2 7 0 17 q5 22 26.5 115.5t27.5 118.5zM332 201q-16 -49 13 -88t104 -35q106 5 178 121q-42 43 -103 65t-117.5 7.5t-74.5 -70.5z" />
<glyph unicode="&#x13e;" horiz-adv-x="546" d="M143 -14q-59 1 -98.5 29t-56.5 79.5t-22 114.5t6 146.5t27.5 162.5t41.5 174q63 238 145 421t170 253q88 71 166 42q70 -25 91 -115q25 -109 -40 -259q-145 -336 -454 -530q-86 -413 71 -418q51 -2 101.5 28.5t87 73t72.5 103.5t55.5 104.5t38.5 91.5q6 8 21 7 t27.5 -14.5t6.5 -28.5q-40 -90 -70 -149t-73.5 -125t-86.5 -104t-101.5 -63t-125.5 -24zM784 1159q-14 -25 -50 -24q-34 0 -36 23q-1 8 2 16l84 231q12 17 36.5 18t44 -16t7.5 -37zM143 614q187 163 281 359q66 142 80.5 234.5t-31.5 99.5q-46 4 -93.5 -70t-105.5 -221 q-73 -183 -131 -402z" />
<glyph unicode="&#x13f;" horiz-adv-x="1173" d="M1477 -238q-72 -24 -139 -30t-120 1t-108 32t-95 51t-88.5 69.5t-80 77t-79 83.5t-77.5 79q-56 -73 -109.5 -107t-138.5 -38q-59 -3 -105 10.5t-72 38t-41.5 57t-13.5 68t11 69.5q15 48 57.5 84t101.5 52.5t137 -1t153 -71.5q60 155 145 516t113 459 q-59 -66 -135.5 -120.5t-140.5 -88t-121.5 -65.5t-95.5 -70t-48 -84q-28 -140 94 -152q20 -2 26 -25.5t-5.5 -45.5t-36.5 -19q-56 5 -98.5 24t-64.5 46t-36 60.5t-12.5 66.5t6.5 63q17 74 69.5 126.5t127 89t155 73t173.5 99t161 144.5q10 46 61 47q43 2 65 -24 q11 -13 7 -27q-46 -151 -104.5 -407.5t-110.5 -452t-108 -301.5q35 -34 81.5 -82.5t77.5 -81.5t73 -72.5t75.5 -64t78 -46.5t88 -29t97 -3t111.5 23q16 10 35.5 -6t23 -41.5t-19.5 -53.5zM1104 575q-33 0 -55.5 24.5t-22.5 57.5q0 32 22 54.5t56 23.5q33 0 56.5 -23.5 t23.5 -56.5q-2 -33 -25 -56.5t-55 -23.5zM449 78q106 5 178 121q-42 43 -103 65t-117.5 7.5t-74.5 -70.5q-16 -49 13 -88t104 -35z" />
<glyph unicode="&#x140;" horiz-adv-x="548" d="M356 1366q88 71 166 42q70 -25 91 -115q25 -109 -40 -259q-145 -336 -454 -530q-86 -413 71 -418q51 -2 101.5 28.5t87 73t72.5 103.5t55.5 104.5t38.5 91.5q6 8 21 7t27.5 -14.5t6.5 -28.5q-40 -90 -70 -149t-73.5 -125t-86.5 -104t-101.5 -63t-125.5 -24 q-59 1 -98.5 29t-56.5 79.5t-22 114.5t6 146.5t27.5 162.5t41.5 174q63 238 145 421t170 253zM473 1307q-46 4 -93.5 -70t-105.5 -221q-73 -183 -131 -402q187 163 281 359q66 142 80.5 234.5t-31.5 99.5zM403 598q27 0 45.5 -18t18.5 -45q0 -26 -19 -45t-45 -19 q-27 0 -45 19t-18 47q0 26 17.5 43.5t45.5 17.5z" />
<glyph unicode="&#x141;" horiz-adv-x="1157" d="M1419 -96q16 10 35.5 -6t23 -41.5t-19.5 -53.5q-72 -30 -138 -41t-118 -7.5t-105 25t-91.5 45.5t-85 65.5t-77 74t-77 82t-76.5 78.5q-56 -73 -109.5 -107t-138.5 -38q-59 -3 -105 10.5t-72 38t-41.5 57t-13.5 68t11 69.5q15 48 57.5 84t101.5 52.5t137 -1t153 -71.5 q21 51 61 182q-104 -8 -141 -10q-20 -2 -29.5 18.5t-1 42t30.5 23.5l166 12q24 94 81 340t91 367q-59 -66 -136 -120.5t-140.5 -88t-121.5 -66t-96 -70t-47 -83.5q-28 -140 94 -152q20 -2 26 -25.5t-5.5 -45.5t-36.5 -19q-56 5 -98.5 24t-64.5 46t-36 60.5t-12.5 66.5 t6.5 63q16 74 68.5 126.5t127.5 89t155.5 73t173.5 99t161 144.5q10 46 61 47q43 2 65 -24q11 -13 7 -27q-42 -144 -107 -431.5t-91 -385.5q56 5 126.5 13.5t86.5 9.5q20 4 31.5 -15t4.5 -41t-30 -26q-16 -2 -61 -7.5t-92.5 -10.5t-92.5 -9q-54 -176 -98 -258 q35 -34 80.5 -82t75.5 -80t70 -69.5t72 -60t75 -41t84.5 -22t94 5.5t111.5 34zM449 78q106 5 178 121q-42 43 -103 65t-117.5 7.5t-74.5 -70.5q-16 -49 13 -88t104 -35z" />
<glyph unicode="&#x142;" horiz-adv-x="548" d="M147 -14q-232 5 -159 442h-33q-27 0 -36 26q-9 25 10 36q8 4 20 4h49q22 103 47 198q63 238 145 421t170 253q88 71 167 42q70 -25 91 -115q25 -109 -40 -259q-144 -335 -455 -530q0 -4 -2 -6q25 0 75 1t76 1q21 0 31.5 -17t3.5 -34t-31 -17q-156 -4 -167 -4 q-57 -337 86 -342q51 -2 101.5 28.5t87 73t72 103.5t55 104.5t38.5 91.5q6 8 21 7t27.5 -14.5t6.5 -28.5q-40 -90 -70 -149t-73.5 -125t-86.5 -104t-101.5 -63t-125.5 -24zM279 1016q-76 -190 -132 -402q187 163 281 359q66 142 80.5 234.5t-31.5 99.5q-46 4 -92.5 -70 t-105.5 -221z" />
<glyph unicode="&#x143;" horiz-adv-x="1818" d="M1452 1767q19 25 62 12q34 -10 38 -32q1 -9 -6 -18l-123 -154q-18 -24 -59 -17q-35 6 -36 28q0 8 5 16q48 70 119 165zM1507 1430q64 0 109 -21.5t68 -55t32.5 -81.5t7.5 -95t-11.5 -102t-19.5 -96t-22 -83q-6 -19 -8 -28q-13 -46 -34 -120t-34.5 -122.5t-31 -117.5 t-27.5 -115.5t-19.5 -106t-10.5 -100.5t3.5 -86.5t18 -76.5t36.5 -58t56 -43q20 -12 19 -38.5t-25.5 -48.5t-52.5 -11q-56 25 -94.5 63.5t-56.5 94.5t-27 111t0.5 137t19.5 146.5t37 166.5t46.5 169t53.5 180q3 9 4 13q17 54 28 105.5t16 110t-3 101.5t-37 71.5t-78 27.5 q-64 -1 -148 -65t-165 -164t-152 -206.5t-124 -207.5q-12 -39 -54.5 -192.5t-80.5 -276.5t-68 -193q-13 -30 -63 -35q-47 -5 -59 17q-5 9 -1 20q44 123 99.5 305.5t85.5 289t98.5 354.5t76.5 278q-59 -61 -134 -113t-136.5 -83.5t-117.5 -63t-92.5 -68.5t-45.5 -83 q-28 -140 94 -152q20 -2 26 -25.5t-5.5 -45.5t-36.5 -19q-56 5 -98.5 24t-64.5 46t-36 60.5t-12.5 66.5t6.5 63q16 74 68.5 127t128.5 90t157 73.5t174.5 100t161.5 146.5q8 35 39.5 40.5t57 -13t18.5 -42.5l-123 -454q290 512 563 510z" />
<glyph unicode="&#x144;" horiz-adv-x="907" d="M496 1204q19 25 62 12q35 -11 38 -33q1 -9 -6 -18l-123 -153q-18 -24 -59 -17q-35 5 -36 27q0 8 5 16q54 80 119 166zM512 868q74 -1 115 -41.5t45 -107.5t-15 -154q-13 -52 -45 -156.5t-45 -156.5q-1 -6 -4 -18q-5 -24 -7.5 -37t-6 -35t-2.5 -34.5t4 -26t12 -19.5t23 -6 q68 0 160.5 121t158.5 290q6 8 21 7t28 -14t7 -27q-27 -66 -56.5 -126t-70 -125.5t-81.5 -113t-90.5 -78t-97.5 -30.5q-149 0 -137 165q2 26 14.5 86t25.5 113t33 134.5t27 109.5q8 34 11.5 56.5t2.5 52.5t-16 46t-45 17q-73 1 -181 -96.5t-183 -223.5q-66 -226 -107 -415 q-4 -18 -39 -24.5t-65 6t-23 40.5q147 560 199 778q6 25 38 30t59.5 -10.5t21.5 -39.5q-36 -143 -58 -217q32 48 70.5 93.5t87 89.5t104.5 71t107 26z" />
<glyph unicode="&#x145;" horiz-adv-x="1818" d="M1507 1430q64 0 109 -21.5t68 -55t32.5 -81.5t7.5 -95t-11.5 -102t-19.5 -96t-22 -83q-6 -19 -8 -28q-13 -46 -34 -120t-34.5 -122.5t-31 -117.5t-27.5 -115.5t-19.5 -106t-10.5 -100.5t3.5 -86.5t18 -76.5t36.5 -58t56 -43q20 -12 19 -38.5t-25.5 -48.5t-52.5 -11 q-56 25 -94.5 63.5t-56.5 94.5t-27 111t0.5 137t19.5 146.5t37 166.5t46.5 169t53.5 180q3 9 4 13q17 54 28 105.5t16 110t-3 101.5t-37 71.5t-78 27.5q-64 -1 -148 -65t-165 -164t-152 -206.5t-124 -207.5q-12 -39 -54.5 -192.5t-80.5 -276.5t-68 -193q-13 -30 -63 -35 q-47 -5 -59 17q-5 9 -1 20q44 123 99.5 305.5t85.5 289t98.5 354.5t76.5 278q-59 -61 -134 -113t-136.5 -83.5t-117.5 -63t-92.5 -68.5t-45.5 -83q-28 -140 94 -152q20 -2 26 -25.5t-5.5 -45.5t-36.5 -19q-56 5 -98.5 24t-64.5 46t-36 60.5t-12.5 66.5t6.5 63 q16 74 68.5 127t128.5 90t157 73.5t174.5 100t161.5 146.5q8 35 39.5 40.5t57 -13t18.5 -42.5l-123 -454q290 512 563 510zM979 -199q9 20 37.5 25t50.5 -8t14 -35l-106 -258q-8 -26 -46 -30q-37 -5 -47 17q-4 8 -1 19q9 23 49 134.5t49 135.5z" />
<glyph unicode="&#x146;" horiz-adv-x="907" d="M512 868q74 -1 115 -41.5t45 -107.5t-15 -154q-13 -52 -45 -156.5t-45 -156.5q-1 -6 -4 -18q-5 -24 -7.5 -37t-6 -35t-2.5 -34.5t4 -26t12 -19.5t23 -6q68 0 160.5 121t158.5 290q6 8 21 7t28 -14t7 -27q-27 -66 -56.5 -126t-70 -125.5t-81.5 -113t-90.5 -78t-97.5 -30.5 q-149 0 -137 165q2 26 14.5 86t25.5 113t33 134.5t27 109.5q8 34 11.5 56.5t2.5 52.5t-16 46t-45 17q-73 1 -181 -96.5t-183 -223.5q-66 -226 -107 -415q-4 -18 -39 -24.5t-65 6t-23 40.5q147 560 199 778q6 25 38 30t59.5 -10.5t21.5 -39.5q-36 -143 -58 -217 q32 48 70.5 93.5t87 89.5t104.5 71t107 26zM162 -180q9 20 37.5 24.5t50.5 -8.5t14 -35l-106 -258q-8 -26 -47 -30t-48 18q-3 8 0 18q9 24 49.5 136t49.5 135z" />
<glyph unicode="&#x147;" horiz-adv-x="1818" d="M1442 1571q-24 -15 -53.5 -14.5t-47.5 14.5q-11 9 -31.5 31t-36 41t-39.5 47.5t-30 35.5q-18 20 13 36q35 18 66 4q9 -4 15 -11l101 -119l157 129q30 24 69 11q32 -11 27 -32q-1 -9 -12 -18q-128 -108 -198 -155zM1507 1430q64 0 109 -21.5t68 -55t32.5 -81.5t7.5 -95 t-11.5 -102t-19.5 -96t-22 -83q-6 -19 -8 -28q-13 -46 -34 -120t-34.5 -122.5t-31 -117.5t-27.5 -115.5t-19.5 -106t-10.5 -100.5t3.5 -86.5t18 -76.5t36.5 -58t56 -43q20 -12 19 -38.5t-25.5 -48.5t-52.5 -11q-56 25 -94.5 63.5t-56.5 94.5t-27 111t0.5 137t19.5 146.5 t37 166.5t46.5 169t53.5 180q3 9 4 13q17 54 28 105.5t16 110t-3 101.5t-37 71.5t-78 27.5q-64 -1 -148 -65t-165 -164t-152 -206.5t-124 -207.5q-12 -39 -54.5 -192.5t-80.5 -276.5t-68 -193q-13 -30 -63 -35q-47 -5 -59 17q-5 9 -1 20q44 123 99.5 305.5t85.5 289 t98.5 354.5t76.5 278q-59 -61 -134 -113t-136.5 -83.5t-117.5 -63t-92.5 -68.5t-45.5 -83q-28 -140 94 -152q20 -2 26 -25.5t-5.5 -45.5t-36.5 -19q-56 5 -98.5 24t-64.5 46t-36 60.5t-12.5 66.5t6.5 63q16 74 68.5 127t128.5 90t157 73.5t174.5 100t161.5 146.5 q8 35 39.5 40.5t57 -13t18.5 -42.5l-123 -454q290 512 563 510z" />
<glyph unicode="&#x148;" horiz-adv-x="907" d="M485 1008q-24 -15 -53 -14.5t-47 14.5q-11 9 -31.5 31t-36 41t-39.5 47.5t-30 35.5q-18 20 13 36q35 18 66 4q9 -4 15 -11l100 -119l158 129q30 24 69 11q32 -11 27 -32q-1 -9 -12 -18q-124 -104 -199 -155zM512 868q74 -1 115 -41.5t45 -107.5t-15 -154 q-13 -52 -45 -156.5t-45 -156.5q-1 -6 -4 -18q-5 -24 -7.5 -37t-6 -35t-2.5 -34.5t4 -26t12 -19.5t23 -6q68 0 160.5 121t158.5 290q6 8 21 7t28 -14t7 -27q-27 -66 -56.5 -126t-70 -125.5t-81.5 -113t-90.5 -78t-97.5 -30.5q-149 0 -137 165q2 26 14.5 86t25.5 113 t33 134.5t27 109.5q8 34 11.5 56.5t2.5 52.5t-16 46t-45 17q-73 1 -181 -96.5t-183 -223.5q-66 -226 -107 -415q-4 -18 -39 -24.5t-65 6t-23 40.5q147 560 199 778q6 25 38 30t59.5 -10.5t21.5 -39.5q-36 -143 -58 -217q32 48 70.5 93.5t87 89.5t104.5 71t107 26z" />
<glyph unicode="&#x14a;" horiz-adv-x="1847" d="M1845 487q6 8 20.5 6.5t27.5 -13.5t8 -25q-91 -222 -208.5 -354t-301.5 -218q-25 -103 -52 -182.5t-55.5 -131t-56 -86.5t-59 -53t-58.5 -25t-61 -9q-82 -5 -127.5 40t-36.5 132q5 48 33 94.5t64.5 81.5t95.5 74t103.5 63t110.5 58q27 81 61.5 203.5t60 223t69 273.5 t67.5 266q12 46 20.5 86t15.5 91t4 91t-13.5 75t-38 54t-68.5 19q-64 -1 -148 -65t-165 -164t-152 -206.5t-124 -207.5q-9 -29 -54 -188.5t-82.5 -282.5t-62.5 -187q-9 -24 -56 -36q-52 -14 -67 11q-5 10 -2 25q78 237 128 405.5t115 407t115 412.5q-59 -61 -134 -113 t-136.5 -83.5t-117.5 -63t-92.5 -68.5t-45.5 -83q-28 -140 94 -152q20 -2 26 -25.5t-5.5 -45.5t-36.5 -19q-56 5 -98.5 24t-64.5 46t-36 60.5t-12.5 66.5t6.5 63q16 74 68.5 127t128.5 90t157 73.5t174.5 100t161.5 146.5q8 35 39.5 40.5t57 -13t18.5 -42.5l-123 -454 q290 512 563 510q50 0 88.5 -13t62 -34.5t38.5 -53t21 -65t5 -74t-6 -77t-14 -78t-17 -72t-17 -63.5q-6 -22 -9 -32q-223 -814 -238 -872q131 52 243.5 180.5t180.5 310.5zM1231 -301l37 129q-195 -114 -244 -205q-32 -64 -12 -98t67 -23q43 10 85.5 60t66.5 137z" />
<glyph unicode="&#x14b;" horiz-adv-x="884" d="M86 -604q-82 -5 -127.5 40t-36.5 132q5 48 33 94.5t64.5 81.5t96 74t103.5 63t111 58q30 82 86 302t82 347q40 170 -54 172q-71 1 -167.5 -94t-174.5 -226q-38 -128 -106 -415q-4 -18 -35.5 -25t-58 5t-19.5 40q83 316 183 750q10 44 54 55q39 11 59 -12q11 -13 7 -33 q-34 -144 -55 -217q35 54 67 94.5t77.5 87.5t97 73t102.5 25q203 -3 131 -303q-17 -71 -53.5 -211.5t-64.5 -247.5t-29 -110q131 52 243.5 180.5t180.5 310.5q6 8 20 6.5t27 -13.5t8 -25q-91 -222 -208.5 -354t-301.5 -218q-25 -103 -52 -182.5t-55.5 -131t-56 -86.5 t-59 -53t-58.5 -25t-61 -9zM115 -498q43 10 85 60t68 137l37 129q-195 -114 -244 -205q-31 -62 -12 -97t66 -24z" />
<glyph unicode="&#x14c;" horiz-adv-x="1417" d="M727 1599q-20 0 -28.5 20.5t1.5 41t33 20.5q154 -2 361 -2q20 0 27.5 -20.5t-2.5 -41t-32 -20.5q-64 0 -172 1t-188 1zM887 1427q85 -11 149.5 -49t102 -91t59.5 -122.5t27.5 -140.5t0.5 -149.5t-16.5 -143.5t-27.5 -129q140 22 286 105q16 11 21 -16q6 -35 -14 -58 l-9 -8q-163 -94 -313 -115q-37 -109 -91 -203t-123.5 -169.5t-158.5 -117.5t-186 -40q-220 3 -318 176q-77 134 -58.5 350t124.5 385q7 9 21 9.5t27.5 -6t25 -17.5t14.5 -25t-4 -29q-38 -78 -62.5 -173t-27 -193t19 -180t82 -135.5t154.5 -57.5q73 -3 140.5 30t120.5 93.5 t95 134.5t74 162q-133 6 -248 64.5t-188.5 148.5t-105 205.5t-7.5 230.5q22 102 85 169.5t147.5 92.5t181.5 12zM879 1317q-228 28 -279 -180q-31 -129 19 -251t166 -201.5t268 -88.5q20 70 32.5 154.5t11.5 182t-19.5 178t-69 138.5t-129.5 68z" />
<glyph unicode="&#x14d;" horiz-adv-x="925" d="M283 1032q-20 0 -28.5 20.5t1.5 41t33 20.5q154 -2 360 -2q20 0 28 -20.5t-2 -41t-32 -20.5q-64 0 -172 1t-188 1zM446 868q99 4 162 -38.5t84.5 -114t16 -161t-36.5 -182t-80 -173.5q45 -3 82.5 5t82 35.5t87.5 90t80 157.5q6 7 20.5 6t27.5 -13.5t7 -26.5 q-36 -89 -78.5 -154.5t-86 -101.5t-90.5 -56t-92.5 -18t-92.5 14q-132 -155 -318 -155q-61 0 -111 20t-90.5 65t-53.5 118.5t1 181.5q20 132 89 245t172.5 182t217.5 74zM438 768q-80 -5 -157 -73.5t-125 -161t-60 -177.5q-9 -51 -4 -100t19 -87.5t48 -62.5t83 -24 q114 0 204 108q-20 30 -14.5 56.5t29 40t45.5 0.5q40 82 61.5 166.5t20.5 157.5t-39 117t-111 40z" />
<glyph unicode="&#x150;" horiz-adv-x="1417" d="M815 1759q9 20 35 26t46 -6t13 -34l-67 -164q-11 -26 -45 -26q-33 -1 -38 22q-2 8 1 18q5 16 26 76.5t29 87.5zM1018 1759q8 20 34 26t46.5 -6t13.5 -34l-72 -166q-9 -20 -32.5 -26t-41 5.5t-10.5 34.5q9 26 32 85t30 81zM887 1427q85 -11 149.5 -49t102 -91t59.5 -122.5 t27.5 -140.5t0.5 -149.5t-16.5 -143.5t-27.5 -129q140 22 286 105q16 11 21 -16q6 -35 -14 -58l-9 -8q-163 -94 -313 -115q-37 -109 -91 -203t-123.5 -169.5t-158.5 -117.5t-186 -40q-220 3 -318 176q-77 134 -58.5 350t124.5 385q7 9 21 9.5t27.5 -6t25 -17.5t14.5 -25 t-4 -29q-38 -78 -62.5 -173t-27 -193t19 -180t82 -135.5t154.5 -57.5q73 -3 140.5 30t120.5 93.5t95 134.5t74 162q-133 6 -248 64.5t-188.5 148.5t-105 205.5t-7.5 230.5q22 102 85 169.5t147.5 92.5t181.5 12zM879 1317q-228 28 -279 -180q-31 -129 19 -251t166 -201.5 t268 -88.5q20 70 32.5 154.5t11.5 182t-19.5 178t-69 138.5t-129.5 68z" />
<glyph unicode="&#x151;" horiz-adv-x="925" d="M371 1192q9 20 35 26t46 -6t13 -34l-68 -164q-11 -26 -45 -26q-33 -1 -38 22q-2 8 1 18q6 18 27 78t29 86zM573 1192q8 20 34 26t47 -6t14 -34l-72 -166q-9 -20 -32.5 -26t-41 5.5t-10.5 34.5q9 26 31.5 85.5t29.5 80.5zM446 868q99 4 162 -38.5t84.5 -114t16 -161 t-36.5 -182t-80 -173.5q45 -3 82.5 5t82 35.5t87.5 90t80 157.5q6 7 20.5 6t27.5 -13.5t7 -26.5q-36 -89 -78.5 -154.5t-86 -101.5t-90.5 -56t-92.5 -18t-92.5 14q-132 -155 -318 -155q-61 0 -111 20t-90.5 65t-53.5 118.5t1 181.5q20 132 89 245t172.5 182t217.5 74z M438 768q-80 -5 -157 -73.5t-125 -161t-60 -177.5q-9 -51 -4 -100t19 -87.5t48 -62.5t83 -24q114 0 204 108q-20 30 -14.5 56.5t29 40t45.5 0.5q40 82 61.5 166.5t20.5 157.5t-39 117t-111 40z" />
<glyph unicode="&#x152;" horiz-adv-x="1945" d="M1442 -23q-69 0 -132 15t-121.5 47t-98.5 91t-52 140q-85 -134 -199 -213.5t-245 -76.5q-220 3 -318 176q-77 134 -58.5 350t124.5 385q7 9 21 9.5t27.5 -6t25 -17.5t14.5 -25t-4 -29q-38 -78 -62.5 -173t-27 -193t19 -180t82 -135.5t154.5 -57.5q76 -3 145.5 32.5 t123.5 100t96 142.5t73 171q65 193 70 368.5t-53 290t-168 128.5q-228 28 -279 -180q-36 -147 26 -288.5t210 -215.5q13 -10 11.5 -31.5t-19 -39.5t-37.5 -9q-121 58 -202.5 160t-110 216.5t-5.5 223.5q22 102 85 169t147.5 92t181.5 13q104 -13 178 -75t110 -159.5t43 -225 t-24 -271.5q69 46 154.5 71t171.5 21q-87 54 -127 147.5t-21 196t94 179.5q-5 41 2.5 105.5t20.5 105.5q5 13 22.5 16t31.5 -6t9 -25q-7 -24 -10 -74.5t0 -78.5q105 59 236 53q112 -4 174.5 -66t62.5 -143q0 -83 -62.5 -142t-176.5 -59q-102 0 -172.5 52.5t-100.5 126.5 q-57 -121 10 -238.5t211 -165.5q14 -8 13 -29t-14.5 -42t-28.5 -17q-68 21 -141.5 22.5t-141.5 -17t-125.5 -52t-98 -86.5t-54.5 -117q-30 -145 67 -250.5t254 -105.5q331 0 488 405q6 11 21 10t28.5 -13t7.5 -25q-99 -259 -235 -368.5t-322 -109.5zM1774 1098q61 0 95 29 t34 69q0 45 -41.5 79t-114.5 34q-106 0 -180 -58q64 -153 207 -153z" />
<glyph unicode="&#x153;" horiz-adv-x="1327" d="M414 868q103 -2 170.5 -63t79.5 -180q63 115 167.5 181t198.5 60q70 -4 116.5 -36.5t63 -79.5t12 -102t-31.5 -107q-63 -124 -197.5 -165.5t-318.5 13.5q-14 -58 -9 -112.5t23.5 -97t60 -69.5t99.5 -28q78 -2 139 13.5t121 58.5t113.5 125t103.5 206q6 8 20.5 7.5 t27.5 -13t7 -26.5q-36 -93 -78.5 -167.5t-81.5 -122.5t-84 -83.5t-80.5 -54t-78.5 -29t-69.5 -13t-61.5 -3.5q-115 -1 -189 63.5t-86 173.5q-65 -122 -150.5 -178.5t-207.5 -56.5q-48 0 -89 12.5t-77 40.5t-57 72.5t-29.5 109t6.5 150.5q21 136 80.5 249t156 183.5 t210.5 68.5zM1006 770q-88 6 -184 -90t-130 -221q138 -36 234.5 -10t146.5 110q21 36 30 71.5t4.5 66t-30 50.5t-71.5 23zM399 770q-63 1 -119 -40.5t-93.5 -108.5t-61.5 -137.5t-33 -137.5q-7 -69 -2.5 -128t40.5 -98.5t101 -39.5q76 0 139 42t102 108.5t62 134.5t33 135 q35 265 -168 270z" />
<glyph unicode="&#x154;" horiz-adv-x="1499" d="M969 1769q19 25 62 12q34 -10 38 -32q1 -9 -6 -18l-123 -154q-18 -24 -59 -17q-35 6 -36 28q0 8 5 16q48 70 119 165zM1368 -195q-73 5 -130.5 39.5t-94 84.5t-63 121.5t-40 136.5t-22.5 143q-20 181 -129 225q-35 -3 -95 -2t-83 4q-115 -437 -185 -539q-9 -13 -25.5 -17 t-33 0t-30.5 13.5t-18 24.5t3 31q49 70 95.5 223.5t92 345t68.5 262.5q78 240 194 311q33 21 79 5q36 -12 33 -33q-2 -10 -13 -19q-54 -44 -91 -99t-74.5 -158.5t-72.5 -264.5q240 -15 384 76t163 272q17 163 -89 245.5t-300 82.5q-126 0 -237 -47.5t-179.5 -134 t-68.5 -189.5t69 -184q13 -21 -2 -42t-37.5 -25.5t-36.5 8.5q-134 110 -112 294q20 133 111 232.5t222 149t283 49.5q245 0 385 -116.5t119 -316.5q-18 -168 -116.5 -271t-258.5 -146q71 -53 101 -250q7 -44 13 -75t18.5 -78.5t26 -81t35.5 -71.5t47.5 -62t62 -41.5 t79.5 -20.5q28 0 23 -31q-5 -34 -36 -54q-16 -11 -34 -10z" />
<glyph unicode="&#x155;" horiz-adv-x="722" d="M442 1204q19 25 61 12q35 -10 40 -32q1 -10 -6 -19l-123 -153q-18 -24 -59 -17q-35 5 -36 27q0 8 5 16q62 92 118 166zM16 369q-6 -6 -20.5 -3t-27.5 14t-7 19q60 137 91 233.5t69 248.5q-68 91 -41 155q17 40 58 45q44 5 66 -38q23 -45 5 -123q17 -21 44.5 -50.5 t49.5 -54t47 -53.5t41 -54t26.5 -50t8 -47.5t-17.5 -41.5q-180 -221 -175 -366q2 -55 28 -87.5t75 -33.5q92 -3 198.5 101t186.5 304q6 8 20 6t27 -14.5t8 -25.5q-94 -232 -213.5 -355t-261.5 -116q-96 4 -146.5 66.5t-52.5 156.5q-1 91 44.5 184t129.5 209q13 18 14 38.5 t-5.5 38.5t-21 40t-28 38t-32.5 38t-29 34q-24 -91 -38 -140.5t-46.5 -138.5t-73.5 -177z" />
<glyph unicode="&#x156;" horiz-adv-x="1499" d="M1368 -195q-73 5 -130.5 39.5t-94 84.5t-63 121.5t-40 136.5t-22.5 143q-20 181 -129 225q-35 -3 -95 -2t-83 4q-115 -437 -185 -539q-9 -13 -25.5 -17t-33 0t-30.5 13.5t-18 24.5t3 31q49 70 95.5 223.5t92 345t68.5 262.5q78 240 194 311q33 21 79 5q36 -12 33 -33 q-2 -10 -13 -19q-54 -44 -91 -99t-74.5 -158.5t-72.5 -264.5q240 -15 384 76t163 272q17 163 -89 245.5t-300 82.5q-126 0 -237 -47.5t-179.5 -134t-68.5 -189.5t69 -184q13 -21 -2 -42t-37.5 -25.5t-36.5 8.5q-134 110 -112 294q20 133 111 232.5t222 149t283 49.5 q245 0 385 -116.5t119 -316.5q-18 -168 -116.5 -271t-258.5 -146q71 -53 101 -250q7 -44 13 -75t18.5 -78.5t26 -81t35.5 -71.5t47.5 -62t62 -41.5t79.5 -20.5q28 0 23 -31q-5 -34 -36 -54q-16 -11 -34 -10zM721 -180q9 20 37.5 24.5t50.5 -8.5t14 -35l-106 -258 q-8 -26 -46 -30q-37 -5 -47 17q-4 8 -1 19q9 24 49 135.5t49 135.5z" />
<glyph unicode="&#x157;" horiz-adv-x="722" d="M16 369q-6 -6 -20.5 -3t-27.5 14t-7 19q60 137 91 233.5t69 248.5q-68 91 -41 155q17 40 58 45q44 5 66 -38q23 -45 5 -123q17 -21 44.5 -50.5t49.5 -54t47 -53.5t41 -54t26.5 -50t8 -47.5t-17.5 -41.5q-180 -221 -175 -366q2 -55 28 -87.5t75 -33.5q92 -3 198.5 101 t186.5 304q6 8 20 6t27 -14.5t8 -25.5q-94 -232 -213.5 -355t-261.5 -116q-96 4 -146.5 66.5t-52.5 156.5q-1 91 44.5 184t129.5 209q13 18 14 38.5t-5.5 38.5t-21 40t-28 38t-32.5 38t-29 34q-24 -91 -38 -140.5t-46.5 -138.5t-73.5 -177zM238 -199q9 20 37.5 25t50.5 -8 t14 -35l-107 -258q-8 -26 -46 -30q-37 -5 -47 17q-4 8 -1 19q9 23 49.5 135t49.5 135z" />
<glyph unicode="&#x158;" horiz-adv-x="1499" d="M958 1573q-24 -15 -53 -14.5t-47 14.5q-15 12 -38.5 38.5t-60 71t-38.5 46.5q-18 20 13 36q35 17 66 3q9 -4 15 -11l100 -119l158 129q30 24 69 11q31 -10 28 -31q-3 -10 -13 -18q-130 -109 -199 -156zM1368 -195q-73 5 -130.5 39.5t-94 84.5t-63 121.5t-40 136.5 t-22.5 143q-20 181 -129 225q-35 -3 -95 -2t-83 4q-115 -437 -185 -539q-9 -13 -25.5 -17t-33 0t-30.5 13.5t-18 24.5t3 31q49 70 95.5 223.5t92 345t68.5 262.5q78 240 194 311q33 21 79 5q36 -12 33 -33q-2 -10 -13 -19q-54 -44 -91 -99t-74.5 -158.5t-72.5 -264.5 q240 -15 384 76t163 272q17 163 -89 245.5t-300 82.5q-126 0 -237 -47.5t-179.5 -134t-68.5 -189.5t69 -184q13 -21 -2 -42t-37.5 -25.5t-36.5 8.5q-134 110 -112 294q20 133 111 232.5t222 149t283 49.5q245 0 385 -116.5t119 -316.5q-18 -168 -116.5 -271t-258.5 -146 q71 -53 101 -250q7 -44 13 -75t18.5 -78.5t26 -81t35.5 -71.5t47.5 -62t62 -41.5t79.5 -20.5q28 0 23 -31q-5 -34 -36 -54q-16 -11 -34 -10z" />
<glyph unicode="&#x159;" horiz-adv-x="722" d="M432 1008q-24 -15 -53 -14.5t-47 14.5q-11 9 -31.5 31t-36 41t-39.5 47.5t-30 35.5q-18 20 13 36q35 18 66 4q9 -4 15 -11l100 -119l158 129q30 24 69 11q32 -11 27 -32q-1 -9 -12 -18q-124 -104 -199 -155zM16 369q-6 -6 -20.5 -3t-27.5 14t-7 19q60 137 91 233.5 t69 248.5q-68 91 -41 155q17 40 58 45q44 5 66 -38q23 -45 5 -123q17 -21 44.5 -50.5t49.5 -54t47 -53.5t41 -54t26.5 -50t8 -47.5t-17.5 -41.5q-180 -221 -175 -366q2 -55 28 -87.5t75 -33.5q92 -3 198.5 101t186.5 304q6 8 20 6t27 -14.5t8 -25.5q-94 -232 -213.5 -355 t-261.5 -116q-96 4 -146.5 66.5t-52.5 156.5q-1 91 44.5 184t129.5 209q13 18 14 38.5t-5.5 38.5t-21 40t-28 38t-32.5 38t-29 34q-24 -91 -38 -140.5t-46.5 -138.5t-73.5 -177z" />
<glyph unicode="&#x15a;" horiz-adv-x="1181" d="M887 1767q19 25 62 12q34 -10 38 -32q1 -9 -6 -18l-123 -154q-18 -24 -59 -17q-35 6 -36 28q0 8 5 16q48 70 119 165zM1102 1094q-2 -24 -25.5 -33.5t-46 0.5t-20.5 33q6 117 -52.5 174t-160.5 59q-82 3 -143 -48t-68 -159q-4 -55 16.5 -110.5t56 -103t79.5 -96 t87.5 -98.5t79.5 -101t56.5 -112.5t17.5 -125.5q-9 -183 -121.5 -287.5t-304.5 -103.5q-107 1 -188.5 47t-122.5 125t-47.5 184t36.5 223q3 17 29.5 19t48.5 -12t15 -36q-37 -135 -14 -233.5t92.5 -154t166.5 -56.5q130 -1 203.5 75.5t81.5 219.5q3 56 -19 111t-58.5 101 t-81 92.5t-88.5 95t-79 99t-54 114t-13 130.5q13 145 104.5 226.5t237.5 81.5q163 -1 242 -97t57 -243z" />
<glyph unicode="&#x15b;" horiz-adv-x="821" d="M399 1262q19 25 61 12q35 -10 40 -32q1 -10 -6 -19l-123 -154q-18 -24 -59 -17q-35 6 -36 28q0 8 5 16q62 92 118 166zM233 -18q-113 2 -168.5 92t-5.5 227q7 22 30 26.5t41.5 -6.5t14.5 -26q-28 -100 5.5 -156.5t101.5 -54.5q44 1 82.5 25t56.5 57q-26 20 -28 54 t16.5 57.5t44.5 17.5q5 46 -15.5 115.5t-48 133t-50 146.5t-19.5 152q-80 -80 -134.5 -178t-140.5 -293q-6 -8 -19.5 -6t-26.5 13.5t-9 20.5q159 394 309 516q63 53 111 33q31 -13 29 -47q-2 -22 -21 -41q3 -76 24 -155.5t46 -135t47.5 -123t27 -121.5t-13.5 -130 q184 0 299 292q6 8 20.5 6.5t27.5 -14.5t7 -26q-76 -188 -176.5 -264t-208.5 -66q-39 -67 -109.5 -105t-146.5 -36z" />
<glyph unicode="&#x15e;" horiz-adv-x="1181" d="M803 1434q163 -1 242 -97t57 -243q-2 -24 -25.5 -33.5t-46 0.5t-20.5 33q6 117 -52.5 174t-160.5 59q-82 3 -143 -48t-68 -159q-4 -55 16.5 -110.5t56 -103t79.5 -96t87.5 -98.5t79.5 -101t56.5 -112.5t17.5 -125.5q-8 -166 -102.5 -269t-258.5 -120l-53 -93 q54 -4 89.5 -25.5t48 -52t8 -66t-26.5 -69.5q-28 -44 -74.5 -69t-115.5 -20.5t-142 49.5q-11 10 -10.5 28t14.5 31t31 2q42 -25 79 -32.5t62.5 1.5t43.5 24t28 36q19 42 -3.5 75t-84.5 25q-22 -3 -34.5 9t-0.5 36l60 109q-103 4 -181 52t-117 126.5t-44.5 181.5t36.5 219 q3 17 29.5 19t48.5 -12t15 -36q-37 -135 -14 -233.5t92.5 -154t166.5 -56.5q130 -1 203.5 75.5t81.5 219.5q3 56 -19 111t-58.5 101t-81 92.5t-88.5 95t-79 99t-54 114t-13 130.5q13 145 104.5 226.5t237.5 81.5z" />
<glyph unicode="&#x15f;" horiz-adv-x="821" d="M819 487q6 8 20.5 6.5t27.5 -14.5t7 -26q-76 -188 -176.5 -264t-208.5 -66q-58 -102 -176 -131l-57 -101q54 -4 89.5 -25.5t48 -52t8 -66t-26.5 -69.5q-28 -44 -74.5 -69t-115.5 -20.5t-142 49.5q-11 10 -10.5 28t14.5 31t31 2q42 -25 79 -32.5t62.5 1.5t43.5 24t28 36 q19 42 -3.5 75t-84.5 25q-22 -3 -34.5 9t-0.5 36l59 109q-111 5 -164 94t-4 225q7 22 30 26.5t41.5 -6.5t14.5 -26q-28 -100 5.5 -156.5t101.5 -54.5q44 1 82.5 25t56.5 57q-26 20 -28 54t16.5 57.5t44.5 17.5q5 46 -15.5 115.5t-48 133t-50 146.5t-19.5 152 q-80 -80 -134.5 -178t-140.5 -293q-6 -8 -19.5 -6t-26.5 13.5t-9 20.5q159 394 309 516q63 53 111 33q31 -13 29 -47q-2 -22 -21 -41q3 -76 24 -155.5t46 -135t47.5 -123t27 -121.5t-13.5 -130q184 0 299 292z" />
<glyph unicode="&#x160;" horiz-adv-x="1181" d="M877 1571q-24 -15 -53.5 -14.5t-47.5 14.5q-11 9 -31.5 31t-36 41t-39.5 47.5t-30 35.5q-18 20 13 36q35 18 66 4q9 -4 15 -11l101 -119l157 129q30 24 69 11q32 -11 27 -32q-1 -9 -12 -18q-128 -108 -198 -155zM1102 1094q-2 -24 -25.5 -33.5t-46 0.5t-20.5 33 q6 117 -52.5 174t-160.5 59q-82 3 -143 -48t-68 -159q-4 -55 16.5 -110.5t56 -103t79.5 -96t87.5 -98.5t79.5 -101t56.5 -112.5t17.5 -125.5q-9 -183 -121.5 -287.5t-304.5 -103.5q-107 1 -188.5 47t-122.5 125t-47.5 184t36.5 223q3 17 29.5 19t48.5 -12t15 -36 q-37 -135 -14 -233.5t92.5 -154t166.5 -56.5q130 -1 203.5 75.5t81.5 219.5q3 56 -19 111t-58.5 101t-81 92.5t-88.5 95t-79 99t-54 114t-13 130.5q13 145 104.5 226.5t237.5 81.5q163 -1 242 -97t57 -243z" />
<glyph unicode="&#x161;" horiz-adv-x="821" d="M389 1065q-24 -15 -53 -14.5t-47 14.5q-15 12 -38.5 38.5t-60 71t-38.5 46.5q-18 20 13 36q35 17 66 3q9 -4 15 -11l100 -119l158 130q30 24 69 11q32 -11 27 -32q-1 -9 -12 -18q-130 -109 -199 -156zM233 -18q-113 2 -168.5 92t-5.5 227q7 22 30 26.5t41.5 -6.5 t14.5 -26q-28 -100 5.5 -156.5t101.5 -54.5q44 1 82.5 25t56.5 57q-26 20 -28 54t16.5 57.5t44.5 17.5q5 46 -15.5 115.5t-48 133t-50 146.5t-19.5 152q-80 -80 -134.5 -178t-140.5 -293q-6 -8 -19.5 -6t-26.5 13.5t-9 20.5q159 394 309 516q63 53 111 33q31 -13 29 -47 q-2 -22 -21 -41q3 -76 24 -155.5t46 -135t47.5 -123t27 -121.5t-13.5 -130q184 0 299 292q6 8 20.5 6.5t27.5 -14.5t7 -26q-76 -188 -176.5 -264t-208.5 -66q-39 -67 -109.5 -105t-146.5 -36z" />
<glyph unicode="&#x162;" horiz-adv-x="1406" d="M512 1423q102 18 180 6.5t160.5 -42t145 -63t134 -58t128.5 -25.5q198 0 227 150q0 24 33 22q34 -2 48 -24q5 -7 5 -15q-20 -141 -131 -198q-163 -86 -424 22q-24 -84 -71 -277t-95 -378q-25 -96 -47 -167.5t-49.5 -138.5t-58 -112t-68.5 -80t-84.5 -51.5t-102.5 -16.5 q-65 -1 -117 17.5t-83.5 50t-52 73t-22.5 85.5t5 88q23 99 102 180q17 24 50.5 1.5t21.5 -46.5q-57 -79 -62.5 -159.5t43.5 -132t140 -48.5q33 1 61.5 16t51.5 45.5t41.5 62.5t36 82t29.5 88.5t28 96.5q56 207 100.5 378t66 253.5t36.5 134.5q-116 53 -201.5 76.5 t-175.5 9.5q-106 -16 -149 -93q-34 -62 -7 -119q30 -62 110 -63q62 1 138 40q16 9 34 -6t20.5 -35.5t-11.5 -32.5q-86 -55 -163.5 -69.5t-131 7t-88.5 63.5t-45 97q-12 62 10 122t87.5 111.5t166.5 71.5zM453 -203q9 20 37.5 25t50.5 -8t14 -35l-106 -258q-8 -26 -47 -30 t-48 18q-3 8 0 18q9 23 49.5 135t49.5 135z" />
<glyph unicode="&#x163;" horiz-adv-x="569" d="M162 -20q-57 -1 -97.5 17.5t-61 59t-32.5 83t-6.5 111.5t10.5 120t24.5 133.5t31 127t32.5 123.5q2 7 3 11h-74q-24 16 -20.5 46.5t24.5 43.5h94q75 245 170 475q4 10 18 13.5t30.5 0.5t32 -9.5t24 -16.5t4.5 -21q-65 -163 -154 -442h215q22 -12 14.5 -50t-26.5 -40h-228 q-55 -195 -81 -322q-78 -362 84 -362q58 0 119 40.5t110 104t86.5 130.5t60.5 130q6 8 20.5 6.5t27 -15t6.5 -27.5q-82 -214 -200.5 -341t-260.5 -130zM72 -199q9 20 37.5 25t50.5 -8t14 -35l-106 -258q-8 -26 -47 -30t-48 18q-3 8 0 18q9 23 49.5 135t49.5 135z" />
<glyph unicode="&#x164;" horiz-adv-x="1406" d="M1059 1573q-24 -15 -53.5 -14.5t-47.5 14.5q-15 12 -38.5 38.5t-60 71t-38.5 46.5q-18 20 13 36q35 17 66 3q9 -4 15 -11l101 -119l158 129q30 25 70 11q30 -11 26 -31q-3 -10 -13 -18q-134 -113 -198 -156zM512 1423q102 18 180 6.5t160.5 -42t145 -63t134 -58 t128.5 -25.5q198 0 227 150q0 24 33 22q34 -2 48 -24q5 -7 5 -15q-20 -141 -131 -198q-163 -86 -424 22q-24 -84 -71 -277t-95 -378q-25 -96 -47 -167.5t-49.5 -138.5t-58 -112t-68.5 -80t-84.5 -51.5t-102.5 -16.5q-65 -1 -117 17.5t-83.5 50t-52 73t-22.5 85.5t5 88 q23 99 102 180q17 24 50.5 1.5t21.5 -46.5q-57 -79 -62.5 -159.5t43.5 -132t140 -48.5q33 1 61.5 16t51.5 45.5t41.5 62.5t36 82t29.5 88.5t28 96.5q56 207 100.5 378t66 253.5t36.5 134.5q-116 53 -201.5 76.5t-175.5 9.5q-106 -16 -149 -93q-34 -62 -7 -119 q30 -62 110 -63q62 1 138 40q16 9 34 -6t20.5 -35.5t-11.5 -32.5q-86 -55 -163.5 -69.5t-131 7t-88.5 63.5t-45 97q-12 62 10 122t87.5 111.5t166.5 71.5z" />
<glyph unicode="&#x165;" horiz-adv-x="569" d="M162 -20q-57 -1 -97.5 17.5t-61 59t-32.5 83t-6.5 111.5t10.5 120t24.5 133.5t31 127t32.5 123.5q2 7 3 11h-99q-24 16 -20.5 46.5t24.5 43.5h119q75 245 170 475q4 10 18 13.5t30.5 0.5t32 -9.5t24 -16.5t4.5 -21q-65 -163 -154 -442h215q22 -12 14.5 -50t-26.5 -40 h-228q-55 -195 -81 -322q-78 -362 84 -362q58 0 119 40.5t110 104t86.5 130.5t60.5 130q6 8 20.5 6.5t27 -15t6.5 -27.5q-82 -214 -200.5 -341t-260.5 -130zM512 1303q5 19 29.5 23.5t44 -8.5t12.5 -34l-55 -188q-9 -27 -42 -31q-31 -5 -38 18q-2 8 0 17q5 26 24.5 103.5 t24.5 99.5z" />
<glyph unicode="&#x166;" horiz-adv-x="1568" d="M444 -23q-135 -1 -211 79t-65 194q10 120 108 221q17 24 50.5 1.5t21.5 -46.5q-57 -79 -62.5 -159.5t43.5 -132t140 -48.5q35 1 63.5 15t51.5 43.5t42 66.5t38 94.5t36 116t39 140.5q3 11 5 18.5t4 15.5q-47 2 -138 2q-20 0 -31 19.5t-3.5 39t30.5 19.5q28 0 82 -1t80 -1 q37 138 70 264.5t50 192.5t30 112q-114 52 -200 75t-175 11q-95 -13 -140 -74t-24 -120q47 -139 256 -41q16 9 33.5 -6t19.5 -35.5t-12 -32.5q-86 -55 -163.5 -69.5t-131 7t-88.5 63.5t-45 97q-12 62 10.5 122t88.5 111.5t167 71.5q102 18 180 6.5t160.5 -42t145 -63 t134 -58t128.5 -25.5q198 0 227 150q0 24 33 22q34 -2 48 -24q5 -7 5 -15q-18 -124 -101 -180.5t-206 -54.5q-115 3 -248 59q-19 -63 -35 -126t-43.5 -178t-54.5 -222q139 0 198 2q20 1 29 -18t-0.5 -39t-32.5 -21q-66 -2 -215 -2q-34 -136 -63 -228t-65.5 -170.5 t-77.5 -123.5t-94.5 -69.5t-121.5 -25.5z" />
<glyph unicode="&#x167;" horiz-adv-x="569" d="M162 -20q-64 -1 -107 25t-63.5 69.5t-25.5 108t1.5 130.5t22.5 146h-41q-13 0 -18 19.5t2 39t22 19.5q8 0 25.5 -1t25.5 -1q11 49 35 137t25 94h-99q-24 16 -20.5 46.5t24.5 43.5h119q75 245 170 475q4 10 18 13.5t30.5 0.5t32 -9.5t24 -16.5t4.5 -21q-65 -163 -154 -442 h215q22 -12 14.5 -50t-26.5 -40h-228q-40 -138 -61 -234q27 0 84 1.5t84 1.5q13 -1 15 -19t-7.5 -37t-25.5 -22q-57 -2 -168 -2q-15 -60 -22 -119.5t-4 -119.5t30.5 -97t77.5 -37q58 0 119 40.5t110 104t86.5 130.5t60.5 130q6 8 20.5 6.5t27 -15t6.5 -27.5 q-82 -214 -200.5 -341t-260.5 -130z" />
<glyph unicode="&#x16a;" horiz-adv-x="1777" d="M1126 1599q-20 0 -28 20.5t2 41t33 20.5q154 -2 360 -2q20 0 28 -20.5t-2 -41t-32 -20.5q-64 0 -172.5 1t-188.5 1zM913 1399q8 29 39.5 31t56 -19t15.5 -49q-36 -115 -65 -218.5t-45 -163.5t-63 -245t-79 -307q-15 -60 -21.5 -114t-1.5 -106.5t33 -83.5t78 -30 q91 1 190 73t167 167.5t94 179.5q94 309 221 823q9 33 47 30q39 -2 57 -35q13 -23 4 -52q-107 -359 -208 -762q-103 -427 30 -424q56 1 120 67.5t111.5 151t82.5 174.5q6 10 20 7.5t27 -15t8 -24.5q-20 -47 -34 -78.5t-40 -83.5t-48.5 -87.5t-55.5 -77.5t-65 -67.5t-72 -43 t-82 -17.5q-81 0 -119 76t-29 209q-80 -130 -196 -218t-250 -87q-64 0 -109.5 20.5t-68.5 58t-34 84.5t-7 108.5t15 120.5t30 130q82 315 200 737q-58 -60 -132 -110.5t-134.5 -82t-115.5 -62.5t-91 -68t-45 -82q-28 -140 94 -152q20 -2 26 -25.5t-5.5 -45.5t-36.5 -19 q-56 5 -98.5 24t-64.5 46t-36 60.5t-12.5 66.5t6.5 63q12 56 43.5 98.5t75.5 72.5t96.5 56t114.5 55t121.5 62t124 85.5t116.5 117.5z" />
<glyph unicode="&#x16b;" horiz-adv-x="921" d="M242 1032q-20 0 -28.5 20.5t1.5 41t33 20.5q154 -2 360 -2q20 0 28 -20.5t-2 -41t-32 -20.5q-64 0 -172 1t-188 1zM586 825q6 20 38 23.5t59 -11t19 -36.5q-27 -78 -56.5 -182t-57.5 -229t-25 -210t47 -86q70 -3 159 114.5t151 278.5q6 16 31 4q27 -12 26 -32l-2 -6 q-69 -154 -106 -218q-138 -235 -294 -235q-43 0 -73 24.5t-40.5 61.5t-12.5 80.5t10 81.5q-86 -148 -182 -209.5t-191 -54.5q-74 5 -117.5 63.5t-29.5 161.5q20 134 83.5 366t65.5 242q6 25 37 30t58 -7.5t22 -32.5q-10 -40 -36.5 -141.5t-52 -203t-44.5 -186.5 q-8 -41 -10.5 -71.5t2 -60t23 -45.5t50.5 -17q75 -2 171 79t151 230q34 92 127 434z" />
<glyph unicode="&#x16e;" horiz-adv-x="1777" d="M1331 1812q67 -2 106 -41.5t33 -103.5q-6 -70 -56.5 -110.5t-117.5 -38.5q-63 2 -101 43t-32 104q6 65 54.5 107t113.5 40zM1325 1743q-33 0 -56 -22t-28 -56q-4 -32 14.5 -54t49.5 -22q37 0 60 20.5t28 55.5q4 35 -15 56.5t-53 21.5zM913 1399q8 29 39.5 31t56 -19 t15.5 -49q-36 -115 -65 -218.5t-45 -163.5t-63 -245t-79 -307q-15 -60 -21.5 -114t-1.5 -106.5t33 -83.5t78 -30q91 1 190 73t167 167.5t94 179.5q94 309 221 823q9 33 47 30q39 -2 57 -35q13 -23 4 -52q-107 -359 -208 -762q-103 -427 30 -424q56 1 120 67.5t111.5 151 t82.5 174.5q6 10 20 7.5t27 -15t8 -24.5q-20 -47 -34 -78.5t-40 -83.5t-48.5 -87.5t-55.5 -77.5t-65 -67.5t-72 -43t-82 -17.5q-81 0 -119 76t-29 209q-80 -130 -196 -218t-250 -87q-64 0 -109.5 20.5t-68.5 58t-34 84.5t-7 108.5t15 120.5t30 130q82 315 200 737 q-58 -60 -132 -110.5t-134.5 -82t-115.5 -62.5t-91 -68t-45 -82q-28 -140 94 -152q20 -2 26 -25.5t-5.5 -45.5t-36.5 -19q-56 5 -98.5 24t-64.5 46t-36 60.5t-12.5 66.5t6.5 63q12 56 43.5 98.5t75.5 72.5t96.5 56t114.5 55t121.5 62t124 85.5t116.5 117.5z" />
<glyph unicode="&#x16f;" horiz-adv-x="921" d="M446 1245q67 -2 106.5 -41.5t33.5 -103.5q-6 -70 -56.5 -111t-117.5 -39q-63 2 -101 43.5t-32 104.5q6 65 54 107t113 40zM440 1176q-33 0 -56 -22t-28 -56q-4 -32 14.5 -54t49.5 -22q37 0 60 20.5t28 55.5q4 35 -15 56.5t-53 21.5zM586 825q6 20 38 23.5t59 -11 t19 -36.5q-27 -78 -56.5 -182t-57.5 -229t-25 -210t47 -86q70 -3 159 114.5t151 278.5q6 16 31 4q27 -12 26 -32l-2 -6q-69 -154 -106 -218q-138 -235 -294 -235q-43 0 -73 24.5t-40.5 61.5t-12.5 80.5t10 81.5q-86 -148 -182 -209.5t-191 -54.5q-74 5 -117.5 63.5 t-29.5 161.5q20 134 83.5 366t65.5 242q6 25 37 30t58 -7.5t22 -32.5q-10 -40 -36.5 -141.5t-52 -203t-44.5 -186.5q-8 -41 -10.5 -71.5t2 -60t23 -45.5t50.5 -17q75 -2 171 79t151 230q34 92 127 434z" />
<glyph unicode="&#x170;" horiz-adv-x="1777" d="M1214 1759q9 20 35 26t46.5 -6t13.5 -34l-68 -164q-11 -26 -45 -26q-33 -1 -38 22q-2 8 1 18q5 16 26 76.5t29 87.5zM1417 1759q8 20 34 26t46.5 -6t13.5 -34l-71 -166q-9 -20 -32.5 -26t-41 5.5t-10.5 34.5q9 26 31.5 85.5t29.5 80.5zM913 1399q8 29 39.5 31t56 -19 t15.5 -49q-36 -115 -65 -218.5t-45 -163.5t-63 -245t-79 -307q-15 -60 -21.5 -114t-1.5 -106.5t33 -83.5t78 -30q91 1 190 73t167 167.5t94 179.5q94 309 221 823q9 33 47 30q39 -2 57 -35q13 -23 4 -52q-107 -359 -208 -762q-103 -427 30 -424q56 1 120 67.5t111.5 151 t82.5 174.5q6 10 20 7.5t27 -15t8 -24.5q-20 -47 -34 -78.5t-40 -83.5t-48.5 -87.5t-55.5 -77.5t-65 -67.5t-72 -43t-82 -17.5q-81 0 -119 76t-29 209q-80 -130 -196 -218t-250 -87q-64 0 -109.5 20.5t-68.5 58t-34 84.5t-7 108.5t15 120.5t30 130q82 315 200 737 q-58 -60 -132 -110.5t-134.5 -82t-115.5 -62.5t-91 -68t-45 -82q-28 -140 94 -152q20 -2 26 -25.5t-5.5 -45.5t-36.5 -19q-56 5 -98.5 24t-64.5 46t-36 60.5t-12.5 66.5t6.5 63q12 56 43.5 98.5t75.5 72.5t96.5 56t114.5 55t121.5 62t124 85.5t116.5 117.5z" />
<glyph unicode="&#x171;" horiz-adv-x="921" d="M330 1192q9 20 35 26t46 -6t13 -34l-68 -164q-11 -26 -45 -26q-33 -1 -38 22q-2 8 1 18q6 18 27 78t29 86zM532 1192q8 20 34 26t47 -6t14 -34l-72 -166q-9 -20 -32.5 -26t-41 5.5t-10.5 34.5q9 26 31.5 85.5t29.5 80.5zM586 825q6 20 38 23.5t59 -11t19 -36.5 q-27 -78 -56.5 -182t-57.5 -229t-25 -210t47 -86q70 -3 159 114.5t151 278.5q6 16 31 4q27 -12 26 -32l-2 -6q-69 -154 -106 -218q-138 -235 -294 -235q-43 0 -73 24.5t-40.5 61.5t-12.5 80.5t10 81.5q-86 -148 -182 -209.5t-191 -54.5q-74 5 -117.5 63.5t-29.5 161.5 q20 134 83.5 366t65.5 242q6 25 37 30t58 -7.5t22 -32.5q-10 -40 -36.5 -141.5t-52 -203t-44.5 -186.5q-8 -41 -10.5 -71.5t2 -60t23 -45.5t50.5 -17q75 -2 171 79t151 230q34 92 127 434z" />
<glyph unicode="&#x172;" horiz-adv-x="1777" d="M1655 -305q-36 -67 -91.5 -100t-105 -29t-87.5 41.5t-42 99.5q-9 129 125 293q-189 0 -168 285q-80 -130 -196 -218t-250 -87q-64 0 -109.5 20.5t-68.5 58t-34 84.5t-7 108.5t15 120.5t30 130q82 315 200 737q-58 -60 -132 -110.5t-134.5 -82t-115.5 -62.5t-91 -68 t-45 -82q-28 -140 94 -152q20 -2 26 -25.5t-5.5 -45.5t-36.5 -19q-56 5 -98.5 24t-64.5 46t-36 60.5t-12.5 66.5t6.5 63q12 56 43.5 98.5t75.5 72.5t96.5 56t114.5 55t121.5 62t124 85.5t116.5 117.5q8 29 39.5 31t56 -19t15.5 -49q-36 -115 -65 -218.5t-45 -163.5t-63 -245 t-79 -307q-15 -60 -21.5 -114t-1.5 -106.5t33 -83.5t78 -30q91 1 190 73t167 167.5t94 179.5q94 309 221 823q9 33 47 30q39 -2 57 -35q13 -23 4 -52q-107 -359 -208 -762q-103 -427 30 -424q56 1 120 67.5t111.5 151t82.5 174.5q6 10 20 7.5t27 -15t8 -24.5 q-83 -198 -164 -312q-18 -25 -61.5 -83.5t-64 -88.5t-48.5 -76t-39.5 -83.5t-11.5 -73.5q0 -46 26 -66t66 -5.5t78 61.5q12 15 32 -1.5t11 -31.5z" />
<glyph unicode="&#x173;" horiz-adv-x="921" d="M807 -305q-29 -54 -71 -87t-84.5 -39t-80 6t-62.5 47t-28 85q-8 138 109 293q-88 0 -123 71.5t-8 176.5q-86 -148 -182 -209.5t-191 -54.5q-74 5 -117.5 63.5t-29.5 161.5q20 134 83.5 366t65.5 242q6 25 37 30t58 -7.5t22 -32.5q-10 -40 -36.5 -141.5t-52 -203 t-44.5 -186.5q-8 -41 -10.5 -71.5t2 -60t23 -45.5t50.5 -17q75 -2 171 79t151 230q34 92 127 434q6 20 38 23.5t59 -11t19 -36.5q-27 -78 -56.5 -182t-57.5 -229t-25 -210t47 -86q70 -3 159 114.5t151 278.5q6 16 31 4q27 -12 26 -32l-2 -6q-2 -4 -18 -40.5t-24.5 -53.5 t-26.5 -54.5t-33 -62.5t-35.5 -58t-42.5 -60.5t-45 -51.5q-162 -162 -156 -334q2 -46 27.5 -66t65 -5.5t77.5 61.5q12 15 32 -1.5t11 -31.5z" />
<glyph unicode="&#x174;" horiz-adv-x="2193" d="M1573 1763q23 13 53 13t47 -13q11 -9 31.5 -31t36 -41t39.5 -47.5t30 -35.5q18 -20 -13 -36q-35 -18 -66 -4q-9 4 -15 11l-100 119l-160 -131q-29 -25 -69 -11q-31 11 -29 33q2 10 12 19q39 34 103 83t100 72zM2273 1487q20 0 34 -21.5t12 -46.5t-23 -33 q-40 -14 -75 -49.5t-62.5 -91.5t-50 -117t-43.5 -142.5t-37 -149.5t-36 -156.5t-36 -147.5q-26 -97 -55 -174.5t-71.5 -150t-93.5 -121t-120 -77.5t-150 -29q-87 0 -145.5 42.5t-79.5 108t-12 145.5q-62 -128 -170 -211.5t-219 -82.5q-317 5 -176 520q10 36 88 324t114 413 q-58 -60 -132 -110.5t-134.5 -82t-115.5 -62.5t-91 -68t-45 -82q-28 -140 94 -152q20 -2 26 -25.5t-5.5 -45.5t-36.5 -19q-56 5 -98.5 24t-64.5 46t-36 60.5t-12.5 66.5t6.5 63q12 54 44 96.5t77 73t98.5 57t115.5 56t121.5 62t123 84t114.5 114.5q16 26 46 31.5t50 -15 t9 -57.5q-105 -363 -246 -926q-15 -60 -21.5 -114t-2.5 -107t32 -84.5t78 -30.5q122 1 240.5 154t181.5 379q22 80 98 357.5t111 395.5q10 34 49 30t56 -37q11 -23 3 -50q-58 -181 -105 -354t-142 -559q-14 -58 -14 -113t14.5 -100.5t49 -73.5t85.5 -27q98 2 190 105 t138 278q20 74 44.5 170.5t40 158.5t37 140.5t37 128.5t36.5 109t40 96.5t44 76.5t51.5 62.5t58.5 41.5t69 26z" />
<glyph unicode="&#x175;" horiz-adv-x="1353" d="M672 1202q23 14 53 14t47 -14q11 -9 31.5 -31t36 -41t39.5 -47.5t30 -35.5q18 -20 -13 -36q-35 -18 -66 -4q-9 4 -15 11l-100 119l-160 -131q-29 -25 -69 -11q-31 11 -29 33q2 10 12 19q39 34 103 83t100 72zM584 -18q-87 1 -122.5 61t-27.5 154q-80 -119 -171.5 -168.5 t-180.5 -44.5q-74 5 -117.5 63.5t-30.5 161.5q10 79 32 168t41.5 149.5t51.5 154.5t45 136q10 32 60 30q43 -2 56 -24q4 -8 1 -16q-104 -289 -153 -531q-8 -41 -10.5 -70.5t2 -58.5t23 -45.5t50.5 -19.5q76 -7 176 84t158 256q21 75 66.5 210.5t58.5 180.5q7 22 38.5 29.5 t58.5 -3t22 -32.5q-13 -40 -47.5 -136.5t-59.5 -184.5t-47 -201q-21 -113 -8 -156t65 -43q51 0 104.5 30t90.5 79q-41 42 -18 81q17 29 48 25q18 -2 31 -18q54 52 115.5 230t61.5 306q0 19 31.5 27.5t62.5 -3t30 -40.5q-6 -147 -77 -338.5t-140 -261.5q39 -7 80 -7.5 t85.5 18.5t85.5 51t80 89t69 133q6 7 20.5 6t26.5 -14t6 -28q-39 -94 -88.5 -161.5t-100.5 -103.5t-107.5 -51.5t-107 -12t-100.5 20.5q-142 -164 -319 -161z" />
<glyph unicode="&#x176;" horiz-adv-x="1734" d="M1343 1767q23 13 53.5 13t47.5 -13q11 -9 31.5 -31t36 -41t39.5 -47.5t30 -35.5q18 -20 -13 -36q-35 -18 -66 -4q-9 4 -15 11l-101 119l-159 -131q-29 -25 -69 -11q-31 11 -29 33q2 10 12 19q39 35 102.5 83.5t99.5 71.5zM1731 483q7 12 22 11.5t28 -14.5t7 -29 q-95 -227 -212.5 -359.5t-303.5 -210.5q-38 -151 -53 -190q-60 -163 -127 -228t-166 -67q-87 -1 -128.5 54t-25.5 134q10 46 40 90.5t66.5 78.5t93 70.5t101 60.5t107.5 55q11 34 44.5 161.5t53.5 192.5q-192 -315 -438 -313q-64 0 -109.5 20.5t-68.5 58t-34 84.5t-7 108.5 t15 120.5t30 130q82 315 200 737q-58 -60 -132 -110.5t-134.5 -82t-115.5 -62.5t-91 -68t-45 -82q-28 -140 94 -152q20 -2 26 -25.5t-5.5 -45.5t-36.5 -19q-56 5 -98.5 24t-64.5 46t-36 60.5t-12.5 66.5t6.5 63q12 56 43.5 98.5t75.5 72.5t96.5 56t114.5 55t121.5 62 t124 85.5t116.5 117.5q8 29 39.5 31t56 -19t15.5 -49q-36 -115 -65 -218.5t-45 -163.5t-63 -245t-79 -307q-15 -59 -21.5 -115t-1.5 -109.5t33 -86t78 -31.5q120 1 247 124t212 310q26 94 119.5 410.5t122.5 433.5q5 19 34.5 21t53.5 -15.5t16 -44.5q-54 -177 -181 -650 t-179 -683q129 45 244 176.5t182 314.5zM1153 -172q-206 -124 -250 -215q-15 -30 -16 -56.5t15 -43t48 -13.5q56 6 93.5 53.5t66.5 131.5q28 83 43 143z" />
<glyph unicode="&#x177;" horiz-adv-x="899" d="M393 1200q23 14 53.5 14t47.5 -14q15 -12 38.5 -38.5t60 -71t38.5 -46.5q18 -20 -13 -36q-35 -17 -66 -3q-9 4 -15 11l-101 119l-160 -131q-29 -25 -69 -11q-32 11 -28 33q1 9 11 18q40 35 103.5 84t99.5 72zM100 -604q-82 -5 -127 40t-36 132q5 48 33 94.5t64.5 81.5 t95.5 74t103.5 63t110.5 58q11 34 90 313q-88 -150 -196 -218t-199 -48q-69 15 -102 71.5t-13 157.5q19 96 80.5 300t71.5 302q2 21 32 28.5t58 -3t24 -35.5q-12 -74 -66.5 -287.5t-66.5 -265.5t-14 -85.5t11.5 -57t45.5 -29.5q72 -14 167 75t169 244q76 160 135 424 q6 22 37.5 24.5t58.5 -12t21 -34.5q-202 -761 -215 -807q128 58 244 182t180 309q5 8 19 6.5t27.5 -13.5t8.5 -25q-44 -115 -98 -204.5t-119 -156.5t-134.5 -116t-158.5 -95q-25 -103 -52 -182.5t-55.5 -131t-56 -86.5t-59 -53t-58.5 -25t-61 -9zM133 -498q87 24 150 197 q7 19 13 40.5t12.5 48t10.5 40.5q-193 -113 -243 -205q-32 -64 -12 -99t69 -22z" />
<glyph unicode="&#x178;" horiz-adv-x="1734" d="M1239 1565q-31 0 -52.5 22.5t-21.5 52.5t21 51.5t53 22.5q28 0 50 -23t22 -53q-2 -29 -23 -51t-49 -22zM1493 1565q-29 0 -49.5 22.5t-20.5 52.5q0 29 20.5 51t49.5 23q32 0 54 -22.5t22 -53.5q-2 -30 -23.5 -51.5t-52.5 -21.5zM1731 483q7 12 22 11.5t28 -14.5t7 -29 q-95 -227 -212.5 -359.5t-303.5 -210.5q-38 -151 -53 -190q-60 -163 -127 -228t-166 -67q-87 -1 -128.5 54t-25.5 134q10 46 40 90.5t66.5 78.5t93 70.5t101 60.5t107.5 55q11 34 44.5 161.5t53.5 192.5q-192 -315 -438 -313q-64 0 -109.5 20.5t-68.5 58t-34 84.5t-7 108.5 t15 120.5t30 130q82 315 200 737q-58 -60 -132 -110.5t-134.5 -82t-115.5 -62.5t-91 -68t-45 -82q-28 -140 94 -152q20 -2 26 -25.5t-5.5 -45.5t-36.5 -19q-56 5 -98.5 24t-64.5 46t-36 60.5t-12.5 66.5t6.5 63q12 56 43.5 98.5t75.5 72.5t96.5 56t114.5 55t121.5 62 t124 85.5t116.5 117.5q8 29 39.5 31t56 -19t15.5 -49q-36 -115 -65 -218.5t-45 -163.5t-63 -245t-79 -307q-15 -59 -21.5 -115t-1.5 -109.5t33 -86t78 -31.5q120 1 247 124t212 310q26 94 119.5 410.5t122.5 433.5q5 19 34.5 21t53.5 -15.5t16 -44.5q-54 -177 -181 -650 t-179 -683q129 45 244 176.5t182 314.5zM1153 -172q-206 -124 -250 -215q-15 -30 -16 -56.5t15 -43t48 -13.5q56 6 93.5 53.5t66.5 131.5q28 83 43 143z" />
<glyph unicode="&#x179;" horiz-adv-x="1318" d="M940 1765q19 25 62 12q35 -11 38 -33q1 -9 -6 -18l-123 -153q-18 -24 -59 -17q-35 5 -36 27q0 8 5 16q54 80 119 166zM1282 1382q32 25 56.5 30.5t36.5 -5t17 -28t0.5 -38.5t-16.5 -36q-120 -156 -240 -354t-240.5 -416t-188.5 -326q28 -27 69.5 -73.5t76 -84t79 -81 t90.5 -71t98.5 -46t114.5 -15t129 30.5q15 6 32.5 -15.5t17.5 -46.5t-28 -43q-53 -20 -105.5 -27.5t-96.5 -5t-90 17t-82 32t-76 46.5t-69 54t-65 62t-59 62.5t-55.5 63t-50.5 56.5q-72 -79 -130.5 -110.5t-144.5 -32.5q-115 -1 -171.5 53t-53.5 133q5 84 73.5 147t172.5 56 q128 -9 227 -86q71 94 281.5 461.5t310.5 515.5q-77 -16 -174 -5t-174 32.5t-168 35.5t-156 4q-111 -18 -161 -98q-39 -65 -14 -123q27 -62 108 -62q65 0 151 46q15 8 31 -6.5t18 -34t-14 -33.5q-83 -55 -160.5 -69t-131 8t-88.5 64.5t-44 98.5q-13 99 57.5 186.5 t223.5 116.5q71 12 143.5 7.5t134 -21t127.5 -32.5t124 -27t123 -4t124 36zM371 281q-71 0 -105.5 -52.5t-5 -103t110.5 -45.5q57 3 99.5 32t84.5 91q-88 78 -184 78z" />
<glyph unicode="&#x17a;" horiz-adv-x="927" d="M545 1202q19 25 62 12q35 -11 38 -33q1 -9 -6 -18l-123 -153q-18 -24 -59 -17q-35 5 -36 27q0 8 5 16q54 80 119 166zM254 928q40 -74 149.5 -113.5t221.5 -17.5q49 18 83.5 7.5t36.5 -36.5t-24 -57q-51 -66 -136.5 -188.5t-160 -218.5t-156.5 -177q52 12 94 0t89 -29.5 t98 -15.5q95 3 201 112.5t176 290.5q6 16 31 5q27 -12 26 -33l-2 -6q-79 -203 -197.5 -334.5t-238.5 -134.5q-53 -1 -99 11t-71.5 25.5t-70 21t-95.5 -2.5q-64 -64 -129 -52q-45 8 -55 43q-14 47 46 89q26 18 66 33q82 84 163 184t133 172t136 194q-102 -10 -200.5 22.5 t-155.5 115.5q-16 -47 -33.5 -92.5t-28.5 -74t-33.5 -78l-30 -66t-37 -78.5t-36.5 -78q-6 -9 -19.5 -6.5t-26 13t-9.5 19.5q76 176 116 279t81 233q-58 76 -28 136q19 39 57 42q43 3 62 -47q17 -42 7 -112z" />
<glyph unicode="&#x17b;" horiz-adv-x="1318" d="M903 1567q-31 0 -52.5 22t-21.5 53q0 30 21.5 51t52.5 23q31 0 53.5 -22t22.5 -54q-3 -31 -24.5 -52t-51.5 -21zM1282 1382q32 25 56.5 30.5t36.5 -5t17 -28t0.5 -38.5t-16.5 -36q-120 -156 -240 -354t-240.5 -416t-188.5 -326q28 -27 69.5 -73.5t76 -84t79 -81t90.5 -71 t98.5 -46t114.5 -15t129 30.5q15 6 32.5 -15.5t17.5 -46.5t-28 -43q-53 -20 -105.5 -27.5t-96.5 -5t-90 17t-82 32t-76 46.5t-69 54t-65 62t-59 62.5t-55.5 63t-50.5 56.5q-72 -79 -130.5 -110.5t-144.5 -32.5q-115 -1 -171.5 53t-53.5 133q5 84 73.5 147t172.5 56 q128 -9 227 -86q71 94 281.5 461.5t310.5 515.5q-77 -16 -174 -5t-174 32.5t-168 35.5t-156 4q-111 -18 -161 -98q-39 -65 -14 -123q27 -62 108 -62q65 0 151 46q15 8 31 -6.5t18 -34t-14 -33.5q-83 -55 -160.5 -69t-131 8t-88.5 64.5t-44 98.5q-13 99 57.5 186.5 t223.5 116.5q71 12 143.5 7.5t134 -21t127.5 -32.5t124 -27t123 -4t124 36zM371 281q-71 0 -105.5 -52.5t-5 -103t110.5 -45.5q57 3 99.5 32t84.5 91q-88 78 -184 78z" />
<glyph unicode="&#x17c;" horiz-adv-x="927" d="M508 1004q-31 0 -52.5 22t-21.5 53q0 30 21.5 51t52.5 23q31 0 53.5 -22t22.5 -54q-3 -31 -24.5 -52t-51.5 -21zM254 928q40 -74 149.5 -113.5t221.5 -17.5q49 18 83.5 7.5t36.5 -36.5t-24 -57q-51 -66 -136.5 -188.5t-160 -218.5t-156.5 -177q52 12 94 0t89 -29.5 t98 -15.5q95 3 201 112.5t176 290.5q6 16 31 5q27 -12 26 -33l-2 -6q-79 -203 -197.5 -334.5t-238.5 -134.5q-53 -1 -99 11t-71.5 25.5t-70 21t-95.5 -2.5q-64 -64 -129 -52q-45 8 -55 43q-14 47 46 89q26 18 66 33q82 84 163 184t133 172t136 194q-102 -10 -200.5 22.5 t-155.5 115.5q-16 -47 -33.5 -92.5t-28.5 -74t-33.5 -78l-30 -66t-37 -78.5t-36.5 -78q-6 -9 -19.5 -6.5t-26 13t-9.5 19.5q76 176 116 279t81 233q-58 76 -28 136q19 39 57 42q43 3 62 -47q17 -42 7 -112z" />
<glyph unicode="&#x17d;" horiz-adv-x="1318" d="M930 1569q-24 -15 -53.5 -14.5t-47.5 14.5q-11 9 -31.5 31t-36 41t-39.5 47.5t-30 35.5q-18 20 13 36q35 18 66 4q9 -4 15 -11l101 -119l157 129q30 24 69 11q32 -11 27 -32q-1 -9 -12 -18q-128 -108 -198 -155zM1282 1382q32 25 56.5 30.5t36.5 -5t17 -28t0.5 -38.5 t-16.5 -36q-120 -156 -240 -354t-240.5 -416t-188.5 -326q28 -27 69.5 -73.5t76 -84t79 -81t90.5 -71t98.5 -46t114.5 -15t129 30.5q15 6 32.5 -15.5t17.5 -46.5t-28 -43q-53 -20 -105.5 -27.5t-96.5 -5t-90 17t-82 32t-76 46.5t-69 54t-65 62t-59 62.5t-55.5 63t-50.5 56.5 q-72 -79 -130.5 -110.5t-144.5 -32.5q-115 -1 -171.5 53t-53.5 133q5 84 73.5 147t172.5 56q128 -9 227 -86q71 94 281.5 461.5t310.5 515.5q-77 -16 -174 -5t-174 32.5t-168 35.5t-156 4q-111 -18 -161 -98q-39 -65 -14 -123q27 -62 108 -62q65 0 151 46q15 8 31 -6.5 t18 -34t-14 -33.5q-83 -55 -160.5 -69t-131 8t-88.5 64.5t-44 98.5q-13 99 57.5 186.5t223.5 116.5q71 12 143.5 7.5t134 -21t127.5 -32.5t124 -27t123 -4t124 36zM371 281q-71 0 -105.5 -52.5t-5 -103t110.5 -45.5q57 3 99.5 32t84.5 91q-88 78 -184 78z" />
<glyph unicode="&#x17e;" horiz-adv-x="927" d="M535 1006q-24 -15 -53.5 -14.5t-47.5 14.5q-11 9 -31.5 31t-36 41t-39.5 47.5t-30 35.5q-18 20 13 36q35 18 66 4q9 -4 15 -11l101 -119l157 129q30 24 69 11q32 -11 27 -32q-1 -9 -12 -18q-128 -108 -198 -155zM254 928q40 -74 149.5 -113.5t221.5 -17.5q49 18 83.5 7.5 t36.5 -36.5t-24 -57q-51 -66 -136.5 -188.5t-160 -218.5t-156.5 -177q52 12 94 0t89 -29.5t98 -15.5q95 3 201 112.5t176 290.5q6 16 31 5q27 -12 26 -33l-2 -6q-79 -203 -197.5 -334.5t-238.5 -134.5q-53 -1 -99 11t-71.5 25.5t-70 21t-95.5 -2.5q-64 -64 -129 -52 q-45 8 -55 43q-14 47 46 89q26 18 66 33q82 84 163 184t133 172t136 194q-102 -10 -200.5 22.5t-155.5 115.5q-16 -47 -33.5 -92.5t-28.5 -74t-33.5 -78l-30 -66t-37 -78.5t-36.5 -78q-6 -9 -19.5 -6.5t-26 13t-9.5 19.5q76 176 116 279t81 233q-58 76 -28 136q19 39 57 42 q43 3 62 -47q17 -42 7 -112z" />
<glyph unicode="&#x192;" horiz-adv-x="1304" d="M1237 1225q16 -21 2.5 -45.5t-37.5 -31.5t-41 5q-51 51 -141 51q-85 1 -139.5 -70.5t-87.5 -218.5l-54 -237h230q24 0 25 -33q2 -37 -22 -55q-10 -8 -22 -8h-233l-178 -793q-13 -59 -23 -99t-27.5 -96t-34.5 -93.5t-42.5 -79t-54 -66t-66.5 -41t-82 -16.5 q-69 0 -123 29.5t-80 82.5q-13 25 4 49.5t41.5 27.5t40.5 -15q45 -69 127 -66q68 3 113.5 84.5t83.5 255.5l184 836h-205q-20 0 -26.5 24t5 48t34.5 24h215l57 262q40 183 124 279t230 96q53 0 114 -26t89 -64z" />
<glyph unicode="&#x218;" horiz-adv-x="1181" d="M1102 1094q-2 -24 -25.5 -33.5t-46 0.5t-20.5 33q6 117 -52.5 174t-160.5 59q-82 3 -143 -48t-68 -159q-4 -55 16.5 -110.5t56 -103t79.5 -96t87.5 -98.5t79.5 -101t56.5 -112.5t17.5 -125.5q-9 -183 -121.5 -287.5t-304.5 -103.5q-107 1 -188.5 47t-122.5 125t-47.5 184 t36.5 223q3 17 29.5 19t48.5 -12t15 -36q-37 -135 -14 -233.5t92.5 -154t166.5 -56.5q130 -1 203.5 75.5t81.5 219.5q3 56 -19 111t-58.5 101t-81 92.5t-88.5 95t-79 99t-54 114t-13 130.5q13 145 104.5 226.5t237.5 81.5q163 -1 242 -97t57 -243zM485 -180q9 20 37.5 24.5 t51 -8.5t14.5 -35l-107 -258q-8 -26 -46 -30q-37 -5 -47 17q-4 8 -1 19q9 24 49 135.5t49 135.5z" />
<glyph unicode="&#x219;" horiz-adv-x="821" d="M233 -18q-113 2 -168.5 92t-5.5 227q7 22 30 26.5t41.5 -6.5t14.5 -26q-28 -100 5.5 -156.5t101.5 -54.5q44 1 82.5 25t56.5 57q-26 20 -28 54t16.5 57.5t44.5 17.5q5 46 -15.5 115.5t-48 133t-50 146.5t-19.5 152q-80 -80 -134.5 -178t-140.5 -293q-6 -8 -19.5 -6 t-26.5 13.5t-9 20.5q159 394 309 516q63 53 111 33q31 -13 29 -47q-2 -22 -21 -41q3 -76 24 -155.5t46 -135t47.5 -123t27 -121.5t-13.5 -130q184 0 299 292q6 8 20.5 6.5t27.5 -14.5t7 -26q-76 -188 -176.5 -264t-208.5 -66q-39 -67 -109.5 -105t-146.5 -36zM176 -180 q9 20 37.5 24.5t51 -8.5t14.5 -35l-107 -258q-8 -26 -46 -30q-37 -5 -47 17q-4 8 -1 19q9 24 49 136t49 135z" />
<glyph unicode="&#x21a;" horiz-adv-x="1406" d="M512 1423q102 18 180 6.5t160.5 -42t145 -63t134 -58t128.5 -25.5q198 0 227 150q0 24 33 22q34 -2 48 -24q5 -7 5 -15q-20 -141 -131 -198q-163 -86 -424 22q-24 -84 -71 -277t-95 -378q-25 -96 -47 -167.5t-49.5 -138.5t-58 -112t-68.5 -80t-84.5 -51.5t-102.5 -16.5 q-65 -1 -117 17.5t-83.5 50t-52 73t-22.5 85.5t5 88q23 99 102 180q17 24 50.5 1.5t21.5 -46.5q-57 -79 -62.5 -159.5t43.5 -132t140 -48.5q33 1 61.5 16t51.5 45.5t41.5 62.5t36 82t29.5 88.5t28 96.5q56 207 100.5 378t66 253.5t36.5 134.5q-116 53 -201.5 76.5 t-175.5 9.5q-106 -16 -149 -93q-34 -62 -7 -119q30 -62 110 -63q62 1 138 40q16 9 34 -6t20.5 -35.5t-11.5 -32.5q-86 -55 -163.5 -69.5t-131 7t-88.5 63.5t-45 97q-12 62 10 122t87.5 111.5t166.5 71.5zM453 -203q9 20 37.5 25t50.5 -8t14 -35l-106 -258q-8 -26 -47 -30 t-48 18q-3 8 0 18q9 23 49.5 135t49.5 135z" />
<glyph unicode="&#x21b;" horiz-adv-x="569" d="M162 -20q-57 -1 -97.5 17.5t-61 59t-32.5 83t-6.5 111.5t10.5 120t24.5 133.5t31 127t32.5 123.5q2 7 3 11h-74q-24 16 -20.5 46.5t24.5 43.5h94q75 245 170 475q4 10 18 13.5t30.5 0.5t32 -9.5t24 -16.5t4.5 -21q-65 -163 -154 -442h215q22 -12 14.5 -50t-26.5 -40h-228 q-55 -195 -81 -322q-78 -362 84 -362q58 0 119 40.5t110 104t86.5 130.5t60.5 130q6 8 20.5 6.5t27 -15t6.5 -27.5q-82 -214 -200.5 -341t-260.5 -130zM72 -199q9 20 37.5 25t50.5 -8t14 -35l-106 -258q-8 -26 -47 -30t-48 18q-3 8 0 18q9 23 49.5 135t49.5 135z" />
<glyph unicode="&#x2c6;" horiz-adv-x="583" d="M362 1726q23 14 53.5 14t47.5 -14q11 -9 31.5 -31t36 -41t39.5 -47.5t30 -35.5q18 -20 -13 -36q-35 -18 -66 -4q-9 4 -15 11l-100 119l-160 -131q-29 -25 -69 -11q-31 11 -29 33q2 10 12 19q39 35 102.5 83.5t99.5 71.5z" />
<glyph unicode="&#x2c7;" horiz-adv-x="583" d="M373 1532q-24 -15 -53.5 -14.5t-47.5 14.5q-15 12 -38.5 38.5t-60 71t-38.5 46.5q-18 20 13 36q35 17 66 3q9 -4 15 -11l101 -119l157 129q30 24 69 11q31 -10 28 -31q-3 -10 -13 -18q-134 -113 -198 -156z" />
<glyph unicode="&#x2d8;" horiz-adv-x="532" d="M225 1518q-82 0 -136.5 46.5t-55.5 129.5q0 15 18 24.5t37 6t23 -20.5q20 -95 114 -98q61 -2 103.5 20t68.5 80q7 17 27.5 20.5t36.5 -5.5t12 -23q-21 -85 -88.5 -132.5t-159.5 -47.5z" />
<glyph unicode="&#x2d9;" horiz-adv-x="301" d="M168 1530q-31 0 -52.5 22.5t-21.5 53.5q0 30 21.5 50.5t52.5 22.5q31 0 53.5 -21.5t22.5 -53.5q-3 -31 -24.5 -52.5t-51.5 -21.5z" />
<glyph unicode="&#x2da;" horiz-adv-x="389" d="M211 1774q67 -2 106 -42t33 -104q-6 -70 -56.5 -110.5t-117.5 -38.5q-63 2 -101 43t-32 104q6 65 54.5 107.5t113.5 40.5zM205 1704q-33 0 -56 -22t-28 -56q-4 -32 14 -54t49 -22q37 0 60 20.5t28 55.5q4 35 -14.5 56.5t-52.5 21.5z" />
</font>
</defs>
</svg>
