<?xml version="1.0" standalone="no"?>
<!DOCTYPE svg PUBLIC "-//W3C//DTD SVG 1.1//EN" "http://www.w3.org/Graphics/SVG/1.1/DTD/svg11.dtd" >
<svg xmlns="http://www.w3.org/2000/svg" xmlns:xlink="http://www.w3.org/1999/xlink" version="1.1">
<metadata></metadata>
<defs>
<font id="nexa_scriptregular" horiz-adv-x="0" >
<font-face units-per-em="2048" ascent="1638" descent="-410" />
<missing-glyph horiz-adv-x="481" />
<glyph unicode=" "  horiz-adv-x="481" />
<glyph unicode="&#x09;" horiz-adv-x="481" />
<glyph unicode="&#xa0;" horiz-adv-x="481" />
<glyph unicode="!" horiz-adv-x="745" d="M201 399q38 136 134.5 506t123.5 467q12 43 70 49.5t107 -16t40 -51.5q-48 -151 -147.5 -486.5t-145.5 -480.5q-12 -37 -60.5 -43.5t-88.5 12t-33 43.5zM211 -14q-47 0 -77 33t-28 79q3 44 38.5 76.5t82.5 32.5q49 0 77.5 -32t23.5 -79q-5 -45 -39 -77.5t-78 -32.5z" />
<glyph unicode="&#x22;" horiz-adv-x="747" d="M254 1083q-7 -23 -41.5 -31.5t-63.5 4t-22 40.5l59 270q10 39 61 46q47 8 72 -17q16 -16 9 -39zM530 1083q-7 -23 -41.5 -31.5t-63.5 4t-22 40.5l60 270q10 39 61 47q48 7 72 -19q14 -16 8 -38z" />
<glyph unicode="#" horiz-adv-x="1230" d="M367 170q-8 -32 -51 -40.5t-80 5t-31 37.5l86 305h-139q-29 0 -30 41q-1 44 27 72q16 14 33 14h142l57 205h-148q-36 0 -38 40t26 69q17 15 35 16h160l80 287q7 29 50.5 37.5t81 -4t31.5 -35.5l-79 -285h178l78 285q8 32 51 41t80.5 -4.5t31.5 -36.5l-79 -285h139 q30 0 30 -40q1 -43 -27 -71q-16 -14 -34 -14h-143l-56 -205h150q36 0 38 -41t-26 -70q-16 -16 -35 -16h-161l-86 -309q-8 -29 -51.5 -37.5t-81 4.5t-31.5 37l86 305h-178zM487 604h179l57 205h-178z" />
<glyph unicode="$" horiz-adv-x="1173" d="M891 1419l-27 -98q113 -34 177.5 -114t62.5 -167q2 -33 -38 -54t-82 -14t-46 42q-3 54 -33 92t-82 53q-18 -71 -52 -210t-48 -193q108 -96 143 -135q112 -126 109 -259q-5 -173 -116.5 -275.5t-326.5 -98.5q-1 -2 -32 -131q-7 -28 -41 -35t-62 9.5t-20 45.5q13 56 33 121 q-75 15 -135 49t-96 77.5t-58.5 96.5t-23 107t11.5 108q8 36 53.5 42.5t86.5 -15t38 -53.5q-9 -85 34 -152t130 -90l116 471q-45 38 -70 61t-61 63.5t-54.5 75t-31.5 82.5t-10 99q4 87 39 151.5t92 100.5t124.5 52t143.5 13q4 14 11.5 44t11.5 44q6 31 40 38t64 -7.5 t25 -36.5zM702 1190q-64 7 -108.5 -24t-56.5 -89q-13 -58 7 -118t74 -105q12 48 40 163t44 173zM672 551q-50 -207 -101 -404q72 -1 123 29t70.5 78t18 102t-31 107t-79.5 88z" />
<glyph unicode="%" horiz-adv-x="1265" d="M340 33q-21 -33 -85 -22q-57 10 -77 42q-13 19 0 39l721 1194q28 43 92 30q52 -11 73 -44q15 -23 1 -43zM322 854q-103 0 -158.5 66t-36.5 157q15 87 91 146t175 59q97 0 155.5 -64.5t41.5 -154.5q-17 -88 -95 -148.5t-173 -60.5zM338 981q42 0 74 28t37 64 q6 33 -14 56.5t-58 23.5q-39 0 -69.5 -23.5t-39.5 -58.5q-9 -37 10 -63.5t60 -26.5zM854 55q-98 0 -156 65t-41 156q17 86 95.5 146.5t173.5 60.5q103 0 158 -64t36 -155q-15 -88 -91 -148.5t-175 -60.5zM868 184q39 0 70 24t39 58q11 36 -8.5 63t-59.5 27 q-41 0 -73.5 -27.5t-38.5 -64.5q-6 -33 14.5 -56.5t56.5 -23.5z" />
<glyph unicode="&#x26;" horiz-adv-x="1187" d="M412 1098q40 132 164 192q110 54 225 25q112 -28 155 -119q34 -72 13 -168q-38 -168 -332 -330q87 -188 215 -360q85 106 106 258q2 18 15 28t31 9.5t35 -6t29 -18.5t11 -29q-8 -190 -135 -349q59 -76 131 -151q29 -27 -8.5 -59t-87.5 -31q-29 1 -47 16q-29 26 -101 107 q-154 -129 -362 -129q-97 0 -171 30.5t-115 81.5t-58 114t-8 132q14 120 94.5 225.5t228.5 182.5q-74 192 -28 348zM590 1071q-46 -124 -4 -244q175 99 205 232q18 76 -30 106q-43 25 -97 -5q-50 -27 -74 -89zM504 612q-181 -111 -197 -268q-6 -54 9.5 -100t59 -78 t109.5 -33q149 0 252 98q-43 56 -89 129.5t-71.5 119t-72.5 132.5z" />
<glyph unicode="'" horiz-adv-x="454" d="M299 1083q-7 -23 -41.5 -31.5t-63.5 4t-22 40.5l59 270q10 39 61 46q47 8 72 -17q16 -16 9 -39z" />
<glyph unicode="(" horiz-adv-x="950" d="M432 -317q-143 174 -189 402t-5 490q42 265 183 492.5t331 329.5q25 12 62.5 -7.5t52 -48.5t-6.5 -53q-137 -103 -248 -291.5t-153 -421.5q-29 -157 -19.5 -306.5t45 -273t93.5 -220.5q12 -20 -3.5 -44.5t-43.5 -39.5t-56.5 -20.5t-42.5 12.5z" />
<glyph unicode=")" horiz-adv-x="864" d="M162 -326q-25 -12 -63.5 7.5t-53 48.5t7.5 53q141 107 253 303.5t151 437.5q37 222 1 426t-124 346q-12 20 3 45t43.5 40t57 20.5t43.5 -12.5q279 -340 195 -891q-42 -265 -183.5 -493.5t-330.5 -330.5z" />
<glyph unicode="*" horiz-adv-x="667" d="M586 1001q15 -17 6.5 -41.5t-33 -40.5t-41.5 -1l-100 73l-6 -129q-1 -23 -30.5 -32.5t-57 0t-23.5 32.5l12 131l-114 -75q-17 -14 -40.5 3t-29 41t11.5 39l144 89l-123 88q-19 18 -12.5 42t33 39.5t46.5 0.5l99 -74l10 127q0 26 28.5 36.5t55.5 -0.5t24 -36l-14 -127 l113 74q21 16 44 -1t26.5 -42.5t-15.5 -42.5l-133 -87z" />
<glyph unicode="+" horiz-adv-x="1015" d="M479 223q-7 -22 -48.5 -29t-77.5 5.5t-29 36.5l79 288h-194q-29 0 -38 37t7 74t49 37h217l80 280q8 31 50 37.5t77.5 -10.5t28.5 -43l-76 -264h199q32 0 42.5 -37t-6 -74t-48.5 -37h-228z" />
<glyph unicode="," horiz-adv-x="608" d="M190 -274q-22 -15 -49.5 -4t-36.5 32.5t5 38.5q40 35 76.5 89t52.5 110q-31 13 -50 41t-18 63q1 48 37 79.5t82 33.5q48 0 76.5 -32.5t27.5 -88.5q-3 -101 -59.5 -201.5t-143.5 -160.5z" />
<glyph unicode="-" horiz-adv-x="929" d="M272 463q-28 0 -35 37.5t11 74.5t51 37h375q31 0 39.5 -37t-9.5 -74.5t-51 -37.5h-381z" />
<glyph unicode="." horiz-adv-x="505" d="M172 -14q-46 0 -75.5 33t-26.5 79q3 44 37.5 76.5t80.5 32.5q50 0 78 -32t25 -79q-5 -45 -39.5 -77.5t-79.5 -32.5z" />
<glyph unicode="/" horiz-adv-x="927" d="M119 55q52 92 161 357t223 537t183 388q27 45 98 37q58 -7 83 -38q15 -19 3 -38q-77 -122 -189.5 -389t-220.5 -532t-169 -369q-20 -32 -86 -28q-62 4 -85 34q-13 19 -1 41z" />
<glyph unicode="0" horiz-adv-x="1077" d="M694 1352q195 -2 272.5 -153t32.5 -447q-18 -113 -51 -220t-86 -207t-119.5 -175t-156 -120t-189.5 -46q-188 0 -264 155.5t-31 460.5q17 114 51 222t87.5 204.5t120 169t152.5 114.5t181 42zM680 1202q-67 2 -130 -63t-109 -168t-78 -211t-48 -207q-12 -78 -15 -145.5 t4 -131.5t35 -101.5t75 -37.5q66 -1 128.5 59.5t108.5 159t79 209t52 223.5q14 80 18.5 143t-1 129.5t-35.5 103.5t-84 38z" />
<glyph unicode="1" horiz-adv-x="833" d="M571 1311q20 38 76 45t100 -12t35 -46q-39 -118 -93.5 -319t-87.5 -332t-93 -375.5t-62 -253.5q-13 -35 -88 -41q-73 -5 -107 21q-20 15 -13 35q1 6 41 173t56 230t51 198t64.5 231t59.5 175q-57 -80 -145 -156t-154 -106q-40 -15 -75 13t-40.5 63t10.5 51 q302 179 465 406z" />
<glyph unicode="2" horiz-adv-x="1005" d="M764 -6q-352 11 -635 2q-49 -2 -74 33.5t-14.5 80.5t51.5 70q179 107 357.5 321.5t230.5 407.5q36 139 -3.5 213t-127.5 76q-80 0 -140 -68t-53 -184q3 -30 -40.5 -46.5t-88.5 -7.5t-47 42q-6 79 13.5 147t57.5 116t90 82.5t110.5 51t119.5 17.5q83 0 149.5 -25.5 t116 -81t64 -143.5t-7.5 -213q-27 -128 -120.5 -271.5t-212.5 -261t-245 -202.5q223 19 484 4q37 -3 39.5 -43t-22 -79t-52.5 -38z" />
<glyph unicode="3" horiz-adv-x="997" d="M434 754q132 4 207.5 74t87.5 184q12 110 -61 160q-61 42 -139 17q-83 -27 -121 -115q-19 -47 -21 -105q-1 -26 -43.5 -43.5t-85 -9.5t-43.5 45q-1 202 139 310q111 85 263 78q145 -7 238 -94q112 -106 85 -276q-20 -114 -104.5 -194.5t-194.5 -94.5q134 -24 192 -130.5 t31 -244.5q-36 -181 -188 -274q-130 -79 -287 -61q-153 16 -242 117q-102 115 -71 294q5 35 51 45.5t88.5 -10t36.5 -59.5q-7 -58 7.5 -105.5t44 -74.5t68.5 -43t81 -9.5t80 26.5t68.5 63t43.5 102q59 285 -213 288q-20 1 -32 16.5t-14 36t2.5 41t17 34t28.5 12.5z" />
<glyph unicode="4" horiz-adv-x="1126" d="M772 1321q23 30 80 33.5t101.5 -16t37.5 -46.5q-60 -244 -160 -841q125 0 150 -2q19 -1 32.5 -16.5t16.5 -36.5t-1 -41.5t-19.5 -34.5t-38.5 -13q-83 3 -166 0q-22 -127 -49 -266q-5 -32 -71 -44q-67 -12 -105 10q-22 12 -17 34q9 45 26 137t23 123q-351 -17 -473 -10 q-48 2 -72 44.5t7 88.5q87 115 350.5 445t347.5 452zM760 1055q-60 -90 -138 -194t-179 -233.5t-146 -189.5q239 5 336 11q101 494 127 606z" />
<glyph unicode="5" horiz-adv-x="1026" d="M872 1346q38 3 55 -31t8.5 -72t-32.5 -47q-166 -52 -411 -10q-64 -280 -76 -324q75 22 141 26.5t117 -7t92.5 -35.5t69.5 -59t47 -78t27 -92t6.5 -101t-11.5 -106q-16 -84 -57.5 -160.5t-101.5 -136.5t-142 -95.5t-174 -35.5q-86 -1 -155 23.5t-111 66.5t-69 98 t-28.5 118t11.5 126q6 31 50.5 39.5t85.5 -10t36 -52.5q-19 -111 29.5 -181t150.5 -73q97 -1 165 76.5t93 194.5q13 61 11 115.5t-21 103.5t-60 76t-106.5 32t-159.5 -28q-26 -5 -62.5 -7t-63 18.5t-15.5 59.5q12 43 29 116.5t39 177t34 155.5q6 30 12 49t17.5 31t21.5 17 t32 6.5t40 0t55 -3.5t68 -2q160 0 313 21z" />
<glyph unicode="6" horiz-adv-x="1077" d="M430 -18q-79 -2 -140.5 23.5t-100 70t-62 106.5t-30.5 131.5t-1 147.5q6 74 19.5 153t38 166.5t57.5 168t80.5 155t104 128.5t130 87t156.5 33q134 1 216 -68.5t95 -177.5q4 -28 -35.5 -45.5t-83 -14t-49.5 26.5q-18 71 -54 101t-95 28q-58 -1 -111.5 -43.5t-94.5 -113 t-72 -149t-54 -167.5q57 70 133.5 113.5t159.5 44.5q111 2 183.5 -61.5t96.5 -162t5 -212.5q-22 -130 -85.5 -234.5t-170 -169.5t-236.5 -65zM434 135q101 -3 176.5 89.5t102.5 238.5q12 76 7 137t-38 100t-90 39q-93 0 -168.5 -75t-120.5 -195q-35 -331 131 -334z" />
<glyph unicode="7" horiz-adv-x="839" d="M762 1339q55 10 99 -20t24 -64q-182 -303 -555 -1228q-11 -29 -65.5 -37t-100.5 12t-37 57q89 236 229 566t256 538q-151 -31 -274.5 -25t-214.5 44q-23 10 -26 38.5t8.5 56.5t30 49t32.5 17q261 -77 594 -4z" />
<glyph unicode="8" horiz-adv-x="1007" d="M264 1092q21 149 155 220q117 62 260 38q138 -22 211 -113q71 -89 44 -215q-36 -166 -264 -293q260 -183 231 -397q-10 -74 -44 -137t-92 -111.5t-146.5 -75.5t-198.5 -26q-188 3 -281.5 106.5t-79.5 257.5q25 238 347 404q-175 154 -142 342zM465 1069 q-12 -61 12 -125.5t78 -118.5q72 46 122 105t60 117q22 86 -40 133q-51 39 -119 23q-75 -18 -103 -94q-7 -19 -10 -40zM520 651q-101 -45 -168.5 -125.5t-77.5 -173.5q-11 -87 34 -152.5t134 -66.5q110 -1 174 59.5t72 163.5q6 82 -41 161t-127 134z" />
<glyph unicode="9" horiz-adv-x="1060" d="M381 -18q-125 -1 -203.5 62.5t-93.5 150.5q-1 16 12.5 31.5t34 25.5t41.5 15.5t38 1.5t21 -17q41 -122 160 -119q59 1 113 40t94 103t70 141t47 161q-42 -62 -111.5 -97t-148.5 -35q-76 -1 -137 24t-98.5 68t-62 100t-27 120.5t6.5 130.5q32 199 163 331.5t325 131.5 q83 1 146.5 -25t103 -69.5t63 -106t30.5 -130.5t1 -147q-6 -75 -18.5 -153t-36 -166.5t-55.5 -168.5t-79 -154.5t-103.5 -128.5t-132.5 -87t-163 -34zM481 596q207 0 283 287q16 150 -16 230.5t-127 86.5q-103 7 -176 -84t-99 -239q-11 -54 -7.5 -104.5t17.5 -90t46 -63.5 t79 -23z" />
<glyph unicode=":" horiz-adv-x="665" d="M354 606q-47 0 -77.5 33.5t-28.5 79.5t36 78t81 32q49 0 79 -32t27 -78t-37.5 -79.5t-79.5 -33.5zM238 -14q-47 0 -79 33t-30 79q3 46 37.5 79t81.5 34q48 0 78 -33t28 -80q-3 -46 -37 -79t-79 -33z" />
<glyph unicode=";" horiz-adv-x="694" d="M362 604q-47 0 -78.5 34.5t-29.5 80.5q3 44 37.5 76.5t81.5 33.5q49 0 79 -33t27 -79q-5 -46 -38.5 -79.5t-78.5 -33.5zM158 -274q-31 -22 -66 6q-30 22 -23 46q3 8 9 13q98 90 129 199q-31 13 -50 41t-18 63q1 48 36 79.5t81 33.5q48 2 77.5 -30.5t28.5 -88.5 q-3 -101 -60 -201.5t-144 -160.5z" />
<glyph unicode="&#x3c;" horiz-adv-x="792" d="M352 203l-211 340q-51 86 31 153l358 291q34 27 72.5 8.5t46.5 -54t-20 -64.5l-328 -277l197 -321q8 -16 1.5 -36t-25.5 -36t-40.5 -26t-44.5 -5t-37 27z" />
<glyph unicode="=" horiz-adv-x="1107" d="M295 664q-29 0 -38 37t7 73.5t49 36.5h576q32 0 42.5 -36.5t-6 -72.5t-48.5 -36zM246 383q-28 0 -37 36.5t7 72.5t50 36h574q33 0 43.5 -36t-6.5 -72.5t-50 -36.5h-581z" />
<glyph unicode="&#x3e;" horiz-adv-x="792" d="M420 973l211 -340q52 -87 -31 -154l-358 -291q-34 -27 -72.5 -8.5t-46.5 54.5t20 65l332 281l-196 317q-8 16 -2.5 36t24 36t39.5 26t43.5 5t36.5 -27z" />
<glyph unicode="?" horiz-adv-x="1005" d="M264 391q1 92 41 163.5t113 154.5q24 27 81 86t87 93.5t61.5 92t40.5 115.5q28 151 -94 174q-81 16 -148.5 -47.5t-85.5 -190.5q-3 -28 -31 -42t-60.5 -12.5t-58 19.5t-24.5 47q8 103 45 179.5t95 120.5t129.5 62.5t154.5 12.5q143 -9 225 -96.5t62 -232.5 q-8 -63 -31 -118t-61 -103.5t-70.5 -82t-84.5 -82.5t-79 -77q-63 -65 -97.5 -119t-41.5 -123q-3 -28 -45 -38.5t-83 2t-40 42.5zM293 -14q-46 0 -76 33t-27 79q3 44 38 76.5t81 32.5q50 0 78 -32t25 -79q-5 -45 -39.5 -77.5t-79.5 -32.5z" />
<glyph unicode="@" horiz-adv-x="1675" d="M938 1100q122 -1 225 -29.5t182.5 -83.5t125.5 -144t47 -202q2 -120 -40 -231.5t-110.5 -189t-155.5 -124t-172 -47.5q-73 0 -118 53t-37 160q-26 -44 -47 -73t-52.5 -61.5t-70.5 -49t-84 -17.5q-82 -2 -128.5 46t-52 121.5t23.5 163t89 165.5q61 79 138.5 129t152.5 62 q86 15 180 -5.5t156 -80.5q11 -16 3 -38.5t-29.5 -38t-37.5 -3.5q-97 74 -219 59q-61 -7 -116 -49t-97 -107q-49 -77 -66 -174.5t21 -128.5q37 -30 97.5 23.5t115 153t80.5 200.5q7 25 46 28t72 -12t27 -36q-4 -14 -18 -64.5t-21 -76.5t-15.5 -65t-12.5 -67q-6 -53 3 -74.5 t38 -21.5q77 1 140.5 68.5t97.5 169t34 210.5q1 160 -110 247t-293 85q-164 -1 -300.5 -81t-221 -213t-109.5 -296q-19 -125 2.5 -226.5t77.5 -165.5t136 -97.5t181 -29t209 45.5q21 8 35.5 -20.5t11.5 -64.5t-24 -44q-115 -49 -227.5 -60.5t-208 11.5t-175 79.5t-131.5 138 t-73 193t-4 238.5q15 116 59 225t117.5 203.5t168.5 165t220 110t264 38.5z" />
<glyph unicode="A" horiz-adv-x="1699" d="M426 -18q-163 -3 -237.5 82t-47.5 225q25 118 117.5 202t222.5 119.5t277 22.5q57 135 86 201t78 166t95 169t97 123q65 69 143 98.5t141 19t105.5 -60t42.5 -126.5q-2 -225 -114 -650q221 14 323 121q17 17 35.5 6t23.5 -33t-4 -38q-126 -157 -399 -178 q-7 -30 -25 -104.5t-27.5 -115t-20.5 -97t-17 -97.5q-15 -27 -67 -38t-102.5 0t-61.5 38q17 118 92 409q-8 0 -262 27q-49 -119 -92.5 -199t-102.5 -150.5t-133 -105.5t-166 -36zM1210 578q113 404 148 610q9 59 -21.5 68.5t-74.5 -42.5q-109 -129 -275 -572q-9 -24 -14 -36 q146 -21 237 -28zM432 127q25 0 47.5 10t41.5 25t39 42.5t35 53t35 68.5t34 76t36 87q-126 3 -215.5 -48t-122.5 -154q-10 -41 -9.5 -77t21 -59.5t58.5 -23.5z" />
<glyph unicode="B" horiz-adv-x="1753" d="M1124 1425q163 -1 290 -53t191.5 -148.5t41.5 -217.5q-22 -115 -122 -189t-212 -80q148 -22 234 -142.5t57 -266.5q-32 -168 -150 -257t-295 -89q-199 3 -387 143q-104 -137 -299 -143q-133 -2 -222 54t-85 165q5 112 87.5 171t200.5 52t226 -74q29 76 61.5 192t57.5 207 t58 183t79.5 153.5t105.5 83.5q34 10 66.5 3.5t54.5 -24.5t15 -34q-16 -11 -30.5 -26.5t-28 -41.5t-22.5 -42t-22 -54t-17.5 -50.5t-18 -58t-15.5 -50.5q150 -2 259.5 56t137.5 169q29 118 -53.5 187.5t-253.5 72.5q-121 1 -228 -35t-174 -100t-87 -151t34 -187 q0 -41 -49.5 -74.5t-89.5 -15.5q-68 44 -100 111t-27 137t36 138t83 120q101 99 262.5 153.5t349.5 52.5zM985 672q-8 -25 -38.5 -128t-53.5 -172t-49 -128q75 -63 162.5 -92t166.5 -20t139 71t77 170q18 112 -39 184.5t-158 97.5q-102 25 -207 17zM494 293q-79 10 -117 -40 q-30 -40 -9 -80q27 -52 113 -45q3 1 6 1q84 10 142 107q-81 49 -135 57z" />
<glyph unicode="C" horiz-adv-x="1286" d="M1073 1423q162 -9 236 -113t24 -251q-28 -91 -106.5 -153.5t-180 -84t-222 4.5t-224.5 102q-82 -184 -82 -369q-1 -226 94 -333.5t254 -94.5q55 2 110.5 20t114.5 53.5t113 99.5t94 149q8 11 26.5 7t35 -20t10.5 -28q-100 -218 -243 -322t-357 -110q-231 -6 -365.5 155.5 t-115.5 435.5q19 285 180 521q-98 153 -104 288q-3 22 23 33t54.5 4t32.5 -28q11 -95 74 -201q223 252 524 235zM1036 1272q-115 6 -204 -52.5t-164 -168.5q59 -45 133 -64t138.5 -11t115.5 42t67 88q30 63 4.5 113t-90.5 53z" />
<glyph unicode="D" horiz-adv-x="1826" d="M1059 1425q142 -4 262.5 -53t208 -136t136 -216.5t44.5 -286.5q-5 -217 -77 -389t-203 -269.5t-297 -92.5q-210 5 -381 141q-113 -141 -301 -141q-151 -1 -233.5 62t-74.5 165q11 112 98 167.5t202 45.5t214 -74q28 75 69.5 214.5t72 239.5t81.5 203t109 152 q30 17 69 15.5t71 -19t26 -37.5q-56 -68 -106.5 -191.5t-81.5 -238.5t-72 -242.5t-78 -195.5q68 -56 161 -88t169 -25q105 8 183 92.5t116.5 216t40.5 291.5q1 90 -13 167.5t-48.5 147.5t-87.5 119t-134.5 78t-185.5 29q-65 0 -129 -19t-116.5 -51.5t-91.5 -78.5t-58.5 -97 t-14.5 -110t39 -115q5 -19 -17.5 -47.5t-56.5 -43t-71 0.5q-77 60 -104 147.5t-4.5 178t87.5 167.5q94 107 250 164.5t328 52.5zM455 295q-68 2 -100 -40.5t-8.5 -86.5t89.5 -45q98 -3 172 110q-78 57 -153 62z" />
<glyph unicode="E" horiz-adv-x="1144" d="M543 1481q0 -93 24 -150q49 41 117 65.5t138 30t138 -8.5t120.5 -43.5t83.5 -80t28 -114.5q-5 -106 -85 -168t-216 -56q-75 5 -145 36t-115 81q-20 -99 53.5 -185.5t206.5 -103.5q18 -11 19 -43t-14 -60.5t-36 -31.5q-41 6 -87.5 1.5t-92.5 -14.5t-89.5 -33t-78 -52.5 t-58 -74.5t-30.5 -99q-9 -62 10 -110.5t57.5 -77t85.5 -43.5t99 -17q151 -2 277.5 77t205.5 247q8 11 26 7t34.5 -20t11.5 -28q-97 -223 -254 -326.5t-356 -103.5q-69 0 -135 15t-124 47.5t-99 78t-60.5 111.5t-9.5 143q12 112 74.5 201t152 136.5t190.5 53.5 q-93 34 -141 121.5t-42 187t58 176.5q-39 89 -36 226q0 17 22.5 26.5t46 3.5t25.5 -28zM678 1192q88 -94 201 -94q52 -3 81 20.5t31 63.5q1 34 -23 57.5t-61.5 31t-79.5 3.5t-83 -25.5t-66 -56.5z" />
<glyph unicode="F" horiz-adv-x="1327" d="M1104 1391q24 32 84 36.5t107 -14t38 -43.5q-78 -220 -211 -680q29 -1 123 6q26 -13 24 -64t-36 -67q-66 -5 -152 -8q-27 -94 -46 -152.5t-45.5 -126.5t-51.5 -107.5t-60.5 -80t-76 -61t-93.5 -34t-118 -13.5q-85 -1 -152 26.5t-104 72t-51.5 102t-3.5 115t49.5 113 t99.5 93.5q22 14 59.5 -0.5t59 -44t4.5 -51.5q-49 -62 -57.5 -127.5t24 -108.5t94.5 -43q35 0 64 19.5t51.5 55t43.5 89t40 116.5t42 143q1 3 1 5q-11 0 -63.5 -1.5t-77.5 -0.5q-24 7 -28 37.5t9 59.5t33 34q123 0 166 4q6 23 19 66q95 337 135 438q8 19 16 37 q-48 -45 -107.5 -61.5t-118 -11.5t-115.5 12t-115.5 1t-102.5 -36q-48 -32 -61 -79.5t10 -76.5q19 -33 76.5 -37t103.5 29q19 15 44 0t38.5 -42t3.5 -42q-39 -48 -103 -71t-128 -19t-122.5 26t-89.5 58q-51 55 -58.5 132t38 153t139.5 118q84 37 171 41.5t153 -7.5t131 -20 t130 12.5t124 80.5z" />
<glyph unicode="G" horiz-adv-x="1495" d="M1028 1423q94 -1 168.5 -31.5t117 -83t52.5 -123t-25 -151.5q-47 -109 -140.5 -172t-202.5 -72t-226 27.5t-213 114.5q-42 -75 -74 -174t-43 -204.5t3 -194t71 -146.5t154 -59q246 -3 407 401q8 21 60 25t98 -11.5t39 -42.5q-89 -295 -144 -514q237 112 379 441 q7 10 25 6t35 -19.5t12 -27.5q-103 -218 -211.5 -338.5t-275.5 -190.5q-34 -134 -69 -221.5t-83.5 -150t-112.5 -90t-151 -27.5q-106 -2 -170 48.5t-55 147.5q5 69 43 125.5t106.5 99.5t135 72t161.5 60q8 31 31 108t33 119q-64 -79 -150.5 -124t-189.5 -42q-97 3 -172 36.5 t-122 89t-75 130t-34 158t4.5 174t37.5 178t68 169t92 147.5q-106 148 -111 305q-2 22 26 29t57 -4t30 -31q9 -105 78 -207q102 110 241 176t285 65zM1016 1274q-104 0 -206 -60.5t-181 -166.5q90 -70 195.5 -89.5t192 19t120.5 125.5q30 72 -7.5 122t-113.5 50zM870 -182 q-84 -37 -148 -88.5t-77 -102.5q-16 -46 2 -67t50 -10t51 44q38 15 66.5 68.5t55.5 155.5z" />
<glyph unicode="H" horiz-adv-x="1804" d="M1083 1395q21 25 73.5 29.5t98 -12t50.5 -42.5q-64 -192 -226 -754q16 -2 116.5 -21t158.5 -24q17 59 53 193.5t58.5 215t58 187t69.5 183.5q14 17 63 17.5t96.5 -16t55.5 -42.5q-18 -44 -35.5 -91t-37 -109.5t-31 -100t-33.5 -118.5t-28.5 -105t-31.5 -120t-28 -106 q171 17 289 119q26 20 48 -7q22 -28 8 -61q-5 -10 -13 -18q-153 -134 -365 -152q-16 -57 -57.5 -202t-58.5 -207q-17 -24 -71.5 -33t-104.5 3t-56 42q80 264 119 403q-59 5 -164.5 22t-120.5 19q-26 -89 -48.5 -151.5t-52.5 -124.5t-64.5 -101.5t-79 -71t-102 -45 t-128.5 -13.5q-65 0 -116 14t-84 38t-54.5 55t-30 67.5t-8.5 73.5t8 75q22 101 98 181.5t202.5 125t277.5 33.5q21 69 62 207t66 219t52 158q-38 -37 -87 -54.5t-95 -16.5t-98.5 4t-98 6.5t-94.5 -9.5q-68 -10 -107 -38t-42 -85q-1 -41 29 -69t75 -28.5t96 34.5 q27 9 54 -27.5t10 -66.5q-57 -64 -142.5 -83.5t-162.5 5t-119 80.5q-79 99 -51 221q22 90 94.5 140.5t179.5 64.5q80 19 144 14t127 -11.5t115.5 -10t110 20t111.5 77.5zM815 496q-129 4 -209.5 -53.5t-105.5 -149.5q-11 -42 -10 -78.5t24 -61.5t64 -26q82 0 136 93t101 276 z" />
<glyph unicode="I" horiz-adv-x="1110" d="M967 1378q21 30 75.5 38t102 -6t53.5 -40q-53 -161 -246 -809q-21 -70 -34.5 -114t-33.5 -102t-36.5 -93.5t-40.5 -78t-48 -68t-56.5 -52.5t-68.5 -41t-80.5 -23t-96.5 -9q-84 -1 -150.5 27.5t-103.5 75t-52 105t-4 116t49 110.5t99 86q38 12 84 -21.5t39 -70.5 q-49 -61 -57 -127.5t25 -110.5t97 -43q29 0 54 14.5t46.5 45t38 63t35 85.5t31.5 95.5t32 108.5q11 39 17 59q30 106 69.5 249.5t62.5 221.5t40 127q-45 -49 -106.5 -87t-115 -60t-103 -44t-83.5 -52t-44 -72q-31 -122 73 -140q23 -17 11 -64.5t-47 -51.5q-138 -4 -213 77.5 t-52 190.5q12 59 47 102.5t85 71t109 49t126 43.5t130.5 48t128 69.5t112.5 101.5z" />
<glyph unicode="J" horiz-adv-x="1210" d="M328 -602q-81 0 -139 32t-82.5 82t-20 113t40.5 123q26 53 74.5 95.5t119 73.5t126 49.5t141.5 41.5q200 739 330 1184q-44 -50 -104.5 -87.5t-113 -58.5t-102 -42t-83.5 -50.5t-44 -70.5q-32 -123 70 -142q18 -4 19 -33t-16.5 -57t-43.5 -28q-137 0 -209 84t-45 192 q15 58 51 100.5t85.5 69t108.5 47t125 42.5t129 48t126.5 70.5t111.5 103.5q25 30 79 37t98.5 -7.5t45.5 -41.5q-57 -178 -180.5 -598.5t-202.5 -706.5q260 88 402 390q7 9 25 5.5t34 -18.5t10 -28q-39 -87 -89 -159t-97 -118.5t-107.5 -86.5t-106 -62t-106.5 -47 q-24 -86 -38 -133.5t-36.5 -109t-45.5 -102.5q-108 -199 -340 -196zM334 -457q40 -2 84.5 31t73.5 96q35 85 61 205q-231 -75 -281 -194q-22 -62 -2 -99t64 -39z" />
<glyph unicode="K" horiz-adv-x="1695" d="M1520 1386q22 28 74.5 30.5t96.5 -14.5t46 -40q-50 -153 -124 -284t-182.5 -239t-232.5 -153q116 -53 152 -235q9 -37 20 -101t19.5 -109.5t25.5 -102.5t38 -95.5t56.5 -71t81.5 -45.5q16 -14 10.5 -41t-21 -54t-47.5 -46t-69 -16q-56 8 -100 35t-73 70.5t-49.5 89 t-34 108.5t-21.5 111.5t-17 114.5t-16 101q-19 106 -62 157.5t-118 51.5q-24 -89 -42 -148.5t-41.5 -126t-45 -109t-50 -86.5t-60 -70t-71.5 -47.5t-88 -31t-106 -9.5q-83 0 -149 28.5t-103 74t-52 104t-4.5 115.5t48 110.5t98.5 87.5q34 14 82.5 -18t42.5 -72 q-50 -61 -58 -128t26 -111.5t98 -43.5q27 0 50 12t42.5 37t35 51.5t31.5 69.5t27 77t27 87q45 152 111 389t100 346q-45 -48 -106.5 -86t-115.5 -60.5t-103.5 -45t-83.5 -54t-44 -73.5q-28 -117 74 -138q15 -5 16.5 -32t-13 -53.5t-40.5 -30.5q-138 -4 -212.5 81.5 t-47.5 194.5q14 58 49.5 101t85.5 69.5t109 47.5t125.5 43.5t129.5 48t127 69.5t111 102q15 30 72.5 37.5t107.5 -7t49 -40.5q-77 -218 -186 -594q58 19 110.5 51t91.5 65.5t77 82t62 85t51.5 92t40 85.5t34 82.5t27.5 66.5z" />
<glyph unicode="L" horiz-adv-x="1226" d="M977 1370q19 37 76 46t107 -7t54 -41q-45 -130 -113.5 -382t-130 -454.5t-114.5 -302.5q31 -33 79 -86.5t74 -82.5t67 -69.5t68.5 -60.5t67 -42t73.5 -27.5t76 -3t87 17.5q25 2 44.5 -31.5t19 -78.5t-28.5 -72q-68 -23 -133.5 -26t-120 10.5t-108.5 42.5t-98 64t-90 83 t-82 90.5t-78 93.5q-8 11 -13 16.5t-12 14.5t-13 16q-64 -57 -125 -85t-157 -31q-138 -6 -214.5 60t-62.5 179q9 94 93.5 148.5t201.5 51t215 -64.5q61 165 140 463t106 385q-45 -53 -106.5 -92.5t-116.5 -62.5t-106 -45t-86.5 -52.5t-45.5 -72.5q-26 -118 74 -138 q12 -14 13 -38.5t-13 -49t-35 -28.5q-138 -4 -212 78.5t-50 193.5q17 79 75.5 130t141 80t170.5 56t183 79t159 128zM379 236q-21 -41 2 -77t88 -36q97 0 162 102q-57 57 -141.5 62.5t-110.5 -51.5z" />
<glyph unicode="M" horiz-adv-x="2426" d="M2091 -170q-49 18 -84 51t-56.5 73t-30.5 97t-10 112t9.5 130t23.5 139.5t36.5 152.5t44 156t49.5 162q47 153 55 188q37 174 -62 175q-58 -1 -138 -70.5t-154 -171t-134 -213.5q-62 -188 -135 -463t-94 -328q-15 -25 -71 -35.5t-106 1.5t-50 45q49 150 134.5 471 t125.5 452q12 42 18.5 70t14.5 68.5t8 67.5t-5 53t-21.5 39.5t-43.5 13.5q-63 2 -156 -94t-171.5 -218t-141.5 -247q-28 -88 -74 -247t-81.5 -281t-47.5 -154q-22 -28 -76 -38.5t-101.5 2.5t-51.5 44q75 228 178 588q96 338 168 569q-45 -48 -106 -84.5t-114 -58t-102.5 -43 t-83.5 -52.5t-44 -73q-26 -118 75 -140q17 -4 19 -32t-13.5 -55t-41.5 -27q-139 -4 -214 78t-49 194q13 58 47.5 101t84 70t108.5 48.5t126 44.5t131 49.5t129.5 71.5t115.5 104q18 28 66 33t89 -10.5t43 -40.5q-15 -47 -42.5 -141.5t-41.5 -141.5q98 143 223.5 241 t247.5 97q68 0 113 -25t64.5 -68t24 -101t-10.5 -123q237 319 457 319q49 0 86.5 -12.5t61.5 -32t38 -50t19.5 -61t3.5 -71.5t-7 -74.5t-15 -77t-18.5 -72t-20 -66.5t-15.5 -54q-16 -60 -40 -142t-41.5 -140t-36.5 -129.5t-28.5 -123t-12.5 -107.5t5.5 -95t31.5 -73t60 -54 q18 -17 11 -46.5t-25.5 -58t-54 -46t-72.5 -9.5z" />
<glyph unicode="N" horiz-adv-x="1820" d="M1534 1423q67 0 114.5 -22t72.5 -52t34.5 -81t9.5 -91.5t-12 -103t-20.5 -94.5t-23.5 -86q-3 -10 -4.5 -14.5t-3.5 -12t-3 -12.5q-16 -59 -40 -142t-41.5 -141t-36.5 -131t-28 -124.5t-12.5 -108t5 -95.5t30.5 -72t59 -52q12 -12 13 -32.5t-11.5 -45t-30.5 -45t-44 -31.5 t-52 -6q-49 13 -86 37t-58.5 63t-36.5 78.5t-15 100.5t1 110.5t16.5 127t27 131t36.5 142t40.5 141t44.5 144.5q14 45 22.5 77t19 79t11.5 80t-4 64.5t-24 47t-50 15.5q-77 0 -178.5 -93t-192 -232.5t-149.5 -285.5q-34 -109 -77.5 -260.5t-70 -239.5t-45.5 -132 q-12 -28 -68 -38.5t-107.5 3.5t-51.5 47q61 180 184 604.5t162 552.5q-45 -49 -106.5 -86.5t-115 -58.5t-103 -42.5t-83 -51.5t-42.5 -72q-26 -118 75 -142q17 -4 18.5 -32t-15 -55t-42.5 -27q-137 -4 -210.5 79.5t-49.5 192.5q18 80 77.5 132t143.5 82t173 58t186 82 t162 133q18 29 65.5 35t88.5 -10t44 -43q-15 -50 -50 -170t-50 -170q34 57 73 109.5t90.5 106.5t104.5 93t116 64t124 24z" />
<glyph unicode="O" horiz-adv-x="1507" d="M942 1423q101 -7 177.5 -44t121 -91.5t71 -127t33 -147t1 -155t-19 -147.5t-32.5 -129q69 8 148.5 34t136.5 62q16 11 20 -18q5 -40 -13 -66q-4 -7 -9 -10q-154 -99 -322 -119q-82 -212 -235.5 -348t-360.5 -135q-256 0 -362 180q-46 79 -57 191t17.5 227.5t90.5 199.5 q27 16 63.5 5t66 -42t20.5 -55q-41 -74 -56 -169.5t-0.5 -182t71.5 -147t149 -62.5q238 -5 370 346q-104 11 -198.5 49t-167.5 98.5t-123.5 136t-69.5 167t-2 186.5q16 87 64 152.5t115 100.5t141 50t151 10zM926 1272q-93 6 -155.5 -40t-80.5 -142q-15 -77 5.5 -157.5 t68.5 -149t128.5 -118t178.5 -65.5q13 48 23.5 108.5t18 137t1.5 148.5t-23.5 134t-59.5 101t-105 43z" />
<glyph unicode="P" horiz-adv-x="1562" d="M883 1169q47 19 107 -6q43 -17 42 -38q-1 -5 -4 -9q-33 -18 -63 -66t-59 -129.5t-47.5 -144t-47.5 -168.5q191 -53 325 29t162 268q13 87 -11 157.5t-75 114.5t-119 69t-145 28q-94 3 -184 -21t-156.5 -68t-109.5 -105t-43 -131.5t43 -147.5q9 -34 -43.5 -71t-92.5 -19 q-126 85 -126 237q0 146 103 257t263 165.5t344 52.5q98 -1 189.5 -23t170.5 -66.5t134 -107t79 -150.5t7 -191q-27 -169 -133 -282.5t-263.5 -146.5t-353.5 21q-17 -63 -44.5 -173t-46 -176t-34.5 -101q-10 -15 -36.5 -23.5t-57 -8.5t-59 6t-45.5 21.5t-13 36.5 q26 57 60.5 189t69.5 270t78.5 277.5t104 242t130.5 131.5z" />
<glyph unicode="Q" horiz-adv-x="1423" d="M1280 -289q-60 9 -120.5 36.5t-108 60.5t-103 85.5t-91.5 92.5t-87 100q-129 -99 -281 -102q-150 -3 -230 55t-77 160q3 98 84.5 162t206.5 63q156 -2 315 -127q150 153 231 327t89 353q6 145 -66.5 222t-210.5 77q-160 0 -260.5 -91t-111.5 -233q-9 -106 31.5 -190 t130.5 -121q27 -18 -1 -58q-27 -39 -70 -49q-22 -5 -40 3q-144 40 -216 150.5t-63 254.5q11 211 177.5 347t445.5 136q227 -2 360.5 -120.5t126.5 -311.5q-9 -222 -120.5 -427.5t-296.5 -377.5q27 -25 76.5 -74.5t79.5 -77.5t71.5 -61.5t80.5 -51.5t79 -23q64 -21 125 2 q23 -3 38 -39t11 -80.5t-29 -67.5q-95 -26 -176 -4zM485 123q90 0 189 78q-91 88 -178 88q-47 0 -76 -26.5t-31 -61.5q-3 -32 21 -55t75 -23z" />
<glyph unicode="R" horiz-adv-x="1583" d="M1374 -209q-51 5 -95 27t-77 52.5t-62 78t-48.5 90t-38 101.5t-29 101t-23.5 99q-21 130 -94 176q-71 -4 -125 0q-114 -394 -157 -489q-10 -15 -36.5 -23t-56.5 -7.5t-58 7t-45 22.5t-13 37q41 73 136 412.5t118 401.5q77 217 176 286q43 31 118 14q55 -13 62 -37 q2 -7 -2 -14q-104 -94 -207 -481q202 -6 332 81.5t143 252.5q12 137 -89 215t-271 80q-99 0 -189 -30.5t-154.5 -85.5t-86.5 -124q-74 -112 -8 -231q6 -23 -17 -49.5t-58 -40t-59 -2.5q-67 41 -102 110.5t-29 149.5q8 109 72 197t164.5 143t224.5 84t258 28q169 0 301 -53 t205 -154.5t62 -234.5q-13 -165 -116.5 -274t-281.5 -160q51 -44 86 -193q12 -48 22 -82t26.5 -81t36.5 -80t46 -65.5t60 -52t75 -26.5q21 -13 22.5 -44t-12.5 -61t-43.5 -52t-62.5 -19z" />
<glyph unicode="S" horiz-adv-x="1218" d="M1174 1069q-9 -29 -52 -38.5t-83.5 3.5t-45.5 41q9 105 -35.5 154t-126.5 49q-64 2 -112.5 -41t-54.5 -137q-4 -53 16.5 -105t56.5 -97t80 -91.5t88.5 -95.5t80.5 -99.5t56.5 -113.5t16.5 -129q-10 -187 -139 -288t-342 -99q-108 1 -190 34.5t-128 90t-67 131t-15 157.5 t35 168q14 23 58.5 26t84 -14t39.5 -45q-47 -178 16 -289t185 -114q107 -1 168 60.5t67 174.5q3 57 -18.5 111.5t-59 100.5t-82.5 92.5t-89.5 95t-80.5 100t-55 116t-12 134.5q15 150 120.5 233t281.5 82q186 -4 276 -101t62 -257z" />
<glyph unicode="T" horiz-adv-x="1447" d="M483 1395q115 31 200 28.5t179 -27.5t167 -54.5t163 -50.5t166 -17q94 4 139 46t47 122q13 28 61.5 30t65.5 -22q33 -82 8 -166t-84 -125q-61 -42 -138 -56.5t-142 -8t-156 25.5q-19 -61 -39.5 -135t-54 -194.5t-64.5 -229.5q-29 -94 -46 -146t-45 -123.5t-52 -109.5 t-60 -83t-76.5 -66.5t-94.5 -37t-119 -15.5q-63 0 -115.5 14t-88 38.5t-62.5 57t-38 70t-15 76.5t6 77q26 126 145 187q41 13 87.5 -21.5t37.5 -68.5q-50 -61 -57.5 -128.5t27.5 -112t100 -42.5q27 0 51.5 14.5t46 46t38.5 63.5t36 87t31.5 95.5t31.5 107.5q158 577 182 651 q-60 24 -100.5 38t-90.5 26t-92 11t-79 -14q-80 -25 -102 -90q-20 -55 14 -95q41 -49 124 -20q25 9 52 25q31 6 54.5 -29t15.5 -63q-64 -61 -137.5 -85.5t-137 -13.5t-116 49t-78.5 97q-16 38 -19 80.5t9.5 86t38.5 82t71 70t104 48.5z" />
<glyph unicode="U" horiz-adv-x="1849" d="M940 1384q20 27 75 33t101 -11t45 -46q-126 -391 -274 -916q-17 -60 -24 -111t-3.5 -99t29 -75.5t72.5 -27.5q109 1 219.5 119.5t156.5 269.5q37 121 81.5 273t92 319t66.5 231q24 28 78.5 30t99 -21.5t41.5 -59.5q-46 -130 -124 -394t-136 -490q-33 -122 -27.5 -198.5 t54.5 -76.5q70 -1 154.5 91t146.5 229q7 10 25 6t34.5 -19.5t11.5 -27.5q-32 -71 -72.5 -136.5t-97 -134.5t-129 -111t-147.5 -42q-84 0 -133 64t-43 177q-74 -108 -187.5 -178.5t-224.5 -70.5q-99 1 -161 40t-85.5 112t-18 168.5t37.5 217.5q24 92 55.5 200.5t78.5 260.5 t64 211q-44 -49 -104.5 -86t-113.5 -58t-102.5 -42t-83 -51t-42.5 -72q-27 -119 72 -140q17 -7 17.5 -35.5t-15 -54.5t-37.5 -26q-138 -4 -213.5 80t-48.5 192q16 68 62.5 115.5t106 73t136.5 53t150 52.5t150.5 75t133.5 118z" />
<glyph unicode="V" horiz-adv-x="1779" d="M1634 1663q159 -154 166 -401q4 -161 -64.5 -323t-191.5 -284q-55 -53 -155.5 -139.5t-168.5 -147t-146.5 -154.5t-129.5 -191q-19 -26 -67 -35t-90.5 8t-45.5 57q27 174 36.5 373.5t23.5 394t55 393.5q-41 -47 -100.5 -84.5t-113.5 -60.5t-104 -46.5t-85 -54.5t-45 -71 q-27 -122 75 -141q18 -4 19.5 -33t-14.5 -56.5t-42 -27.5q-130 -6 -211 73.5t-55 200.5q18 76 74.5 126.5t135.5 80t162 56.5t174 76t153 118q27 34 80 43.5t95 -4.5t42 -39q-33 -99 -55.5 -240t-31 -246t-19.5 -287t-17 -257q56 82 124 155.5t171 169.5t135 128 q93 92 142.5 212t47.5 248q-3 171 -112 295q-15 42 44 87.5t109 27.5z" />
<glyph unicode="W" horiz-adv-x="2373" d="M2365 1497q27 4 56.5 -13t47 -43.5t25 -55t-9.5 -46.5q-28 -14 -54 -38.5t-50 -63.5t-43.5 -74t-41.5 -94t-36 -98.5t-35 -112t-31.5 -109.5t-31.5 -116.5t-29 -108.5q-35 -126 -80 -220.5t-109.5 -170t-155 -114.5t-204.5 -39q-141 0 -210 83t-64 201 q-67 -132 -174 -207.5t-232 -74.5q-102 1 -165.5 42.5t-85.5 117t-16 170.5t38 214q22 83 196 664q-44 -49 -104 -86t-113.5 -58t-103 -42.5t-83.5 -51t-44 -71.5q-12 -52 5.5 -90.5t70.5 -51.5q15 -6 16 -33t-13.5 -53t-37.5 -28q-145 -3 -214.5 77t-49.5 191 q11 57 45.5 99.5t84 70t109 50t127 46t131.5 50.5t128.5 71t111.5 100q14 16 42 26t58.5 10t59 -5.5t45.5 -20.5t14 -34q-13 -44 -41.5 -136t-39.5 -127.5t-34.5 -115t-42 -143.5t-47 -165t-63.5 -225q-17 -59 -24 -111t-3.5 -100t28.5 -75.5t70 -26.5q93 0 190.5 125 t154.5 319q34 114 79 260.5t96 310.5t70 226q14 30 68 34.5t102 -19t47 -62.5q-155 -467 -276 -930q-13 -50 -14.5 -96t9 -84.5t40 -61.5t75.5 -22q88 0 167.5 98.5t123.5 253.5q19 65 47.5 167t44.5 157.5t40.5 138t40.5 128t40 108.5t43 98t45 77t51.5 65.5t56.5 44 t66 30.5z" />
<glyph unicode="X" horiz-adv-x="1705" d="M1720 1452q32 8 68 -20t49 -65.5t-4 -70.5q-47 -27 -97 -71.5t-106 -112t-98.5 -122.5t-105.5 -149.5t-95.5 -144.5t-97.5 -153q40 -117 76 -202.5t88.5 -178.5t120.5 -160.5t151 -107.5q20 -17 20 -51t-15 -65.5t-41.5 -53t-53.5 -15.5q-72 19 -138 66t-115.5 105 t-97.5 141.5t-81.5 156.5t-71.5 168q-121 -184 -258 -276t-278 -90q-158 3 -238.5 86t-77.5 198q2 72 42 139.5t106 94.5q27 11 61 -3t53.5 -41t10.5 -51q-55 -55 -58 -149q0 -56 31.5 -92t99.5 -35q86 0 198 119t230 321q-88 328 -53 629q-47 -50 -108 -87.5t-113 -58 t-99.5 -41.5t-80.5 -49t-43 -67q-29 -117 71 -141q17 -4 22 -31t-9.5 -54.5t-44.5 -31.5q-130 -6 -209.5 72t-55.5 196q16 75 70.5 125t132.5 80t161.5 56t177.5 73t159 113q21 31 73 41t96 -4.5t46 -43.5q-71 -266 -19 -557q40 68 57.5 98t56.5 94.5t60.5 97t59 87t63 85 t61 70t64.5 62.5t62.5 43t64.5 29z" />
<glyph unicode="Y" horiz-adv-x="1812" d="M1825 451q8 11 26.5 7.5t34.5 -19t10 -29.5q-102 -214 -221 -335.5t-291 -191.5q-30 -127 -59 -198q-58 -152 -141.5 -221.5t-227.5 -69.5q-108 -1 -167 60t-44 155q7 41 25.5 77t42 63.5t60.5 54t69.5 44.5t80 37.5t81.5 31.5t84 28q13 37 44 145.5t42 145.5 q-161 -232 -371 -232q-95 1 -155.5 40t-84 111t-18.5 168t37 218q19 71 44 159.5t45 154.5t52 173t49 162q-44 -49 -104.5 -86t-114 -58t-102.5 -42.5t-83 -51t-44 -71.5q-27 -119 72 -140q18 -5 20 -33t-13.5 -55t-41.5 -28q-138 -3 -212 78.5t-48 189.5q16 69 61.5 117 t105.5 73.5t137 53t150 53t151 76.5t134 120q31 28 86 31t96 -14t37 -41q-59 -187 -83 -265.5t-68 -229.5t-113 -400q-17 -59 -24 -111.5t-4 -100.5t27 -76.5t69 -28.5q109 0 214.5 109.5t172.5 285.5q37 127 122.5 415.5t116.5 395.5q19 24 73.5 26t101 -17.5t44.5 -49.5 q-54 -155 -180.5 -585t-206.5 -718q117 44 223 156t181 283zM1163 -180q-73 -32 -137.5 -82t-85.5 -96q-20 -43 -9 -73.5t50 -29.5q41 3 76.5 39.5t60.5 99.5q14 35 45 142z" />
<glyph unicode="Z" horiz-adv-x="1417" d="M1307 1393q64 29 109 17.5t68.5 -45t18.5 -71.5q-82 -110 -174 -262t-161.5 -280t-160 -280.5t-169.5 -260.5q28 -27 75 -76t78 -79.5t75.5 -70t81.5 -60t82 -37t92.5 -13.5t96.5 23q26 -4 44 -39.5t15 -79t-32 -64.5q-68 -24 -135.5 -26t-123 12t-114 46.5t-103 66.5 t-95.5 85t-85 89.5t-79 91.5l-15 18q-73 -64 -134.5 -89.5t-149.5 -26.5q-137 -2 -220 55t-79 164q5 96 88 161t205 62q153 -5 286 -100q75 103 253.5 435.5t277.5 479.5q-57 -23 -127 -23.5t-130 13.5t-128.5 28t-122.5 20.5t-111 -9.5q-84 -21 -113 -87q-25 -55 4 -97 q37 -51 122 -29q32 8 69 28q20 11 42 -9t28 -46.5t-6 -42.5q-64 -56 -140.5 -76.5t-141.5 -6.5t-117 54t-72 99q-11 41 -13 84t16 87.5t47 82.5t80 68t117 44q73 16 147 14t135 -17.5t126.5 -30.5t122.5 -26t122.5 -4t127.5 36zM430 287q-63 1 -95.5 -41.5t-8 -84 t99.5 -38.5q95 3 166 92q-69 72 -162 72z" />
<glyph unicode="[" horiz-adv-x="962" d="M201 -332q-69 0 -91 28t-1 105l395 1491q19 68 46.5 88.5t84.5 20.5h262q24 0 27 -39t-14.5 -78t-43.5 -39h-166l-383 -1421h160q23 0 25.5 -39t-14 -78t-39.5 -39h-248z" />
<glyph unicode="\" horiz-adv-x="1204" d="M911 4q-61 76 -167 257.5t-204 360.5t-210.5 365t-186.5 273q-26 30 16 63q43 35 99 32q39 -2 61 -28q67 -83 181 -273.5t215 -376t207.5 -368t160.5 -250.5q24 -33 -25.5 -58.5t-104.5 -16.5q-29 4 -42 20z" />
<glyph unicode="]" horiz-adv-x="956" d="M739 1401q69 0 92 -28t3 -105l-383 -1491q-19 -68 -46.5 -88.5t-82.5 -20.5h-263q-24 0 -28 39t13 78t44 39h166l371 1421h-160q-23 0 -26 39t13.5 78t39.5 39h247z" />
<glyph unicode="^" horiz-adv-x="1001" d="M819 975q6 -27 -19 -57.5t-57.5 -40t-60.5 9.5l-172 276l-250 -270q-17 -16 -39.5 -17.5t-41.5 8.5t-34.5 25.5t-18 34.5t8.5 35l305 340q36 40 94 37.5t80 -41.5z" />
<glyph unicode="_" horiz-adv-x="970" d="M248 -135q-29 0 -39 33.5t5 67.5t48 34l488 -2q31 0 42 -33t-4 -66.5t-47 -33.5h-493z" />
<glyph unicode="`" horiz-adv-x="460" d="M264 1737q61 -83 125 -178q23 -34 -18 -54q-39 -19 -81 -5q-17 5 -26 16l-155 182q-23 27 20 49q45 23 95 13q28 -6 40 -23z" />
<glyph unicode="a" horiz-adv-x="1030" d="M487 866q115 20 242 -7.5t207 -108.5q15 -25 -28 -74t-68 -37q-61 50 -140.5 71.5t-152.5 12.5q-88 -12 -167.5 -82.5t-127.5 -173.5q-47 -100 -55.5 -192.5t26.5 -127.5q47 -47 124 20t146.5 195.5t104.5 260.5q13 17 45 19.5t64.5 -5t58.5 -22.5t29 -31 q-61 -207 -78 -301q-34 -150 37 -150q59 2 146.5 96.5t141.5 223.5q7 10 25.5 6t35.5 -19.5t11 -27.5q-88 -185 -206 -302.5t-253 -117.5q-75 0 -111 67t-18 179q-32 -55 -59.5 -93.5t-67.5 -78.5t-90.5 -61.5t-109.5 -22.5q-120 -2 -187 85t-41 250q22 133 101.5 253.5 t189.5 198.5t225 97z" />
<glyph unicode="b" horiz-adv-x="1009" d="M297 -16q-65 1 -114 19.5t-78.5 49.5t-47.5 76.5t-24 95.5t-4 111q-8 105 18 258t73.5 313.5t86.5 274t78 213.5q17 13 53.5 15.5t72.5 -4t63.5 -22t27.5 -34.5q-75 -195 -187 -578q66 47 145 73t152 17q81 -11 133.5 -57.5t71.5 -115t14 -151t-35.5 -169t-80.5 -164.5 q198 -11 309 248q7 10 25 6.5t35.5 -19t11.5 -28.5q-161 -353 -465 -293q-148 -138 -334 -135zM301 125q96 -10 168 76q-15 30 -9.5 59.5t30 49t53.5 12.5q18 40 33 87t25 104.5t7.5 103t-28 78t-74.5 34.5q-101 5 -232 -108q-21 -56 -37.5 -112t-28.5 -125.5t-9.5 -122.5 t27.5 -92t75 -44z" />
<glyph unicode="c" horiz-adv-x="858" d="M510 870q78 -1 132.5 -24.5t79 -60t29 -80t-13 -87t-51.5 -79.5q-20 -23 -68.5 -29.5t-88.5 4.5t-40 33q19 23 33 51.5t20 56.5t-5 47.5t-41 22.5q-57 6 -115.5 -41.5t-100.5 -133t-51 -183.5q-9 -107 47 -172t158 -68q85 -3 164.5 29.5t152 108t121.5 188.5q7 10 25 5.5 t35 -20t12 -26.5q-48 -105 -106.5 -184t-117.5 -126.5t-127 -75.5t-130 -36.5t-131 -5.5q-156 6 -251 118t-87 265q5 95 46.5 186t108 162t161.5 113.5t200 41.5z" />
<glyph unicode="d" horiz-adv-x="1040" d="M829 1393q10 13 45.5 16.5t73 -2.5t67.5 -21.5t29 -35.5q-206 -601 -269 -879q-78 -340 9 -338q58 1 137 97.5t132 222.5q8 10 26.5 6t34.5 -19.5t10 -27.5q-54 -116 -117 -206t-148 -151.5t-173 -62.5q-83 -2 -127 66t-29 182q-25 -51 -55 -93.5t-70 -81t-92 -60.5 t-110 -23q-88 -2 -144.5 41t-73.5 116t-7.5 160.5t49.5 180t102 169.5q44 57 100 99t110.5 65.5t112 35t106.5 11t93 -9.5q70 255 178 543zM610 709q-82 16 -172 -28t-155 -153q-36 -60 -61.5 -139t-25.5 -151.5t37 -96.5q51 -39 131.5 33t145.5 221q44 99 100 314z" />
<glyph unicode="e" horiz-adv-x="901" d="M520 868q83 -3 141.5 -36t83.5 -82.5t24 -109.5t-30 -116q-58 -117 -194.5 -164t-313.5 -6q-9 -98 45.5 -158t161.5 -71q56 -6 117 8t127 49t127.5 105t103.5 166q8 10 26.5 6t35.5 -19.5t12 -27.5q-199 -445 -606 -432q-91 3 -163 29.5t-116.5 70.5t-72.5 102t-30 123 t11 135q41 198 184 316t326 112zM494 723q-72 4 -146 -75t-102 -189q110 -17 186.5 17t108.5 104q28 51 18 96.5t-65 46.5z" />
<glyph unicode="f" horiz-adv-x="706" d="M313 1249q35 52 77.5 89t85.5 54.5t87 22t81 -9t68.5 -38t49.5 -65t24.5 -90t-8.5 -112.5q-21 -108 -76.5 -207.5t-131.5 -176.5t-159.5 -135.5t-172.5 -97.5q-33 -106 -56 -211q129 -31 187 -35q249 -17 350 216q8 10 25.5 6t34 -19t12.5 -26q-27 -67 -62 -116.5 t-75.5 -78.5t-79.5 -46.5t-87.5 -22.5t-86 -5t-87.5 5q71 -81 96.5 -190t8.5 -213.5t-68 -190.5q-96 -161 -274 -158q-121 1 -169.5 75.5t-39.5 217.5q6 120 41 314t90 407q156 590 315 837zM475 1167q-45 -85 -101 -232t-100 -300q117 86 206.5 222.5t121.5 283.5 q7 37 5 64.5t-15.5 38.5t-31 9.5t-40.5 -24.5t-45 -62zM145 131q-74 -321 -79 -475q-2 -95 39 -106q35 -10 73 48q18 27 31 64q27 79 34 162t-16 169.5t-82 137.5z" />
<glyph unicode="g" horiz-adv-x="1015" d="M508 868q113 13 230.5 -14.5t203.5 -103.5q14 -25 -30 -75.5t-68 -33.5q-59 48 -133.5 69t-145.5 15q-92 -7 -173.5 -77t-137.5 -181q-50 -102 -58 -195t29 -127q48 -42 131 25.5t154 212.5q54 111 96 242q10 15 42 17t65 -6t60 -22.5t28 -29.5q-28 -99 -75.5 -280 t-78.5 -290q227 92 383 441q7 9 25.5 4.5t35.5 -20t11 -27.5q-105 -220 -214.5 -340t-275.5 -191q-73 -269 -159.5 -377.5t-251.5 -109.5q-105 -3 -166 52.5t-49 154.5q7 57 38 105.5t70 81.5t102 64.5t112.5 50t123.5 42.5q31 91 90 286q-134 -244 -323 -249 q-103 -2 -163 57.5t-68.5 151t23.5 202t101 207.5q80 115 192 184.5t224 83.5zM399 -186q-73 -31 -132.5 -76.5t-80.5 -89.5q-30 -63 3 -93q29 -26 77 -1q65 35 99 137q7 23 19 68.5t15 54.5z" />
<glyph unicode="h" horiz-adv-x="989" d="M301 1393q12 12 39 16.5t58 1t59 -11t45 -21.5t14 -30q-68 -164 -215 -684q184 208 334 208q120 1 158.5 -77t1.5 -207q-16 -58 -47 -161q-58 -193 -60 -245q-1 -59 39 -57q59 1 140.5 99.5t136.5 228.5q7 11 25.5 7t35 -20t10.5 -28q-197 -421 -432 -430 q-62 -3 -102.5 13t-58 46.5t-23 72t3.5 89.5q5 39 23.5 109t44 158t30.5 108q7 27 9.5 47t0 40.5t-17.5 31.5t-41 10q-50 -1 -121.5 -62.5t-128.5 -144.5q-76 -280 -119 -477q-6 -23 -81 -33q-92 -12 -135 13q-25 14 -19 38q86 358 197 741.5t196 610.5z" />
<glyph unicode="i" horiz-adv-x="497" d="M285 991q-52 0 -83 36t-24 89q9 56 49 90t97 33q55 0 85.5 -34.5t22.5 -88.5q-6 -56 -46 -90.5t-101 -34.5zM129 -18q-122 -3 -160.5 64t-9.5 192q41 174 166 606q16 22 66 25t96 -12.5t53 -39.5q-27 -95 -65 -227.5t-56.5 -199.5t-32.5 -130q-6 -33 -8.5 -56.5t-1 -42.5 t10 -28t24.5 -8q69 0 157 99t142 229q8 11 26.5 7t35 -20.5t10.5 -29.5q-28 -61 -59.5 -115.5t-76 -113t-91 -100.5t-106 -70t-120.5 -29z" />
<glyph unicode="j" horiz-adv-x="487" d="M279 991q-52 0 -83 36t-24 89q8 56 48 90t95 33q55 0 86 -34.5t25 -88.5q-8 -56 -48 -90.5t-99 -34.5zM-344 -606q-71 -1 -121 25t-69.5 68.5t-14 95.5t38.5 104q19 45 58 83.5t97 70.5t109 54t123 48q104 383 238 901q12 22 64.5 24.5t100.5 -14t50 -39.5 q-76 -249 -224 -801q243 102 396 441q7 9 24.5 4t33.5 -20.5t11 -26.5q-102 -216 -216.5 -337.5t-282.5 -193.5q-72 -274 -162 -379t-254 -108zM-317 -457q36 0 76 38t63 110q26 85 35 123q-73 -34 -131.5 -79t-79.5 -87q-23 -49 -10 -78t47 -27z" />
<glyph unicode="k" horiz-adv-x="935" d="M950 455q7 9 25 4.5t34.5 -20t10.5 -27.5q-92 -195 -217 -313t-258 -119q-264 0 -236 421q176 64 252 163q53 69 27 114q-9 16 -29 24q-43 22 -112.5 -11t-131.5 -107t-84 -158q-71 -270 -100 -399q-6 -14 -32 -24.5t-59.5 -13.5t-66 -0.5t-53 16t-18.5 34.5 q144 576 383 1354q12 19 65 19.5t101 -18t47 -46.5q-8 -28 -88.5 -291.5t-110.5 -376.5q52 69 120.5 116t133 63.5t121 9.5t90.5 -38q47 -41 52 -107.5t-27.5 -135t-111.5 -132.5t-188 -96q-7 -235 119 -235q92 -2 179 80t163 250z" />
<glyph unicode="l" horiz-adv-x="692" d="M406 1368q58 39 120 46.5t111 -16.5t84 -73.5t39 -124t-23 -168.5q-52 -177 -182.5 -317.5t-327.5 -222.5q-77 -355 103 -369q105 -8 206.5 90t170.5 242q7 9 25 4.5t34.5 -20t11.5 -27.5q-34 -69 -62.5 -119.5t-66.5 -106.5t-78.5 -93t-90 -67t-109 -41t-127.5 -3 q-100 12 -158 70.5t-73 157.5t-4 215t46 265q56 236 147 420t204 258zM547 1255q-38 1 -79 -65t-89 -189q-72 -182 -121 -364q79 54 147 142t111 186q52 120 62 202t-31 88z" />
<glyph unicode="m" horiz-adv-x="1435" d="M1090 -18q-115 -4 -158.5 57t-22.5 170q6 37 21.5 100t38.5 151t30 118q7 28 9.5 46.5t1.5 40.5t-13.5 33t-35.5 11q-53 -1 -128.5 -76.5t-109.5 -159.5q-20 -73 -59 -236.5t-52 -211.5q-11 -22 -65 -31.5t-105 1t-55 38.5q39 162 135 553q6 22 8 41.5t-1 38t-15 29.5 t-33 10q-46 0 -112.5 -66t-120.5 -160q-52 -174 -117 -456q-5 -14 -31 -23t-59 -10.5t-65.5 3t-53 18.5t-18.5 34q37 140 106.5 397.5t108.5 403.5q16 22 66 25.5t96 -12.5t51 -44l-45 -162q64 88 151.5 154t171.5 65q82 0 121.5 -56t22.5 -148q161 206 323 204 q222 0 160 -268q-6 -27 -20 -72.5t-27 -87.5t-27 -90.5t-21.5 -87.5t-9.5 -72t7.5 -51t31.5 -18q58 0 140.5 98t138.5 230q7 10 25.5 6t35.5 -19.5t11 -27.5q-28 -60 -58 -113.5t-73 -113t-87.5 -102t-100.5 -71t-113 -30.5z" />
<glyph unicode="n" horiz-adv-x="995" d="M637 872q112 -1 149.5 -78t6.5 -208q-11 -45 -43.5 -150.5t-44.5 -156.5q-16 -57 -13 -105.5t37 -48.5q61 0 141.5 96t139.5 232q7 10 25 6t34.5 -19.5t11.5 -27.5q-27 -59 -57.5 -113.5t-73.5 -114t-88 -102.5t-101.5 -71t-113.5 -29q-112 -3 -155 55.5t-23 163.5 q7 40 44 193t44 184q6 28 8.5 46.5t0.5 39.5t-15.5 31.5t-38.5 9.5q-51 -1 -123 -60t-133 -141q-51 -172 -123 -481q-11 -22 -66.5 -31t-108 3t-54.5 44q30 123 61.5 241t83.5 305t72 259q16 22 64 27t94 -10.5t55 -45.5q-32 -118 -45 -160q74 86 166 152t182 65z" />
<glyph unicode="o" horiz-adv-x="1011" d="M516 872q106 2 177.5 -39t101.5 -110t31 -156t-28 -180.5t-81 -179.5q194 -19 307 246q8 10 26.5 6.5t35 -19t10.5 -28.5q-39 -84 -84.5 -145t-90.5 -92.5t-94.5 -48.5t-95 -14.5t-92.5 9.5q-144 -141 -342 -141q-62 0 -113.5 14t-95.5 44.5t-68.5 80t-33 119.5t11.5 163 q42 209 187.5 338.5t330.5 132.5zM489 727q-86 -4 -158.5 -104t-97.5 -224q-54 -274 97 -274q77 0 139 72q-28 43 0 87t72 35q31 73 47 144.5t15 132.5t-30 97.5t-84 33.5z" />
<glyph unicode="p" horiz-adv-x="1017" d="M623 868q88 -3 140.5 -54.5t64 -129t1 -166.5t-41.5 -171.5t-72 -139.5q203 -24 315 246q7 10 25.5 6t35.5 -19.5t11 -27.5q-36 -82 -80 -142t-89 -93.5t-95 -49.5t-96 -15.5t-93 13.5q-81 -86 -181 -120t-188.5 -16t-150.5 79q-22 -96 -74 -310.5t-78 -326.5 q-11 -20 -64.5 -26.5t-102.5 5t-48 33.5q158 676 355 1401q6 20 55.5 26t99.5 -10t56 -49q0 -2 -29 -84q68 67 153.5 106t170.5 35zM506 711q-53 1 -120.5 -35t-119.5 -90q-20 -71 -53 -198t-49 -187q53 -69 147 -73t154 62q-23 31 -16.5 63t33.5 52.5t50 7.5 q32 67 50.5 136t20 127.5t-23 96t-73.5 38.5z" />
<glyph unicode="q" horiz-adv-x="1024" d="M514 872q105 10 225 -23.5t197 -113.5q11 -25 -26.5 -69.5t-65.5 -38.5q-59 50 -131.5 77t-139.5 25q-116 -4 -206 -97t-140 -231q-61 -171 -20 -240q30 -50 97 -17q87 45 171 196q71 125 115 281q8 17 40 20t66 -4t61 -22.5t27 -32.5q-136 -493 -170 -631 q33 35 102 99.5t119 113t108.5 127.5t94.5 162q7 10 25 6.5t35 -19t12 -28.5q-13 -29 -27.5 -57t-27 -51t-30.5 -49t-29 -42.5t-31.5 -41.5t-29.5 -36.5t-31.5 -36t-29 -31t-30.5 -31.5t-27 -28q-6 -6 -40 -42.5t-43 -46.5t-38.5 -44t-40.5 -51t-33.5 -51t-34.5 -60.5 t-26 -63t-24 -73.5l-27 -139q-12 -25 -67 -33t-105 4.5t-49 36.5q11 48 39.5 184.5t46 212t52.5 186.5t75 195q-62 -107 -145 -174.5t-171 -68.5q-117 -3 -177.5 87t-37.5 234q19 114 72.5 217.5t127.5 177.5t163.5 120.5t179.5 55.5z" />
<glyph unicode="r" horiz-adv-x="794" d="M53 344q-11 -19 -47 0t-26 39q63 127 100.5 224.5t73.5 228.5q-75 107 -32 188q28 51 84 62q59 10 89 -34q33 -48 10 -137q22 -23 62.5 -59.5t68.5 -62.5t58 -62t43.5 -65t11 -63.5t-26.5 -65.5q-147 -185 -155 -306q-7 -104 84 -104q83 0 182 81t176 247q7 9 24.5 4 t34 -20.5t11.5 -26.5q-86 -199 -212 -315t-296 -115q-116 1 -177 61.5t-61 159.5q0 61 28.5 135t58.5 124t83 128q13 21 14.5 41.5t-11 43t-22.5 36.5t-32.5 38t-28.5 31q-63 -228 -170 -436z" />
<glyph unicode="s" horiz-adv-x="913" d="M311 -23q-99 0 -169 66.5t-64 181.5q8 26 36 42t53.5 15t41.5 -12q-9 -64 21 -104.5t81 -40.5q30 0 57.5 14t41.5 35q-26 23 -29 57.5t15 59t46 24.5q2 76 -46 241t-54 245q-130 -128 -289 -457q-9 -11 -27.5 -8t-35 18t-10.5 29q164 354 331 508q78 73 166 72 q67 -1 89 -44q23 -43 -21 -102q9 -69 29 -144t37.5 -125t33 -114.5t16.5 -112t-12 -118.5q77 3 149 62.5t128 189.5q7 9 25 4t34.5 -20.5t11.5 -26.5q-139 -308 -391 -301q-44 -64 -123 -100t-172 -34z" />
<glyph unicode="t" horiz-adv-x="630" d="M252 -18q-58 -1 -103 14t-74 40t-46.5 66t-25.5 82.5t-6 100.5t7.5 109.5t20 119.5t26.5 120t31 122h-62q-29 18 -19.5 71.5t36.5 63.5h82q97 315 157 467q14 20 67 21t101.5 -16.5t49.5 -45.5q-71 -198 -140 -426h172q27 -22 18 -74.5t-34 -60.5h-193q-56 -192 -79 -301 q-75 -327 57 -330q89 -2 187.5 90t162.5 238q8 10 26 6t34.5 -20t11.5 -29q-184 -425 -465 -428z" />
<glyph unicode="u" horiz-adv-x="1001" d="M635 842q12 22 61.5 26t97 -11.5t54.5 -43.5q-7 -25 -28 -96t-35.5 -123.5t-34 -127t-29 -128t-15 -104t3 -77t29.5 -26.5q57 -1 137.5 94.5t137.5 227.5q8 11 26.5 7t34.5 -20t10 -28q-28 -57 -52 -99.5t-69.5 -108t-88.5 -108.5t-103 -75t-121 -31q-81 0 -115.5 77.5 t-9.5 174.5q-161 -267 -385 -260q-59 1 -99.5 22.5t-59 58.5t-24 85t6.5 102q22 122 86 343.5t70 244.5q12 24 64.5 29t100.5 -10.5t48 -41.5q-4 -16 -50.5 -190t-68.5 -271q-8 -34 -13 -57.5t-9.5 -51.5t-3.5 -46.5t6 -35t17 -24.5t30 -8q63 0 144.5 85t125.5 210 q31 94 123 416z" />
<glyph unicode="v" horiz-adv-x="966" d="M131 836q18 24 69 30t96.5 -9.5t49.5 -43.5q-10 -32 -27 -84.5t-30.5 -95.5t-30.5 -98.5t-28.5 -99.5t-22.5 -91.5t-14 -83t-1.5 -65t13 -46t31.5 -18.5q66 -6 139 70q-22 36 -14 67.5t39 48t61 0.5q64 104 108.5 247t51.5 274q11 22 62 30t100 -7t55 -50 q-40 -377 -228 -602q246 -49 371 244q8 10 26.5 6.5t35 -19t10.5 -28.5q-42 -92 -95.5 -155t-105 -94.5t-111 -43.5t-109 -9t-104.5 17q-167 -153 -362 -145q-231 6 -195 270q13 93 36.5 184t69.5 232t54 168z" />
<glyph unicode="w" horiz-adv-x="1464" d="M686 -18q-90 2 -138 62t-38 167q-82 -126 -181.5 -178.5t-191.5 -48.5q-219 3 -170 278q12 71 34.5 157.5t35.5 129t50.5 157.5t41.5 128q22 27 76 31.5t98 -12.5t41 -44q-114 -356 -143 -502q-9 -41 -12 -67.5t-1.5 -53t14.5 -40.5t38 -15q61 -5 139 74t129 217 q82 238 135 409q15 25 66.5 32.5t98 -7.5t48.5 -45q-8 -23 -35.5 -101.5t-40.5 -117t-33 -108.5t-34 -136q-26 -106 -20.5 -161.5t46.5 -55.5q33 0 69.5 20.5t63.5 53.5q-17 24 -15.5 51t17 43.5t37.5 23.5t45 -8q55 79 107 240t53 283q8 21 59.5 29t102 -6t55.5 -46 q-4 -153 -73 -332t-152 -274q45 -13 95.5 -5.5t98 31t95 79.5t84.5 139q7 10 25 6t34 -20t10 -29q-42 -90 -94 -152.5t-103 -94.5t-110 -44.5t-110 -9t-107 17.5q-142 -145 -340 -145z" />
<glyph unicode="x" horiz-adv-x="1040" d="M1055 453q7 9 24.5 4.5t33.5 -19.5t11 -26q-75 -166 -179.5 -282t-211.5 -140q-171 -40 -244 116q-34 67 -59 130l-186 -224q-25 -32 -116 -33q-78 0 -98 22q-9 10 3 22l323 389l-57 184q-12 33 -20.5 51t-18.5 28.5t-20.5 6t-22.5 -22.5q-17 -25 -39.5 -68t-59.5 -117.5 t-67 -131.5q-7 -8 -26 -4.5t-35.5 18t-9.5 27.5q28 52 64.5 130t62 132t57.5 108t67.5 83.5t75.5 33.5q94 11 133 -44.5t92 -231.5l185 225q30 36 121 31q72 -4 91 -25q6 -10 -1 -18l-324 -393q6 -20 20.5 -70t24.5 -78q25 -70 51 -105.5t62 -31.5q72 8 148.5 91t144.5 233z " />
<glyph unicode="y" horiz-adv-x="993" d="M178 -606q-106 -3 -167.5 52.5t-49.5 154.5q7 57 38 105.5t70 81.5t102.5 64.5t113 50t123.5 42.5q17 44 86 272q-84 -129 -183.5 -186t-189.5 -47q-78 5 -121.5 43.5t-49.5 98.5t11 138q22 94 79.5 287.5t76.5 286.5q11 23 61.5 29t98 -8t51.5 -42q-17 -70 -63 -249.5 t-68 -272.5q-10 -38 -14 -65t-2.5 -51t13.5 -36t35 -12q62 -1 140 86.5t131 214.5q65 155 127 410q17 24 68.5 26.5t97.5 -14t49 -41.5q-46 -167 -116 -427.5t-101 -371.5q236 106 383 441q7 9 25 5t34.5 -19.5t11.5 -28.5q-102 -219 -214.5 -338t-276.5 -193 q-54 -194 -108 -297.5t-123.5 -146t-178.5 -43.5zM215 -457q77 18 125 148q18 51 35 123q-142 -66 -197 -144q-37 -51 -26 -93.5t63 -33.5z" />
<glyph unicode="z" horiz-adv-x="968" d="M319 903q43 -66 133 -90.5t191 -3.5q46 14 83 14t63 -12t39.5 -30.5t13 -42.5t-16.5 -46q-10 -14 -60 -87t-66.5 -95.5t-61 -83.5t-72.5 -94.5t-70.5 -82t-84.5 -89.5q41 1 111.5 -20.5t121.5 -18.5q92 5 181.5 90.5t158.5 241.5q7 10 24.5 5.5t34.5 -20t13 -26.5 q-88 -197 -215 -318t-262 -125q-58 -2 -109 14t-98 29.5t-101 7.5q-94 -75 -172 -50q-50 16 -62 63q-14 58 41 105q31 26 81 42q234 237 393 482q-82 -13 -172 18.5t-137 99.5q-58 -179 -191 -436q-9 -11 -27 -8t-34 18t-10 27q51 108 74 158t57 137.5t63 181.5 q-64 95 -24 169q26 48 77 57q55 9 83 -39q28 -50 9 -142z" />
<glyph unicode="{" horiz-adv-x="927" d="M541 -301q-39 -17 -91 -23.5t-103.5 0t-93.5 34t-56 73.5q-43 127 10 321q13 56 43 147t39 126q10 39 -20.5 63t-84.5 29q-26 3 -31 35t10 63.5t38 32.5q64 2 106.5 20t61.5 66q18 43 62 270.5t79 298.5q26 55 69.5 91t94.5 50t105.5 11.5t107.5 -21.5q19 -6 22.5 -28.5 t-4.5 -46t-23 -41.5t-30 -17q-62 8 -100 -15t-64 -85q-26 -55 -64.5 -260.5t-58.5 -253.5q-21 -48 -59.5 -80t-85.5 -35q39 -21 57.5 -52.5t18 -63t-6.5 -66.5q-9 -41 -38.5 -123t-40.5 -127q-52 -188 6 -254q38 -35 119 -12q22 2 32 -24.5t2.5 -58.5t-28.5 -44z" />
<glyph unicode="|" horiz-adv-x="929" d="M301 -551q-9 -33 -62.5 -45.5t-99.5 4t-37 53.5l484 1928q8 34 60.5 43.5t98 -7.5t37.5 -47z" />
<glyph unicode="}" horiz-adv-x="1001" d="M111 -315q-19 6 -22.5 28.5t4.5 46t23.5 41.5t30.5 17q62 -8 99 14.5t65 85.5q24 56 63 261t60 255q19 47 58.5 79.5t85.5 35.5q-99 56 -68 182q9 41 38.5 124t41.5 126q49 186 -6 252q-38 35 -121 12q-21 -2 -30.5 24.5t-2.5 58.5t27 44q39 17 91.5 23.5t104.5 0t94 -34 t56 -73.5q41 -122 -10 -321q-16 -60 -47 -154.5t-37 -116.5q-9 -41 20.5 -65t83.5 -29q27 -2 32.5 -34t-9.5 -64t-39 -33q-134 -4 -168 -84q-18 -45 -62.5 -273t-77.5 -298q-27 -55 -70 -91t-94 -50t-105.5 -11.5t-108.5 21.5z" />
<glyph unicode="~" horiz-adv-x="1044" d="M666 502q-50 -1 -95 21t-84.5 45t-74.5 24q-41 0 -68 -18t-53 -54q-12 -10 -33.5 -2.5t-39.5 30.5t-11 40q23 56 77 102t128 47q50 0 95 -23t84 -45.5t75 -21.5q42 0 68.5 17.5t53.5 52.5q11 10 32 3.5t38 -29t10 -40.5q-24 -56 -76.5 -102.5t-125.5 -46.5z" />
<glyph unicode="&#xa1;" horiz-adv-x="735" d="M502 836q45 0 75 -33t27 -78t-38.5 -78t-80.5 -33q-49 0 -77 32.5t-25 78.5q5 46 39.5 78.5t79.5 32.5zM510 424q-35 -125 -131 -496t-127 -479q-12 -43 -70 -49.5t-106.5 16.5t-38.5 52q54 164 152.5 501.5t138.5 464.5q15 36 63 43t87 -11t32 -42z" />
<glyph unicode="&#xa2;" horiz-adv-x="1044" d="M913 385q-164 -158 -368 -168q-21 -79 -51 -215q-6 -24 -43 -32.5t-68.5 4.5t-24.5 42q6 27 24 96.5t28 112.5q-71 12 -127 44.5t-89 77t-52.5 100.5t-18.5 114t14 117q17 80 61.5 157.5t107.5 140t146.5 103t170.5 45.5q32 135 43 174q9 38 59 45q47 6 70 -17 q11 -13 8 -30l-43 -176q78 -12 126 -50.5t60.5 -88.5t2 -103t-43.5 -96q-25 -39 -84 -38q-48 2 -60 28q-7 12 1 27q14 25 21.5 50.5t7 51.5t-17 46t-48.5 28q-124 -519 -145 -615q164 4 276 109q15 13 36.5 -2.5t28 -39t-7.5 -42.5zM328 610q-8 -97 18.5 -156.5t99.5 -78.5 q46 198 142 600q-100 -13 -173 -119t-87 -246z" />
<glyph unicode="&#xa3;" horiz-adv-x="1191" d="M254 -16q-28 -22 -60 -18.5t-50 25t-22.5 50.5t23.5 57q85 81 128 204t57 298h-105q-28 0 -37 32t4.5 63.5t40.5 31.5h103q5 110 17 195.5t41.5 169.5t74 138.5t117.5 88t170 33.5q105 0 181.5 -46.5t108 -136t-5.5 -219.5q-9 -34 -63 -45t-80 12q-14 13 -10 33 q30 122 -6.5 189.5t-124.5 62.5q-46 -1 -81.5 -19t-59 -52t-40 -74.5t-25.5 -98t-13.5 -110.5t-6.5 -123q116 0 175 2q24 0 30 -32t-9.5 -64t-43.5 -33h-158q-23 -241 -112 -416q67 17 149 -2q20 -5 62.5 -18t65 -18.5t59.5 -9.5t63 2t58 24t61 49q15 14 35 9t34 -22 t21.5 -37.5t-4.5 -37.5q-37 -54 -79 -84t-88 -36.5t-83 -4.5t-88 10t-78 8q-42 -1 -97 7t-88.5 13t-77 -6t-83.5 -44z" />
<glyph unicode="&#xa4;" horiz-adv-x="1284" d="M418 1155q26 -37 49 -72q103 52 219.5 50.5t204.5 -60.5q45 49 72 82q48 57 113 38q45 -13 62 -51q11 -27 -3 -50q-45 -48 -129 -146q55 -122 26 -272.5t-127 -261.5q100 -138 117 -164q11 -19 6.5 -40.5t-23.5 -39t-41.5 -28t-47 -6.5t-39.5 24q-30 45 -109 145 q-93 -58 -206.5 -69t-201.5 28q-39 -41 -96 -110q-17 -20 -42 -22.5t-46 10t-37.5 32.5t-17 44t15.5 44l86 102q-66 86 -73 203.5t39 230t133 193.5l-70 105q-21 32 10 70q34 40 82 37q44 -2 74 -46zM678 975q-131 3 -217.5 -83t-110.5 -222q-21 -129 27 -202t143 -75 q128 -3 214 83t110 220q21 128 -26 202.5t-140 76.5z" />
<glyph unicode="&#xa5;" horiz-adv-x="1093" d="M926 1327q26 29 66.5 22t72 -40.5t14.5 -59.5q-205 -338 -430 -610h113q23 0 29 -30.5t-9.5 -61t-44.5 -31.5h-159l-11.5 -46l-11.5 -46q111 0 158 2q27 0 30 -38q3 -44 -24 -71q-15 -13 -33 -14q-49 -2 -162 -2q-12 -47 -32 -134t-33 -138q-17 -51 -85 -56 q-56 -4 -87 23q-18 16 -13 35q33 122 64 272q-22 1 -69.5 2t-69.5 2q-26 1 -34 31t6.5 60t43.5 30q51 -2 150 -2l18 92q-56 0 -150 4q-26 1 -32 31.5t10 60.5t45 29q20 -1 61.5 -2t61.5 -2q-104 343 -158 639q-3 35 42 56.5t93 12t54 -48.5q54 -334 125 -561 q172 220 391 590z" />
<glyph unicode="&#xa6;" horiz-adv-x="888" d="M569 598q-9 -37 -62 -49t-99 6t-37 51l196 783q9 33 62 43t99 -7.5t38 -50.5zM281 -551q-9 -32 -62.5 -44t-100 3.5t-38.5 50.5l199 789q11 37 63.5 48t97.5 -6.5t37 -49.5z" />
<glyph unicode="&#xa7;" horiz-adv-x="1042" d="M580 1427q124 0 207 -62.5t112 -180.5q1 -26 -29 -44t-64.5 -16.5t-45.5 23.5q-16 75 -81.5 111.5t-127 15.5t-66.5 -90q-2 -35 17 -70t51.5 -65t72.5 -62t80 -68t73 -75t53 -90.5t18 -108.5q-3 -81 -47 -153.5t-123 -116.5q24 -53 24.5 -110t-21.5 -108t-61 -92 t-99 -65.5t-130 -24.5q-144 1 -223.5 75t-81.5 202q4 25 37 37t67.5 3t43.5 -36q7 -61 44.5 -96t96.5 -35q70 0 105.5 41t37.5 115q1 38 -17 74.5t-47.5 68t-64.5 63.5t-70 67.5t-63.5 74t-45 88t-13.5 104.5q3 69 46 126.5t111 78.5q-59 76 -53 178q7 103 86 164t191 59z M463 926q-35 -7 -62 -36.5t-28 -74.5q0 -39 25 -81.5t57 -74t78 -77t71 -76.5q66 53 66 153q1 41 -15 78t-49 70.5t-59.5 55.5t-69.5 53q-4 3 -7.5 5.5t-6.5 4.5z" />
<glyph unicode="&#xa8;" horiz-adv-x="737" d="M211 1509q-52 0 -80.5 33.5t-26.5 75.5q5 42 37.5 73.5t83.5 34.5q49 0 78.5 -33.5t24.5 -76.5q-2 -41 -35 -74t-82 -33zM520 1509q-52 0 -78.5 33.5t-21.5 75.5q2 41 34 73t81 35q53 0 80.5 -32t27.5 -76q-3 -43 -37 -76t-86 -33z" />
<glyph unicode="&#xa9;" horiz-adv-x="1753" d="M745 -346q-152 -1 -276 50t-205.5 143.5t-118.5 227.5t-18 294q19 146 84.5 279t170.5 239.5t257.5 171t329.5 67.5q209 4 363.5 -86t226.5 -254t47 -374q-14 -118 -56 -226.5t-115.5 -205t-171 -168t-231 -114t-287.5 -44.5zM745 -197q143 0 261.5 48t199.5 132.5 t132 195.5t67 241q33 258 -83 407.5t-337 151.5q-141 1 -257.5 -48.5t-196 -136.5t-129.5 -197.5t-68 -238.5q-34 -253 85 -404t326 -151zM825 51q-133 1 -207.5 89t-62.5 225q7 106 63.5 198.5t151 148.5t201.5 54q73 -1 119 -31.5t56.5 -74t-0.5 -89.5t-42 -79 q-24 -26 -76 -17q-44 7 -48 31q-1 8 3 16q32 37 27.5 81t-52.5 44q-76 0 -142.5 -82t-76.5 -207q-8 -89 32.5 -141.5t121.5 -52.5q92 0 174 59q15 9 35.5 -21.5t7.5 -45.5q-121 -109 -285 -105z" />
<glyph unicode="&#xab;" horiz-adv-x="1257" d="M442 276q-45 46 -133.5 131.5t-113.5 110.5q-33 32 -38 66.5t11 60t45 43.5q134 81 322 211q36 25 76 4.5t47 -57t-23 -64.5q-144 -97 -285 -186q22 -23 107 -109t121 -127q19 -20 -4 -54t-60 -45.5t-72 15.5zM907 276q-45 46 -133.5 131t-114.5 111q-33 32 -38 66.5 t11.5 60t45.5 43.5q126 76 321 211q36 25 76 4.5t47.5 -57t-22.5 -64.5q-144 -97 -285 -186q20 -21 105 -107.5t122 -128.5q19 -20 -3.5 -54t-59.5 -45.5t-72 15.5z" />
<glyph unicode="&#xac;" horiz-adv-x="1071" d="M838 356q-5 -20 -43 -26t-72 5.5t-29 33.5l37 155h-485q-29 0 -38 37t7 74t49 37h576q31 0 46.5 -22t8.5 -58z" />
<glyph unicode="&#xad;" horiz-adv-x="929" d="M272 463q-28 0 -35 37.5t11 74.5t51 37h375q31 0 39.5 -37t-9.5 -74.5t-51 -37.5h-381z" />
<glyph unicode="&#xae;" horiz-adv-x="1767" d="M748 -346q-312 -3 -485.5 195t-135.5 520q15 116 60 225t120.5 204.5t174 167.5t227 115t272.5 45q213 4 367.5 -86t225.5 -254t46 -374q-14 -117 -57.5 -226t-118.5 -205.5t-174 -168t-233.5 -114t-288.5 -44.5zM748 -197q143 0 263 48t203.5 132.5t136 195.5t68.5 241 q33 259 -81.5 408t-340.5 151q-114 1 -214 -31.5t-175 -90t-133 -136t-92.5 -170.5t-48.5 -193q-34 -253 85 -404t329 -151zM922 41q-24 26 -37 67t-16 70t-4.5 84t-2.5 70q-6 60 -74 57q-15 -51 -34.5 -124t-33.5 -123.5t-24 -73.5q-9 -23 -48.5 -23.5t-72 18.5t-24.5 43 q35 90 78 259t84 260q42 92 115 143t173 47q106 -3 151.5 -66.5t23.5 -144.5q-19 -66 -83 -119.5t-128 -68.5q23 -23 30 -82t18 -125.5t40 -104.5q14 -38 -44 -62.5t-87 -0.5zM811 475q85 6 143.5 47t75.5 92q12 32 0 55.5t-47 24.5q-62 4 -104 -58.5t-68 -160.5z" />
<glyph unicode="&#xaf;" horiz-adv-x="643" d="M123 1534q-27 1 -34.5 33t7.5 64t43 32q278 -4 412 -2q28 0 34.5 -31.5t-8.5 -63.5t-40 -32h-414z" />
<glyph unicode="&#xb0;" horiz-adv-x="894" d="M477 1364q132 0 212 -85t61 -208q-14 -120 -114.5 -202.5t-236.5 -82.5t-214.5 84.5t-59.5 206.5q18 121 114.5 204t237.5 83zM461 1223q-65 0 -110 -40t-56 -102q-14 -62 19.5 -107.5t99.5 -45.5q71 0 120 47.5t52 111.5q5 58 -30.5 97t-94.5 39z" />
<glyph unicode="&#xb1;" horiz-adv-x="1048" d="M860 762q33 0 43.5 -36.5t-6 -73t-49.5 -36.5h-221l-45 -165q-7 -22 -48.5 -28.5t-78 6t-29.5 36.5l41 151h-201q-28 0 -37 37t7.5 74t50.5 37l221 -2l55 190q8 31 50 37.5t77.5 -10.5t28.5 -43l-49 -174h190zM756 338q32 0 42 -36t-6.5 -72.5t-48.5 -36.5l-581 -3 q-29 0 -38 37t7 74t49 37h576z" />
<glyph unicode="&#xb2;" horiz-adv-x="636" d="M162 791q-21 -3 -33.5 19.5t-10.5 49t17 35.5q74 45 141.5 114.5t88.5 149.5q10 41 -3.5 63.5t-39.5 22.5q-25 1 -43 -19t-23 -52q-4 -20 -35.5 -25t-60.5 7.5t-25 37.5q7 74 65 116t138 44q85 0 138 -53t40 -148q-11 -74 -74 -147t-131 -109l172 2q24 0 31 -26t-3 -52.5 t-28 -27.5z" />
<glyph unicode="&#xb3;" horiz-adv-x="649" d="M346 1354q88 0 138.5 -38t47.5 -102q-1 -46 -28 -80.5t-70 -52.5q38 -14 63 -51t17 -92q-10 -69 -68.5 -108t-144.5 -37q-84 0 -139 48.5t-41 129.5q2 15 28.5 22t52.5 0.5t27 -24.5q1 -33 21.5 -50.5t50.5 -17.5q29 0 50.5 15.5t27.5 44.5q4 36 -16.5 53.5t-61.5 19.5 q-19 2 -24.5 25.5t6 46t32.5 22.5q40 0 65.5 17t25.5 47q1 26 -16.5 39.5t-47.5 13.5q-62 -4 -80 -59q-7 -18 -35.5 -19.5t-52.5 13.5t-18 39q14 63 68.5 98t121.5 37z" />
<glyph unicode="&#xb4;" horiz-adv-x="462" d="M221 1737q23 33 88 24q55 -7 71 -33q10 -15 -3 -30l-156 -182q-22 -27 -74 -20q-48 6 -57 32q-5 15 6 31q64 95 125 178z" />
<glyph unicode="&#xb6;" horiz-adv-x="1388" d="M1343 1405q31 0 38.5 -35.5t-11.5 -70.5t-51 -35h-168l-193 -729q-30 -114 -59.5 -194.5t-70 -152t-89.5 -114.5t-116 -68t-152 -26t-148.5 19.5t-99 56t-54 81t-16.5 95t17 97.5t43 89q28 24 70.5 23.5t75.5 -25.5t18 -54q-47 -97 -18.5 -166.5t120.5 -68.5q37 1 69 21 t55 51t45 80.5t37 95.5t32 110l209 779h-160l-133 -476q-50 -183 -215 -167q-115 12 -166.5 139t-13.5 301q41 188 139.5 266t284.5 78h681z" />
<glyph unicode="&#xb7;" horiz-adv-x="518" d="M240 643q-47 0 -78 33.5t-29 79.5t36 78t81 32q49 0 79 -32t27 -78t-37 -79.5t-79 -33.5z" />
<glyph unicode="&#xb8;" horiz-adv-x="546" d="M301 78l119 -12l-115 -166q65 -8 103 -42.5t40.5 -79t-18.5 -91.5q-28 -55 -84 -88.5t-137 -29.5t-160 58q-11 11 -6.5 33t21.5 39.5t32 9.5q63 -39 117.5 -34.5t79.5 51.5q11 25 11.5 47.5t-23.5 37.5t-68 13q-26 0 -35.5 15.5t4.5 41.5z" />
<glyph unicode="&#xb9;" horiz-adv-x="618" d="M348 1331q15 23 55 24.5t71.5 -14t25.5 -34.5q-67 -202 -127 -486q-9 -18 -44 -24t-66.5 5t-31.5 36q40 179 86 311q-64 -58 -129 -86q-19 -8 -40.5 11.5t-26 42.5t11.5 36q56 30 115 77.5t100 100.5z" />
<glyph unicode="&#xbb;" horiz-adv-x="1257" d="M279 270q-35 -25 -74.5 -4.5t-47 57t22.5 64.5q182 122 285 186q-24 25 -108.5 110t-120.5 126q-18 20 5 54t60 45.5t72 -15.5q45 -46 133.5 -131t114.5 -111q32 -32 37 -66.5t-11 -60.5t-45 -43q-142 -85 -323 -211zM743 270q-35 -25 -74.5 -4.5t-46.5 57t23 64.5 q182 122 285 186q-25 27 -109.5 111t-120.5 125q-18 20 5.5 54t60.5 45.5t72 -15.5q45 -46 133.5 -131.5t113.5 -110.5q32 -32 37 -66.5t-10.5 -60.5t-44.5 -43q-149 -90 -324 -211z" />
<glyph unicode="&#xbc;" horiz-adv-x="1415" d="M397 2q-25 -30 -90 -13q-57 14 -74 47q-11 21 5 40q62 83 212 346t306.5 529t242.5 372q36 45 104 29q53 -13 72 -47q13 -24 -4 -45q-93 -109 -247 -373.5t-303 -527.5t-224 -357zM387 618q-6 -25 -66 -26t-80 22q-6 8 -5 17q9 36 29.5 127t31.5 137t34 119.5t50 138.5 q-37 -47 -84.5 -84t-87.5 -53q-18 -6 -34 0t-25 19.5t-13.5 28.5t-2 28.5t12.5 19.5q175 96 263 217q23 24 63.5 26t69 -12t22.5 -30q-21 -66 -49.5 -172t-47.5 -185t-47 -197t-34 -141zM1147 14q-2 -23 -56 -27q-57 -5 -76 17q-7 7 -5 16l24 130h-235q-27 0 -43.5 20 t-15.5 44t14 44l356 455q9 12 28.5 18.5t41 6.5t41.5 -4.5t31.5 -14t9.5 -21.5l-76 -450l78 -2q21 0 19 -35q-3 -39 -26 -54q-8 -5 -16 -5h-72zM889 248h162l53 287z" />
<glyph unicode="&#xbd;" horiz-adv-x="1462" d="M387 2q-25 -30 -90 -14q-57 15 -75 48q-11 20 5 40q62 83 212.5 346t307 529t242.5 372q36 45 104 29q53 -13 72 -47q13 -24 -4 -45q-93 -109 -247 -373.5t-303 -527.5t-224 -357zM377 618q-6 -25 -65 -26q-61 -1 -82 22q-6 8 -5 17q8 32 29.5 126.5t32.5 138.5t34 118 t50 139q-37 -47 -84.5 -84t-87.5 -53q-18 -6 -34 0t-25 19.5t-13.5 28.5t-2 28.5t12.5 19.5q174 95 262 217q23 24 63.5 26t69.5 -12t23 -30q-21 -66 -49.5 -172t-47.5 -185t-47 -197t-34 -141zM891 -8q-25 1 -35 27t-1.5 57t30.5 45q95 62 176 159t117 199q21 68 6.5 103.5 t-51.5 38.5q-40 3 -69 -28t-28 -89q0 -19 -30 -25.5t-60 4.5t-31 37q-1 108 69.5 169t162.5 59q86 -3 142.5 -61.5t43.5 -158.5q-10 -113 -90 -225.5t-186 -189.5l219 -2q23 -1 30.5 -30t-4.5 -57.5t-36 -27.5z" />
<glyph unicode="&#xbe;" horiz-adv-x="1511" d="M494 2q-25 -30 -90 -14q-57 15 -75 48q-11 20 5 40q62 83 212.5 346t307 529t242.5 372q36 45 104 29q53 -13 72 -47q13 -24 -4 -45q-93 -109 -247 -373.5t-303 -527.5t-224 -357zM328 594q-91 2 -147.5 60.5t-45.5 170.5q2 22 34.5 29.5t62.5 -4t26 -35.5 q-7 -49 18.5 -77.5t63.5 -28.5q33 0 60.5 21.5t37.5 60.5q33 137 -125 145q-14 1 -21 15.5t-5.5 32t10 32t20.5 14.5q146 3 158 125q3 40 -15.5 62t-49.5 24q-32 0 -60.5 -25.5t-38.5 -74.5q0 -14 -29 -21t-58 0.5t-29 28.5q1 101 73.5 154.5t163.5 50.5q87 -2 141.5 -55 t47.5 -140q-7 -72 -52 -117t-104 -55q63 -19 95 -75.5t20 -129.5q-16 -93 -88.5 -142t-163.5 -46zM1243 14q-2 -23 -56 -27q-57 -5 -76 17q-7 7 -5 16l24 130h-235q-27 0 -43.5 20t-15.5 44t14 44l356 455q9 12 28.5 18.5t41 6.5t41.5 -4.5t31.5 -14t9.5 -21.5l-76 -450 l78 -2q21 0 19 -35q-3 -39 -26 -54q-8 -5 -16 -5h-71zM985 248h162l53 287z" />
<glyph unicode="&#xbf;" horiz-adv-x="909" d="M653 838q46 0 76.5 -33t28.5 -78q-3 -45 -38.5 -78t-82.5 -33q-48 0 -76.5 33t-23.5 78q5 46 38.5 78.5t77.5 32.5zM684 434q-3 -94 -42.5 -165t-113.5 -152q-24 -28 -80.5 -87t-86.5 -94.5t-62 -92.5t-41 -115q-28 -151 94 -174q82 -16 149.5 47t84.5 190 q3 22 22.5 36.5t45 16.5t50.5 -3t41.5 -22t14.5 -40q-7 -103 -43.5 -179.5t-95 -120.5t-130.5 -62.5t-155 -12.5q-142 9 -223.5 96.5t-63.5 233.5q9 63 32 118t61 103.5t70 82t84 82.5t79 77q65 67 99.5 120t39.5 121q3 29 45.5 39.5t83.5 -2t41 -41.5z" />
<glyph unicode="&#xc0;" horiz-adv-x="1699" d="M1370 1792q8 -11 55.5 -78.5t69.5 -99.5q22 -34 -19 -54q-41 -19 -82 -5q-17 5 -26 16l-154 182q-23 27 19 49q45 23 95 13q29 -5 42 -23zM426 -18q-163 -3 -237.5 82t-47.5 225q25 118 117.5 202t222.5 119.5t277 22.5q57 135 86 201t78 166t95 169t97 123 q65 69 143 98.5t141 19t105.5 -60t42.5 -126.5q-2 -225 -114 -650q221 14 323 121q17 17 35.5 6t23.5 -33t-4 -38q-126 -157 -399 -178q-7 -30 -25 -104.5t-27.5 -115t-20.5 -97t-17 -97.5q-15 -27 -67 -38t-102.5 0t-61.5 38q17 118 92 409q-8 0 -262 27 q-49 -119 -92.5 -199t-102.5 -150.5t-133 -105.5t-166 -36zM1210 578q113 404 148 610q9 59 -21.5 68.5t-74.5 -42.5q-109 -129 -275 -572q-9 -24 -14 -36q146 -21 237 -28zM432 127q25 0 47.5 10t41.5 25t39 42.5t35 53t35 68.5t34 76t36 87q-126 3 -215.5 -48t-122.5 -154 q-10 -41 -9.5 -77t21 -59.5t58.5 -23.5z" />
<glyph unicode="&#xc1;" horiz-adv-x="1699" d="M1444 1792q25 33 91 24q57 -7 73 -34q8 -14 -4 -29l-154 -182q-22 -27 -77 -20q-50 7 -60 34q-4 14 6 29q22 32 69.5 99.5t55.5 78.5zM426 -18q-163 -3 -237.5 82t-47.5 225q25 118 117.5 202t222.5 119.5t277 22.5q57 135 86 201t78 166t95 169t97 123q65 69 143 98.5 t141 19t105.5 -60t42.5 -126.5q-2 -225 -114 -650q221 14 323 121q17 17 35.5 6t23.5 -33t-4 -38q-126 -157 -399 -178q-7 -30 -25 -104.5t-27.5 -115t-20.5 -97t-17 -97.5q-15 -27 -67 -38t-102.5 0t-61.5 38q17 118 92 409q-8 0 -262 27q-49 -119 -92.5 -199 t-102.5 -150.5t-133 -105.5t-166 -36zM1210 578q113 404 148 610q9 59 -21.5 68.5t-74.5 -42.5q-109 -129 -275 -572q-9 -24 -14 -36q146 -21 237 -28zM432 127q25 0 47.5 10t41.5 25t39 42.5t35 53t35 68.5t34 76t36 87q-126 3 -215.5 -48t-122.5 -154q-10 -41 -9.5 -77 t21 -59.5t58.5 -23.5z" />
<glyph unicode="&#xc2;" horiz-adv-x="1699" d="M1401 1798q30 18 72.5 18t64.5 -18q19 -15 53 -51t71.5 -79t47.5 -54q22 -24 -20 -45q-46 -22 -92 -13q-19 4 -29 15l-111 121l-162 -129q-32 -25 -83 -6q-42 16 -46 43q-2 19 15 34q34 30 107 84.5t112 79.5zM426 -18q-163 -3 -237.5 82t-47.5 225q25 118 117.5 202 t222.5 119.5t277 22.5q57 135 86 201t78 166t95 169t97 123q65 69 143 98.5t141 19t105.5 -60t42.5 -126.5q-2 -225 -114 -650q221 14 323 121q17 17 35.5 6t23.5 -33t-4 -38q-126 -157 -399 -178q-7 -30 -25 -104.5t-27.5 -115t-20.5 -97t-17 -97.5q-15 -27 -67 -38 t-102.5 0t-61.5 38q17 118 92 409q-8 0 -262 27q-49 -119 -92.5 -199t-102.5 -150.5t-133 -105.5t-166 -36zM1210 578q113 404 148 610q9 59 -21.5 68.5t-74.5 -42.5q-109 -129 -275 -572q-9 -24 -14 -36q146 -21 237 -28zM432 127q25 0 47.5 10t41.5 25t39 42.5t35 53 t35 68.5t34 76t36 87q-126 3 -215.5 -48t-122.5 -154q-10 -41 -9.5 -77t21 -59.5t58.5 -23.5z" />
<glyph unicode="&#xc3;" horiz-adv-x="1699" d="M1516 1571q-44 1 -109.5 35.5t-93.5 35.5q-50 0 -90 -55q-12 -9 -34 -0.5t-41 31t-11 37.5q25 52 71.5 88t108.5 35q47 0 110 -34.5t95 -35.5q29 -1 49 10t41 39q14 10 34 1.5t36 -31t8 -39.5q-24 -51 -69.5 -84.5t-104.5 -32.5zM426 -18q-163 -3 -237.5 82t-47.5 225 q25 118 117.5 202t222.5 119.5t277 22.5q57 135 86 201t78 166t95 169t97 123q65 69 143 98.5t141 19t105.5 -60t42.5 -126.5q-2 -225 -114 -650q221 14 323 121q17 17 35.5 6t23.5 -33t-4 -38q-126 -157 -399 -178q-7 -30 -25 -104.5t-27.5 -115t-20.5 -97t-17 -97.5 q-15 -27 -67 -38t-102.5 0t-61.5 38q17 118 92 409q-8 0 -262 27q-49 -119 -92.5 -199t-102.5 -150.5t-133 -105.5t-166 -36zM1210 578q113 404 148 610q9 59 -21.5 68.5t-74.5 -42.5q-109 -129 -275 -572q-9 -24 -14 -36q146 -21 237 -28zM432 127q25 0 47.5 10t41.5 25 t39 42.5t35 53t35 68.5t34 76t36 87q-126 3 -215.5 -48t-122.5 -154q-10 -41 -9.5 -77t21 -59.5t58.5 -23.5z" />
<glyph unicode="&#xc4;" horiz-adv-x="1699" d="M1284 1552q-52 0 -80 33.5t-26 75.5q5 43 37 74t83 34q49 0 78.5 -33.5t24.5 -76.5q-2 -41 -35 -74t-82 -33zM1593 1552q-52 0 -78.5 33.5t-21.5 75.5q2 41 34 73t81 35q53 0 80.5 -32t27.5 -76q-3 -43 -37 -76t-86 -33zM426 -18q-163 -3 -237.5 82t-47.5 225 q25 118 117.5 202t222.5 119.5t277 22.5q57 135 86 201t78 166t95 169t97 123q65 69 143 98.5t141 19t105.5 -60t42.5 -126.5q-2 -225 -114 -650q221 14 323 121q17 17 35.5 6t23.5 -33t-4 -38q-126 -157 -399 -178q-7 -30 -25 -104.5t-27.5 -115t-20.5 -97t-17 -97.5 q-15 -27 -67 -38t-102.5 0t-61.5 38q17 118 92 409q-8 0 -262 27q-49 -119 -92.5 -199t-102.5 -150.5t-133 -105.5t-166 -36zM1210 578q113 404 148 610q9 59 -21.5 68.5t-74.5 -42.5q-109 -129 -275 -572q-9 -24 -14 -36q146 -21 237 -28zM432 127q25 0 47.5 10t41.5 25 t39 42.5t35 53t35 68.5t34 76t36 87q-126 3 -215.5 -48t-122.5 -154q-10 -41 -9.5 -77t21 -59.5t58.5 -23.5z" />
<glyph unicode="&#xc5;" horiz-adv-x="1699" d="M1458 1849q84 -2 130.5 -49t37.5 -123q-9 -74 -68 -120t-139 -44q-82 0 -128.5 49t-35.5 124q7 71 65 117t138 46zM1450 1751q-30 0 -52 -19.5t-28 -50.5q-5 -31 10.5 -50t46.5 -19q33 0 55.5 18.5t26.5 50.5q6 32 -10.5 51t-48.5 19zM426 -18q-163 -3 -237.5 82 t-47.5 225q25 118 117.5 202t222.5 119.5t277 22.5q57 135 86 201t78 166t95 169t97 123q65 69 143 98.5t141 19t105.5 -60t42.5 -126.5q-2 -225 -114 -650q221 14 323 121q17 17 35.5 6t23.5 -33t-4 -38q-126 -157 -399 -178q-7 -30 -25 -104.5t-27.5 -115t-20.5 -97 t-17 -97.5q-15 -27 -67 -38t-102.5 0t-61.5 38q17 118 92 409q-8 0 -262 27q-49 -119 -92.5 -199t-102.5 -150.5t-133 -105.5t-166 -36zM1210 578q113 404 148 610q9 59 -21.5 68.5t-74.5 -42.5q-109 -129 -275 -572q-9 -24 -14 -36q146 -21 237 -28zM432 127q25 0 47.5 10 t41.5 25t39 42.5t35 53t35 68.5t34 76t36 87q-126 3 -215.5 -48t-122.5 -154q-10 -41 -9.5 -77t21 -59.5t58.5 -23.5z" />
<glyph unicode="&#xc6;" horiz-adv-x="2217" d="M1698 -49q-271 -3 -389 147q-3 -16 -13.5 -64.5t-13.5 -70.5q-15 -23 -64.5 -29t-95.5 8t-51 40q23 142 111 464q-38 2 -136.5 13t-125.5 14q-49 -119 -92.5 -199t-102.5 -150.5t-133 -105.5t-166 -36q-163 -3 -237.5 82t-47.5 225q25 118 117.5 202t222.5 119.5 t277 22.5q105 248 187 405.5t179 259.5q84 87 183 108t165.5 -29.5t65.5 -153.5q0 -164 -72 -500q109 65 244 65q-67 54 -93.5 139t-9 171t71.5 147q-27 94 -10 193q3 18 24.5 24.5t42 -2.5t19.5 -28q-5 -69 8 -121q120 84 299 75q120 -6 192 -69t68 -160q-6 -95 -79.5 -160 t-186.5 -69q-86 -3 -153.5 33.5t-106.5 97.5q-30 -105 20 -187t152 -110q12 -14 11 -41.5t-15.5 -57t-32.5 -32.5q-60 13 -124 14.5t-129.5 -10.5t-120 -37.5t-96 -71t-56.5 -106.5q-19 -75 -1 -134.5t62.5 -101.5t110 -64.5t141.5 -21.5q167 3 304.5 94t209.5 259 q8 13 25.5 8.5t34 -20t12.5 -25.5q-95 -227 -251.5 -343.5t-354.5 -119.5zM1210 578q113 404 148 610q9 59 -21.5 68.5t-74.5 -42.5q-109 -129 -275 -572q-9 -24 -14 -36q146 -21 237 -28zM2025 1061q53 1 85.5 27t35.5 67q2 39 -34.5 64t-96.5 24q-105 -4 -166 -74 q67 -108 176 -108zM432 127q25 0 47.5 10t41.5 25t39 42.5t35 53t35 68.5t34 76t36 87q-126 3 -215.5 -48t-122.5 -154q-10 -41 -9.5 -77t21 -59.5t58.5 -23.5z" />
<glyph unicode="&#xc7;" horiz-adv-x="1286" d="M1298 453q8 11 26.5 7t35 -20t10.5 -28q-94 -204 -224 -306.5t-321 -121.5l-63 -93q65 -8 103 -42.5t40.5 -79t-18.5 -91.5q-20 -41 -58.5 -70t-88 -42.5t-112 -0.5t-122.5 54q-11 11 -6.5 33t21.5 39.5t32 9.5q63 -39 117.5 -35t79.5 51q11 25 11.5 47.5t-23.5 38 t-68 13.5q-26 0 -35.5 15.5t4.5 41.5l66 109q-204 19 -319 177.5t-97 411.5q19 285 180 521q-98 153 -104 288q-3 22 23 33t54.5 4t32.5 -28q11 -95 74 -201q223 252 524 235q162 -9 236 -113t24 -251q-28 -91 -106.5 -153.5t-180 -84t-222 4.5t-224.5 102 q-82 -184 -82 -369q-1 -226 94 -333.5t254 -94.5q55 2 110.5 20t114.5 53.5t113 99.5t94 149zM1036 1272q-115 6 -204 -52.5t-164 -168.5q59 -45 133 -64t138.5 -11t115.5 42t67 88q30 63 4.5 113t-90.5 53z" />
<glyph unicode="&#xc8;" horiz-adv-x="1144" d="M827 1792q8 -11 55.5 -78.5t69.5 -99.5q22 -34 -19 -54q-41 -19 -82 -5q-17 5 -26 16l-153 182q-23 27 19 49q45 24 95 13q28 -6 41 -23zM543 1481q0 -93 24 -150q49 41 117 65.5t138 30t138 -8.5t120.5 -43.5t83.5 -80t28 -114.5q-5 -106 -85 -168t-216 -56 q-75 5 -145 36t-115 81q-20 -99 53.5 -185.5t206.5 -103.5q18 -11 19 -43t-14 -60.5t-36 -31.5q-41 6 -87.5 1.5t-92.5 -14.5t-89.5 -33t-78 -52.5t-58 -74.5t-30.5 -99q-9 -62 10 -110.5t57.5 -77t85.5 -43.5t99 -17q151 -2 277.5 77t205.5 247q8 11 26 7t34.5 -20 t11.5 -28q-97 -223 -254 -326.5t-356 -103.5q-69 0 -135 15t-124 47.5t-99 78t-60.5 111.5t-9.5 143q12 112 74.5 201t152 136.5t190.5 53.5q-93 34 -141 121.5t-42 187t58 176.5q-39 89 -36 226q0 17 22.5 26.5t46 3.5t25.5 -28zM678 1192q88 -94 201 -94q52 -3 81 20.5 t31 63.5q1 34 -23 57.5t-61.5 31t-79.5 3.5t-83 -25.5t-66 -56.5z" />
<glyph unicode="&#xc9;" horiz-adv-x="1144" d="M901 1792q25 33 91 24q57 -7 73 -34q8 -14 -4 -29l-154 -182q-22 -27 -77 -20q-50 7 -60 34q-4 14 6 29q22 32 69.5 99.5t55.5 78.5zM543 1481q0 -93 24 -150q49 41 117 65.5t138 30t138 -8.5t120.5 -43.5t83.5 -80t28 -114.5q-5 -106 -85 -168t-216 -56q-75 5 -145 36 t-115 81q-20 -99 53.5 -185.5t206.5 -103.5q18 -11 19 -43t-14 -60.5t-36 -31.5q-41 6 -87.5 1.5t-92.5 -14.5t-89.5 -33t-78 -52.5t-58 -74.5t-30.5 -99q-9 -62 10 -110.5t57.5 -77t85.5 -43.5t99 -17q151 -2 277.5 77t205.5 247q8 11 26 7t34.5 -20t11.5 -28 q-97 -223 -254 -326.5t-356 -103.5q-69 0 -135 15t-124 47.5t-99 78t-60.5 111.5t-9.5 143q12 112 74.5 201t152 136.5t190.5 53.5q-93 34 -141 121.5t-42 187t58 176.5q-39 89 -36 226q0 17 22.5 26.5t46 3.5t25.5 -28zM678 1192q88 -94 201 -94q52 -3 81 20.5t31 63.5 q1 34 -23 57.5t-61.5 31t-79.5 3.5t-83 -25.5t-66 -56.5z" />
<glyph unicode="&#xca;" horiz-adv-x="1144" d="M858 1798q30 18 72.5 18t64.5 -18q19 -15 53 -51t71.5 -79t47.5 -54q22 -24 -20 -45q-46 -22 -92 -13q-19 4 -29 15l-111 121l-161 -129q-31 -25 -83 -6q-43 15 -47 43q-3 18 15 34q34 30 107 84.5t112 79.5zM543 1481q0 -93 24 -150q49 41 117 65.5t138 30t138 -8.5 t120.5 -43.5t83.5 -80t28 -114.5q-5 -106 -85 -168t-216 -56q-75 5 -145 36t-115 81q-20 -99 53.5 -185.5t206.5 -103.5q18 -11 19 -43t-14 -60.5t-36 -31.5q-41 6 -87.5 1.5t-92.5 -14.5t-89.5 -33t-78 -52.5t-58 -74.5t-30.5 -99q-9 -62 10 -110.5t57.5 -77t85.5 -43.5 t99 -17q151 -2 277.5 77t205.5 247q8 11 26 7t34.5 -20t11.5 -28q-97 -223 -254 -326.5t-356 -103.5q-69 0 -135 15t-124 47.5t-99 78t-60.5 111.5t-9.5 143q12 112 74.5 201t152 136.5t190.5 53.5q-93 34 -141 121.5t-42 187t58 176.5q-39 89 -36 226q0 17 22.5 26.5 t46 3.5t25.5 -28zM678 1192q88 -94 201 -94q52 -3 81 20.5t31 63.5q1 34 -23 57.5t-61.5 31t-79.5 3.5t-83 -25.5t-66 -56.5z" />
<glyph unicode="&#xcb;" horiz-adv-x="1144" d="M741 1552q-52 0 -80 33.5t-26 75.5q5 42 37.5 73.5t83.5 34.5q49 0 78 -33.5t24 -76.5q-2 -41 -35 -74t-82 -33zM1051 1552q-52 0 -79 33.5t-22 75.5q2 41 34 73t81 35q53 0 81 -32t28 -76q-3 -43 -37 -76t-86 -33zM543 1481q0 -93 24 -150q49 41 117 65.5t138 30 t138 -8.5t120.5 -43.5t83.5 -80t28 -114.5q-5 -106 -85 -168t-216 -56q-75 5 -145 36t-115 81q-20 -99 53.5 -185.5t206.5 -103.5q18 -11 19 -43t-14 -60.5t-36 -31.5q-41 6 -87.5 1.5t-92.5 -14.5t-89.5 -33t-78 -52.5t-58 -74.5t-30.5 -99q-9 -62 10 -110.5t57.5 -77 t85.5 -43.5t99 -17q151 -2 277.5 77t205.5 247q8 11 26 7t34.5 -20t11.5 -28q-97 -223 -254 -326.5t-356 -103.5q-69 0 -135 15t-124 47.5t-99 78t-60.5 111.5t-9.5 143q12 112 74.5 201t152 136.5t190.5 53.5q-93 34 -141 121.5t-42 187t58 176.5q-39 89 -36 226 q0 17 22.5 26.5t46 3.5t25.5 -28zM678 1192q88 -94 201 -94q52 -3 81 20.5t31 63.5q1 34 -23 57.5t-61.5 31t-79.5 3.5t-83 -25.5t-66 -56.5z" />
<glyph unicode="&#xcc;" horiz-adv-x="1110" d="M1067 1792q8 -11 55.5 -78.5t69.5 -99.5q22 -34 -19 -54q-41 -19 -82 -5q-17 5 -26 16l-154 182q-23 27 19 49q45 23 95 13q29 -5 42 -23zM967 1378q21 30 75.5 38t102 -6t53.5 -40q-53 -161 -246 -809q-21 -70 -34.5 -114t-33.5 -102t-36.5 -93.5t-40.5 -78t-48 -68 t-56.5 -52.5t-68.5 -41t-80.5 -23t-96.5 -9q-84 -1 -150.5 27.5t-103.5 75t-52 105t-4 116t49 110.5t99 86q38 12 84 -21.5t39 -70.5q-49 -61 -57 -127.5t25 -110.5t97 -43q29 0 54 14.5t46.5 45t38 63t35 85.5t31.5 95.5t32 108.5q11 39 17 59q30 106 69.5 249.5 t62.5 221.5t40 127q-45 -49 -106.5 -87t-115 -60t-103 -44t-83.5 -52t-44 -72q-31 -122 73 -140q23 -17 11 -64.5t-47 -51.5q-138 -4 -213 77.5t-52 190.5q12 59 47 102.5t85 71t109 49t126 43.5t130.5 48t128 69.5t112.5 101.5z" />
<glyph unicode="&#xcd;" horiz-adv-x="1110" d="M1141 1794q25 33 92 24q56 -8 71 -34q7 -15 -4 -29l-153 -182q-22 -27 -77 -20q-50 7 -60 34q-4 14 6 29q22 32 69.5 99.5t55.5 78.5zM967 1378q21 30 75.5 38t102 -6t53.5 -40q-53 -161 -246 -809q-21 -70 -34.5 -114t-33.5 -102t-36.5 -93.5t-40.5 -78t-48 -68 t-56.5 -52.5t-68.5 -41t-80.5 -23t-96.5 -9q-84 -1 -150.5 27.5t-103.5 75t-52 105t-4 116t49 110.5t99 86q38 12 84 -21.5t39 -70.5q-49 -61 -57 -127.5t25 -110.5t97 -43q29 0 54 14.5t46.5 45t38 63t35 85.5t31.5 95.5t32 108.5q11 39 17 59q30 106 69.5 249.5 t62.5 221.5t40 127q-45 -49 -106.5 -87t-115 -60t-103 -44t-83.5 -52t-44 -72q-31 -122 73 -140q23 -17 11 -64.5t-47 -51.5q-138 -4 -213 77.5t-52 190.5q12 59 47 102.5t85 71t109 49t126 43.5t130.5 48t128 69.5t112.5 101.5z" />
<glyph unicode="&#xce;" horiz-adv-x="1110" d="M1098 1800q30 18 72.5 18t64.5 -18q19 -15 53 -51t71.5 -79t47.5 -54q22 -24 -20 -45q-46 -22 -92 -13q-19 4 -29 15l-111 121l-162 -129q-32 -25 -83 -6q-42 16 -46 43q-2 19 15 34q34 30 107 84.5t112 79.5zM967 1378q21 30 75.5 38t102 -6t53.5 -40 q-53 -161 -246 -809q-21 -70 -34.5 -114t-33.5 -102t-36.5 -93.5t-40.5 -78t-48 -68t-56.5 -52.5t-68.5 -41t-80.5 -23t-96.5 -9q-84 -1 -150.5 27.5t-103.5 75t-52 105t-4 116t49 110.5t99 86q38 12 84 -21.5t39 -70.5q-49 -61 -57 -127.5t25 -110.5t97 -43q29 0 54 14.5 t46.5 45t38 63t35 85.5t31.5 95.5t32 108.5q11 39 17 59q30 106 69.5 249.5t62.5 221.5t40 127q-45 -49 -106.5 -87t-115 -60t-103 -44t-83.5 -52t-44 -72q-31 -122 73 -140q23 -17 11 -64.5t-47 -51.5q-138 -4 -213 77.5t-52 190.5q12 59 47 102.5t85 71t109 49t126 43.5 t130.5 48t128 69.5t112.5 101.5z" />
<glyph unicode="&#xcf;" horiz-adv-x="1110" d="M981 1554q-52 0 -80.5 33.5t-26.5 75.5q5 43 37.5 74.5t83.5 34.5q49 0 78.5 -34t24.5 -77q-2 -41 -35 -74t-82 -33zM1290 1554q-52 0 -78.5 33.5t-21.5 75.5q2 41 34 73.5t81 35.5q53 0 80.5 -32.5t27.5 -76.5q-3 -43 -37 -76t-86 -33zM967 1378q21 30 75.5 38t102 -6 t53.5 -40q-53 -161 -246 -809q-21 -70 -34.5 -114t-33.5 -102t-36.5 -93.5t-40.5 -78t-48 -68t-56.5 -52.5t-68.5 -41t-80.5 -23t-96.5 -9q-84 -1 -150.5 27.5t-103.5 75t-52 105t-4 116t49 110.5t99 86q38 12 84 -21.5t39 -70.5q-49 -61 -57 -127.5t25 -110.5t97 -43 q29 0 54 14.5t46.5 45t38 63t35 85.5t31.5 95.5t32 108.5q11 39 17 59q30 106 69.5 249.5t62.5 221.5t40 127q-45 -49 -106.5 -87t-115 -60t-103 -44t-83.5 -52t-44 -72q-31 -122 73 -140q23 -17 11 -64.5t-47 -51.5q-138 -4 -213 77.5t-52 190.5q12 59 47 102.5t85 71 t109 49t126 43.5t130.5 48t128 69.5t112.5 101.5z" />
<glyph unicode="&#xd0;" horiz-adv-x="1826" d="M451 -18q-151 -1 -233.5 62t-74.5 165q11 112 98 167.5t202 45.5t214 -74q23 51 56 164h-111q-17 6 -23 30.5t4 49t33 29.5h127q121 438 246 536q30 18 69 15t71 -20.5t28 -35.5q-102 -116 -209 -498h201q26 -6 17.5 -54t-36.5 -54h-215q-58 -193 -98 -262 q68 -56 161 -88t169 -25q105 8 183 92.5t116.5 216t40.5 291.5q1 90 -13 167.5t-48.5 147.5t-87.5 119t-134.5 78t-185.5 29q-65 0 -129 -19t-116.5 -51.5t-91.5 -78.5t-58.5 -97t-14.5 -110t39 -115q5 -19 -17.5 -47.5t-56.5 -43t-71 0.5q-77 60 -104 147.5t-4.5 178 t87.5 167.5q94 107 250 164.5t328 52.5q142 -4 262.5 -53t208 -136t136 -216.5t44.5 -286.5q-5 -217 -77 -389t-203 -269.5t-297 -92.5q-210 5 -381 141q-113 -141 -301 -141zM436 123q98 -3 172 110q-78 57 -153 62q-68 2 -100 -40.5t-8.5 -86.5t89.5 -45z" />
<glyph unicode="&#xd1;" horiz-adv-x="1820" d="M1524 1571q-44 1 -109.5 35.5t-93.5 35.5q-50 0 -90 -55q-12 -9 -34 -0.5t-41 31t-11 37.5q25 52 71.5 88t108.5 35q47 0 110 -34.5t95 -35.5q29 -1 49 10t41 39q14 10 34 1.5t36 -31t8 -39.5q-24 -51 -69.5 -84.5t-104.5 -32.5zM1534 1423q67 0 114.5 -22t72.5 -52 t34.5 -81t9.5 -91.5t-12 -103t-20.5 -94.5t-23.5 -86q-3 -10 -4.5 -14.5t-3.5 -12t-3 -12.5q-16 -59 -40 -142t-41.5 -141t-36.5 -131t-28 -124.5t-12.5 -108t5 -95.5t30.5 -72t59 -52q12 -12 13 -32.5t-11.5 -45t-30.5 -45t-44 -31.5t-52 -6q-49 13 -86 37t-58.5 63 t-36.5 78.5t-15 100.5t1 110.5t16.5 127t27 131t36.5 142t40.5 141t44.5 144.5q14 45 22.5 77t19 79t11.5 80t-4 64.5t-24 47t-50 15.5q-77 0 -178.5 -93t-192 -232.5t-149.5 -285.5q-34 -109 -77.5 -260.5t-70 -239.5t-45.5 -132q-12 -28 -68 -38.5t-107.5 3.5t-51.5 47 q61 180 184 604.5t162 552.5q-45 -49 -106.5 -86.5t-115 -58.5t-103 -42.5t-83 -51.5t-42.5 -72q-26 -118 75 -142q17 -4 18.5 -32t-15 -55t-42.5 -27q-137 -4 -210.5 79.5t-49.5 192.5q18 80 77.5 132t143.5 82t173 58t186 82t162 133q18 29 65.5 35t88.5 -10t44 -43 q-15 -50 -50 -170t-50 -170q34 57 73 109.5t90.5 106.5t104.5 93t116 64t124 24z" />
<glyph unicode="&#xd2;" horiz-adv-x="1507" d="M936 1792q8 -11 55.5 -78.5t69.5 -99.5q22 -34 -19 -54q-41 -19 -82 -5q-17 5 -26 16l-154 182q-23 27 19 49q45 23 95 13q29 -5 42 -23zM942 1423q101 -7 177.5 -44t121 -91.5t71 -127t33 -147t1 -155t-19 -147.5t-32.5 -129q69 8 148.5 34t136.5 62q16 11 20 -18 q5 -40 -13 -66q-4 -7 -9 -10q-154 -99 -322 -119q-82 -212 -235.5 -348t-360.5 -135q-256 0 -362 180q-46 79 -57 191t17.5 227.5t90.5 199.5q27 16 63.5 5t66 -42t20.5 -55q-41 -74 -56 -169.5t-0.5 -182t71.5 -147t149 -62.5q238 -5 370 346q-104 11 -198.5 49 t-167.5 98.5t-123.5 136t-69.5 167t-2 186.5q16 87 64 152.5t115 100.5t141 50t151 10zM926 1272q-93 6 -155.5 -40t-80.5 -142q-15 -77 5.5 -157.5t68.5 -149t128.5 -118t178.5 -65.5q13 48 23.5 108.5t18 137t1.5 148.5t-23.5 134t-59.5 101t-105 43z" />
<glyph unicode="&#xd3;" horiz-adv-x="1507" d="M1008 1794q25 33 92 24q56 -8 71 -34q7 -15 -4 -29l-153 -182q-22 -27 -77 -20q-50 7 -60 34q-4 14 6 29q22 32 69.5 99.5t55.5 78.5zM942 1423q101 -7 177.5 -44t121 -91.5t71 -127t33 -147t1 -155t-19 -147.5t-32.5 -129q69 8 148.5 34t136.5 62q16 11 20 -18 q5 -40 -13 -66q-4 -7 -9 -10q-154 -99 -322 -119q-82 -212 -235.5 -348t-360.5 -135q-256 0 -362 180q-46 79 -57 191t17.5 227.5t90.5 199.5q27 16 63.5 5t66 -42t20.5 -55q-41 -74 -56 -169.5t-0.5 -182t71.5 -147t149 -62.5q238 -5 370 346q-104 11 -198.5 49 t-167.5 98.5t-123.5 136t-69.5 167t-2 186.5q16 87 64 152.5t115 100.5t141 50t151 10zM926 1272q-93 6 -155.5 -40t-80.5 -142q-15 -77 5.5 -157.5t68.5 -149t128.5 -118t178.5 -65.5q13 48 23.5 108.5t18 137t1.5 148.5t-23.5 134t-59.5 101t-105 43z" />
<glyph unicode="&#xd4;" horiz-adv-x="1507" d="M965 1800q30 18 72.5 18t64.5 -18q19 -15 53 -51t71.5 -79t47.5 -54q22 -24 -20 -45q-46 -22 -92 -13q-19 4 -29 15l-111 121l-162 -129q-31 -25 -83 -6q-43 15 -47 43q-3 18 15 34q34 30 107 84t113 80zM942 1423q101 -7 177.5 -44t121 -91.5t71 -127t33 -147t1 -155 t-19 -147.5t-32.5 -129q69 8 148.5 34t136.5 62q16 11 20 -18q5 -40 -13 -66q-4 -7 -9 -10q-154 -99 -322 -119q-82 -212 -235.5 -348t-360.5 -135q-256 0 -362 180q-46 79 -57 191t17.5 227.5t90.5 199.5q27 16 63.5 5t66 -42t20.5 -55q-41 -74 -56 -169.5t-0.5 -182 t71.5 -147t149 -62.5q238 -5 370 346q-104 11 -198.5 49t-167.5 98.5t-123.5 136t-69.5 167t-2 186.5q16 87 64 152.5t115 100.5t141 50t151 10zM926 1272q-93 6 -155.5 -40t-80.5 -142q-15 -77 5.5 -157.5t68.5 -149t128.5 -118t178.5 -65.5q13 48 23.5 108.5t18 137 t1.5 148.5t-23.5 134t-59.5 101t-105 43z" />
<glyph unicode="&#xd5;" horiz-adv-x="1507" d="M1081 1573q-44 1 -109 36t-93 36q-50 0 -91 -56q-12 -9 -34 -0.5t-41 31t-11 37.5q25 52 72 88t109 35q47 0 109.5 -34.5t94.5 -35.5q30 -1 50 10t41 39q14 10 34 1.5t35.5 -31t7.5 -39.5q-24 -51 -69.5 -84.5t-104.5 -32.5zM942 1423q101 -7 177.5 -44t121 -91.5 t71 -127t33 -147t1 -155t-19 -147.5t-32.5 -129q69 8 148.5 34t136.5 62q16 11 20 -18q5 -40 -13 -66q-4 -7 -9 -10q-154 -99 -322 -119q-82 -212 -235.5 -348t-360.5 -135q-256 0 -362 180q-46 79 -57 191t17.5 227.5t90.5 199.5q27 16 63.5 5t66 -42t20.5 -55 q-41 -74 -56 -169.5t-0.5 -182t71.5 -147t149 -62.5q238 -5 370 346q-104 11 -198.5 49t-167.5 98.5t-123.5 136t-69.5 167t-2 186.5q16 87 64 152.5t115 100.5t141 50t151 10zM926 1272q-93 6 -155.5 -40t-80.5 -142q-15 -77 5.5 -157.5t68.5 -149t128.5 -118t178.5 -65.5 q13 48 23.5 108.5t18 137t1.5 148.5t-23.5 134t-59.5 101t-105 43z" />
<glyph unicode="&#xd6;" horiz-adv-x="1507" d="M848 1554q-52 0 -80.5 33.5t-26.5 75.5q5 43 37.5 74.5t83.5 34.5q49 0 78.5 -34t24.5 -77q-2 -41 -35 -74t-82 -33zM1157 1554q-52 0 -78.5 33.5t-21.5 75.5q2 42 33.5 74t80.5 35q53 0 81 -32.5t28 -76.5q-3 -43 -37 -76t-86 -33zM942 1423q101 -7 177.5 -44t121 -91.5 t71 -127t33 -147t1 -155t-19 -147.5t-32.5 -129q69 8 148.5 34t136.5 62q16 11 20 -18q5 -40 -13 -66q-4 -7 -9 -10q-154 -99 -322 -119q-82 -212 -235.5 -348t-360.5 -135q-256 0 -362 180q-46 79 -57 191t17.5 227.5t90.5 199.5q27 16 63.5 5t66 -42t20.5 -55 q-41 -74 -56 -169.5t-0.5 -182t71.5 -147t149 -62.5q238 -5 370 346q-104 11 -198.5 49t-167.5 98.5t-123.5 136t-69.5 167t-2 186.5q16 87 64 152.5t115 100.5t141 50t151 10zM926 1272q-93 6 -155.5 -40t-80.5 -142q-15 -77 5.5 -157.5t68.5 -149t128.5 -118t178.5 -65.5 q13 48 23.5 108.5t18 137t1.5 148.5t-23.5 134t-59.5 101t-105 43z" />
<glyph unicode="&#xd7;" horiz-adv-x="1124" d="M322 326q-20 -13 -55.5 10t-51 53t1.5 49l244 166l-160 137q-21 19 -3 53t51.5 49t62.5 -3l176 -150l241 162q28 17 65 -5.5t49.5 -55t-5.5 -52.5l-229 -153l149 -129q25 -21 8.5 -56.5t-50 -49.5t-62.5 3l-172 148z" />
<glyph unicode="&#xd8;" horiz-adv-x="1409" d="M1141 1466q27 29 63.5 22.5t64.5 -35t15 -48.5q-8 -13 -29 -46t-34 -52q69 -70 100.5 -180t29.5 -228.5t-30 -249.5q-29 -138 -89.5 -260t-143 -213.5t-190 -144t-224.5 -51.5q-115 3 -187 40q-14 -21 -37 -57t-34 -53q-22 -25 -57.5 -18t-62.5 37.5t-11 52.5 q10 15 32.5 51.5t36.5 56.5q-75 79 -101.5 202.5t-1.5 253.5t95 230q25 20 62 10t67.5 -40.5t22.5 -55.5q-52 -105 -62.5 -220t27.5 -202q83 139 260.5 470.5t284.5 508.5q-44 26 -101 29q-67 5 -120.5 -17.5t-83.5 -62.5t-45.5 -90t-11.5 -102.5t24 -98.5q7 -27 -14 -58 t-48.5 -41t-50.5 5q-52 56 -78 135.5t-10 163.5q14 70 47.5 126.5t78.5 92.5t101 59t114 31t118 4q94 -9 162 -39zM1112 1122q-106 -174 -285 -504t-262 -466q108 -47 219.5 1.5t196.5 176.5q110 166 150 388.5t-19 403.5z" />
<glyph unicode="&#xd9;" horiz-adv-x="1849" d="M1350 1792q8 -11 55.5 -78.5t69.5 -99.5q22 -34 -19 -54q-41 -19 -82 -5q-17 5 -26 16l-154 182q-23 27 19 49q45 23 95 13q29 -5 42 -23zM940 1384q20 27 75 33t101 -11t45 -46q-126 -391 -274 -916q-17 -60 -24 -111t-3.5 -99t29 -75.5t72.5 -27.5q109 1 219.5 119.5 t156.5 269.5q37 121 81.5 273t92 319t66.5 231q24 28 78.5 30t99 -21.5t41.5 -59.5q-46 -130 -124 -394t-136 -490q-33 -122 -27.5 -198.5t54.5 -76.5q70 -1 154.5 91t146.5 229q7 10 25 6t34.5 -19.5t11.5 -27.5q-32 -71 -72.5 -136.5t-97 -134.5t-129 -111t-147.5 -42 q-84 0 -133 64t-43 177q-74 -108 -187.5 -178.5t-224.5 -70.5q-99 1 -161 40t-85.5 112t-18 168.5t37.5 217.5q24 92 55.5 200.5t78.5 260.5t64 211q-44 -49 -104.5 -86t-113.5 -58t-102.5 -42t-83 -51t-42.5 -72q-27 -119 72 -140q17 -7 17.5 -35.5t-15 -54.5t-37.5 -26 q-138 -4 -213.5 80t-48.5 192q16 68 62.5 115.5t106 73t136.5 53t150 52.5t150.5 75t133.5 118z" />
<glyph unicode="&#xda;" horiz-adv-x="1849" d="M1421 1794q25 33 91 24q57 -7 73 -34q8 -14 -4 -29l-154 -182q-22 -27 -77 -20q-50 7 -60 34q-4 14 6 29q22 32 69.5 99.5t55.5 78.5zM940 1384q20 27 75 33t101 -11t45 -46q-126 -391 -274 -916q-17 -60 -24 -111t-3.5 -99t29 -75.5t72.5 -27.5q109 1 219.5 119.5 t156.5 269.5q37 121 81.5 273t92 319t66.5 231q24 28 78.5 30t99 -21.5t41.5 -59.5q-46 -130 -124 -394t-136 -490q-33 -122 -27.5 -198.5t54.5 -76.5q70 -1 154.5 91t146.5 229q7 10 25 6t34.5 -19.5t11.5 -27.5q-32 -71 -72.5 -136.5t-97 -134.5t-129 -111t-147.5 -42 q-84 0 -133 64t-43 177q-74 -108 -187.5 -178.5t-224.5 -70.5q-99 1 -161 40t-85.5 112t-18 168.5t37.5 217.5q24 92 55.5 200.5t78.5 260.5t64 211q-44 -49 -104.5 -86t-113.5 -58t-102.5 -42t-83 -51t-42.5 -72q-27 -119 72 -140q17 -7 17.5 -35.5t-15 -54.5t-37.5 -26 q-138 -4 -213.5 80t-48.5 192q16 68 62.5 115.5t106 73t136.5 53t150 52.5t150.5 75t133.5 118z" />
<glyph unicode="&#xdb;" horiz-adv-x="1849" d="M1378 1800q30 18 73 18t65 -18q19 -15 53 -51t71.5 -79t47.5 -54q22 -24 -21 -45q-47 -22 -92 -13q-19 4 -29 15l-110 121l-162 -129q-31 -25 -83 -6q-43 15 -47 43q-3 18 15 34q34 30 107 84.5t112 79.5zM940 1384q20 27 75 33t101 -11t45 -46q-126 -391 -274 -916 q-17 -60 -24 -111t-3.5 -99t29 -75.5t72.5 -27.5q109 1 219.5 119.5t156.5 269.5q37 121 81.5 273t92 319t66.5 231q24 28 78.5 30t99 -21.5t41.5 -59.5q-46 -130 -124 -394t-136 -490q-33 -122 -27.5 -198.5t54.5 -76.5q70 -1 154.5 91t146.5 229q7 10 25 6t34.5 -19.5 t11.5 -27.5q-32 -71 -72.5 -136.5t-97 -134.5t-129 -111t-147.5 -42q-84 0 -133 64t-43 177q-74 -108 -187.5 -178.5t-224.5 -70.5q-99 1 -161 40t-85.5 112t-18 168.5t37.5 217.5q24 92 55.5 200.5t78.5 260.5t64 211q-44 -49 -104.5 -86t-113.5 -58t-102.5 -42t-83 -51 t-42.5 -72q-27 -119 72 -140q17 -7 17.5 -35.5t-15 -54.5t-37.5 -26q-138 -4 -213.5 80t-48.5 192q16 68 62.5 115.5t106 73t136.5 53t150 52.5t150.5 75t133.5 118z" />
<glyph unicode="&#xdc;" horiz-adv-x="1849" d="M1262 1554q-52 0 -80.5 33.5t-26.5 75.5q5 43 37.5 74.5t83.5 34.5q49 0 78 -34t24 -77q-2 -41 -34.5 -74t-81.5 -33zM1571 1554q-52 0 -79 33.5t-22 75.5q2 41 34 73.5t81 35.5q53 0 81 -32.5t28 -76.5q-3 -43 -37 -76t-86 -33zM940 1384q20 27 75 33t101 -11t45 -46 q-126 -391 -274 -916q-17 -60 -24 -111t-3.5 -99t29 -75.5t72.5 -27.5q109 1 219.5 119.5t156.5 269.5q37 121 81.5 273t92 319t66.5 231q24 28 78.5 30t99 -21.5t41.5 -59.5q-46 -130 -124 -394t-136 -490q-33 -122 -27.5 -198.5t54.5 -76.5q70 -1 154.5 91t146.5 229 q7 10 25 6t34.5 -19.5t11.5 -27.5q-32 -71 -72.5 -136.5t-97 -134.5t-129 -111t-147.5 -42q-84 0 -133 64t-43 177q-74 -108 -187.5 -178.5t-224.5 -70.5q-99 1 -161 40t-85.5 112t-18 168.5t37.5 217.5q24 92 55.5 200.5t78.5 260.5t64 211q-44 -49 -104.5 -86t-113.5 -58 t-102.5 -42t-83 -51t-42.5 -72q-27 -119 72 -140q17 -7 17.5 -35.5t-15 -54.5t-37.5 -26q-138 -4 -213.5 80t-48.5 192q16 68 62.5 115.5t106 73t136.5 53t150 52.5t150.5 75t133.5 118z" />
<glyph unicode="&#xdd;" horiz-adv-x="1812" d="M1444 1796q25 33 91 24q57 -7 73 -34q8 -14 -4 -29l-154 -182q-22 -27 -77 -20q-50 7 -60 34q-4 14 6 29q22 32 69.5 99.5t55.5 78.5zM1825 451q8 11 26.5 7.5t34.5 -19t10 -29.5q-102 -214 -221 -335.5t-291 -191.5q-30 -127 -59 -198q-58 -152 -141.5 -221.5 t-227.5 -69.5q-108 -1 -167 60t-44 155q7 41 25.5 77t42 63.5t60.5 54t69.5 44.5t80 37.5t81.5 31.5t84 28q13 37 44 145.5t42 145.5q-161 -232 -371 -232q-95 1 -155.5 40t-84 111t-18.5 168t37 218q19 71 44 159.5t45 154.5t52 173t49 162q-44 -49 -104.5 -86t-114 -58 t-102.5 -42.5t-83 -51t-44 -71.5q-27 -119 72 -140q18 -5 20 -33t-13.5 -55t-41.5 -28q-138 -3 -212 78.5t-48 189.5q16 69 61.5 117t105.5 73.5t137 53t150 53t151 76.5t134 120q31 28 86 31t96 -14t37 -41q-59 -187 -83 -265.5t-68 -229.5t-113 -400q-17 -59 -24 -111.5 t-4 -100.5t27 -76.5t69 -28.5q109 0 214.5 109.5t172.5 285.5q37 127 122.5 415.5t116.5 395.5q19 24 73.5 26t101 -17.5t44.5 -49.5q-54 -155 -180.5 -585t-206.5 -718q117 44 223 156t181 283zM1163 -180q-73 -32 -137.5 -82t-85.5 -96q-20 -43 -9 -73.5t50 -29.5 q41 3 76.5 39.5t60.5 99.5q14 35 45 142z" />
<glyph unicode="&#xde;" horiz-adv-x="1468" d="M969 1442q50 11 92 -25q36 -31 24 -59q-3 -9 -12 -15q-45 -34 -94 -153q105 -16 193 -58t152.5 -107.5t93 -160.5t9.5 -207q-27 -167 -128.5 -282.5t-253.5 -154.5t-343 7q-41 -156 -61 -200q-14 -35 -87 -39q-72 -4 -109 24q-24 19 -13 45q14 31 64 217.5t112.5 416 t96.5 335.5q-127 -23 -219 -90.5t-118 -162.5t42 -206q14 -20 -13 -47.5t-65.5 -38t-69.5 3.5q-112 72 -119 211q-6 142 81 255t229.5 175t314.5 72q95 223 201 244zM922 1034q-27 -83 -62 -209.5t-74 -275.5t-45 -172q182 -45 310.5 40.5t154.5 266.5q22 149 -60 238.5 t-224 111.5z" />
<glyph unicode="&#xdf;" horiz-adv-x="1138" d="M1153 455q7 9 24.5 4t34 -20.5t11.5 -26.5q-137 -326 -402 -299q-48 -58 -113 -90t-135 -37q-123 -8 -211 65t-94 234q-1 19 33.5 37.5t72.5 15.5t44 -35q16 -78 53.5 -121.5t80 -42.5t75.5 45q-19 29 -18.5 61.5t21.5 57.5t50 23q7 108 -42.5 201.5t-143.5 150.5 q-37 22 -28 85.5t54 82.5q90 36 144.5 83.5t74.5 133.5q22 85 -12 142t-109 57q-47 -1 -82 -22t-74 -79.5t-83 -165.5q-53 -125 -129.5 -472t-65.5 -482q1 -34 -54.5 -47.5t-111 -0.5t-55.5 44q19 293 89.5 607t183.5 527q65 123 164 188.5t216 67.5q172 3 269 -106.5 t65 -273.5q-22 -105 -101.5 -179t-180.5 -108q141 -97 197 -246t12 -307q169 0 276 248z" />
<glyph unicode="&#xe0;" horiz-adv-x="1030" d="M565 1235q8 -11 55.5 -78.5t69.5 -99.5q22 -34 -19 -54q-41 -19 -82 -5q-17 5 -26 16l-153 182q-23 27 19 49q45 24 95 13q28 -6 41 -23zM487 866q115 20 242 -7.5t207 -108.5q15 -25 -28 -74t-68 -37q-61 50 -140.5 71.5t-152.5 12.5q-88 -12 -167.5 -82.5 t-127.5 -173.5q-47 -100 -55.5 -192.5t26.5 -127.5q47 -47 124 20t146.5 195.5t104.5 260.5q13 17 45 19.5t64.5 -5t58.5 -22.5t29 -31q-61 -207 -78 -301q-34 -150 37 -150q59 2 146.5 96.5t141.5 223.5q7 10 25.5 6t35.5 -19.5t11 -27.5q-88 -185 -206 -302.5t-253 -117.5 q-75 0 -111 67t-18 179q-32 -55 -59.5 -93.5t-67.5 -78.5t-90.5 -61.5t-109.5 -22.5q-120 -2 -187 85t-41 250q22 133 101.5 253.5t189.5 198.5t225 97z" />
<glyph unicode="&#xe1;" horiz-adv-x="1030" d="M639 1237q25 33 91 24q57 -7 73 -34q8 -14 -4 -29l-154 -182q-22 -27 -77 -20q-50 7 -60 34q-4 14 6 29q22 32 69.5 99.5t55.5 78.5zM487 866q115 20 242 -7.5t207 -108.5q15 -25 -28 -74t-68 -37q-61 50 -140.5 71.5t-152.5 12.5q-88 -12 -167.5 -82.5t-127.5 -173.5 q-47 -100 -55.5 -192.5t26.5 -127.5q47 -47 124 20t146.5 195.5t104.5 260.5q13 17 45 19.5t64.5 -5t58.5 -22.5t29 -31q-61 -207 -78 -301q-34 -150 37 -150q59 2 146.5 96.5t141.5 223.5q7 10 25.5 6t35.5 -19.5t11 -27.5q-88 -185 -206 -302.5t-253 -117.5q-75 0 -111 67 t-18 179q-32 -55 -59.5 -93.5t-67.5 -78.5t-90.5 -61.5t-109.5 -22.5q-120 -2 -187 85t-41 250q22 133 101.5 253.5t189.5 198.5t225 97z" />
<glyph unicode="&#xe2;" horiz-adv-x="1030" d="M596 1243q30 18 72.5 18t64.5 -18q19 -15 53 -51t71.5 -79t47.5 -54q22 -24 -20 -45q-46 -22 -92 -13q-19 4 -29 15l-111 121l-161 -129q-31 -25 -83 -6q-43 15 -47 43q-3 18 15 34q34 30 107 84.5t112 79.5zM487 866q115 20 242 -7.5t207 -108.5q15 -25 -28 -74t-68 -37 q-61 50 -140.5 71.5t-152.5 12.5q-88 -12 -167.5 -82.5t-127.5 -173.5q-47 -100 -55.5 -192.5t26.5 -127.5q47 -47 124 20t146.5 195.5t104.5 260.5q13 17 45 19.5t64.5 -5t58.5 -22.5t29 -31q-61 -207 -78 -301q-34 -150 37 -150q59 2 146.5 96.5t141.5 223.5q7 10 25.5 6 t35.5 -19.5t11 -27.5q-88 -185 -206 -302.5t-253 -117.5q-75 0 -111 67t-18 179q-32 -55 -59.5 -93.5t-67.5 -78.5t-90.5 -61.5t-109.5 -22.5q-120 -2 -187 85t-41 250q22 133 101.5 253.5t189.5 198.5t225 97z" />
<glyph unicode="&#xe3;" horiz-adv-x="1030" d="M711 1016q-44 1 -109.5 35.5t-93.5 35.5q-50 0 -90 -55q-12 -9 -34 -0.5t-41 31t-11 37.5q25 52 71.5 88t108.5 35q47 0 110 -34.5t95 -35.5q29 -1 49 10t41 39q14 10 34 1.5t36 -31t8 -39.5q-24 -51 -69.5 -84.5t-104.5 -32.5zM487 866q115 20 242 -7.5t207 -108.5 q15 -25 -28 -74t-68 -37q-61 50 -140.5 71.5t-152.5 12.5q-88 -12 -167.5 -82.5t-127.5 -173.5q-47 -100 -55.5 -192.5t26.5 -127.5q47 -47 124 20t146.5 195.5t104.5 260.5q13 17 45 19.5t64.5 -5t58.5 -22.5t29 -31q-61 -207 -78 -301q-34 -150 37 -150q59 2 146.5 96.5 t141.5 223.5q7 10 25.5 6t35.5 -19.5t11 -27.5q-88 -185 -206 -302.5t-253 -117.5q-75 0 -111 67t-18 179q-32 -55 -59.5 -93.5t-67.5 -78.5t-90.5 -61.5t-109.5 -22.5q-120 -2 -187 85t-41 250q22 133 101.5 253.5t189.5 198.5t225 97z" />
<glyph unicode="&#xe4;" horiz-adv-x="1030" d="M479 997q-52 0 -80 33.5t-26 75.5q5 42 37.5 73.5t83.5 34.5q49 0 78 -33.5t24 -76.5q-2 -41 -35 -74t-82 -33zM788 997q-52 0 -78.5 33.5t-21.5 75.5q2 41 34 73t81 35q53 0 80.5 -32t27.5 -76q-3 -43 -37 -76t-86 -33zM487 866q115 20 242 -7.5t207 -108.5 q15 -25 -28 -74t-68 -37q-61 50 -140.5 71.5t-152.5 12.5q-88 -12 -167.5 -82.5t-127.5 -173.5q-47 -100 -55.5 -192.5t26.5 -127.5q47 -47 124 20t146.5 195.5t104.5 260.5q13 17 45 19.5t64.5 -5t58.5 -22.5t29 -31q-61 -207 -78 -301q-34 -150 37 -150q59 2 146.5 96.5 t141.5 223.5q7 10 25.5 6t35.5 -19.5t11 -27.5q-88 -185 -206 -302.5t-253 -117.5q-75 0 -111 67t-18 179q-32 -55 -59.5 -93.5t-67.5 -78.5t-90.5 -61.5t-109.5 -22.5q-120 -2 -187 85t-41 250q22 133 101.5 253.5t189.5 198.5t225 97z" />
<glyph unicode="&#xe5;" horiz-adv-x="1030" d="M653 1292q84 -2 130.5 -49t37.5 -123q-9 -74 -68 -120t-139 -44q-82 0 -128 48.5t-35 123.5q7 72 64.5 118t137.5 46zM645 1194q-30 0 -52 -19.5t-28 -50.5q-5 -31 11 -50t47 -19q33 0 55.5 18.5t26.5 50.5q6 32 -10.5 51t-49.5 19zM487 866q115 20 242 -7.5t207 -108.5 q15 -25 -28 -74t-68 -37q-61 50 -140.5 71.5t-152.5 12.5q-88 -12 -167.5 -82.5t-127.5 -173.5q-47 -100 -55.5 -192.5t26.5 -127.5q47 -47 124 20t146.5 195.5t104.5 260.5q13 17 45 19.5t64.5 -5t58.5 -22.5t29 -31q-61 -207 -78 -301q-34 -150 37 -150q59 2 146.5 96.5 t141.5 223.5q7 10 25.5 6t35.5 -19.5t11 -27.5q-88 -185 -206 -302.5t-253 -117.5q-75 0 -111 67t-18 179q-32 -55 -59.5 -93.5t-67.5 -78.5t-90.5 -61.5t-109.5 -22.5q-120 -2 -187 85t-41 250q22 133 101.5 253.5t189.5 198.5t225 97z" />
<glyph unicode="&#xe6;" horiz-adv-x="1447" d="M485 868q212 6 297 -174q68 87 164 133t195 41q70 -2 123 -27.5t79 -65t36.5 -87.5t-5.5 -96q-31 -149 -176 -214.5t-346 -19.5q-8 -102 36.5 -165t135.5 -66q60 -2 110.5 9.5t107.5 44.5t112 101t106 171q9 10 28 6.5t35 -19.5t9 -30q-57 -116 -120.5 -199t-115.5 -126 t-113.5 -67.5t-101 -30t-90.5 -5.5q-97 0 -174 45t-117 123q-59 -83 -145 -122.5t-176 -39.5q-128 1 -193.5 66t-60.5 167q2 75 30.5 136t77 101.5t111 63t137 22t150.5 -23.5q7 118 -32.5 173t-129.5 57q-229 0 -416 -406q-8 -10 -26.5 -7.5t-35.5 17t-11 27.5 q110 252 234.5 366.5t270.5 120.5zM1114 723q-71 7 -145.5 -73t-102.5 -191q109 -17 184 17t109 104q18 36 21.5 66t-12.5 52t-54 25zM469 436q-75 -18 -118 -98q-42 -76 -22 -140q19 -63 91 -65q44 -1 78.5 19t54.5 47t35 71t21 75t12 75q-73 31 -152 16z" />
<glyph unicode="&#xe7;" horiz-adv-x="825" d="M840 453q7 11 25 6.5t34.5 -20.5t11.5 -27q-167 -375 -481 -422l-61 -90q65 -8 103 -42.5t40.5 -79t-18.5 -91.5q-28 -55 -84 -88.5t-137 -29.5t-160 58q-11 11 -6.5 33t21.5 39.5t32 9.5q63 -39 117 -34.5t79 51.5q11 25 11.5 47.5t-23.5 37.5t-68 13q-26 0 -35 15.5 t5 41.5l63 103q-153 7 -240.5 117.5t-72.5 265.5q9 96 51 186.5t107.5 161.5t159 113.5t198.5 41.5q96 -1 155.5 -36.5t75 -86t1.5 -107t-56 -101.5q-27 -37 -108 -37q-69 0 -89 23q-9 10 -2 22q19 23 33.5 51.5t20 56t-5.5 47.5t-41 23q-88 9 -170.5 -100t-94.5 -258 q-9 -109 42 -174t151 -66q119 0 231.5 80t184.5 246z" />
<glyph unicode="&#xe8;" horiz-adv-x="901" d="M481 1235q8 -11 55.5 -78.5t69.5 -99.5q22 -34 -19 -54q-41 -19 -82 -5q-17 5 -26 16l-153 182q-23 27 19 49q45 24 95 13q28 -6 41 -23zM520 868q83 -3 141.5 -36t83.5 -82.5t24 -109.5t-30 -116q-58 -117 -194.5 -164t-313.5 -6q-9 -98 45.5 -158t161.5 -71 q56 -6 117 8t127 49t127.5 105t103.5 166q8 10 26.5 6t35.5 -19.5t12 -27.5q-199 -445 -606 -432q-91 3 -163 29.5t-116.5 70.5t-72.5 102t-30 123t11 135q41 198 184 316t326 112zM494 723q-72 4 -146 -75t-102 -189q110 -17 186.5 17t108.5 104q28 51 18 96.5t-65 46.5z " />
<glyph unicode="&#xe9;" horiz-adv-x="901" d="M553 1237q25 33 91 24q57 -7 73 -34q8 -14 -4 -29l-154 -182q-22 -27 -77 -20q-50 7 -60 34q-4 14 6 29q22 32 69.5 99.5t55.5 78.5zM520 868q83 -3 141.5 -36t83.5 -82.5t24 -109.5t-30 -116q-58 -117 -194.5 -164t-313.5 -6q-9 -98 45.5 -158t161.5 -71q56 -6 117 8 t127 49t127.5 105t103.5 166q8 10 26.5 6t35.5 -19.5t12 -27.5q-199 -445 -606 -432q-91 3 -163 29.5t-116.5 70.5t-72.5 102t-30 123t11 135q41 198 184 316t326 112zM494 723q-72 4 -146 -75t-102 -189q110 -17 186.5 17t108.5 104q28 51 18 96.5t-65 46.5z" />
<glyph unicode="&#xea;" horiz-adv-x="901" d="M510 1243q30 18 72.5 18t64.5 -18q19 -15 53 -51t71.5 -79t47.5 -54q22 -24 -20 -45q-46 -22 -92 -13q-19 4 -29 15l-111 121l-161 -129q-31 -25 -83 -6q-43 15 -47 43q-3 18 15 34q34 30 107 84.5t112 79.5zM520 868q83 -3 141.5 -36t83.5 -82.5t24 -109.5t-30 -116 q-58 -117 -194.5 -164t-313.5 -6q-9 -98 45.5 -158t161.5 -71q56 -6 117 8t127 49t127.5 105t103.5 166q8 10 26.5 6t35.5 -19.5t12 -27.5q-199 -445 -606 -432q-91 3 -163 29.5t-116.5 70.5t-72.5 102t-30 123t11 135q41 198 184 316t326 112zM494 723q-72 4 -146 -75 t-102 -189q110 -17 186.5 17t108.5 104q28 51 18 96.5t-65 46.5z" />
<glyph unicode="&#xeb;" horiz-adv-x="901" d="M393 997q-52 0 -80 33.5t-26 75.5q5 42 37.5 73.5t83.5 34.5q49 0 78 -33.5t24 -76.5q-2 -41 -35 -74t-82 -33zM702 997q-52 0 -78.5 33.5t-21.5 75.5q2 41 34 73t81 35q53 0 80.5 -32t27.5 -76q-3 -43 -37 -76t-86 -33zM520 868q83 -3 141.5 -36t83.5 -82.5t24 -109.5 t-30 -116q-58 -117 -194.5 -164t-313.5 -6q-9 -98 45.5 -158t161.5 -71q56 -6 117 8t127 49t127.5 105t103.5 166q8 10 26.5 6t35.5 -19.5t12 -27.5q-199 -445 -606 -432q-91 3 -163 29.5t-116.5 70.5t-72.5 102t-30 123t11 135q41 198 184 316t326 112zM494 723 q-72 4 -146 -75t-102 -189q110 -17 186.5 17t108.5 104q28 51 18 96.5t-65 46.5z" />
<glyph unicode="&#xec;" horiz-adv-x="473" d="M231 1231q8 -11 55.5 -78.5t69.5 -99.5q22 -34 -19 -54q-41 -19 -82 -5q-17 6 -26 16l-153 182q-23 27 19 49q45 24 95 13q28 -6 41 -23zM133 834q9 30 93 31q82 1 117 -23q15 -11 11 -23q-144 -463 -166 -543q-10 -36 -15 -61.5t-4.5 -47.5t11 -32.5t31.5 -9.5 q56 1 137 101t135 227q8 11 27 7t36 -20.5t11 -29.5q-213 -421 -428 -428q-122 -4 -161.5 63.5t-10.5 192.5q39 161 176 596z" />
<glyph unicode="&#xed;" horiz-adv-x="473" d="M305 1231q25 33 91 24q57 -7 73 -34q8 -14 -4 -29l-154 -182q-22 -27 -77 -20q-50 7 -60 34q-4 14 6 29q22 32 69.5 99.5t55.5 78.5zM133 834q9 30 93 31q82 1 117 -23q15 -11 11 -23q-144 -463 -166 -543q-10 -36 -15 -61.5t-4.5 -47.5t11 -32.5t31.5 -9.5q56 1 137 101 t135 227q8 11 27 7t36 -20.5t11 -29.5q-213 -421 -428 -428q-122 -4 -161.5 63.5t-10.5 192.5q39 161 176 596z" />
<glyph unicode="&#xee;" horiz-adv-x="473" d="M262 1237q30 18 72.5 18t64.5 -18q19 -15 53 -51t71.5 -79t47.5 -54q22 -24 -20 -45q-46 -22 -92 -13q-19 4 -29 15l-111 120l-161 -129q-31 -25 -84 -6q-42 16 -47 43q-3 19 16 35q34 30 107 84.5t112 79.5zM133 834q9 30 93 31q82 1 117 -23q15 -11 11 -23 q-144 -463 -166 -543q-10 -36 -15 -61.5t-4.5 -47.5t11 -32.5t31.5 -9.5q56 1 137 101t135 227q8 11 27 7t36 -20.5t11 -29.5q-213 -421 -428 -428q-122 -4 -161.5 63.5t-10.5 192.5q39 161 176 596z" />
<glyph unicode="&#xef;" horiz-adv-x="473" d="M145 991q-52 0 -80 33.5t-26 75.5q5 42 37.5 73.5t83.5 34.5q49 0 78 -33.5t24 -76.5q-2 -41 -35 -74t-82 -33zM455 991q-52 0 -79 33.5t-22 75.5q2 41 34 73t81 35q53 0 81 -32t28 -76q-3 -43 -37 -76t-86 -33zM133 834q9 30 93 31q82 1 117 -23q15 -11 11 -23 q-144 -463 -166 -543q-10 -36 -15 -61.5t-4.5 -47.5t11 -32.5t31.5 -9.5q56 1 137 101t135 227q8 11 27 7t36 -20.5t11 -29.5q-213 -421 -428 -428q-122 -4 -161.5 63.5t-10.5 192.5q39 161 176 596z" />
<glyph unicode="&#xf0;" horiz-adv-x="948" d="M236 -20q-74 1 -130 37.5t-85 98t-35.5 143t18.5 173.5q27 100 81.5 182t122.5 133.5t148.5 83.5t159.5 32.5t154 -19.5q35 131 35 219l-158 -51q-25 -8 -43 15t-16 52.5t26 38.5q31 9 89.5 29t80.5 27q-52 136 -240 118q-29 -3 -42 28t-4.5 64.5t32.5 38.5q77 15 168 -4 q194 -18 252 -192l90 30q21 8 39 -15t16.5 -53t-26.5 -38q-20 -5 -90 -31q12 -179 -39 -377q-92 -355 -201 -520q93 -28 179.5 35.5t142.5 196.5q7 10 24.5 5.5t33.5 -20.5t11 -28q-76 -182 -200.5 -250.5t-260.5 -28.5q-150 -156 -333 -153zM268 135q75 0 142 76 q-26 42 2 85t77 34q76 124 150 379q-138 39 -259 -41.5t-169 -239.5q-25 -76 -27.5 -142.5t19 -108t65.5 -42.5z" />
<glyph unicode="&#xf1;" horiz-adv-x="995" d="M623 1016q-44 1 -109.5 35.5t-93.5 35.5q-50 0 -90 -55q-12 -9 -34 -0.5t-41 31t-11 37.5q25 52 71.5 88t108.5 35q47 0 110 -34.5t95 -35.5q29 -1 49 10t41 39q14 10 34 1.5t36 -31t8 -39.5q-24 -51 -69.5 -84.5t-104.5 -32.5zM637 872q112 -1 149.5 -78t6.5 -208 q-11 -45 -43.5 -150.5t-44.5 -156.5q-16 -57 -13 -105.5t37 -48.5q61 0 141.5 96t139.5 232q7 10 25 6t34.5 -19.5t11.5 -27.5q-27 -59 -57.5 -113.5t-73.5 -114t-88 -102.5t-101.5 -71t-113.5 -29q-112 -3 -155 55.5t-23 163.5q7 40 44 193t44 184q6 28 8.5 46.5t0.5 39.5 t-15.5 31.5t-38.5 9.5q-51 -1 -123 -60t-133 -141q-51 -172 -123 -481q-11 -22 -66.5 -31t-108 3t-54.5 44q30 123 61.5 241t83.5 305t72 259q16 22 64 27t94 -10.5t55 -45.5q-32 -118 -45 -160q74 86 166 152t182 65z" />
<glyph unicode="&#xf2;" horiz-adv-x="1011" d="M481 1235q8 -11 55.5 -78.5t69.5 -99.5q22 -34 -19 -54q-41 -19 -82 -5q-17 5 -26 16l-153 182q-23 27 19 49q45 24 95 13q28 -6 41 -23zM516 872q106 2 177.5 -39t101.5 -110t31 -156t-28 -180.5t-81 -179.5q194 -19 307 246q8 10 26.5 6.5t35 -19t10.5 -28.5 q-39 -84 -84.5 -145t-90.5 -92.5t-94.5 -48.5t-95 -14.5t-92.5 9.5q-144 -141 -342 -141q-62 0 -113.5 14t-95.5 44.5t-68.5 80t-33 119.5t11.5 163q42 209 187.5 338.5t330.5 132.5zM489 727q-86 -4 -158.5 -104t-97.5 -224q-54 -274 97 -274q77 0 139 72q-28 43 0 87 t72 35q31 73 47 144.5t15 132.5t-30 97.5t-84 33.5z" />
<glyph unicode="&#xf3;" horiz-adv-x="1011" d="M553 1235q25 33 91 24q57 -7 73 -34q8 -14 -4 -29l-154 -182q-22 -27 -77 -20q-50 7 -60 34q-4 14 6 29q22 32 69.5 99.5t55.5 78.5zM516 872q106 2 177.5 -39t101.5 -110t31 -156t-28 -180.5t-81 -179.5q194 -19 307 246q8 10 26.5 6.5t35 -19t10.5 -28.5 q-39 -84 -84.5 -145t-90.5 -92.5t-94.5 -48.5t-95 -14.5t-92.5 9.5q-144 -141 -342 -141q-62 0 -113.5 14t-95.5 44.5t-68.5 80t-33 119.5t11.5 163q42 209 187.5 338.5t330.5 132.5zM489 727q-86 -4 -158.5 -104t-97.5 -224q-54 -274 97 -274q77 0 139 72q-28 43 0 87 t72 35q31 73 47 144.5t15 132.5t-30 97.5t-84 33.5z" />
<glyph unicode="&#xf4;" horiz-adv-x="1011" d="M510 1241q30 18 72.5 18t64.5 -18q19 -15 53 -51t71.5 -79t47.5 -54q22 -24 -20 -45q-46 -22 -92 -13q-19 4 -29 15l-111 121l-161 -129q-31 -25 -83 -6q-43 15 -47 43q-3 18 15 34q34 30 107 84.5t112 79.5zM516 872q106 2 177.5 -39t101.5 -110t31 -156t-28 -180.5 t-81 -179.5q194 -19 307 246q8 10 26.5 6.5t35 -19t10.5 -28.5q-39 -84 -84.5 -145t-90.5 -92.5t-94.5 -48.5t-95 -14.5t-92.5 9.5q-144 -141 -342 -141q-62 0 -113.5 14t-95.5 44.5t-68.5 80t-33 119.5t11.5 163q42 209 187.5 338.5t330.5 132.5zM489 727 q-86 -4 -158.5 -104t-97.5 -224q-54 -274 97 -274q77 0 139 72q-28 43 0 87t72 35q31 73 47 144.5t15 132.5t-30 97.5t-84 33.5z" />
<glyph unicode="&#xf5;" horiz-adv-x="1011" d="M627 1014q-44 1 -109.5 35.5t-93.5 35.5q-50 0 -90 -55q-12 -9 -34 -0.5t-41 31t-11 37.5q25 52 71.5 88t108.5 35q47 0 110 -34.5t95 -35.5q29 -1 49 10t41 39q14 10 34 1.5t36 -31.5t8 -40q-24 -50 -69.5 -83.5t-104.5 -32.5zM516 872q106 2 177.5 -39t101.5 -110 t31 -156t-28 -180.5t-81 -179.5q194 -19 307 246q8 10 26.5 6.5t35 -19t10.5 -28.5q-39 -84 -84.5 -145t-90.5 -92.5t-94.5 -48.5t-95 -14.5t-92.5 9.5q-144 -141 -342 -141q-62 0 -113.5 14t-95.5 44.5t-68.5 80t-33 119.5t11.5 163q42 209 187.5 338.5t330.5 132.5z M489 727q-86 -4 -158.5 -104t-97.5 -224q-54 -274 97 -274q77 0 139 72q-28 43 0 87t72 35q31 73 47 144.5t15 132.5t-30 97.5t-84 33.5z" />
<glyph unicode="&#xf6;" horiz-adv-x="1011" d="M393 995q-52 0 -80 33.5t-26 75.5q5 42 37.5 73.5t83.5 34.5q49 0 78 -33.5t24 -76.5q-2 -41 -35 -74t-82 -33zM702 995q-52 0 -78.5 33.5t-21.5 75.5q2 41 34 73t81 35q53 0 80.5 -32t27.5 -76q-3 -43 -37 -76t-86 -33zM516 872q106 2 177.5 -39t101.5 -110t31 -156 t-28 -180.5t-81 -179.5q194 -19 307 246q8 10 26.5 6.5t35 -19t10.5 -28.5q-39 -84 -84.5 -145t-90.5 -92.5t-94.5 -48.5t-95 -14.5t-92.5 9.5q-144 -141 -342 -141q-62 0 -113.5 14t-95.5 44.5t-68.5 80t-33 119.5t11.5 163q42 209 187.5 338.5t330.5 132.5zM489 727 q-86 -4 -158.5 -104t-97.5 -224q-54 -274 97 -274q77 0 139 72q-28 43 0 87t72 35q31 73 47 144.5t15 132.5t-30 97.5t-84 33.5z" />
<glyph unicode="&#xf7;" horiz-adv-x="1058" d="M621 799q-47 0 -78 34t-29 80q2 44 36 77t81 34q49 0 79 -33t27 -80q-3 -46 -37 -79t-79 -33zM246 524q-29 0 -38 37t7 74t49 37h576q32 0 42 -36.5t-6.5 -73t-48.5 -36.5zM446 166q-47 0 -78.5 33.5t-29.5 79.5q3 46 37.5 78.5t81.5 33.5q48 0 78 -32.5t28 -79.5 q-3 -46 -37.5 -79.5t-79.5 -33.5z" />
<glyph unicode="&#xf8;" horiz-adv-x="1044" d="M207 -129q-16 -29 -59 -23q-39 6 -48 34q-5 16 6 34q40 67 54 98q-100 37 -146.5 136.5t-17.5 250.5q20 108 76.5 201.5t134 157.5t175.5 94t198 14l53 93q20 27 49 26t49 -26t4 -50q-2 -4 -18 -30t-25 -41q107 -43 152 -147t22.5 -233t-102.5 -251q90 -10 161.5 45 t131.5 199q7 9 25.5 5.5t35 -18.5t10.5 -28q-47 -105 -101 -172.5t-108 -94.5t-113.5 -33t-117.5 11q-76 -83 -189.5 -118.5t-226.5 -16.5q-27 -51 -65 -117zM240 170q31 64 124 261.5t144 295.5q-109 1 -191.5 -98t-107.5 -230q-36 -162 31 -229zM342 129q48 -6 99 15.5 t81 62.5q-28 43 0.5 81t73.5 29q63 100 71 207t-46 166q-51 -99 -148 -296t-131 -265z" />
<glyph unicode="&#xf9;" horiz-adv-x="1001" d="M461 1235q8 -11 55.5 -78.5t69.5 -99.5q22 -34 -19 -54q-41 -19 -82 -5q-17 5 -26 16l-154 182q-23 27 19 49q45 23 95 13q29 -5 42 -23zM635 842q12 22 61.5 26t97 -11.5t54.5 -43.5q-7 -25 -28 -96t-35.5 -123.5t-34 -127t-29 -128t-15 -104t3 -77t29.5 -26.5 q57 -1 137.5 94.5t137.5 227.5q8 11 26.5 7t34.5 -20t10 -28q-28 -57 -52 -99.5t-69.5 -108t-88.5 -108.5t-103 -75t-121 -31q-81 0 -115.5 77.5t-9.5 174.5q-161 -267 -385 -260q-59 1 -99.5 22.5t-59 58.5t-24 85t6.5 102q22 122 86 343.5t70 244.5q12 24 64.5 29 t100.5 -10.5t48 -41.5q-4 -16 -50.5 -190t-68.5 -271q-8 -34 -13 -57.5t-9.5 -51.5t-3.5 -46.5t6 -35t17 -24.5t30 -8q63 0 144.5 85t125.5 210q31 94 123 416z" />
<glyph unicode="&#xfa;" horiz-adv-x="1001" d="M535 1235q25 33 92 24q56 -8 71 -34q7 -15 -4 -29l-153 -182q-22 -27 -77 -20q-50 7 -60 34q-4 14 6 29q22 32 69.5 99.5t55.5 78.5zM635 842q12 22 61.5 26t97 -11.5t54.5 -43.5q-7 -25 -28 -96t-35.5 -123.5t-34 -127t-29 -128t-15 -104t3 -77t29.5 -26.5 q57 -1 137.5 94.5t137.5 227.5q8 11 26.5 7t34.5 -20t10 -28q-28 -57 -52 -99.5t-69.5 -108t-88.5 -108.5t-103 -75t-121 -31q-81 0 -115.5 77.5t-9.5 174.5q-161 -267 -385 -260q-59 1 -99.5 22.5t-59 58.5t-24 85t6.5 102q22 122 86 343.5t70 244.5q12 24 64.5 29 t100.5 -10.5t48 -41.5q-4 -16 -50.5 -190t-68.5 -271q-8 -34 -13 -57.5t-9.5 -51.5t-3.5 -46.5t6 -35t17 -24.5t30 -8q63 0 144.5 85t125.5 210q31 94 123 416z" />
<glyph unicode="&#xfb;" horiz-adv-x="1001" d="M492 1241q30 18 72.5 18t64.5 -18q19 -15 53 -51t71.5 -79t47.5 -54q22 -24 -21 -45q-47 -22 -92 -13q-19 4 -29 15l-110 121l-162 -129q-31 -25 -83 -6q-43 15 -47 43q-3 18 15 34q34 30 107 84t113 80zM635 842q12 22 61.5 26t97 -11.5t54.5 -43.5q-7 -25 -28 -96 t-35.5 -123.5t-34 -127t-29 -128t-15 -104t3 -77t29.5 -26.5q57 -1 137.5 94.5t137.5 227.5q8 11 26.5 7t34.5 -20t10 -28q-28 -57 -52 -99.5t-69.5 -108t-88.5 -108.5t-103 -75t-121 -31q-81 0 -115.5 77.5t-9.5 174.5q-161 -267 -385 -260q-59 1 -99.5 22.5t-59 58.5 t-24 85t6.5 102q22 122 86 343.5t70 244.5q12 24 64.5 29t100.5 -10.5t48 -41.5q-4 -16 -50.5 -190t-68.5 -271q-8 -34 -13 -57.5t-9.5 -51.5t-3.5 -46.5t6 -35t17 -24.5t30 -8q63 0 144.5 85t125.5 210q31 94 123 416z" />
<glyph unicode="&#xfc;" horiz-adv-x="1001" d="M375 995q-52 0 -80.5 33.5t-26.5 75.5q5 42 37.5 73.5t83.5 34.5q49 0 78.5 -33.5t24.5 -76.5q-2 -41 -35 -74t-82 -33zM684 995q-52 0 -78.5 33.5t-21.5 75.5q2 41 33.5 73t80.5 35q53 0 81 -32t28 -76q-3 -43 -37 -76t-86 -33zM635 842q12 22 61.5 26t97 -11.5 t54.5 -43.5q-7 -25 -28 -96t-35.5 -123.5t-34 -127t-29 -128t-15 -104t3 -77t29.5 -26.5q57 -1 137.5 94.5t137.5 227.5q8 11 26.5 7t34.5 -20t10 -28q-28 -57 -52 -99.5t-69.5 -108t-88.5 -108.5t-103 -75t-121 -31q-81 0 -115.5 77.5t-9.5 174.5q-161 -267 -385 -260 q-59 1 -99.5 22.5t-59 58.5t-24 85t6.5 102q22 122 86 343.5t70 244.5q12 24 64.5 29t100.5 -10.5t48 -41.5q-4 -16 -50.5 -190t-68.5 -271q-8 -34 -13 -57.5t-9.5 -51.5t-3.5 -46.5t6 -35t17 -24.5t30 -8q63 0 144.5 85t125.5 210q31 94 123 416z" />
<glyph unicode="&#xfd;" horiz-adv-x="993" d="M518 1237q25 33 91 24q57 -7 73 -34q8 -14 -4 -29l-154 -182q-22 -27 -77 -20q-50 7 -60 34q-4 14 6 29q22 32 69.5 99.5t55.5 78.5zM178 -606q-106 -3 -167.5 52.5t-49.5 154.5q7 57 38 105.5t70 81.5t102.5 64.5t113 50t123.5 42.5q17 44 86 272q-84 -129 -183.5 -186 t-189.5 -47q-78 5 -121.5 43.5t-49.5 98.5t11 138q22 94 79.5 287.5t76.5 286.5q11 23 61.5 29t98 -8t51.5 -42q-17 -70 -63 -249.5t-68 -272.5q-10 -38 -14 -65t-2.5 -51t13.5 -36t35 -12q62 -1 140 86.5t131 214.5q65 155 127 410q17 24 68.5 26.5t97.5 -14t49 -41.5 q-46 -167 -116 -427.5t-101 -371.5q236 106 383 441q7 9 25 5t34.5 -19.5t11.5 -28.5q-102 -219 -214.5 -338t-276.5 -193q-54 -194 -108 -297.5t-123.5 -146t-178.5 -43.5zM215 -457q77 18 125 148q18 51 35 123q-142 -66 -197 -144q-37 -51 -26 -93.5t63 -33.5z" />
<glyph unicode="&#xfe;" horiz-adv-x="1007" d="M1022 453q7 10 25.5 6t35.5 -19.5t11 -27.5q-37 -82 -81.5 -141.5t-89 -92t-93 -50.5t-92.5 -15.5t-87 12.5q-81 -86 -181 -120t-188.5 -16t-150.5 79q-128 -546 -147 -635q-6 -26 -83 -32q-82 -6 -118 18q-16 10 -12 24q184 783 291 1188t219 753q10 33 96 29 q80 -4 118 -32q16 -13 13 -25q-168 -526 -191 -600q60 54 140 85t157 29q88 -2 141.5 -53t67 -129t4.5 -168t-39.5 -173t-70.5 -140q194 -16 305 246zM537 313q32 68 49.5 136t19 126t-23 95.5t-74.5 38.5q-53 2 -120 -31t-114 -84q-43 -135 -106 -393q51 -69 146 -73 t155 62q-20 20 -21 46t12 45.5t34.5 29.5t42.5 2z" />
<glyph unicode="&#xff;" horiz-adv-x="993" d="M358 997q-52 0 -80 33.5t-26 75.5q5 42 37.5 73.5t83.5 34.5q49 0 78 -33.5t24 -76.5q-2 -41 -35 -74t-82 -33zM668 997q-52 0 -79 33.5t-22 75.5q2 41 34 73t81 35q53 0 81 -32t28 -76q-3 -43 -37 -76t-86 -33zM178 -606q-106 -3 -167.5 52.5t-49.5 154.5q7 57 38 105.5 t70 81.5t102.5 64.5t113 50t123.5 42.5q17 44 86 272q-84 -129 -183.5 -186t-189.5 -47q-78 5 -121.5 43.5t-49.5 98.5t11 138q22 94 79.5 287.5t76.5 286.5q11 23 61.5 29t98 -8t51.5 -42q-17 -70 -63 -249.5t-68 -272.5q-10 -38 -14 -65t-2.5 -51t13.5 -36t35 -12 q62 -1 140 86.5t131 214.5q65 155 127 410q17 24 68.5 26.5t97.5 -14t49 -41.5q-46 -167 -116 -427.5t-101 -371.5q236 106 383 441q7 9 25 5t34.5 -19.5t11.5 -28.5q-102 -219 -214.5 -338t-276.5 -193q-54 -194 -108 -297.5t-123.5 -146t-178.5 -43.5zM215 -457 q77 18 125 148q18 51 35 123q-142 -66 -197 -144q-37 -51 -26 -93.5t63 -33.5z" />
<glyph unicode="&#x100;" horiz-adv-x="1699" d="M1214 1589q-27 1 -34 33t8 64t43 32q277 -4 411 -2q28 0 34.5 -32t-8.5 -63.5t-40 -31.5h-414zM426 -18q-163 -3 -237.5 82t-47.5 225q25 118 117.5 202t222.5 119.5t277 22.5q57 135 86 201t78 166t95 169t97 123q65 69 143 98.5t141 19t105.5 -60t42.5 -126.5 q-2 -225 -114 -650q221 14 323 121q17 17 35.5 6t23.5 -33t-4 -38q-126 -157 -399 -178q-7 -30 -25 -104.5t-27.5 -115t-20.5 -97t-17 -97.5q-15 -27 -67 -38t-102.5 0t-61.5 38q17 118 92 409q-8 0 -262 27q-49 -119 -92.5 -199t-102.5 -150.5t-133 -105.5t-166 -36z M1210 578q113 404 148 610q9 59 -21.5 68.5t-74.5 -42.5q-109 -129 -275 -572q-9 -24 -14 -36q146 -21 237 -28zM432 127q25 0 47.5 10t41.5 25t39 42.5t35 53t35 68.5t34 76t36 87q-126 3 -215.5 -48t-122.5 -154q-10 -41 -9.5 -77t21 -59.5t58.5 -23.5z" />
<glyph unicode="&#x101;" horiz-adv-x="1030" d="M410 1034q-27 1 -34.5 33t7.5 64t43 32q277 -4 412 -2q28 0 34.5 -31.5t-9 -63.5t-40.5 -32h-413zM487 866q115 20 242 -7.5t207 -108.5q15 -25 -28 -74t-68 -37q-61 50 -140.5 71.5t-152.5 12.5q-88 -12 -167.5 -82.5t-127.5 -173.5q-47 -100 -55.5 -192.5t26.5 -127.5 q47 -47 124 20t146.5 195.5t104.5 260.5q13 17 45 19.5t64.5 -5t58.5 -22.5t29 -31q-61 -207 -78 -301q-34 -150 37 -150q59 2 146.5 96.5t141.5 223.5q7 10 25.5 6t35.5 -19.5t11 -27.5q-88 -185 -206 -302.5t-253 -117.5q-75 0 -111 67t-18 179q-32 -55 -59.5 -93.5 t-67.5 -78.5t-90.5 -61.5t-109.5 -22.5q-120 -2 -187 85t-41 250q22 133 101.5 253.5t189.5 198.5t225 97z" />
<glyph unicode="&#x102;" horiz-adv-x="1699" d="M1423 1548q-104 0 -172.5 60t-62.5 166q1 19 27.5 28.5t54 4t30.5 -24.5q18 -103 125 -103q123 -3 172 107q9 20 39.5 23t56 -10.5t19.5 -33.5q-24 -97 -100.5 -156.5t-188.5 -60.5zM426 -18q-163 -3 -237.5 82t-47.5 225q25 118 117.5 202t222.5 119.5t277 22.5 q57 135 86 201t78 166t95 169t97 123q65 69 143 98.5t141 19t105.5 -60t42.5 -126.5q-2 -225 -114 -650q221 14 323 121q17 17 35.5 6t23.5 -33t-4 -38q-126 -157 -399 -178q-7 -30 -25 -104.5t-27.5 -115t-20.5 -97t-17 -97.5q-15 -27 -67 -38t-102.5 0t-61.5 38 q17 118 92 409q-8 0 -262 27q-49 -119 -92.5 -199t-102.5 -150.5t-133 -105.5t-166 -36zM1210 578q113 404 148 610q9 59 -21.5 68.5t-74.5 -42.5q-109 -129 -275 -572q-9 -24 -14 -36q146 -21 237 -28zM432 127q25 0 47.5 10t41.5 25t39 42.5t35 53t35 68.5t34 76t36 87 q-126 3 -215.5 -48t-122.5 -154q-10 -41 -9.5 -77t21 -59.5t58.5 -23.5z" />
<glyph unicode="&#x103;" horiz-adv-x="1030" d="M618 993q-104 0 -172.5 60t-62.5 166q1 19 28 28.5t54.5 4t30.5 -24.5q18 -103 125 -103q123 -3 172 107q9 20 39.5 23t55.5 -10.5t19 -33.5q-24 -97 -100.5 -156.5t-188.5 -60.5zM487 866q115 20 242 -7.5t207 -108.5q15 -25 -28 -74t-68 -37q-61 50 -140.5 71.5 t-152.5 12.5q-88 -12 -167.5 -82.5t-127.5 -173.5q-47 -100 -55.5 -192.5t26.5 -127.5q47 -47 124 20t146.5 195.5t104.5 260.5q13 17 45 19.5t64.5 -5t58.5 -22.5t29 -31q-61 -207 -78 -301q-34 -150 37 -150q59 2 146.5 96.5t141.5 223.5q7 10 25.5 6t35.5 -19.5t11 -27.5 q-88 -185 -206 -302.5t-253 -117.5q-75 0 -111 67t-18 179q-32 -55 -59.5 -93.5t-67.5 -78.5t-90.5 -61.5t-109.5 -22.5q-120 -2 -187 85t-41 250q22 133 101.5 253.5t189.5 198.5t225 97z" />
<glyph unicode="&#x104;" horiz-adv-x="1730" d="M1368 -324q-25 -46 -64.5 -78t-82 -45t-85.5 -9.5t-76 23.5t-52.5 59.5t-16.5 92.5q4 76 44 140.5t114 144.5q-46 7 -59 33q32 177 92 409q-38 2 -136.5 13t-125.5 14q-49 -119 -92.5 -199t-102.5 -150.5t-133 -105.5t-166 -36q-163 -3 -237.5 82t-47.5 225 q25 118 117.5 202t222.5 119.5t277 22.5q102 243 187.5 405t182.5 265q62 65 137 92.5t136.5 16t103.5 -61.5t41 -127q-2 -225 -114 -650q221 14 323 121q17 17 35.5 6t23.5 -33t-4 -38q-126 -157 -399 -178q-54 -230 -90 -414q-5 -10 -18 -23q-144 -160 -144 -270 q0 -40 21.5 -56t57 -3t73.5 55q17 14 32.5 4.5t24 -32t0.5 -36.5zM1210 578q113 404 148 610q9 59 -21.5 68.5t-74.5 -42.5q-109 -129 -275 -572q-9 -24 -14 -36q146 -21 237 -28zM432 127q25 0 47.5 10t41.5 25t39 42.5t35 53t35 68.5t34 76t36 87q-126 3 -215.5 -48 t-122.5 -154q-10 -41 -9.5 -77t21 -59.5t58.5 -23.5z" />
<glyph unicode="&#x105;" horiz-adv-x="1009" d="M930 -309q-33 -59 -84 -95.5t-102 -42.5t-96 8.5t-73 59t-26 107.5q0 126 115 264q-92 0 -127 67t-11 179q-32 -55 -59.5 -93.5t-67.5 -78.5t-90.5 -61.5t-109.5 -22.5q-120 -2 -187 85t-41 250q22 133 101.5 253.5t189.5 198.5t225 97q115 20 242 -7.5t207 -108.5 q15 -15 -2.5 -47.5t-47.5 -54.5t-46 -9q-61 50 -140.5 71.5t-152.5 12.5q-88 -12 -167.5 -82.5t-127.5 -173.5q-47 -100 -55.5 -192.5t26.5 -127.5q47 -47 124 20t146.5 195.5t104.5 260.5q5 16 28 22t52 1.5t57 -13.5t45.5 -23t14.5 -26q-61 -207 -78 -301 q-34 -150 37 -150q57 2 136 95t134 225q7 10 25.5 6t35.5 -19.5t11 -27.5q-72 -162 -211 -326q-79 -94 -125 -181t-45 -149q3 -66 46.5 -70.5t108.5 64.5q17 15 33 6.5t25.5 -30.5t1.5 -35z" />
<glyph unicode="&#x106;" horiz-adv-x="1286" d="M1061 1792q25 33 91 24q57 -7 73 -34q8 -14 -4 -29l-154 -182q-22 -27 -77 -20q-50 7 -60 34q-4 14 6 29q22 32 69.5 99.5t55.5 78.5zM1073 1423q162 -9 236 -113t24 -251q-28 -91 -106.5 -153.5t-180 -84t-222 4.5t-224.5 102q-82 -184 -82 -369q-1 -226 94 -333.5 t254 -94.5q55 2 110.5 20t114.5 53.5t113 99.5t94 149q8 11 26.5 7t35 -20t10.5 -28q-100 -218 -243 -322t-357 -110q-231 -6 -365.5 155.5t-115.5 435.5q19 285 180 521q-98 153 -104 288q-3 22 23 33t54.5 4t32.5 -28q11 -95 74 -201q223 252 524 235zM1036 1272 q-115 6 -204 -52.5t-164 -168.5q59 -45 133 -64t138.5 -11t115.5 42t67 88q30 63 4.5 113t-90.5 53z" />
<glyph unicode="&#x107;" horiz-adv-x="858" d="M530 1237q25 33 91 24q57 -7 73 -34q8 -14 -4 -29l-153 -182q-22 -27 -77 -20q-50 7 -60 34q-4 14 6 29q7 10 124 178zM510 870q78 -1 132.5 -24.5t79 -60t29 -80t-13 -87t-51.5 -79.5q-20 -23 -68.5 -29.5t-88.5 4.5t-40 33q19 23 33 51.5t20 56.5t-5 47.5t-41 22.5 q-57 6 -115.5 -41.5t-100.5 -133t-51 -183.5q-9 -107 47 -172t158 -68q85 -3 164.5 29.5t152 108t121.5 188.5q7 10 25 5.5t35 -20t12 -26.5q-48 -105 -106.5 -184t-117.5 -126.5t-127 -75.5t-130 -36.5t-131 -5.5q-156 6 -251 118t-87 265q5 95 46.5 186t108 162 t161.5 113.5t200 41.5z" />
<glyph unicode="&#x10a;" horiz-adv-x="1286" d="M1038 1561q-55 0 -82 34t-22 76q5 45 38.5 77.5t86.5 33.5q52 1 80.5 -32.5t23.5 -80.5q-5 -43 -39.5 -75.5t-85.5 -32.5zM1073 1423q162 -9 236 -113t24 -251q-28 -91 -106.5 -153.5t-180 -84t-222 4.5t-224.5 102q-82 -184 -82 -369q-1 -226 94 -333.5t254 -94.5 q55 2 110.5 20t114.5 53.5t113 99.5t94 149q8 11 26.5 7t35 -20t10.5 -28q-100 -218 -243 -322t-357 -110q-231 -6 -365.5 155.5t-115.5 435.5q19 285 180 521q-98 153 -104 288q-3 22 23 33t54.5 4t32.5 -28q11 -95 74 -201q223 252 524 235zM1036 1272q-115 6 -204 -52.5 t-164 -168.5q59 -45 133 -64t138.5 -11t115.5 42t67 88q30 63 4.5 113t-90.5 53z" />
<glyph unicode="&#x10b;" horiz-adv-x="858" d="M508 1006q-55 0 -82.5 34t-22.5 76q5 45 38.5 77.5t86.5 33.5q52 1 81 -32.5t24 -80.5q-5 -43 -39.5 -75.5t-85.5 -32.5zM510 870q78 -1 132.5 -24.5t79 -60t29 -80t-13 -87t-51.5 -79.5q-20 -23 -68.5 -29.5t-88.5 4.5t-40 33q19 23 33 51.5t20 56.5t-5 47.5t-41 22.5 q-57 6 -115.5 -41.5t-100.5 -133t-51 -183.5q-9 -107 47 -172t158 -68q85 -3 164.5 29.5t152 108t121.5 188.5q7 10 25 5.5t35 -20t12 -26.5q-48 -105 -106.5 -184t-117.5 -126.5t-127 -75.5t-130 -36.5t-131 -5.5q-156 6 -251 118t-87 265q5 95 46.5 186t108 162 t161.5 113.5t200 41.5z" />
<glyph unicode="&#x10c;" horiz-adv-x="1286" d="M1092 1567q-28 -19 -71.5 -18t-66.5 20q-15 11 -41 38t-46.5 50t-49 55.5t-33.5 38.5q-22 24 20 45q45 23 89 15q20 -5 29 -15l108 -125l166 131q33 25 84 6q42 -15 46 -43q3 -18 -15 -34q-96 -79 -219 -164zM1073 1423q162 -9 236 -113t24 -251q-28 -91 -106.5 -153.5 t-180 -84t-222 4.5t-224.5 102q-82 -184 -82 -369q-1 -226 94 -333.5t254 -94.5q55 2 110.5 20t114.5 53.5t113 99.5t94 149q8 11 26.5 7t35 -20t10.5 -28q-100 -218 -243 -322t-357 -110q-231 -6 -365.5 155.5t-115.5 435.5q19 285 180 521q-98 153 -104 288q-3 22 23 33 t54.5 4t32.5 -28q11 -95 74 -201q223 252 524 235zM1036 1272q-115 6 -204 -52.5t-164 -168.5q59 -45 133 -64t138.5 -11t115.5 42t67 88q30 63 4.5 113t-90.5 53z" />
<glyph unicode="&#x10d;" horiz-adv-x="858" d="M561 1012q-28 -19 -71 -18t-66 20q-15 11 -41 38t-46.5 50t-49 55.5t-33.5 38.5q-22 24 20 46q45 23 89 14q19 -5 28 -15l109 -125l166 131q33 25 84 6q42 -16 46 -43q1 -19 -16 -34q-96 -79 -219 -164zM510 870q78 -1 132.5 -24.5t79 -60t29 -80t-13 -87t-51.5 -79.5 q-20 -23 -68.5 -29.5t-88.5 4.5t-40 33q19 23 33 51.5t20 56.5t-5 47.5t-41 22.5q-57 6 -115.5 -41.5t-100.5 -133t-51 -183.5q-9 -107 47 -172t158 -68q85 -3 164.5 29.5t152 108t121.5 188.5q7 10 25 5.5t35 -20t12 -26.5q-48 -105 -106.5 -184t-117.5 -126.5t-127 -75.5 t-130 -36.5t-131 -5.5q-156 6 -251 118t-87 265q5 95 46.5 186t108 162t161.5 113.5t200 41.5z" />
<glyph unicode="&#x10e;" horiz-adv-x="1826" d="M1194 1569q-28 -19 -71 -18t-66 20q-15 11 -41 38t-46.5 50t-49 55.5t-33.5 38.5q-22 24 20 46q45 23 89 14q19 -4 28 -15l109 -125l165 131q33 25 84 6q42 -15 46 -43q3 -18 -15 -34q-96 -79 -219 -164zM1059 1425q142 -4 262.5 -53t208 -136t136 -216.5t44.5 -286.5 q-5 -217 -77 -389t-203 -269.5t-297 -92.5q-210 5 -381 141q-113 -141 -301 -141q-151 -1 -233.5 62t-74.5 165q11 112 98 167.5t202 45.5t214 -74q28 75 69.5 214.5t72 239.5t81.5 203t109 152q30 17 69 15.5t71 -19t26 -37.5q-56 -68 -106.5 -191.5t-81.5 -238.5 t-72 -242.5t-78 -195.5q68 -56 161 -88t169 -25q105 8 183 92.5t116.5 216t40.5 291.5q1 90 -13 167.5t-48.5 147.5t-87.5 119t-134.5 78t-185.5 29q-65 0 -129 -19t-116.5 -51.5t-91.5 -78.5t-58.5 -97t-14.5 -110t39 -115q5 -19 -17.5 -47.5t-56.5 -43t-71 0.5 q-77 60 -104 147.5t-4.5 178t87.5 167.5q94 107 250 164.5t328 52.5zM455 295q-68 2 -100 -40.5t-8.5 -86.5t89.5 -45q98 -3 172 110q-78 57 -153 62z" />
<glyph unicode="&#x10f;" horiz-adv-x="1040" d="M1217 1128q-16 -31 -62 -34q-43 -2 -54 24q-5 14 1 31q19 58 82 229q13 34 66 33q48 -2 66 -28q11 -16 1 -35zM203 -18q-88 -2 -144.5 41t-73.5 116t-7.5 160.5t49.5 180t102 169.5q44 57 100 99t111 65.5t113 35t107 11t93 -9.5q100 318 195 541q8 20 65.5 21t107.5 -16 t38 -42q-142 -333 -265 -778.5t-10 -442.5q58 1 137 97.5t132 222.5q8 10 26.5 6t34.5 -19.5t10 -27.5q-54 -116 -117 -206t-148 -151.5t-173 -62.5q-83 -2 -127 66t-29 182q-25 -51 -55 -93.5t-70 -81t-92 -60.5t-110 -23zM233 141q51 -39 131.5 33t145.5 221 q25 55 100 314q-82 16 -172 -28t-155 -153q-36 -60 -61.5 -139t-25.5 -151.5t37 -96.5z" />
<glyph unicode="&#x110;" horiz-adv-x="1826" d="M451 -18q-151 -1 -233.5 62t-74.5 165q11 112 98 167.5t202 45.5t214 -74q23 51 56 164h-111q-17 6 -23 30.5t4 49t33 29.5h127q121 438 246 536q30 18 69 15t71 -20.5t28 -35.5q-102 -116 -209 -498h201q26 -6 17.5 -54t-36.5 -54h-215q-58 -193 -98 -262 q68 -56 161 -88t169 -25q105 8 183 92.5t116.5 216t40.5 291.5q1 90 -13 167.5t-48.5 147.5t-87.5 119t-134.5 78t-185.5 29q-65 0 -129 -19t-116.5 -51.5t-91.5 -78.5t-58.5 -97t-14.5 -110t39 -115q5 -19 -17.5 -47.5t-56.5 -43t-71 0.5q-77 60 -104 147.5t-4.5 178 t87.5 167.5q94 107 250 164.5t328 52.5q142 -4 262.5 -53t208 -136t136 -216.5t44.5 -286.5q-5 -217 -77 -389t-203 -269.5t-297 -92.5q-210 5 -381 141q-113 -141 -301 -141zM436 123q98 -3 172 110q-78 57 -153 62q-68 2 -100 -40.5t-8.5 -86.5t89.5 -45z" />
<glyph unicode="&#x111;" horiz-adv-x="1040" d="M1053 453q8 10 26.5 6t34.5 -19.5t10 -27.5q-54 -116 -117 -206t-148 -151.5t-173 -62.5q-83 -2 -127 66t-29 182q-25 -51 -55 -93.5t-70 -81t-92 -60.5t-110 -23q-88 -2 -144.5 41t-73.5 116t-7.5 160.5t49.5 180t102 169.5q44 57 100 99t111 65.5t113 35t107 11 t93 -9.5q35 110 80 235q-59 2 -149 2q-20 0 -27 30t4.5 59.5t34.5 29.5h180q35 98 72 185q8 20 65.5 21t107.5 -16t38 -42q-33 -81 -60 -152q16 0 50.5 -1t46.5 -1q24 1 24 -38q-1 -44 -26 -67q-12 -9 -23 -10h-117q-58 -163 -105 -317t-82.5 -304t-33 -241t50.5 -90 q58 1 137 97.5t132 222.5zM510 395q25 55 100 314q-82 16 -172 -28t-155 -153q-36 -60 -61.5 -139t-25.5 -151.5t37 -96.5q51 -39 131.5 33t145.5 221z" />
<glyph unicode="&#x112;" horiz-adv-x="1144" d="M672 1589q-27 1 -34.5 33t7.5 64t43 32q278 -4 412 -2q28 0 34.5 -32t-9 -63.5t-40.5 -31.5h-413zM543 1481q0 -93 24 -150q49 41 117 65.5t138 30t138 -8.5t120.5 -43.5t83.5 -80t28 -114.5q-5 -106 -85 -168t-216 -56q-75 5 -145 36t-115 81q-20 -99 53.5 -185.5 t206.5 -103.5q18 -11 19 -43t-14 -60.5t-36 -31.5q-41 6 -87.5 1.5t-92.5 -14.5t-89.5 -33t-78 -52.5t-58 -74.5t-30.5 -99q-9 -62 10 -110.5t57.5 -77t85.5 -43.5t99 -17q151 -2 277.5 77t205.5 247q8 11 26 7t34.5 -20t11.5 -28q-97 -223 -254 -326.5t-356 -103.5 q-69 0 -135 15t-124 47.5t-99 78t-60.5 111.5t-9.5 143q12 112 74.5 201t152 136.5t190.5 53.5q-93 34 -141 121.5t-42 187t58 176.5q-39 89 -36 226q0 17 22.5 26.5t46 3.5t25.5 -28zM678 1192q88 -94 201 -94q52 -3 81 20.5t31 63.5q1 34 -23 57.5t-61.5 31t-79.5 3.5 t-83 -25.5t-66 -56.5z" />
<glyph unicode="&#x113;" horiz-adv-x="901" d="M324 1034q-27 1 -34.5 33t7.5 64t43 32q277 -4 412 -2q28 0 34.5 -31.5t-9 -63.5t-40.5 -32h-413zM520 868q83 -3 141.5 -36t83.5 -82.5t24 -109.5t-30 -116q-58 -117 -194.5 -164t-313.5 -6q-9 -98 45.5 -158t161.5 -71q56 -6 117 8t127 49t127.5 105t103.5 166 q8 10 26.5 6t35.5 -19.5t12 -27.5q-199 -445 -606 -432q-91 3 -163 29.5t-116.5 70.5t-72.5 102t-30 123t11 135q41 198 184 316t326 112zM494 723q-72 4 -146 -75t-102 -189q110 -17 186.5 17t108.5 104q28 51 18 96.5t-65 46.5z" />
<glyph unicode="&#x116;" horiz-adv-x="1144" d="M879 1561q-55 0 -82.5 34t-22.5 76q5 45 38.5 77.5t86.5 33.5q52 1 81 -32.5t24 -80.5q-5 -43 -39.5 -75.5t-85.5 -32.5zM543 1481q0 -93 24 -150q49 41 117 65.5t138 30t138 -8.5t120.5 -43.5t83.5 -80t28 -114.5q-5 -106 -85 -168t-216 -56q-75 5 -145 36t-115 81 q-20 -99 53.5 -185.5t206.5 -103.5q18 -11 19 -43t-14 -60.5t-36 -31.5q-41 6 -87.5 1.5t-92.5 -14.5t-89.5 -33t-78 -52.5t-58 -74.5t-30.5 -99q-9 -62 10 -110.5t57.5 -77t85.5 -43.5t99 -17q151 -2 277.5 77t205.5 247q8 11 26 7t34.5 -20t11.5 -28q-97 -223 -254 -326.5 t-356 -103.5q-69 0 -135 15t-124 47.5t-99 78t-60.5 111.5t-9.5 143q12 112 74.5 201t152 136.5t190.5 53.5q-93 34 -141 121.5t-42 187t58 176.5q-39 89 -36 226q0 17 22.5 26.5t46 3.5t25.5 -28zM678 1192q88 -94 201 -94q52 -3 81 20.5t31 63.5q1 34 -23 57.5t-61.5 31 t-79.5 3.5t-83 -25.5t-66 -56.5z" />
<glyph unicode="&#x117;" horiz-adv-x="901" d="M530 1006q-55 0 -82 34t-22 76q5 45 38.5 77.5t86.5 33.5q52 1 80.5 -32.5t23.5 -80.5q-5 -43 -39.5 -75.5t-85.5 -32.5zM520 868q83 -3 141.5 -36t83.5 -82.5t24 -109.5t-30 -116q-58 -117 -194.5 -164t-313.5 -6q-9 -98 45.5 -158t161.5 -71q56 -6 117 8t127 49 t127.5 105t103.5 166q8 10 26.5 6t35.5 -19.5t12 -27.5q-199 -445 -606 -432q-91 3 -163 29.5t-116.5 70.5t-72.5 102t-30 123t11 135q41 198 184 316t326 112zM494 723q-72 4 -146 -75t-102 -189q110 -17 186.5 17t108.5 104q28 51 18 96.5t-65 46.5z" />
<glyph unicode="&#x118;" horiz-adv-x="1144" d="M1055 -309q-27 -49 -67.5 -82.5t-83 -47t-84.5 -10t-75 24t-52.5 60t-18.5 92.5q0 124 123 274q-124 -36 -256 -20q-168 19 -268.5 129t-82.5 266q13 112 76 201t153 136.5t191 53.5q-93 34 -141.5 121.5t-43 187t57.5 176.5q-37 84 -37 226q0 17 23 26.5t46.5 3.5 t25.5 -28q0 -93 24 -150q50 41 118 65.5t138 30t138 -8.5t120 -43.5t83 -80t28 -114.5q-5 -106 -84.5 -168t-214.5 -56q-76 5 -146 36t-114 81q-21 -99 52.5 -185.5t207.5 -103.5q17 -11 17.5 -43t-14 -60.5t-34.5 -31.5q-41 6 -87.5 1.5t-93 -14.5t-90 -33t-78.5 -52.5 t-58.5 -74.5t-30.5 -99q-9 -62 9 -110t56 -76t85 -43.5t102 -18.5q150 -6 280 78.5t203 245.5q9 10 27 6.5t34 -19t11 -28.5q-61 -155 -182 -279q-211 -227 -205 -377q2 -66 46 -70.5t109 64.5q17 15 32.5 6.5t24.5 -30.5t1 -35zM877 1098q52 -3 81 20.5t31 63.5 q1 34 -22.5 57.5t-61 31t-79.5 4t-82.5 -25.5t-65.5 -57q88 -94 199 -94z" />
<glyph unicode="&#x119;" horiz-adv-x="827" d="M745 -309q-33 -59 -83.5 -95.5t-101.5 -42.5t-96 8.5t-73 59t-26 107.5q0 122 108 266q-59 -12 -135 -12q-81 2 -145.5 28t-104.5 70t-64.5 102t-25 123t13.5 135q42 199 184.5 316.5t323.5 111.5q83 -3 142 -36t84 -83t23.5 -109.5t-30.5 -115.5q-57 -116 -194 -161.5 t-314 -4.5q-8 -101 37 -164.5t135 -66.5q61 -2 113.5 10t111 44t113 101t99.5 171q8 10 26.5 6t34.5 -19.5t10 -27.5q-51 -115 -96 -176t-135 -152q-72 -77 -111 -169.5t-37 -158.5t46.5 -70.5t109.5 64.5q17 15 32.5 6.5t24 -30.5t0.5 -35zM246 459q110 -17 187.5 17 t109.5 104q17 36 20 67t-14 53t-55 23q-72 4 -145.5 -74.5t-102.5 -189.5z" />
<glyph unicode="&#x11a;" horiz-adv-x="1144" d="M930 1567q-28 -19 -71 -18t-66 20q-15 11 -41 38t-46.5 50t-49 55.5t-33.5 38.5q-22 24 20 46q45 23 89 14q19 -4 28 -15l108 -125l166 131q33 25 84 6q42 -15 46 -43q3 -18 -15 -34q-96 -79 -219 -164zM543 1481q0 -93 24 -150q49 41 117 65.5t138 30t138 -8.5 t120.5 -43.5t83.5 -80t28 -114.5q-5 -106 -85 -168t-216 -56q-75 5 -145 36t-115 81q-20 -99 53.5 -185.5t206.5 -103.5q18 -11 19 -43t-14 -60.5t-36 -31.5q-41 6 -87.5 1.5t-92.5 -14.5t-89.5 -33t-78 -52.5t-58 -74.5t-30.5 -99q-9 -62 10 -110.5t57.5 -77t85.5 -43.5 t99 -17q151 -2 277.5 77t205.5 247q8 11 26 7t34.5 -20t11.5 -28q-97 -223 -254 -326.5t-356 -103.5q-69 0 -135 15t-124 47.5t-99 78t-60.5 111.5t-9.5 143q12 112 74.5 201t152 136.5t190.5 53.5q-93 34 -141 121.5t-42 187t58 176.5q-39 89 -36 226q0 17 22.5 26.5 t46 3.5t25.5 -28zM678 1192q88 -94 201 -94q52 -3 81 20.5t31 63.5q1 34 -23 57.5t-61.5 31t-79.5 3.5t-83 -25.5t-66 -56.5z" />
<glyph unicode="&#x11b;" horiz-adv-x="901" d="M584 1012q-28 -19 -71.5 -18t-66.5 20q-15 11 -41 38t-46.5 50t-49 55.5t-33.5 38.5q-22 24 20 45q45 23 89 15q20 -5 29 -15l108 -125l166 131q33 25 84 6q42 -15 46 -43q3 -18 -15 -34q-96 -79 -219 -164zM520 868q83 -3 141.5 -36t83.5 -82.5t24 -109.5t-30 -116 q-58 -117 -194.5 -164t-313.5 -6q-9 -98 45.5 -158t161.5 -71q56 -6 117 8t127 49t127.5 105t103.5 166q8 10 26.5 6t35.5 -19.5t12 -27.5q-199 -445 -606 -432q-91 3 -163 29.5t-116.5 70.5t-72.5 102t-30 123t11 135q41 198 184 316t326 112zM494 723q-72 4 -146 -75 t-102 -189q110 -17 186.5 17t108.5 104q28 51 18 96.5t-65 46.5z" />
<glyph unicode="&#x11e;" horiz-adv-x="1495" d="M1020 1550q-104 0 -173 60t-63 166q1 19 28 28.5t54.5 4t30.5 -24.5q18 -103 125 -103q123 -3 172 107q9 20 39.5 23t56 -10.5t19.5 -33.5q-24 -97 -100.5 -156.5t-188.5 -60.5zM1028 1423q94 -1 168.5 -31.5t117 -83t52.5 -123t-25 -151.5q-47 -109 -140.5 -172 t-202.5 -72t-226 27.5t-213 114.5q-42 -75 -74 -174t-43 -204.5t3 -194t71 -146.5t154 -59q246 -3 407 401q8 21 60 25t98 -11.5t39 -42.5q-89 -295 -144 -514q237 112 379 441q7 10 25 6t35 -19.5t12 -27.5q-103 -218 -211.5 -338.5t-275.5 -190.5q-34 -134 -69 -221.5 t-83.5 -150t-112.5 -90t-151 -27.5q-106 -2 -170 48.5t-55 147.5q5 69 43 125.5t106.5 99.5t135 72t161.5 60q8 31 31 108t33 119q-64 -79 -150.5 -124t-189.5 -42q-97 3 -172 36.5t-122 89t-75 130t-34 158t4.5 174t37.5 178t68 169t92 147.5q-106 148 -111 305 q-2 22 26 29t57 -4t30 -31q9 -105 78 -207q102 110 241 176t285 65zM1016 1274q-104 0 -206 -60.5t-181 -166.5q90 -70 195.5 -89.5t192 19t120.5 125.5q30 72 -7.5 122t-113.5 50zM870 -182q-84 -37 -148 -88.5t-77 -102.5q-16 -46 2 -67t50 -10t51 44q38 15 66.5 68.5 t55.5 155.5z" />
<glyph unicode="&#x11f;" horiz-adv-x="1015" d="M629 993q-104 0 -173 60t-63 166q1 19 28 28.5t54.5 4t30.5 -24.5q18 -103 125 -103q123 -3 172 107q9 20 39.5 23t56 -10.5t19.5 -33.5q-24 -97 -100.5 -156.5t-188.5 -60.5zM508 868q113 13 230.5 -14.5t203.5 -103.5q14 -25 -30 -75.5t-68 -33.5q-59 48 -133.5 69 t-145.5 15q-92 -7 -173.5 -77t-137.5 -181q-50 -102 -58 -195t29 -127q48 -42 131 25.5t154 212.5q54 111 96 242q10 15 42 17t65 -6t60 -22.5t28 -29.5q-28 -99 -75.5 -280t-78.5 -290q227 92 383 441q7 9 25.5 4.5t35.5 -20t11 -27.5q-105 -220 -214.5 -340t-275.5 -191 q-73 -269 -159.5 -377.5t-251.5 -109.5q-105 -3 -166 52.5t-49 154.5q7 57 38 105.5t70 81.5t102 64.5t112.5 50t123.5 42.5q31 91 90 286q-134 -244 -323 -249q-103 -2 -163 57.5t-68.5 151t23.5 202t101 207.5q80 115 192 184.5t224 83.5zM399 -186q-73 -31 -132.5 -76.5 t-80.5 -89.5q-30 -63 3 -93q29 -26 77 -1q65 35 99 137q7 23 19 68.5t15 54.5z" />
<glyph unicode="&#x120;" horiz-adv-x="1495" d="M1016 1563q-55 0 -82.5 34t-22.5 76q5 45 38.5 77.5t86.5 33.5q52 1 81 -32.5t24 -80.5q-5 -43 -39.5 -75.5t-85.5 -32.5zM1028 1423q94 -1 168.5 -31.5t117 -83t52.5 -123t-25 -151.5q-47 -109 -140.5 -172t-202.5 -72t-226 27.5t-213 114.5q-42 -75 -74 -174 t-43 -204.5t3 -194t71 -146.5t154 -59q246 -3 407 401q8 21 60 25t98 -11.5t39 -42.5q-89 -295 -144 -514q237 112 379 441q7 10 25 6t35 -19.5t12 -27.5q-103 -218 -211.5 -338.5t-275.5 -190.5q-34 -134 -69 -221.5t-83.5 -150t-112.5 -90t-151 -27.5q-106 -2 -170 48.5 t-55 147.5q5 69 43 125.5t106.5 99.5t135 72t161.5 60q8 31 31 108t33 119q-64 -79 -150.5 -124t-189.5 -42q-97 3 -172 36.5t-122 89t-75 130t-34 158t4.5 174t37.5 178t68 169t92 147.5q-106 148 -111 305q-2 22 26 29t57 -4t30 -31q9 -105 78 -207q102 110 241 176 t285 65zM1016 1274q-104 0 -206 -60.5t-181 -166.5q90 -70 195.5 -89.5t192 19t120.5 125.5q30 72 -7.5 122t-113.5 50zM870 -182q-84 -37 -148 -88.5t-77 -102.5q-16 -46 2 -67t50 -10t51 44q38 15 66.5 68.5t55.5 155.5z" />
<glyph unicode="&#x121;" horiz-adv-x="1015" d="M625 1006q-55 0 -82.5 34t-22.5 76q5 45 38.5 77.5t86.5 33.5q52 1 81 -32.5t24 -80.5q-5 -43 -39.5 -75.5t-85.5 -32.5zM508 868q113 13 230.5 -14.5t203.5 -103.5q14 -25 -30 -75.5t-68 -33.5q-59 48 -133.5 69t-145.5 15q-92 -7 -173.5 -77t-137.5 -181 q-50 -102 -58 -195t29 -127q48 -42 131 25.5t154 212.5q54 111 96 242q10 15 42 17t65 -6t60 -22.5t28 -29.5q-28 -99 -75.5 -280t-78.5 -290q227 92 383 441q7 9 25.5 4.5t35.5 -20t11 -27.5q-105 -220 -214.5 -340t-275.5 -191q-73 -269 -159.5 -377.5t-251.5 -109.5 q-105 -3 -166 52.5t-49 154.5q7 57 38 105.5t70 81.5t102 64.5t112.5 50t123.5 42.5q31 91 90 286q-134 -244 -323 -249q-103 -2 -163 57.5t-68.5 151t23.5 202t101 207.5q80 115 192 184.5t224 83.5zM399 -186q-73 -31 -132.5 -76.5t-80.5 -89.5q-30 -63 3 -93 q29 -26 77 -1q65 35 99 137q7 23 19 68.5t15 54.5z" />
<glyph unicode="&#x122;" horiz-adv-x="1495" d="M1028 1423q94 -1 168.5 -31.5t117 -83t52.5 -123t-25 -151.5q-47 -109 -140.5 -172t-202.5 -72t-226 27.5t-213 114.5q-42 -75 -74 -174t-43 -204.5t3 -194t71 -146.5t154 -59q246 -3 407 401q8 21 60 25t98 -11.5t39 -42.5q-89 -295 -144 -514q237 112 379 441 q7 10 25 6t35 -19.5t12 -27.5q-103 -218 -211.5 -338.5t-275.5 -190.5q-34 -134 -69 -221.5t-83.5 -150t-112.5 -90t-151 -27.5q-106 -2 -170 48.5t-55 147.5q5 69 43 125.5t106.5 99.5t135 72t161.5 60q8 31 31 108t33 119q-64 -79 -150.5 -124t-189.5 -42q-97 3 -172 36.5 t-122 89t-75 130t-34 158t4.5 174t37.5 178t68 169t92 147.5q-106 148 -111 305q-2 22 26 29t57 -4t30 -31q9 -105 78 -207q102 110 241 176t285 65zM1016 1274q-104 0 -206 -60.5t-181 -166.5q90 -70 195.5 -89.5t192 19t120.5 125.5q30 72 -7.5 122t-113.5 50zM870 -182 q-84 -37 -148 -88.5t-77 -102.5q-16 -46 2 -67t50 -10t51 44q38 15 66.5 68.5t55.5 155.5zM580 -754q11 35 70 42q57 7 83 -17q15 -15 8 -35l-104 -264q-11 -31 -62 -39q-51 -7 -72 18q-10 15 -5 35z" />
<glyph unicode="&#x123;" horiz-adv-x="1015" d="M555 1229q13 33 78 33q60 0 85 -26q14 -14 5 -32l-90 -182q-12 -22 -52.5 -26t-72.5 10.5t-23 40.5q11 26 34.5 90t35.5 92zM508 868q113 13 230.5 -14.5t203.5 -103.5q15 -15 -3 -48.5t-48.5 -55t-46.5 -5.5q-59 48 -133.5 69t-145.5 15q-92 -7 -173.5 -77t-137.5 -181 q-50 -102 -58 -195t29 -127q48 -42 131 25.5t154 212.5q54 111 96 242q16 24 62 23.5t93.5 -21.5t39.5 -43q-28 -99 -75.5 -280t-78.5 -290q227 92 383 441q7 9 25.5 4.5t35.5 -20t11 -27.5q-105 -220 -214.5 -340t-275.5 -191q-73 -269 -159.5 -377.5t-251.5 -109.5 q-105 -3 -166 52.5t-49 154.5q7 57 38 105.5t70 81.5t102 64.5t112.5 50t123.5 42.5q16 41 46.5 143.5t43.5 142.5q-134 -244 -323 -249q-103 -2 -163 57.5t-68.5 151t23.5 202t101 207.5q80 115 192 184.5t224 83.5zM399 -186q-73 -31 -132.5 -76.5t-80.5 -89.5 q-30 -63 3 -93q29 -26 77 -1q65 35 99 137q7 23 19 68.5t15 54.5z" />
<glyph unicode="&#x126;" horiz-adv-x="1761" d="M1817 973q27 -15 17 -70t-42 -61h-135q-15 -56 -76 -293q152 3 246 57q25 16 40 -13q17 -31 -1 -60q-7 -11 -17 -17q-122 -78 -299 -84q-67 -238 -116 -399q-12 -26 -69 -35.5t-109 4t-52 45.5q64 202 117 397q-56 7 -154.5 23t-126.5 20q-32 -108 -59.5 -179t-66.5 -138 t-85 -105t-111 -61t-149 -24q-172 -1 -244 83t-53 209q26 178 187.5 282t394.5 89q10 40 31.5 109.5t27.5 91.5q-37 2 -106 2q-19 6 -21 38t13.5 63t40.5 34q31 -2 118 -2q30 115 78 250q-45 -45 -105.5 -61.5t-121.5 -12.5t-120.5 11.5t-120 2.5t-103.5 -32 q-46 -29 -53.5 -80t18.5 -80q30 -40 83 -40t99 34q27 5 53 -31t11 -63q-52 -62 -136 -82t-162 2.5t-122 76.5q-35 43 -49.5 99.5t-6.5 114t49.5 110.5t112.5 84q80 35 166.5 38.5t156 -8.5t138.5 -18.5t137.5 17.5t129.5 90q15 13 42.5 19t57.5 3.5t57 -9.5t43.5 -19.5 t14.5 -26.5q-68 -208 -121 -389q92 -2 280 -2q97 296 129 371q8 12 33 16.5t55.5 1.5t60 -10.5t48.5 -21t18 -29.5q-52 -125 -112 -328q15 -1 62 -2t59 -2zM1425 844q-31 0 -89 -0.5t-105 -0.5t-88 1q-9 -32 -31 -109t-33 -121q30 -5 126.5 -22.5t148.5 -24.5 q6 24 30.5 122.5t40.5 154.5zM580 127q83 0 136 91.5t103 277.5q-144 3 -223 -61.5t-100 -166.5q-13 -57 9 -98.5t75 -42.5z" />
<glyph unicode="&#x127;" horiz-adv-x="989" d="M1004 453q8 11 26.5 7t34.5 -20t10 -28q-32 -65 -61 -115.5t-72.5 -112t-86.5 -102t-98.5 -69.5t-113.5 -31q-62 -3 -102.5 13t-58 46.5t-23 72t3.5 89.5q5 39 23.5 109t44 158t30.5 108q7 27 9.5 47t0 40.5t-17.5 31.5t-41 10q-50 -1 -121.5 -62.5t-128.5 -144.5 q-76 -280 -119 -477q-6 -23 -81 -33q-92 -12 -135 13q-25 14 -19 38q114 491 278 1014h-73q-21 0 -26 28.5t7.5 56.5t36.5 27q31 -2 90 -2q51 157 80 226q16 19 67.5 21t103.5 -17.5t44 -46.5q-29 -77 -65 -185q26 1 78 2t73 2q20 1 26 -26.5t-6.5 -56t-35.5 -29.5 q-15 0 -70.5 -1t-99.5 -1q-43 -139 -115 -389q184 208 334 208q120 1 158.5 -77t1.5 -207q-16 -58 -47 -161q-58 -193 -60 -245q-1 -59 39 -57q58 1 138 98.5t139 229.5z" />
<glyph unicode="&#x12a;" horiz-adv-x="1110" d="M911 1591q-27 1 -34 33t8 64t43 32q277 -4 411 -2q28 0 34.5 -32t-8.5 -63.5t-40 -31.5h-414zM967 1378q21 30 75.5 38t102 -6t53.5 -40q-53 -161 -246 -809q-21 -70 -34.5 -114t-33.5 -102t-36.5 -93.5t-40.5 -78t-48 -68t-56.5 -52.5t-68.5 -41t-80.5 -23t-96.5 -9 q-84 -1 -150.5 27.5t-103.5 75t-52 105t-4 116t49 110.5t99 86q38 12 84 -21.5t39 -70.5q-49 -61 -57 -127.5t25 -110.5t97 -43q29 0 54 14.5t46.5 45t38 63t35 85.5t31.5 95.5t32 108.5q11 39 17 59q30 106 69.5 249.5t62.5 221.5t40 127q-45 -49 -106.5 -87t-115 -60 t-103 -44t-83.5 -52t-44 -72q-31 -122 73 -140q23 -17 11 -64.5t-47 -51.5q-138 -4 -213 77.5t-52 190.5q12 59 47 102.5t85 71t109 49t126 43.5t130.5 48t128 69.5t112.5 101.5z" />
<glyph unicode="&#x12b;" horiz-adv-x="473" d="M76 1028q-27 1 -34.5 33t7.5 64t43 32q277 -4 412 -2q28 0 34.5 -31.5t-9 -63.5t-40.5 -32h-413zM133 834q9 30 93 31q82 1 117 -23q15 -11 11 -23q-144 -463 -166 -543q-10 -36 -15 -61.5t-4.5 -47.5t11 -32.5t31.5 -9.5q56 1 137 101t135 227q8 11 27 7t36 -20.5 t11 -29.5q-213 -421 -428 -428q-122 -4 -161.5 63.5t-10.5 192.5q39 161 176 596z" />
<glyph unicode="&#x12e;" horiz-adv-x="1112" d="M967 1378q23 32 82 38t107 -10t44 -38q-14 -38 -28 -79.5t-25 -75t-27.5 -87t-26 -85t-30.5 -103t-31.5 -107t-38 -130t-41.5 -140.5q-57 -195 -118 -316.5t-140 -197.5q-67 -65 -97 -144t-28 -139q2 -66 46.5 -74.5t109.5 60.5q23 10 46 -14.5t11 -44.5 q-33 -59 -83 -95.5t-101 -42.5t-96.5 8.5t-73.5 59t-27 107.5q0 115 107 254q-16 -2 -51 -2q-84 -1 -150.5 27.5t-103.5 75t-52 105t-4 116t49 110.5t99 86q36 14 82 -20t39 -72q-49 -62 -56.5 -128.5t26 -110t97.5 -42.5q29 0 54 14.5t46.5 45t38 63t35 85.5t31.5 95.5 t32 108.5q11 39 17 59q32 113 70 251t61 218.5t39 128.5q-45 -49 -106 -87t-114 -60t-102.5 -44t-83.5 -52t-44 -72q-31 -122 71 -140q15 -9 16 -36.5t-13.5 -52.5t-38.5 -27q-138 -4 -212 77.5t-51 190.5q12 59 47 102.5t85 71t109 49t126 43.5t130.5 48t128 69.5 t112.5 101.5z" />
<glyph unicode="&#x12f;" horiz-adv-x="473" d="M397 -309q-27 -49 -67.5 -82.5t-83 -47t-84.5 -10t-75 24t-52.5 60t-18.5 92.5q3 122 109 254q-120 0 -158 64.5t-8 191.5q9 41 18.5 78.5t22.5 83l21 73.5t25.5 85.5t25 80t30.5 97t31 98.5q9 30 94 31q83 1 118 -24q15 -10 11 -22q-144 -463 -166 -543 q-10 -36 -15 -61.5t-4.5 -47.5t10.5 -32.5t30 -9.5q57 1 138.5 101t135.5 227q8 11 26.5 7t35 -20.5t10.5 -29.5q-82 -170 -197 -306q-94 -113 -136.5 -196t-39.5 -152q2 -66 46.5 -70.5t109.5 64.5q17 15 32.5 6.5t24 -30.5t0.5 -35z" />
<glyph unicode="&#x130;" horiz-adv-x="1110" d="M1118 1563q-55 0 -82 34t-22 76q5 45 38.5 77.5t86.5 33.5q52 1 80.5 -32.5t23.5 -80.5q-5 -43 -39.5 -75.5t-85.5 -32.5zM967 1378q21 30 75.5 38t102 -6t53.5 -40q-53 -161 -246 -809q-21 -70 -34.5 -114t-33.5 -102t-36.5 -93.5t-40.5 -78t-48 -68t-56.5 -52.5 t-68.5 -41t-80.5 -23t-96.5 -9q-84 -1 -150.5 27.5t-103.5 75t-52 105t-4 116t49 110.5t99 86q38 12 84 -21.5t39 -70.5q-49 -61 -57 -127.5t25 -110.5t97 -43q29 0 54 14.5t46.5 45t38 63t35 85.5t31.5 95.5t32 108.5q11 39 17 59q30 106 69.5 249.5t62.5 221.5t40 127 q-45 -49 -106.5 -87t-115 -60t-103 -44t-83.5 -52t-44 -72q-31 -122 73 -140q23 -17 11 -64.5t-47 -51.5q-138 -4 -213 77.5t-52 190.5q12 59 47 102.5t85 71t109 49t126 43.5t130.5 48t128 69.5t112.5 101.5z" />
<glyph unicode="&#x131;" horiz-adv-x="473" d="M133 834q9 30 93 31q82 1 117 -23q15 -11 11 -23q-144 -463 -166 -543q-10 -36 -15 -61.5t-4.5 -47.5t11 -32.5t31.5 -9.5q56 1 137 101t135 227q8 11 27 7t36 -20.5t11 -29.5q-213 -421 -428 -428q-122 -4 -161.5 63.5t-10.5 192.5q39 161 176 596z" />
<glyph unicode="&#x132;" horiz-adv-x="2273" d="M1391 -602q-80 0 -138 32t-82.5 82t-20 113t41.5 123q26 53 74.5 95.5t119 73.5t126 49.5t141.5 41.5q199 748 329 1184q-44 -50 -104 -87.5t-113 -58.5t-102 -42t-83.5 -50.5t-45.5 -70.5q-28 -123 72 -142q18 -4 18.5 -33t-16.5 -57t-43 -28q-138 0 -209.5 84 t-44.5 192q14 58 50 100.5t85.5 69t108.5 47t125.5 42.5t129 48t126.5 70.5t112 103.5q24 30 78.5 37t99 -7.5t45.5 -41.5q-57 -173 -180.5 -591.5t-204.5 -713.5q260 88 402 390q8 9 26.5 5.5t34.5 -18.5t10 -28q-39 -87 -89 -158.5t-97 -118.5t-107.5 -87t-106.5 -62 t-108 -47q-65 -250 -120 -345q-108 -199 -340 -196zM967 1378q21 30 75.5 38t102 -6t53.5 -40q-53 -161 -246 -809q-21 -70 -34.5 -114t-33.5 -102t-36.5 -93.5t-40.5 -78t-48 -68t-56.5 -52.5t-68.5 -41t-80.5 -23t-96.5 -9q-84 -1 -150.5 27.5t-103.5 75t-52 105t-4 116 t49 110.5t99 86q38 12 84 -21.5t39 -70.5q-49 -61 -57 -127.5t25 -110.5t97 -43q29 0 54 14.5t46.5 45t38 63t35 85.5t31.5 95.5t32 108.5q11 39 17 59q30 106 69.5 249.5t62.5 221.5t40 127q-45 -49 -106.5 -87t-115 -60t-103 -44t-83.5 -52t-44 -72q-31 -122 73 -140 q23 -17 11 -64.5t-47 -51.5q-138 -4 -213 77.5t-52 190.5q12 59 47 102.5t85 71t109 49t126 43.5t130.5 48t128 69.5t112.5 101.5zM1399 -457q40 -2 84 31t71 96q39 85 62 205q-233 -76 -279 -194q-23 -62 -3 -99t65 -39z" />
<glyph unicode="&#x133;" horiz-adv-x="983" d="M776 991q-52 0 -82.5 36t-23.5 89q8 56 48 90t95 33q55 0 86 -34.5t25 -88.5q-8 -56 -48 -90.5t-100 -34.5zM285 991q-52 0 -83 36t-24 89q9 56 49 90t97 33q55 0 85.5 -34.5t22.5 -88.5q-6 -56 -46 -90.5t-101 -34.5zM999 455q7 9 24.5 4t34 -20.5t11.5 -26.5 q-102 -216 -217 -337.5t-283 -193.5q-71 -274 -160 -379t-253 -108q-72 -1 -122 25t-70 68.5t-14.5 95.5t38.5 104q19 45 58 83.5t97 70t109.5 54t124.5 48.5q5 20 59 225q-145 -181 -307 -186q-122 -3 -160.5 64t-9.5 192q41 174 166 606q16 22 66 25t96 -12.5t53 -39.5 q-27 -95 -65 -227.5t-56.5 -199.5t-32.5 -130q-6 -33 -8.5 -56.5t-1 -42.5t10 -28t24.5 -8q69 0 157 99t142 229q69 262 102 391q12 22 64.5 24.5t100.5 -14t50 -39.5q-67 -220 -223 -801q242 101 395 441zM322 -309q22 72 34 123q-74 -34 -133 -78.5t-80 -87.5 q-21 -49 -8 -78t47 -27q36 0 76 37.5t64 110.5z" />
<glyph unicode="&#x136;" horiz-adv-x="1695" d="M1520 1386q22 28 74.5 30.5t96.5 -14.5t46 -40q-50 -153 -124 -284t-182.5 -239t-232.5 -153q116 -53 152 -235q9 -37 20 -101t19.5 -109.5t25.5 -102.5t38 -95.5t56.5 -71t81.5 -45.5q16 -14 10.5 -41t-21 -54t-47.5 -46t-69 -16q-56 8 -100 35t-73 70.5t-49.5 89 t-34 108.5t-21.5 111.5t-17 114.5t-16 101q-19 106 -62 157.5t-118 51.5q-24 -89 -42 -148.5t-41.5 -126t-45 -109t-50 -86.5t-60 -70t-71.5 -47.5t-88 -31t-106 -9.5q-83 0 -149 28.5t-103 74t-52 104t-4.5 115.5t48 110.5t98.5 87.5q34 14 82.5 -18t42.5 -72 q-50 -61 -58 -128t26 -111.5t98 -43.5q27 0 50 12t42.5 37t35 51.5t31.5 69.5t27 77t27 87q45 152 111 389t100 346q-45 -48 -106.5 -86t-115.5 -60.5t-103.5 -45t-83.5 -54t-44 -73.5q-28 -117 74 -138q15 -5 16.5 -32t-13 -53.5t-40.5 -30.5q-138 -4 -212.5 81.5 t-47.5 194.5q14 58 49.5 101t85.5 69.5t109 47.5t125.5 43.5t129.5 48t127 69.5t111 102q15 30 72.5 37.5t107.5 -7t49 -40.5q-77 -218 -186 -594q58 19 110.5 51t91.5 65.5t77 82t62 85t51.5 92t40 85.5t34 82.5t27.5 66.5zM856 -201q11 36 72 43q57 6 83 -19q15 -14 7 -34 l-105 -264q-11 -31 -62 -39q-51 -7 -72 18q-11 14 -5 35z" />
<glyph unicode="&#x137;" horiz-adv-x="935" d="M950 455q7 9 25 4.5t34.5 -20t10.5 -27.5q-92 -195 -217 -313t-258 -119q-264 0 -236 421q176 64 252 163q53 69 27 114q-9 16 -29 24q-43 22 -112.5 -11t-131.5 -107t-84 -158q-71 -270 -100 -399q-6 -14 -32 -24.5t-59.5 -13.5t-66 -0.5t-53 16t-18.5 34.5 q144 576 383 1354q12 19 65 19.5t101 -18t47 -46.5q-8 -28 -88.5 -291.5t-110.5 -376.5q52 69 120.5 116t133 63.5t121 9.5t90.5 -38q47 -41 52 -107.5t-27.5 -135t-111.5 -132.5t-188 -96q-7 -235 119 -235q92 -2 179 80t163 250zM154 -201q11 35 70 42q57 7 83 -17 q16 -14 8 -35l-104 -264q-11 -31 -62 -39q-51 -7 -72 18q-11 14 -5 35z" />
<glyph unicode="&#x139;" horiz-adv-x="1226" d="M1180 1792q25 33 92 24q56 -8 71 -34q7 -15 -4 -29l-153 -182q-22 -27 -77 -20q-50 7 -60 34q-4 14 6 29q22 32 69.5 99.5t55.5 78.5zM977 1370q19 37 76 46t107 -7t54 -41q-45 -130 -113.5 -382t-130 -454.5t-114.5 -302.5q31 -33 79 -86.5t74 -82.5t67 -69.5 t68.5 -60.5t67 -42t73.5 -27.5t76 -3t87 17.5q25 2 44.5 -31.5t19 -78.5t-28.5 -72q-68 -23 -133.5 -26t-120 10.5t-108.5 42.5t-98 64t-90 83t-82 90.5t-78 93.5q-8 11 -13 16.5t-12 14.5t-13 16q-64 -57 -125 -85t-157 -31q-138 -6 -214.5 60t-62.5 179q9 94 93.5 148.5 t201.5 51t215 -64.5q61 165 140 463t106 385q-45 -53 -106.5 -92.5t-116.5 -62.5t-106 -45t-86.5 -52.5t-45.5 -72.5q-26 -118 74 -138q12 -14 13 -38.5t-13 -49t-35 -28.5q-138 -4 -212 78.5t-50 193.5q17 79 75.5 130t141 80t170.5 56t183 79t159 128zM379 236 q-21 -41 2 -77t88 -36q97 0 162 102q-57 57 -141.5 62.5t-110.5 -51.5z" />
<glyph unicode="&#x13a;" horiz-adv-x="692" d="M612 1765q25 33 91 24q57 -7 73 -34q8 -14 -4 -29l-154 -182q-22 -27 -77 -20q-50 7 -60 34q-4 14 6 29q22 32 69.5 99.5t55.5 78.5zM406 1368q58 39 120 46.5t111 -16.5t84 -73.5t39 -124t-23 -168.5q-52 -177 -182.5 -317.5t-327.5 -222.5q-77 -355 103 -369 q105 -8 206.5 90t170.5 242q7 9 25 4.5t34.5 -20t11.5 -27.5q-34 -69 -62.5 -119.5t-66.5 -106.5t-78.5 -93t-90 -67t-109 -41t-127.5 -3q-100 12 -158 70.5t-73 157.5t-4 215t46 265q56 236 147 420t204 258zM547 1255q-38 1 -79 -65t-89 -189q-72 -182 -121 -364 q79 54 147 142t111 186q52 120 62 202t-31 88z" />
<glyph unicode="&#x13b;" horiz-adv-x="1226" d="M977 1370q19 37 76 46t107 -7t54 -41q-45 -130 -113.5 -382t-130 -454.5t-114.5 -302.5q31 -33 79 -86.5t74 -82.5t67 -69.5t68.5 -60.5t67 -42t73.5 -27.5t76 -3t87 17.5q25 2 44.5 -31.5t19 -78.5t-28.5 -72q-68 -23 -133.5 -26t-120 10.5t-108.5 42.5t-98 64t-90 83 t-82 90.5t-78 93.5q-8 11 -13 16.5t-12 14.5t-13 16q-64 -57 -125 -85t-157 -31q-138 -6 -214.5 60t-62.5 179q9 94 93.5 148.5t201.5 51t215 -64.5q61 165 140 463t106 385q-45 -53 -106.5 -92.5t-116.5 -62.5t-106 -45t-86.5 -52.5t-45.5 -72.5q-26 -118 74 -138 q12 -14 13 -38.5t-13 -49t-35 -28.5q-138 -4 -212 78.5t-50 193.5q17 79 75.5 130t141 80t170.5 56t183 79t159 128zM379 236q-21 -41 2 -77t88 -36q97 0 162 102q-57 57 -141.5 62.5t-110.5 -51.5zM575 -211q11 36 72 43q57 6 83 -19q15 -14 7 -34l-104 -264 q-11 -31 -62 -39q-51 -7 -72 18q-11 14 -5 35z" />
<glyph unicode="&#x13c;" horiz-adv-x="692" d="M406 1368q58 39 120 46.5t111 -16.5t84 -73.5t39 -124t-23 -168.5q-52 -177 -182.5 -317.5t-327.5 -222.5q-77 -355 103 -369q105 -8 206.5 90t170.5 242q7 9 25 4.5t34.5 -20t11.5 -27.5q-34 -69 -62.5 -119.5t-66.5 -106.5t-78.5 -93t-90 -67t-109 -41t-127.5 -3 q-100 12 -158 70.5t-73 157.5t-4 215t46 265q56 236 147 420t204 258zM547 1255q-38 1 -79 -65t-89 -189q-72 -182 -121 -364q79 54 147 142t111 186q52 120 62 202t-31 88zM162 -205q11 36 72 43q57 6 83 -19q15 -14 7 -34l-105 -264q-11 -31 -62 -39q-51 -7 -72 18 q-11 14 -5 35z" />
<glyph unicode="&#x13d;" horiz-adv-x="1312" d="M977 1370q19 37 76 46t107 -7t54 -41q-45 -130 -113.5 -382t-130 -454.5t-114.5 -302.5q42 -38 96.5 -90.5t88 -85t77.5 -69.5t79.5 -55.5t78 -31.5t88 -7.5t96.5 26.5q25 2 44.5 -31.5t19 -78.5t-28.5 -72q-64 -25 -126 -31t-112 1.5t-103.5 32.5t-93 51.5t-88.5 70.5 t-80.5 76.5t-80 83.5t-76.5 79q-64 -57 -125 -85t-157 -31q-138 -6 -214.5 60t-62.5 179q9 94 93.5 148.5t201.5 51t215 -64.5q61 165 140 463t106 385q-45 -53 -106.5 -92.5t-116.5 -62.5t-106 -45t-86.5 -52.5t-45.5 -72.5q-26 -118 74 -138q12 -14 13 -38.5t-13 -49 t-35 -28.5q-138 -4 -212 78.5t-50 193.5q17 79 75.5 130t141 80t170.5 56t183 79t159 128zM1360 1370q11 34 73 35q58 2 83 -24q15 -16 6 -35l-90 -236q-11 -25 -50.5 -32t-71 9t-22.5 48q13 37 40 128t32 107zM379 236q-21 -41 2 -77t88 -36q97 0 162 102 q-57 57 -141.5 62.5t-110.5 -51.5z" />
<glyph unicode="&#x13e;" horiz-adv-x="669" d="M236 -14q-82 6 -134.5 46t-75 102t-23.5 154t13.5 186.5t42.5 215.5q54 228 149 415t202 263q57 40 118 48t108.5 -16t81.5 -74t37.5 -125t-24.5 -169q-50 -161 -188.5 -309.5t-321.5 -230.5q-21 -105 -22.5 -185.5t30.5 -129t95 -50.5q97 -3 195.5 91.5t166.5 234.5 q8 10 26 5.5t34.5 -20.5t11.5 -28q-41 -82 -75.5 -140t-83 -118t-99 -95.5t-118.5 -55.5t-146 -15zM969 1155q-10 -20 -42.5 -26t-57.5 7t-17 40q7 22 31.5 98t40.5 119q13 34 66 32q48 -2 66 -28q11 -18 1 -37zM252 637q80 54 150 143t112 185q53 122 62.5 202t-35.5 88 q-38 1 -79 -65t-89 -189q-72 -182 -121 -364z" />
<glyph unicode="&#x13f;" horiz-adv-x="1226" d="M1483 -307q-68 -23 -133.5 -26t-120 10.5t-108.5 42.5t-98 64t-90 83t-82 90.5t-78 93.5q-8 11 -13 16.5t-12 14.5t-13 16q-64 -57 -125 -85t-157 -31q-138 -6 -214.5 60t-62.5 179q9 94 93.5 148.5t201.5 51t215 -64.5q61 165 140 463t106 385q-45 -53 -106.5 -92.5 t-116.5 -62.5t-106 -45t-86.5 -52.5t-45.5 -72.5q-26 -118 74 -138q12 -14 13 -38.5t-13 -49t-35 -28.5q-138 -4 -212 78.5t-50 193.5q17 79 75.5 130t141 80t170.5 56t183 79t159 128q19 37 76 46t107 -7t54 -41q-45 -130 -113.5 -382t-130 -454.5t-114.5 -302.5 q31 -33 79 -86.5t74 -82.5t67 -69.5t68.5 -60.5t67 -42t73.5 -27.5t76 -3t87 17.5q25 2 44.5 -31.5t19 -78.5t-28.5 -72zM1251 516q-47 0 -78.5 33.5t-29.5 79.5q3 46 37.5 78t81.5 32q49 0 78.5 -31.5t27.5 -78.5q-3 -46 -37.5 -79.5t-79.5 -33.5zM469 123q97 0 162 102 q-57 57 -141.5 62.5t-110.5 -51.5q-21 -41 2 -77t88 -36z" />
<glyph unicode="&#x140;" horiz-adv-x="673" d="M410 1368q57 40 118 48t108.5 -16t81.5 -74t37.5 -125t-24.5 -169q-50 -161 -188.5 -309.5t-321.5 -230.5q-21 -105 -22.5 -185.5t30.5 -129t95 -50.5q97 -3 195.5 91.5t166.5 234.5q8 10 26.5 5.5t35 -20.5t10.5 -28q-40 -81 -74.5 -139.5t-83 -118.5t-99.5 -95.5 t-119 -55.5t-146 -15q-82 6 -134.5 46t-75 102t-23.5 154t13.5 186.5t42.5 215.5q54 228 149 415t202 263zM541 1255q-38 1 -79 -65t-89 -189q-72 -182 -121 -364q80 54 150 143t112 185q53 122 62.5 202t-35.5 88zM528 571q39 0 62.5 -21.5t23.5 -57.5q0 -34 -23.5 -56 t-60.5 -22q-39 0 -61.5 22t-22.5 58q0 33 22.5 55t59.5 22z" />
<glyph unicode="&#x141;" horiz-adv-x="1236" d="M1458 -84q19 1 35 -20.5t23 -50.5t2 -61t-25 -50q-64 -25 -125.5 -31t-111.5 1t-104 32.5t-92.5 51t-89 70.5t-81 77t-80 84t-76.5 79q-57 -55 -122.5 -85t-153.5 -31q-145 -5 -221.5 60t-59.5 179q9 67 61 114.5t124.5 65.5t160.5 5.5t164 -58.5q8 19 16.5 45t19 60 t15.5 49l-129 -8q-26 5 -27 47t27 53q24 2 79 5t79 5q28 94 82 297t84 303q-45 -53 -106.5 -92.5t-116.5 -62.5t-106 -45t-86.5 -52.5t-45.5 -72.5q-27 -118 72 -138q14 -4 16 -30.5t-13 -53.5t-40 -32q-138 -4 -210 78t-48 194q17 79 75.5 130t141 80t170.5 56t183 79 t159 128q18 38 76 46.5t108 -8.5t51 -42q-39 -117 -112.5 -386.5t-100.5 -361.5q54 5 129 13t78 8q30 -3 34.5 -50t-23.5 -57q-76 -9 -256 -24q-66 -204 -105 -279q41 -37 95.5 -90.5t88 -85.5t77.5 -69.5t79 -55.5t77.5 -30.5t88 -7.5t96.5 26zM471 123q97 3 158 102 q-60 55 -140 61t-112 -53q-22 -39 3.5 -76t90.5 -34z" />
<glyph unicode="&#x142;" horiz-adv-x="661" d="M223 -14q-256 16 -225 393h-53q-18 3 -26.5 25t-1.5 44.5t28 26.5h61q15 96 41 215q54 229 148.5 415.5t201.5 262.5q58 40 119 48t109 -16t82 -74t37.5 -125t-23.5 -169q-52 -162 -190 -310t-322 -230q-5 -14 -6 -15h141q20 -1 30 -23t2.5 -45.5t-28.5 -27.5 q-53 -2 -155 -2q-21 -249 118 -252q97 -3 196.5 91.5t168.5 234.5q7 10 25 5.5t35 -20.5t12 -28q-41 -81 -76 -139.5t-84 -118.5t-100 -95.5t-119 -55.5t-146 -15zM360 1001q-62 -148 -120 -364q80 54 151 143t113 185q25 60 40.5 111t21 91t-4 63.5t-33.5 24.5 q-37 1 -78 -65t-90 -189z" />
<glyph unicode="&#x143;" horiz-adv-x="1820" d="M1452 1792q25 33 91 24q57 -7 73 -34q8 -14 -4 -29l-154 -182q-22 -27 -77 -20q-50 7 -60 34q-4 14 6 29q22 32 69.5 99.5t55.5 78.5zM1534 1423q67 0 114.5 -22t72.5 -52t34.5 -81t9.5 -91.5t-12 -103t-20.5 -94.5t-23.5 -86q-3 -10 -4.5 -14.5t-3.5 -12t-3 -12.5 q-16 -59 -40 -142t-41.5 -141t-36.5 -131t-28 -124.5t-12.5 -108t5 -95.5t30.5 -72t59 -52q12 -12 13 -32.5t-11.5 -45t-30.5 -45t-44 -31.5t-52 -6q-49 13 -86 37t-58.5 63t-36.5 78.5t-15 100.5t1 110.5t16.5 127t27 131t36.5 142t40.5 141t44.5 144.5q14 45 22.5 77 t19 79t11.5 80t-4 64.5t-24 47t-50 15.5q-77 0 -178.5 -93t-192 -232.5t-149.5 -285.5q-34 -109 -77.5 -260.5t-70 -239.5t-45.5 -132q-12 -28 -68 -38.5t-107.5 3.5t-51.5 47q61 180 184 604.5t162 552.5q-45 -49 -106.5 -86.5t-115 -58.5t-103 -42.5t-83 -51.5t-42.5 -72 q-26 -118 75 -142q17 -4 18.5 -32t-15 -55t-42.5 -27q-137 -4 -210.5 79.5t-49.5 192.5q18 80 77.5 132t143.5 82t173 58t186 82t162 133q18 29 65.5 35t88.5 -10t44 -43q-15 -50 -50 -170t-50 -170q34 57 73 109.5t90.5 106.5t104.5 93t116 64t124 24z" />
<glyph unicode="&#x144;" horiz-adv-x="995" d="M551 1237q25 33 91 24q57 -7 73 -34q8 -14 -4 -29l-154 -182q-22 -27 -77 -20q-50 7 -60 34q-4 14 6 29q22 32 69.5 99.5t55.5 78.5zM637 872q112 -1 149.5 -78t6.5 -208q-11 -45 -43.5 -150.5t-44.5 -156.5q-16 -57 -13 -105.5t37 -48.5q61 0 141.5 96t139.5 232 q7 10 25 6t34.5 -19.5t11.5 -27.5q-27 -59 -57.5 -113.5t-73.5 -114t-88 -102.5t-101.5 -71t-113.5 -29q-112 -3 -155 55.5t-23 163.5q7 40 44 193t44 184q6 28 8.5 46.5t0.5 39.5t-15.5 31.5t-38.5 9.5q-51 -1 -123 -60t-133 -141q-51 -172 -123 -481q-11 -22 -66.5 -31 t-108 3t-54.5 44q30 123 61.5 241t83.5 305t72 259q16 22 64 27t94 -10.5t55 -45.5q-32 -118 -45 -160q74 86 166 152t182 65z" />
<glyph unicode="&#x145;" horiz-adv-x="1820" d="M1534 1423q67 0 114.5 -22t72.5 -52t34.5 -81t9.5 -91.5t-12 -103t-20.5 -94.5t-23.5 -86q-3 -10 -4.5 -14.5t-3.5 -12t-3 -12.5q-16 -59 -40 -142t-41.5 -141t-36.5 -131t-28 -124.5t-12.5 -108t5 -95.5t30.5 -72t59 -52q12 -12 13 -32.5t-11.5 -45t-30.5 -45t-44 -31.5 t-52 -6q-49 13 -86 37t-58.5 63t-36.5 78.5t-15 100.5t1 110.5t16.5 127t27 131t36.5 142t40.5 141t44.5 144.5q14 45 22.5 77t19 79t11.5 80t-4 64.5t-24 47t-50 15.5q-77 0 -178.5 -93t-192 -232.5t-149.5 -285.5q-34 -109 -77.5 -260.5t-70 -239.5t-45.5 -132 q-12 -28 -68 -38.5t-107.5 3.5t-51.5 47q61 180 184 604.5t162 552.5q-45 -49 -106.5 -86.5t-115 -58.5t-103 -42.5t-83 -51.5t-42.5 -72q-26 -118 75 -142q17 -4 18.5 -32t-15 -55t-42.5 -27q-137 -4 -210.5 79.5t-49.5 192.5q18 80 77.5 132t143.5 82t173 58t186 82 t162 133q18 29 65.5 35t88.5 -10t44 -43q-15 -50 -50 -170t-50 -170q34 57 73 109.5t90.5 106.5t104.5 93t116 64t124 24zM950 -201q11 36 72 43q57 6 83 -19q15 -14 7 -34l-104 -264q-10 -31 -61 -38q-52 -8 -73 17q-12 14 -6 35z" />
<glyph unicode="&#x146;" horiz-adv-x="995" d="M637 872q112 -1 149.5 -78t6.5 -208q-11 -45 -43.5 -150.5t-44.5 -156.5q-16 -57 -13 -105.5t37 -48.5q61 0 141.5 96t139.5 232q7 10 25 6t34.5 -19.5t11.5 -27.5q-27 -59 -57.5 -113.5t-73.5 -114t-88 -102.5t-101.5 -71t-113.5 -29q-112 -3 -155 55.5t-23 163.5 q7 40 44 193t44 184q6 28 8.5 46.5t0.5 39.5t-15.5 31.5t-38.5 9.5q-51 -1 -123 -60t-133 -141q-51 -172 -123 -481q-11 -22 -66.5 -31t-108 3t-54.5 44q30 123 61.5 241t83.5 305t72 259q16 22 64 27t94 -10.5t55 -45.5q-32 -118 -45 -160q74 86 166 152t182 65zM213 -190 q11 36 72 42q57 6 83 -19q15 -14 7 -34l-105 -264q-11 -31 -62 -39q-51 -7 -72 18q-11 14 -5 35z" />
<glyph unicode="&#x147;" horiz-adv-x="1820" d="M1481 1567q-28 -19 -71.5 -18t-66.5 20q-15 11 -41 38t-46.5 50.5t-48 55t-33.5 38.5q-22 24 20 46q45 23 89 14q19 -4 28 -15l108 -125l166 131q33 25 84 6q42 -15 46 -43q3 -18 -15 -34q-96 -79 -219 -164zM1534 1423q67 0 114.5 -22t72.5 -52t34.5 -81t9.5 -91.5 t-12 -103t-20.5 -94.5t-23.5 -86q-3 -10 -4.5 -14.5t-3.5 -12t-3 -12.5q-16 -59 -40 -142t-41.5 -141t-36.5 -131t-28 -124.5t-12.5 -108t5 -95.5t30.5 -72t59 -52q12 -12 13 -32.5t-11.5 -45t-30.5 -45t-44 -31.5t-52 -6q-49 13 -86 37t-58.5 63t-36.5 78.5t-15 100.5 t1 110.5t16.5 127t27 131t36.5 142t40.5 141t44.5 144.5q14 45 22.5 77t19 79t11.5 80t-4 64.5t-24 47t-50 15.5q-77 0 -178.5 -93t-192 -232.5t-149.5 -285.5q-34 -109 -77.5 -260.5t-70 -239.5t-45.5 -132q-12 -28 -68 -38.5t-107.5 3.5t-51.5 47q61 180 184 604.5 t162 552.5q-45 -49 -106.5 -86.5t-115 -58.5t-103 -42.5t-83 -51.5t-42.5 -72q-26 -118 75 -142q17 -4 18.5 -32t-15 -55t-42.5 -27q-137 -4 -210.5 79.5t-49.5 192.5q18 80 77.5 132t143.5 82t173 58t186 82t162 133q18 29 65.5 35t88.5 -10t44 -43q-15 -50 -50 -170 t-50 -170q34 57 73 109.5t90.5 106.5t104.5 93t116 64t124 24z" />
<glyph unicode="&#x148;" horiz-adv-x="995" d="M580 1012q-28 -19 -71.5 -18t-66.5 20q-15 11 -41 38t-46.5 50t-49 55.5t-33.5 38.5q-22 24 20 45q45 23 89 15q20 -5 29 -15l108 -125l166 131q33 25 84 6q42 -15 46 -43q3 -18 -15 -34q-96 -79 -219 -164zM637 872q112 -1 149.5 -78t6.5 -208q-11 -45 -43.5 -150.5 t-44.5 -156.5q-16 -57 -13 -105.5t37 -48.5q61 0 141.5 96t139.5 232q7 10 25 6t34.5 -19.5t11.5 -27.5q-27 -59 -57.5 -113.5t-73.5 -114t-88 -102.5t-101.5 -71t-113.5 -29q-112 -3 -155 55.5t-23 163.5q7 40 44 193t44 184q6 28 8.5 46.5t0.5 39.5t-15.5 31.5t-38.5 9.5 q-51 -1 -123 -60t-133 -141q-51 -172 -123 -481q-11 -22 -66.5 -31t-108 3t-54.5 44q30 123 61.5 241t83.5 305t72 259q16 22 64 27t94 -10.5t55 -45.5q-32 -118 -45 -160q74 86 166 152t182 65z" />
<glyph unicode="&#x14a;" horiz-adv-x="1826" d="M1841 455q8 9 26.5 4.5t35 -20t10.5 -27.5q-103 -219 -214 -339t-278 -192q-71 -261 -166.5 -372.5t-257.5 -114.5q-57 -1 -101.5 15.5t-69 46.5t-34 67.5t-0.5 80t35 83.5q19 45 59.5 84t100.5 71t112 54t126 49q37 123 77.5 273.5t96 367t82.5 317.5q8 31 12.5 48.5 t13 54.5t11.5 61.5t6.5 58.5t-0.5 56t-11 43t-22.5 31t-38.5 10q-77 0 -177.5 -92.5t-190.5 -231.5t-150 -287q-32 -108 -80 -274.5t-71.5 -242.5t-41.5 -118q-11 -30 -88 -39q-82 -10 -123 15q-23 15 -16 39q59 179 111 352.5t117.5 403t117.5 401.5q-45 -49 -106.5 -86.5 t-115 -59t-103 -43.5t-83 -51.5t-42.5 -70.5q-29 -117 75 -142q16 -5 17.5 -32t-14.5 -53.5t-42 -28.5q-137 -4 -210.5 79.5t-49.5 192.5q13 59 48 102t85 69.5t109.5 47.5t127 43.5t131 49t128.5 72t113 105.5q14 18 39.5 27t52.5 7.5t51.5 -8t39.5 -19.5t13 -27 q-30 -106 -98 -340q34 57 73 109.5t90.5 106.5t104.5 93t116 64t124 24q285 -2 215 -366q-9 -44 -51 -196q-1 -4 -2 -7q-30 -115 -128 -455.5t-110 -384.5q117 51 211 159.5t172 281.5zM1161 -309q26 85 35 123q-74 -34 -133 -78.5t-80 -87.5q-22 -52 -7.5 -81t52.5 -24 q36 3 73.5 41.5t59.5 106.5z" />
<glyph unicode="&#x14b;" horiz-adv-x="993" d="M176 -606q-76 -1 -128.5 25t-74 68.5t-17 95.5t37.5 104q19 45 59.5 84t100.5 71t111.5 54t125.5 49q29 96 162 633q9 34 10.5 61t-12.5 48t-47 20q-48 0 -114 -54.5t-126 -134.5q-74 -235 -135 -495q-6 -26 -80 -35q-84 -9 -126 15q-24 14 -19 36q77 299 217 778 q9 35 87 45q78 11 120 -12q24 -14 18 -35q-17 -69 -37 -133q49 54 87 89.5t100.5 68.5t121.5 32q228 0 156 -286q-8 -34 -149 -572q233 103 383 439q7 10 25 6t34.5 -19.5t11.5 -27.5q-104 -219 -214.5 -339.5t-276.5 -191.5q-72 -265 -161.5 -374.5t-250.5 -112.5z M195 -457q36 3 74 41t61 107q14 45 32 123q-73 -34 -131 -79t-79 -87q-23 -51 -8.5 -80.5t51.5 -24.5z" />
<glyph unicode="&#x14c;" horiz-adv-x="1507" d="M778 1591q-27 1 -34 33t8 64t43 32q277 -4 411 -2q28 0 34.5 -32t-8.5 -63.5t-40 -31.5h-414zM942 1423q101 -7 177.5 -44t121 -91.5t71 -127t33 -147t1 -155t-19 -147.5t-32.5 -129q69 8 148.5 34t136.5 62q16 11 20 -18q5 -40 -13 -66q-4 -7 -9 -10q-154 -99 -322 -119 q-82 -212 -235.5 -348t-360.5 -135q-256 0 -362 180q-46 79 -57 191t17.5 227.5t90.5 199.5q27 16 63.5 5t66 -42t20.5 -55q-41 -74 -56 -169.5t-0.5 -182t71.5 -147t149 -62.5q238 -5 370 346q-104 11 -198.5 49t-167.5 98.5t-123.5 136t-69.5 167t-2 186.5q16 87 64 152.5 t115 100.5t141 50t151 10zM926 1272q-93 6 -155.5 -40t-80.5 -142q-15 -77 5.5 -157.5t68.5 -149t128.5 -118t178.5 -65.5q13 48 23.5 108.5t18 137t1.5 148.5t-23.5 134t-59.5 101t-105 43z" />
<glyph unicode="&#x14d;" horiz-adv-x="1011" d="M324 1032q-27 1 -34.5 33t7.5 64t43 32q277 -4 412 -2q28 0 34.5 -31.5t-9 -63.5t-40.5 -32h-413zM516 872q106 2 177.5 -39t101.5 -110t31 -156t-28 -180.5t-81 -179.5q194 -19 307 246q8 10 26.5 6.5t35 -19t10.5 -28.5q-39 -84 -84.5 -145t-90.5 -92.5t-94.5 -48.5 t-95 -14.5t-92.5 9.5q-144 -141 -342 -141q-62 0 -113.5 14t-95.5 44.5t-68.5 80t-33 119.5t11.5 163q42 209 187.5 338.5t330.5 132.5zM489 727q-86 -4 -158.5 -104t-97.5 -224q-54 -274 97 -274q77 0 139 72q-28 43 0 87t72 35q31 73 47 144.5t15 132.5t-30 97.5t-84 33.5 z" />
<glyph unicode="&#x150;" horiz-adv-x="1507" d="M870 1780q14 36 76 42q55 5 78 -18q12 -14 4 -32l-96 -187q-15 -30 -64 -35t-62 22q-6 14 1 32q54 148 63 176zM1116 1780q13 36 74 42q55 5 78 -18q12 -14 4 -32l-96 -187q-17 -32 -67 -36q-47 -4 -60 22q-7 13 0 31q11 31 35 93t32 85zM942 1423q101 -7 177.5 -44 t121 -91.5t71 -127t33 -147t1 -155t-19 -147.5t-32.5 -129q69 8 148.5 34t136.5 62q16 11 20 -18q5 -40 -13 -66q-4 -7 -9 -10q-154 -99 -322 -119q-82 -212 -235.5 -348t-360.5 -135q-256 0 -362 180q-46 79 -57 191t17.5 227.5t90.5 199.5q27 16 63.5 5t66 -42t20.5 -55 q-41 -74 -56 -169.5t-0.5 -182t71.5 -147t149 -62.5q238 -5 370 346q-104 11 -198.5 49t-167.5 98.5t-123.5 136t-69.5 167t-2 186.5q16 87 64 152.5t115 100.5t141 50t151 10zM926 1272q-93 6 -155.5 -40t-80.5 -142q-15 -77 5.5 -157.5t68.5 -149t128.5 -118t178.5 -65.5 q13 48 23.5 108.5t18 137t1.5 148.5t-23.5 134t-59.5 101t-105 43z" />
<glyph unicode="&#x151;" horiz-adv-x="1011" d="M416 1221q15 37 76 42q56 4 78 -20q11 -13 3 -31l-96 -186q-15 -30 -64 -35t-62 21q-6 14 1 32q61 167 64 177zM662 1221q13 36 73 42q55 5 78 -19q13 -14 4 -32l-96 -186q-17 -32 -67 -36q-47 -5 -60 21q-7 13 0 31q11 31 35 93t33 86zM516 872q106 2 177.5 -39 t101.5 -110t31 -156t-28 -180.5t-81 -179.5q194 -19 307 246q8 10 26.5 6.5t35 -19t10.5 -28.5q-39 -84 -84.5 -145t-90.5 -92.5t-94.5 -48.5t-95 -14.5t-92.5 9.5q-144 -141 -342 -141q-62 0 -113.5 14t-95.5 44.5t-68.5 80t-33 119.5t11.5 163q42 209 187.5 338.5 t330.5 132.5zM489 727q-86 -4 -158.5 -104t-97.5 -224q-54 -274 97 -274q77 0 139 72q-28 43 0 87t72 35q31 73 47 144.5t15 132.5t-30 97.5t-84 33.5z" />
<glyph unicode="&#x152;" horiz-adv-x="2058" d="M1528 -49q-93 -1 -178 21t-161 80t-108 145q-182 -218 -422 -215q-257 3 -362 180q-46 79 -57 191t17.5 227.5t90.5 199.5q28 21 69.5 13.5t72 -39.5t12.5 -60q-33 -59 -51 -133.5t-14.5 -149.5t25.5 -138.5t74 -103.5t126 -42q65 -1 119.5 22t96 63t77 102t61.5 128 t51 152q53 177 54 329.5t-50 247t-145 101.5q-93 6 -155.5 -40t-80.5 -142q-23 -119 27.5 -239t167.5 -192q15 -10 10 -33t-18 -46.5t-34 -37.5t-38 -5q-180 87 -273 243.5t-61 329.5q16 87 64 152.5t115 100.5t141 50t151 10q86 -6 154 -37t112.5 -81.5t73.5 -115 t40.5 -141.5t10 -157.5t-15.5 -165.5q107 63 235 63q-66 54 -93 139t-10.5 171t69.5 147q-28 96 -11 193q3 18 25 24.5t42.5 -2.5t20.5 -28q-3 -21 -0.5 -59t9.5 -62q120 84 299 75q119 -6 191.5 -69.5t66.5 -159.5q-5 -94 -79 -159.5t-186 -69.5q-87 -3 -155 33t-107 98 q-29 -101 22 -185t152 -112q10 -4 12 -24.5t-3.5 -43.5t-18 -42.5t-29.5 -20.5q-59 13 -122.5 14.5t-129 -10.5t-120 -37.5t-96 -71t-56.5 -106.5q-25 -96 13 -171.5t118.5 -114t182.5 -36.5q171 5 306.5 95t207.5 258q8 13 25.5 8.5t33.5 -20t12 -25.5q-199 -457 -616 -463 zM1866 1061q52 1 84 27.5t35 66.5q2 39 -34.5 64t-95.5 24q-47 -2 -92 -21t-73 -53q63 -108 176 -108z" />
<glyph unicode="&#x153;" horiz-adv-x="1396" d="M481 872q104 0 177.5 -56t82.5 -144q158 206 361 196q68 -2 118.5 -27.5t73.5 -65t31 -87.5t-8 -96q-31 -149 -172.5 -214t-341.5 -20q-9 -101 35.5 -165.5t134.5 -65.5q65 -2 117.5 9.5t111 44t111.5 101t98 171.5q7 10 25 6.5t35 -19t12 -28.5q-37 -84 -80 -152 t-83 -112t-85.5 -76.5t-82 -49t-79 -26.5t-70 -12t-61.5 -2q-108 -2 -188.5 55t-106.5 156q-131 -206 -352 -209q-77 -2 -138.5 20.5t-107.5 73t-58.5 131.5t7.5 197q44 213 178.5 340.5t304.5 125.5zM473 729q-60 0 -111.5 -53t-81.5 -125t-47 -156q-11 -55 -14 -97 t3.5 -84.5t33 -65.5t72.5 -23q52 0 96 29t74.5 78.5t50.5 104.5t33 116q44 274 -109 276zM1065 723q-74 7 -145.5 -69.5t-102.5 -194.5q108 -19 184.5 15.5t110.5 105.5q28 51 18 95t-65 48z" />
<glyph unicode="&#x154;" horiz-adv-x="1583" d="M1026 1794q25 33 91 24q57 -7 73 -34q8 -14 -4 -29l-154 -182q-22 -27 -77 -20q-50 7 -60 34q-4 14 6 29q22 32 69.5 99.5t55.5 78.5zM1374 -209q-51 5 -95 27t-77 52.5t-62 78t-48.5 90t-38 101.5t-29 101t-23.5 99q-21 130 -94 176q-71 -4 -125 0q-114 -394 -157 -489 q-10 -15 -36.5 -23t-56.5 -7.5t-58 7t-45 22.5t-13 37q41 73 136 412.5t118 401.5q77 217 176 286q43 31 118 14q55 -13 62 -37q2 -7 -2 -14q-104 -94 -207 -481q202 -6 332 81.5t143 252.5q12 137 -89 215t-271 80q-99 0 -189 -30.5t-154.5 -85.5t-86.5 -124 q-74 -112 -8 -231q6 -23 -17 -49.5t-58 -40t-59 -2.5q-67 41 -102 110.5t-29 149.5q8 109 72 197t164.5 143t224.5 84t258 28q169 0 301 -53t205 -154.5t62 -234.5q-13 -165 -116.5 -274t-281.5 -160q51 -44 86 -193q12 -48 22 -82t26.5 -81t36.5 -80t46 -65.5t60 -52 t75 -26.5q21 -13 22.5 -44t-12.5 -61t-43.5 -52t-62.5 -19z" />
<glyph unicode="&#x155;" horiz-adv-x="794" d="M522 1272q25 33 91 24q57 -7 73 -34q8 -14 -4 -29l-154 -182q-22 -27 -77 -20q-50 7 -60 34q-4 14 6 29q22 32 69.5 99.5t55.5 78.5zM53 344q-11 -19 -47 0t-26 39q63 127 100.5 224.5t73.5 228.5q-75 107 -32 188q28 51 84 62q59 10 89 -34q33 -48 10 -137 q22 -23 62.5 -59.5t68.5 -62.5t58 -62t43.5 -65t11 -63.5t-26.5 -65.5q-147 -185 -155 -306q-7 -104 84 -104q83 0 182 81t176 247q7 9 24.5 4t34 -20.5t11.5 -26.5q-86 -199 -212 -315t-296 -115q-116 1 -177 61.5t-61 159.5q0 61 28.5 135t58.5 124t83 128 q13 21 14.5 41.5t-11 43t-22.5 36.5t-32.5 38t-28.5 31q-63 -228 -170 -436z" />
<glyph unicode="&#x156;" horiz-adv-x="1583" d="M1374 -209q-51 5 -95 27t-77 52.5t-62 78t-48.5 90t-38 101.5t-29 101t-23.5 99q-21 130 -94 176q-71 -4 -125 0q-114 -394 -157 -489q-10 -15 -36.5 -23t-56.5 -7.5t-58 7t-45 22.5t-13 37q41 73 136 412.5t118 401.5q77 217 176 286q43 31 118 14q55 -13 62 -37 q2 -7 -2 -14q-104 -94 -207 -481q202 -6 332 81.5t143 252.5q12 137 -89 215t-271 80q-99 0 -189 -30.5t-154.5 -85.5t-86.5 -124q-74 -112 -8 -231q6 -23 -17 -49.5t-58 -40t-59 -2.5q-67 41 -102 110.5t-29 149.5q8 109 72 197t164.5 143t224.5 84t258 28q169 0 301 -53 t205 -154.5t62 -234.5q-13 -165 -116.5 -274t-281.5 -160q51 -44 86 -193q12 -48 22 -82t26.5 -81t36.5 -80t46 -65.5t60 -52t75 -26.5q21 -13 22.5 -44t-12.5 -61t-43.5 -52t-62.5 -19zM750 -190q11 35 70 42q57 7 83 -18q16 -14 8 -35l-104 -264q-11 -31 -62 -39 q-51 -7 -72 18q-11 14 -5 35z" />
<glyph unicode="&#x157;" horiz-adv-x="794" d="M53 344q-11 -19 -47 0t-26 39q63 127 100.5 224.5t73.5 228.5q-75 107 -32 188q28 51 84 62q59 10 89 -34q33 -48 10 -137q22 -23 62.5 -59.5t68.5 -62.5t58 -62t43.5 -65t11 -63.5t-26.5 -65.5q-147 -185 -155 -306q-7 -104 84 -104q83 0 182 81t176 247q7 9 24.5 4 t34 -20.5t11.5 -26.5q-86 -199 -212 -315t-296 -115q-116 1 -177 61.5t-61 159.5q0 61 28.5 135t58.5 124t83 128q13 21 14.5 41.5t-11 43t-22.5 36.5t-32.5 38t-28.5 31q-63 -228 -170 -436zM264 -209q11 36 72 43q57 6 83 -19q15 -14 7 -34l-104 -264q-10 -31 -61 -38 q-52 -8 -73 17q-12 14 -6 35z" />
<glyph unicode="&#x158;" horiz-adv-x="1583" d="M1057 1569q-28 -19 -71 -18t-66 20q-15 11 -41 38t-46.5 50t-49 55.5t-33.5 38.5q-22 24 20 46q45 23 89 14q19 -4 28 -15l108 -125l166 131q33 25 84 6q42 -15 46 -43q3 -18 -15 -34q-96 -79 -219 -164zM1374 -209q-51 5 -95 27t-77 52.5t-62 78t-48.5 90t-38 101.5 t-29 101t-23.5 99q-21 130 -94 176q-71 -4 -125 0q-114 -394 -157 -489q-10 -15 -36.5 -23t-56.5 -7.5t-58 7t-45 22.5t-13 37q41 73 136 412.5t118 401.5q77 217 176 286q43 31 118 14q55 -13 62 -37q2 -7 -2 -14q-104 -94 -207 -481q202 -6 332 81.5t143 252.5 q12 137 -89 215t-271 80q-99 0 -189 -30.5t-154.5 -85.5t-86.5 -124q-74 -112 -8 -231q6 -23 -17 -49.5t-58 -40t-59 -2.5q-67 41 -102 110.5t-29 149.5q8 109 72 197t164.5 143t224.5 84t258 28q169 0 301 -53t205 -154.5t62 -234.5q-13 -165 -116.5 -274t-281.5 -160 q51 -44 86 -193q12 -48 22 -82t26.5 -81t36.5 -80t46 -65.5t60 -52t75 -26.5q21 -13 22.5 -44t-12.5 -61t-43.5 -52t-62.5 -19z" />
<glyph unicode="&#x159;" horiz-adv-x="794" d="M551 1047q-28 -19 -71 -18t-66 20q-15 11 -41 38t-46.5 50t-49 55.5t-33.5 38.5q-22 24 20 46q45 23 89 14q19 -5 28 -15l108 -125l166 131q33 25 84 6q41 -16 46 -43q4 -19 -15 -35q-89 -73 -219 -163zM53 344q-11 -19 -47 0t-26 39q63 127 100.5 224.5t73.5 228.5 q-75 107 -32 188q28 51 84 62q59 10 89 -34q33 -48 10 -137q22 -23 62.5 -59.5t68.5 -62.5t58 -62t43.5 -65t11 -63.5t-26.5 -65.5q-147 -185 -155 -306q-7 -104 84 -104q83 0 182 81t176 247q7 9 24.5 4t34 -20.5t11.5 -26.5q-86 -199 -212 -315t-296 -115 q-116 1 -177 61.5t-61 159.5q0 61 28.5 135t58.5 124t83 128q13 21 14.5 41.5t-11 43t-22.5 36.5t-32.5 38t-28.5 31q-63 -228 -170 -436z" />
<glyph unicode="&#x15a;" horiz-adv-x="1218" d="M885 1792q25 33 92 24q56 -8 71 -34q7 -15 -4 -29l-153 -182q-22 -27 -77 -20q-50 7 -60 34q-4 14 6 29q22 32 69.5 99.5t55.5 78.5zM1174 1069q-9 -29 -52 -38.5t-83.5 3.5t-45.5 41q9 105 -35.5 154t-126.5 49q-64 2 -112.5 -41t-54.5 -137q-4 -53 16.5 -105t56.5 -97 t80 -91.5t88.5 -95.5t80.5 -99.5t56.5 -113.5t16.5 -129q-10 -187 -139 -288t-342 -99q-108 1 -190 34.5t-128 90t-67 131t-15 157.5t35 168q14 23 58.5 26t84 -14t39.5 -45q-47 -178 16 -289t185 -114q107 -1 168 60.5t67 174.5q3 57 -18.5 111.5t-59 100.5t-82.5 92.5 t-89.5 95t-80.5 100t-55 116t-12 134.5q15 150 120.5 233t281.5 82q186 -4 276 -101t62 -257z" />
<glyph unicode="&#x15b;" horiz-adv-x="913" d="M510 1303q25 33 91 24q57 -7 73 -34q8 -14 -4 -29l-154 -183q-22 -27 -77 -20q-50 7 -60 34q-4 14 6 29q16 24 38 55.5t48.5 69t38.5 54.5zM311 -23q-99 0 -169 66.5t-64 181.5q8 26 36 42t53.5 15t41.5 -12q-9 -64 21 -104.5t81 -40.5q30 0 57.5 14t41.5 35 q-26 23 -29 57.5t15 59t46 24.5q2 76 -46 241t-54 245q-130 -128 -289 -457q-9 -11 -27.5 -8t-35 18t-10.5 29q164 354 331 508q78 73 166 72q67 -1 89 -44q23 -43 -21 -102q9 -69 29 -144t37.5 -125t33 -114.5t16.5 -112t-12 -118.5q77 3 149 62.5t128 189.5q7 9 25 4 t34.5 -20.5t11.5 -26.5q-139 -308 -391 -301q-44 -64 -123 -100t-172 -34z" />
<glyph unicode="&#x15e;" horiz-adv-x="1218" d="M836 1427q186 -4 276 -101t62 -257q-9 -29 -52 -38.5t-83.5 3.5t-45.5 41q9 105 -35.5 154t-126.5 49q-64 2 -112.5 -41t-54.5 -137q-4 -53 16.5 -105t56.5 -97t80 -91.5t88.5 -95.5t80.5 -99.5t56.5 -113.5t16.5 -129q-10 -166 -114 -265t-279 -118l-68 -97 q65 -8 103 -42.5t40.5 -79t-18.5 -91.5q-20 -41 -58.5 -70t-88 -42.5t-112 -0.5t-122.5 54q-11 11 -6.5 33t21.5 39.5t32 9.5q63 -39 117.5 -35t79.5 51q11 25 11.5 47.5t-23.5 38t-68 13.5q-26 0 -35.5 15.5t4.5 41.5l68 113q-100 6 -175 42t-117 92.5t-61 129t-12.5 152.5 t35.5 163q14 23 58.5 26t84 -14t39.5 -45q-47 -178 16 -289t185 -114q107 -1 168 60.5t67 174.5q3 57 -18.5 111.5t-59 100.5t-82.5 92.5t-89.5 95t-80.5 100t-55 116t-12 134.5q15 150 120.5 233t281.5 82z" />
<glyph unicode="&#x15f;" horiz-adv-x="913" d="M926 455q7 9 25 4t34.5 -20.5t11.5 -26.5q-139 -308 -391 -301q-60 -87 -178 -119l-70 -101q65 -8 103 -42.5t40.5 -79t-18.5 -91.5q-20 -41 -58.5 -70t-88 -42.5t-112 -0.5t-122.5 54q-11 11 -6.5 33t22 39.5t32.5 9.5q63 -39 117 -35t79 51q11 25 11.5 47.5t-23.5 38 t-68 13.5q-26 0 -35 15.5t5 41.5l63 104q-96 5 -161.5 70.5t-59.5 177.5q8 26 36 42t53.5 15t41.5 -12q-9 -64 21 -104.5t81 -40.5q30 0 57.5 14t41.5 35q-26 23 -29 57.5t15 59t46 24.5q2 76 -46 241t-54 245q-130 -128 -289 -457q-9 -11 -27.5 -8t-35 18t-10.5 29 q164 354 331 508q78 73 166 72q67 -1 89 -44q23 -43 -21 -102q9 -69 29 -144t37.5 -125t33 -114.5t16.5 -112t-12 -118.5q77 3 149 62.5t128 189.5z" />
<glyph unicode="&#x160;" horiz-adv-x="1218" d="M913 1567q-28 -19 -71 -18t-66 20q-15 11 -41 38t-46.5 50t-49 55.5t-33.5 38.5q-22 24 20 46q45 23 89 14q19 -4 28 -15l109 -125l166 131q33 25 84 6q42 -15 46 -43q3 -18 -15 -34q-91 -75 -220 -164zM1174 1069q-9 -29 -52 -38.5t-83.5 3.5t-45.5 41q9 105 -35.5 154 t-126.5 49q-64 2 -112.5 -41t-54.5 -137q-4 -53 16.5 -105t56.5 -97t80 -91.5t88.5 -95.5t80.5 -99.5t56.5 -113.5t16.5 -129q-10 -187 -139 -288t-342 -99q-108 1 -190 34.5t-128 90t-67 131t-15 157.5t35 168q14 23 58.5 26t84 -14t39.5 -45q-47 -178 16 -289t185 -114 q107 -1 168 60.5t67 174.5q3 57 -18.5 111.5t-59 100.5t-82.5 92.5t-89.5 95t-80.5 100t-55 116t-12 134.5q15 150 120.5 233t281.5 82q186 -4 276 -101t62 -257z" />
<glyph unicode="&#x161;" horiz-adv-x="913" d="M541 1077q-28 -19 -71.5 -18t-66.5 20q-15 11 -41 38t-47 51t-48.5 55.5t-33.5 38.5q-22 24 20 45q45 23 89 15q20 -5 29 -15l108 -125l166 131q33 25 84 6q41 -16 46 -43q4 -19 -15 -35q-96 -79 -219 -164zM311 -23q-99 0 -169 66.5t-64 181.5q8 26 36 42t53.5 15 t41.5 -12q-9 -64 21 -104.5t81 -40.5q30 0 57.5 14t41.5 35q-26 23 -29 57.5t15 59t46 24.5q2 76 -46 241t-54 245q-130 -128 -289 -457q-9 -11 -27.5 -8t-35 18t-10.5 29q164 354 331 508q78 73 166 72q67 -1 89 -44q23 -43 -21 -102q9 -69 29 -144t37.5 -125t33 -114.5 t16.5 -112t-12 -118.5q77 3 149 62.5t128 189.5q7 9 25 4t34.5 -20.5t11.5 -26.5q-139 -308 -391 -301q-44 -64 -123 -100t-172 -34z" />
<glyph unicode="&#x162;" horiz-adv-x="1447" d="M483 1395q115 31 200 28.5t179 -27.5t167 -54.5t163 -50.5t166 -17q94 4 139 46t47 122q13 28 61.5 30t65.5 -22q33 -82 8 -166t-84 -125q-61 -42 -138 -56.5t-142 -8t-156 25.5q-19 -61 -39.5 -135t-54 -194.5t-64.5 -229.5q-29 -94 -46 -146t-45 -123.5t-52 -109.5 t-60 -83t-76.5 -66.5t-94.5 -37t-119 -15.5q-63 0 -115.5 14t-88 38.5t-62.5 57t-38 70t-15 76.5t6 77q26 126 145 187q41 13 87.5 -21.5t37.5 -68.5q-50 -61 -57.5 -128.5t27.5 -112t100 -42.5q27 0 51.5 14.5t46 46t38.5 63.5t36 87t31.5 95.5t31.5 107.5q158 577 182 651 q-60 24 -100.5 38t-90.5 26t-92 11t-79 -14q-80 -25 -102 -90q-20 -55 14 -95q41 -49 124 -20q25 9 52 25q31 6 54.5 -29t15.5 -63q-64 -61 -137.5 -85.5t-137 -13.5t-116 49t-78.5 97q-16 38 -19 80.5t9.5 86t38.5 82t71 70t104 48.5zM500 -215q11 36 72 43q57 6 83 -19 q15 -14 7 -34l-105 -264q-11 -31 -62 -39q-51 -7 -72 18q-11 14 -5 35z" />
<glyph unicode="&#x163;" horiz-adv-x="630" d="M252 -18q-58 -1 -103 14t-74 40t-46.5 66t-25.5 82.5t-6 100.5t7.5 109.5t20 119.5t26.5 120t31 122h-62q-29 18 -19.5 71.5t36.5 63.5h82q97 315 157 467q14 20 67 21t101.5 -16.5t49.5 -45.5q-71 -198 -140 -426h172q27 -22 18 -74.5t-34 -60.5h-193q-56 -192 -79 -301 q-75 -327 57 -330q89 -2 187.5 90t162.5 238q8 10 26 6t34.5 -20t11.5 -29q-184 -425 -465 -428zM123 -209q11 36 72 43q57 6 83 -19q15 -14 7 -34l-105 -264q-11 -31 -62 -39q-51 -7 -72 18q-11 14 -5 35z" />
<glyph unicode="&#x164;" horiz-adv-x="1447" d="M1180 1569q-28 -19 -71.5 -18t-66.5 20q-15 11 -41 38t-46.5 50t-49 55.5t-33.5 38.5q-22 24 20 45q45 23 89 15q20 -5 29 -15l108 -125l166 131q33 25 84 6q42 -15 46 -43q3 -18 -15 -34q-96 -79 -219 -164zM483 1395q115 31 200 28.5t179 -27.5t167 -54.5t163 -50.5 t166 -17q94 4 139 46t47 122q13 28 61.5 30t65.5 -22q33 -82 8 -166t-84 -125q-61 -42 -138 -56.5t-142 -8t-156 25.5q-19 -61 -39.5 -135t-54 -194.5t-64.5 -229.5q-29 -94 -46 -146t-45 -123.5t-52 -109.5t-60 -83t-76.5 -66.5t-94.5 -37t-119 -15.5q-63 0 -115.5 14 t-88 38.5t-62.5 57t-38 70t-15 76.5t6 77q26 126 145 187q41 13 87.5 -21.5t37.5 -68.5q-50 -61 -57.5 -128.5t27.5 -112t100 -42.5q27 0 51.5 14.5t46 46t38.5 63.5t36 87t31.5 95.5t31.5 107.5q158 577 182 651q-60 24 -100.5 38t-90.5 26t-92 11t-79 -14 q-80 -25 -102 -90q-20 -55 14 -95q41 -49 124 -20q25 9 52 25q31 6 54.5 -29t15.5 -63q-64 -61 -137.5 -85.5t-137 -13.5t-116 49t-78.5 97q-16 38 -19 80.5t9.5 86t38.5 82t71 70t104 48.5z" />
<glyph unicode="&#x165;" horiz-adv-x="630" d="M252 -18q-58 -1 -103 14t-74 40t-46.5 66t-25.5 82.5t-6 100.5t7.5 109.5t20 119.5t26.5 120t31 122h-84q-18 11 -20.5 41.5t9.5 59t29 34.5h103q97 315 157 467q14 20 67 21t101.5 -16.5t49.5 -45.5q-71 -198 -140 -426h172q27 -22 18 -74.5t-34 -60.5h-193 q-56 -192 -79 -301q-75 -327 57 -330q89 -2 187.5 90t162.5 238q8 10 26 6t34.5 -20t11.5 -29q-184 -425 -465 -428zM621 1325q13 33 66 33q48 0 65 -25q9 -15 0 -33l-84 -190q-15 -31 -61 -33q-44 -2 -57 25q-5 14 1 31q65 179 70 192z" />
<glyph unicode="&#x166;" horiz-adv-x="1562" d="M508 -20q-169 -1 -251 89.5t-67 213.5q9 68 48 125t102 92q21 12 54.5 -1.5t56 -40.5t14.5 -48q-50 -61 -57.5 -128.5t27.5 -112t100 -42.5q21 1 39.5 8t36 25.5t30.5 35.5t28.5 52t25.5 60t26 76t25.5 83t27.5 96q-39 2 -137 2q-23 0 -30.5 29t5.5 58t39 28q25 0 79 -1 t77 -1q22 80 55.5 202.5t52.5 189t37 122.5q-60 23 -101 37t-90.5 26t-91.5 11.5t-79 -13.5q-65 -18 -93.5 -63t-15.5 -88q10 -31 32.5 -48.5t65 -15t97.5 32.5q18 8 38.5 -10t30 -44t0.5 -38q-64 -60 -137.5 -84.5t-136.5 -13.5t-114.5 49t-77.5 98q-17 38 -20 80.5t9.5 86 t38.5 82t71.5 70t104.5 48.5q114 31 199.5 28t179.5 -28t167 -54.5t162.5 -50.5t166.5 -16q183 9 186 168q8 26 59 29.5t68 -21.5q31 -104 -21 -193.5t-143 -115.5q-51 -26 -115 -33t-109.5 -3.5t-123.5 15.5q-25 -78 -123 -442h185q25 1 32 -27.5t-6.5 -57.5t-38.5 -30 q-59 -2 -209 -2q-21 -71 -36.5 -119.5t-35.5 -104.5t-38 -93.5t-41.5 -78t-47.5 -66.5t-55.5 -50.5t-66.5 -38t-77.5 -22t-92.5 -8.5z" />
<glyph unicode="&#x167;" horiz-adv-x="630" d="M252 -18q-91 -1 -149.5 35t-80.5 97.5t-26 144t14 175.5l-49 4q-17 1 -22 29.5t5.5 56.5t32.5 27q8 -1 27 -2t27 -2q9 43 29 122t22 87h-84q-18 11 -20.5 41.5t9.5 59t29 34.5h103q97 315 157 467q14 20 67 21t101.5 -16.5t49.5 -45.5q-71 -198 -140 -426h172 q27 -22 18 -74.5t-34 -60.5h-193q-50 -179 -57 -209q22 1 67 2t68 2q17 0 24 -26.5t-1.5 -54.5t-28.5 -32l-158 -6q-13 -57 -18.5 -108t-2 -97t25 -73.5t59.5 -28.5q89 -2 187.5 90t162.5 238q8 10 26 6t34.5 -20t11.5 -29q-184 -425 -465 -428z" />
<glyph unicode="&#x16a;" horiz-adv-x="1849" d="M1192 1591q-27 1 -34.5 33t7.5 64t43 32q278 -4 412 -2q28 0 34.5 -32t-8.5 -63.5t-40 -31.5h-414zM940 1384q20 27 75 33t101 -11t45 -46q-126 -391 -274 -916q-17 -60 -24 -111t-3.5 -99t29 -75.5t72.5 -27.5q109 1 219.5 119.5t156.5 269.5q37 121 81.5 273t92 319 t66.5 231q24 28 78.5 30t99 -21.5t41.5 -59.5q-46 -130 -124 -394t-136 -490q-33 -122 -27.5 -198.5t54.5 -76.5q70 -1 154.5 91t146.5 229q7 10 25 6t34.5 -19.5t11.5 -27.5q-32 -71 -72.5 -136.5t-97 -134.5t-129 -111t-147.5 -42q-84 0 -133 64t-43 177 q-74 -108 -187.5 -178.5t-224.5 -70.5q-99 1 -161 40t-85.5 112t-18 168.5t37.5 217.5q24 92 55.5 200.5t78.5 260.5t64 211q-44 -49 -104.5 -86t-113.5 -58t-102.5 -42t-83 -51t-42.5 -72q-27 -119 72 -140q17 -7 17.5 -35.5t-15 -54.5t-37.5 -26q-138 -4 -213.5 80 t-48.5 192q16 68 62.5 115.5t106 73t136.5 53t150 52.5t150.5 75t133.5 118z" />
<glyph unicode="&#x16b;" horiz-adv-x="1001" d="M305 1032q-27 1 -34 33t8 64t43 32q277 -4 411 -2q28 0 34.5 -31.5t-8.5 -63.5t-40 -32h-414zM635 842q12 22 61.5 26t97 -11.5t54.5 -43.5q-7 -25 -28 -96t-35.5 -123.5t-34 -127t-29 -128t-15 -104t3 -77t29.5 -26.5q57 -1 137.5 94.5t137.5 227.5q8 11 26.5 7 t34.5 -20t10 -28q-28 -57 -52 -99.5t-69.5 -108t-88.5 -108.5t-103 -75t-121 -31q-81 0 -115.5 77.5t-9.5 174.5q-161 -267 -385 -260q-59 1 -99.5 22.5t-59 58.5t-24 85t6.5 102q22 122 86 343.5t70 244.5q12 24 64.5 29t100.5 -10.5t48 -41.5q-4 -16 -50.5 -190 t-68.5 -271q-8 -34 -13 -57.5t-9.5 -51.5t-3.5 -46.5t6 -35t17 -24.5t30 -8q63 0 144.5 85t125.5 210q31 94 123 416z" />
<glyph unicode="&#x16e;" horiz-adv-x="1849" d="M1438 1849q84 -2 130.5 -49t37.5 -123q-9 -74 -68 -120t-139 -44q-82 0 -128.5 49t-35.5 124q7 71 65 117t138 46zM1430 1751q-30 0 -52 -19.5t-28 -50.5q-5 -31 10.5 -50t46.5 -19q33 0 55.5 18.5t26.5 50.5q6 32 -10.5 51t-48.5 19zM940 1384q20 27 75 33t101 -11 t45 -46q-126 -391 -274 -916q-17 -60 -24 -111t-3.5 -99t29 -75.5t72.5 -27.5q109 1 219.5 119.5t156.5 269.5q37 121 81.5 273t92 319t66.5 231q24 28 78.5 30t99 -21.5t41.5 -59.5q-46 -130 -124 -394t-136 -490q-33 -122 -27.5 -198.5t54.5 -76.5q70 -1 154.5 91 t146.5 229q7 10 25 6t34.5 -19.5t11.5 -27.5q-32 -71 -72.5 -136.5t-97 -134.5t-129 -111t-147.5 -42q-84 0 -133 64t-43 177q-74 -108 -187.5 -178.5t-224.5 -70.5q-99 1 -161 40t-85.5 112t-18 168.5t37.5 217.5q24 92 55.5 200.5t78.5 260.5t64 211q-44 -49 -104.5 -86 t-113.5 -58t-102.5 -42t-83 -51t-42.5 -72q-27 -119 72 -140q17 -7 17.5 -35.5t-15 -54.5t-37.5 -26q-138 -4 -213.5 80t-48.5 192q16 68 62.5 115.5t106 73t136.5 53t150 52.5t150.5 75t133.5 118z" />
<glyph unicode="&#x16f;" horiz-adv-x="1001" d="M549 1292q84 -2 130.5 -49t37.5 -123q-9 -74 -68 -120t-139 -44q-82 0 -128 48.5t-36 123.5q7 72 65 118t138 46zM541 1194q-30 0 -52 -19.5t-28 -50.5q-5 -31 10.5 -50t46.5 -19q33 0 55.5 18.5t26.5 50.5q6 32 -10.5 51t-48.5 19zM635 842q12 22 61.5 26t97 -11.5 t54.5 -43.5q-7 -25 -28 -96t-35.5 -123.5t-34 -127t-29 -128t-15 -104t3 -77t29.5 -26.5q57 -1 137.5 94.5t137.5 227.5q8 11 26.5 7t34.5 -20t10 -28q-28 -57 -52 -99.5t-69.5 -108t-88.5 -108.5t-103 -75t-121 -31q-81 0 -115.5 77.5t-9.5 174.5q-161 -267 -385 -260 q-59 1 -99.5 22.5t-59 58.5t-24 85t6.5 102q22 122 86 343.5t70 244.5q12 24 64.5 29t100.5 -10.5t48 -41.5q-4 -16 -50.5 -190t-68.5 -271q-8 -34 -13 -57.5t-9.5 -51.5t-3.5 -46.5t6 -35t17 -24.5t30 -8q63 0 144.5 85t125.5 210q31 94 123 416z" />
<glyph unicode="&#x170;" horiz-adv-x="1849" d="M1284 1780q14 36 76 42q55 5 78 -18q12 -14 4 -32l-96 -187q-15 -30 -64 -35t-62 22q-6 14 1 32q54 148 63 176zM1530 1780q13 36 74 42q55 5 78 -18q12 -14 4 -32l-97 -187q-17 -32 -67 -36q-47 -4 -60 22q-7 13 0 31q11 31 35 92.5t33 85.5zM940 1384q20 27 75 33 t101 -11t45 -46q-126 -391 -274 -916q-17 -60 -24 -111t-3.5 -99t29 -75.5t72.5 -27.5q109 1 219.5 119.5t156.5 269.5q37 121 81.5 273t92 319t66.5 231q24 28 78.5 30t99 -21.5t41.5 -59.5q-46 -130 -124 -394t-136 -490q-33 -122 -27.5 -198.5t54.5 -76.5q70 -1 154.5 91 t146.5 229q7 10 25 6t34.5 -19.5t11.5 -27.5q-32 -71 -72.5 -136.5t-97 -134.5t-129 -111t-147.5 -42q-84 0 -133 64t-43 177q-74 -108 -187.5 -178.5t-224.5 -70.5q-99 1 -161 40t-85.5 112t-18 168.5t37.5 217.5q24 92 55.5 200.5t78.5 260.5t64 211q-44 -49 -104.5 -86 t-113.5 -58t-102.5 -42t-83 -51t-42.5 -72q-27 -119 72 -140q17 -7 17.5 -35.5t-15 -54.5t-37.5 -26q-138 -4 -213.5 80t-48.5 192q16 68 62.5 115.5t106 73t136.5 53t150 52.5t150.5 75t133.5 118z" />
<glyph unicode="&#x171;" horiz-adv-x="1001" d="M397 1221q14 36 76 42q55 4 78 -19q13 -14 4 -32l-96 -186q-15 -30 -64 -35t-62 21q-6 14 1 32q51 139 63 177zM643 1221q13 36 74 42q55 5 78 -19q12 -14 4 -32l-97 -186q-17 -32 -67 -36q-47 -5 -60 21q-7 13 0 31q11 31 35 93t33 86zM635 842q12 22 61.5 26t97 -11.5 t54.5 -43.5q-7 -25 -28 -96t-35.5 -123.5t-34 -127t-29 -128t-15 -104t3 -77t29.5 -26.5q57 -1 137.5 94.5t137.5 227.5q8 11 26.5 7t34.5 -20t10 -28q-28 -57 -52 -99.5t-69.5 -108t-88.5 -108.5t-103 -75t-121 -31q-81 0 -115.5 77.5t-9.5 174.5q-161 -267 -385 -260 q-59 1 -99.5 22.5t-59 58.5t-24 85t6.5 102q22 122 86 343.5t70 244.5q12 24 64.5 29t100.5 -10.5t48 -41.5q-4 -16 -50.5 -190t-68.5 -271q-8 -34 -13 -57.5t-9.5 -51.5t-3.5 -46.5t6 -35t17 -24.5t30 -8q63 0 144.5 85t125.5 210q31 94 123 416z" />
<glyph unicode="&#x172;" horiz-adv-x="1851" d="M1772 -309q-41 -73 -108.5 -109.5t-128.5 -31.5t-104.5 52t-41.5 126q3 126 114 260q-97 0 -146.5 62t-43.5 179q-74 -108 -187 -178.5t-223 -70.5q-99 1 -161.5 40t-86 112.5t-18.5 169.5t37 218q20 75 198 670q-44 -49 -104 -86t-113.5 -58t-103 -42.5t-83.5 -51 t-44 -71.5q-26 -118 76 -140q17 -5 19 -33t-14 -55t-42 -28q-138 -4 -213.5 80t-48.5 192q16 68 62.5 115.5t106 73t136.5 53t150 52.5t150.5 75t133.5 118q11 42 91 40q69 -3 108 -31q19 -14 16 -29q-96 -313 -268 -920q-17 -60 -24 -111t-3.5 -99t29.5 -75.5t74 -27.5 q109 1 219.5 119.5t156.5 269.5q66 214 238 823q9 33 71 34.5t114.5 -25t39.5 -62.5q-48 -136 -128 -399.5t-138 -482.5q-66 -275 27 -275q70 -1 155.5 91.5t145.5 228.5q7 10 25 6t34.5 -19.5t11.5 -27.5q-79 -172 -188 -295q-191 -222 -191 -361q0 -66 46 -70.5t110 64.5 q17 15 33 6.5t25.5 -30.5t1.5 -35z" />
<glyph unicode="&#x173;" horiz-adv-x="1001" d="M928 -309q-41 -73 -108.5 -109.5t-128.5 -31.5t-104.5 52t-41.5 126q3 126 106 262q-81 4 -115.5 76t-9.5 176q-161 -267 -385 -260q-59 1 -99.5 22.5t-59 58.5t-24 85t6.5 102q16 91 41 189.5t58.5 215.5t48.5 174q8 30 92 33q82 3 117 -20q14 -11 12 -23 q-2 -6 -49.5 -186.5t-69.5 -278.5q-8 -36 -12.5 -58t-9 -51.5t-3.5 -46.5t5.5 -34.5t16.5 -25t30 -7.5q63 0 144.5 85t125.5 210q19 57 38 124t41.5 153t35.5 131q7 22 65.5 28.5t111.5 -7t46 -40.5q-7 -24 -21 -72.5t-26.5 -90t-28 -98t-27 -103t-22.5 -97t-15.5 -88.5 t-4.5 -69.5t8.5 -48.5t25.5 -17q57 -1 136.5 94t138.5 228q8 12 26.5 8t35 -20t11.5 -29q-41 -84 -105 -186.5t-130 -168.5q-69 -69 -105 -148t-34 -153q2 -66 46 -70.5t109 64.5q17 15 33 6.5t25.5 -30.5t1.5 -35z" />
<glyph unicode="&#x174;" horiz-adv-x="2373" d="M1669 1798q30 18 72.5 18t64.5 -18q19 -15 53 -51t71.5 -79t47.5 -54q22 -24 -20 -45q-46 -22 -92 -13q-19 4 -29 15l-111 121l-161 -129q-31 -25 -83 -6q-43 15 -47 43q-3 18 15 34q34 30 107 84.5t112 79.5zM2365 1497q27 4 56.5 -13t47 -43.5t25 -55t-9.5 -46.5 q-28 -14 -54 -38.5t-50 -63.5t-43.5 -74t-41.5 -94t-36 -98.5t-35 -112t-31.5 -109.5t-31.5 -116.5t-29 -108.5q-35 -126 -80 -220.5t-109.5 -170t-155 -114.5t-204.5 -39q-141 0 -210 83t-64 201q-67 -132 -174 -207.5t-232 -74.5q-102 1 -165.5 42.5t-85.5 117t-16 170.5 t38 214q22 83 196 664q-44 -49 -104 -86t-113.5 -58t-103 -42.5t-83.5 -51t-44 -71.5q-12 -52 5.5 -90.5t70.5 -51.5q15 -6 16 -33t-13.5 -53t-37.5 -28q-145 -3 -214.5 77t-49.5 191q11 57 45.5 99.5t84 70t109 50t127 46t131.5 50.5t128.5 71t111.5 100q14 16 42 26 t58.5 10t59 -5.5t45.5 -20.5t14 -34q-13 -44 -41.5 -136t-39.5 -127.5t-34.5 -115t-42 -143.5t-47 -165t-63.5 -225q-17 -59 -24 -111t-3.5 -100t28.5 -75.5t70 -26.5q93 0 190.5 125t154.5 319q34 114 79 260.5t96 310.5t70 226q14 30 68 34.5t102 -19t47 -62.5 q-155 -467 -276 -930q-13 -50 -14.5 -96t9 -84.5t40 -61.5t75.5 -22q88 0 167.5 98.5t123.5 253.5q19 65 47.5 167t44.5 157.5t40.5 138t40.5 128t40 108.5t43 98t45 77t51.5 65.5t56.5 44t66 30.5z" />
<glyph unicode="&#x175;" horiz-adv-x="1464" d="M758 1243q30 18 72.5 18t64.5 -18q19 -15 53 -51t71.5 -79t47.5 -54q22 -24 -20 -45q-46 -22 -92 -13q-19 4 -29 15l-111 121l-162 -129q-32 -25 -83 -6q-42 16 -46 43q-2 19 15 34q34 30 107 84.5t112 79.5zM686 -18q-90 2 -138 62t-38 167q-82 -126 -181.5 -178.5 t-191.5 -48.5q-219 3 -170 278q12 71 34.5 157.5t35.5 129t50.5 157.5t41.5 128q22 27 76 31.5t98 -12.5t41 -44q-114 -356 -143 -502q-9 -41 -12 -67.5t-1.5 -53t14.5 -40.5t38 -15q61 -5 139 74t129 217q82 238 135 409q15 25 66.5 32.5t98 -7.5t48.5 -45 q-8 -23 -35.5 -101.5t-40.5 -117t-33 -108.5t-34 -136q-26 -106 -20.5 -161.5t46.5 -55.5q33 0 69.5 20.5t63.5 53.5q-17 24 -15.5 51t17 43.5t37.5 23.5t45 -8q55 79 107 240t53 283q8 21 59.5 29t102 -6t55.5 -46q-4 -153 -73 -332t-152 -274q45 -13 95.5 -5.5t98 31 t95 79.5t84.5 139q7 10 25 6t34 -20t10 -29q-42 -90 -94 -152.5t-103 -94.5t-110 -44.5t-110 -9t-107 17.5q-142 -145 -340 -145z" />
<glyph unicode="&#x176;" horiz-adv-x="1812" d="M1401 1802q30 18 72.5 18t64.5 -18q19 -15 53 -51t71.5 -79t47.5 -54q22 -24 -20 -45q-46 -22 -92 -13q-19 4 -29 15l-111 121l-162 -129q-32 -25 -83 -6q-42 16 -46 43q-2 19 15 34q34 30 107 84.5t112 79.5zM1825 451q8 11 26.5 7.5t34.5 -19t10 -29.5 q-102 -214 -221 -335.5t-291 -191.5q-30 -127 -59 -198q-58 -152 -141.5 -221.5t-227.5 -69.5q-108 -1 -167 60t-44 155q7 41 25.5 77t42 63.5t60.5 54t69.5 44.5t80 37.5t81.5 31.5t84 28q13 37 44 145.5t42 145.5q-161 -232 -371 -232q-95 1 -155.5 40t-84 111t-18.5 168 t37 218q19 71 44 159.5t45 154.5t52 173t49 162q-44 -49 -104.5 -86t-114 -58t-102.5 -42.5t-83 -51t-44 -71.5q-27 -119 72 -140q18 -5 20 -33t-13.5 -55t-41.5 -28q-138 -3 -212 78.5t-48 189.5q16 69 61.5 117t105.5 73.5t137 53t150 53t151 76.5t134 120q31 28 86 31 t96 -14t37 -41q-59 -187 -83 -265.5t-68 -229.5t-113 -400q-17 -59 -24 -111.5t-4 -100.5t27 -76.5t69 -28.5q109 0 214.5 109.5t172.5 285.5q37 127 122.5 415.5t116.5 395.5q19 24 73.5 26t101 -17.5t44.5 -49.5q-54 -155 -180.5 -585t-206.5 -718q117 44 223 156t181 283 zM1163 -180q-73 -32 -137.5 -82t-85.5 -96q-20 -43 -9 -73.5t50 -29.5q41 3 76.5 39.5t60.5 99.5q14 35 45 142z" />
<glyph unicode="&#x177;" horiz-adv-x="993" d="M475 1243q30 18 72.5 18t64.5 -18q19 -15 53 -51t71.5 -79t47.5 -54q22 -24 -20 -45q-46 -22 -92 -13q-19 4 -29 15l-111 121l-161 -129q-31 -25 -83 -6q-43 15 -47 43q-3 18 15 34q34 30 107 84.5t112 79.5zM178 -606q-106 -3 -167.5 52.5t-49.5 154.5q7 57 38 105.5 t70 81.5t102.5 64.5t113 50t123.5 42.5q17 44 86 272q-84 -129 -183.5 -186t-189.5 -47q-78 5 -121.5 43.5t-49.5 98.5t11 138q22 94 79.5 287.5t76.5 286.5q11 23 61.5 29t98 -8t51.5 -42q-17 -70 -63 -249.5t-68 -272.5q-10 -38 -14 -65t-2.5 -51t13.5 -36t35 -12 q62 -1 140 86.5t131 214.5q65 155 127 410q17 24 68.5 26.5t97.5 -14t49 -41.5q-46 -167 -116 -427.5t-101 -371.5q236 106 383 441q7 9 25 5t34.5 -19.5t11.5 -28.5q-102 -219 -214.5 -338t-276.5 -193q-54 -194 -108 -297.5t-123.5 -146t-178.5 -43.5zM215 -457 q77 18 125 148q18 51 35 123q-142 -66 -197 -144q-37 -51 -26 -93.5t63 -33.5z" />
<glyph unicode="&#x178;" horiz-adv-x="1812" d="M1284 1556q-52 0 -80 33.5t-26 75.5q5 43 37 74.5t83 34.5q49 0 78.5 -34t24.5 -77q-2 -41 -35 -74t-82 -33zM1593 1556q-52 0 -78.5 33.5t-21.5 75.5q2 41 34 73.5t81 35.5q53 0 80.5 -32.5t27.5 -76.5q-3 -43 -37 -76t-86 -33zM1825 451q8 11 26.5 7.5t34.5 -19 t10 -29.5q-102 -214 -221 -335.5t-291 -191.5q-30 -127 -59 -198q-58 -152 -141.5 -221.5t-227.5 -69.5q-108 -1 -167 60t-44 155q7 41 25.5 77t42 63.5t60.5 54t69.5 44.5t80 37.5t81.5 31.5t84 28q13 37 44 145.5t42 145.5q-161 -232 -371 -232q-95 1 -155.5 40t-84 111 t-18.5 168t37 218q19 71 44 159.5t45 154.5t52 173t49 162q-44 -49 -104.5 -86t-114 -58t-102.5 -42.5t-83 -51t-44 -71.5q-27 -119 72 -140q18 -5 20 -33t-13.5 -55t-41.5 -28q-138 -3 -212 78.5t-48 189.5q16 69 61.5 117t105.5 73.5t137 53t150 53t151 76.5t134 120 q31 28 86 31t96 -14t37 -41q-59 -187 -83 -265.5t-68 -229.5t-113 -400q-17 -59 -24 -111.5t-4 -100.5t27 -76.5t69 -28.5q109 0 214.5 109.5t172.5 285.5q37 127 122.5 415.5t116.5 395.5q19 24 73.5 26t101 -17.5t44.5 -49.5q-54 -155 -180.5 -585t-206.5 -718 q117 44 223 156t181 283zM1163 -180q-73 -32 -137.5 -82t-85.5 -96q-20 -43 -9 -73.5t50 -29.5q41 3 76.5 39.5t60.5 99.5q14 35 45 142z" />
<glyph unicode="&#x179;" horiz-adv-x="1417" d="M1001 1792q25 33 91 24q57 -7 73 -34q8 -14 -4 -29l-153 -182q-22 -27 -77 -20q-50 7 -60 34q-4 14 6 29q7 10 124 178zM1307 1393q64 29 109 17.5t68.5 -45t18.5 -71.5q-82 -110 -174 -262t-161.5 -280t-160 -280.5t-169.5 -260.5q28 -27 75 -76t78 -79.5t75.5 -70 t81.5 -60t82 -37t92.5 -13.5t96.5 23q26 -4 44 -39.5t15 -79t-32 -64.5q-68 -24 -135.5 -26t-123 12t-114 46.5t-103 66.5t-95.5 85t-85 89.5t-79 91.5l-15 18q-73 -64 -134.5 -89.5t-149.5 -26.5q-137 -2 -220 55t-79 164q5 96 88 161t205 62q153 -5 286 -100 q75 103 253.5 435.5t277.5 479.5q-57 -23 -127 -23.5t-130 13.5t-128.5 28t-122.5 20.5t-111 -9.5q-84 -21 -113 -87q-25 -55 4 -97q37 -51 122 -29q32 8 69 28q20 11 42 -9t28 -46.5t-6 -42.5q-64 -56 -140.5 -76.5t-141.5 -6.5t-117 54t-72 99q-11 41 -13 84t16 87.5 t47 82.5t80 68t117 44q73 16 147 14t135 -17.5t126.5 -30.5t122.5 -26t122.5 -4t127.5 36zM430 287q-63 1 -95.5 -41.5t-8 -84t99.5 -38.5q95 3 166 92q-69 72 -162 72z" />
<glyph unicode="&#x17a;" horiz-adv-x="968" d="M596 1237q25 33 91 24q57 -7 73 -34q8 -14 -4 -29l-154 -182q-22 -27 -77 -20q-50 7 -60 34q-4 14 6 29q22 32 69.5 99.5t55.5 78.5zM319 903q43 -66 133 -90.5t191 -3.5q46 14 83 14t63 -12t39.5 -30.5t13 -42.5t-16.5 -46q-10 -14 -60 -87t-66.5 -95.5t-61 -83.5 t-72.5 -94.5t-70.5 -82t-84.5 -89.5q41 1 111.5 -20.5t121.5 -18.5q92 5 181.5 90.5t158.5 241.5q7 10 24.5 5.5t34.5 -20t13 -26.5q-88 -197 -215 -318t-262 -125q-58 -2 -109 14t-98 29.5t-101 7.5q-94 -75 -172 -50q-50 16 -62 63q-14 58 41 105q31 26 81 42 q234 237 393 482q-82 -13 -172 18.5t-137 99.5q-58 -179 -191 -436q-9 -11 -27 -8t-34 18t-10 27q51 108 74 158t57 137.5t63 181.5q-64 95 -24 169q26 48 77 57q55 9 83 -39q28 -50 9 -142z" />
<glyph unicode="&#x17b;" horiz-adv-x="1417" d="M979 1561q-55 0 -82.5 34t-22.5 76q5 45 38.5 77.5t86.5 33.5q52 1 81 -32.5t24 -80.5q-5 -43 -39.5 -75.5t-85.5 -32.5zM1307 1393q64 29 109 17.5t68.5 -45t18.5 -71.5q-82 -110 -174 -262t-161.5 -280t-160 -280.5t-169.5 -260.5q28 -27 75 -76t78 -79.5t75.5 -70 t81.5 -60t82 -37t92.5 -13.5t96.5 23q26 -4 44 -39.5t15 -79t-32 -64.5q-68 -24 -135.5 -26t-123 12t-114 46.5t-103 66.5t-95.5 85t-85 89.5t-79 91.5l-15 18q-73 -64 -134.5 -89.5t-149.5 -26.5q-137 -2 -220 55t-79 164q5 96 88 161t205 62q153 -5 286 -100 q75 103 253.5 435.5t277.5 479.5q-57 -23 -127 -23.5t-130 13.5t-128.5 28t-122.5 20.5t-111 -9.5q-84 -21 -113 -87q-25 -55 4 -97q37 -51 122 -29q32 8 69 28q20 11 42 -9t28 -46.5t-6 -42.5q-64 -56 -140.5 -76.5t-141.5 -6.5t-117 54t-72 99q-11 41 -13 84t16 87.5 t47 82.5t80 68t117 44q73 16 147 14t135 -17.5t126.5 -30.5t122.5 -26t122.5 -4t127.5 36zM430 287q-63 1 -95.5 -41.5t-8 -84t99.5 -38.5q95 3 166 92q-69 72 -162 72z" />
<glyph unicode="&#x17c;" horiz-adv-x="968" d="M573 1006q-55 0 -82 34t-22 76q5 45 38.5 77.5t86.5 33.5q52 1 80.5 -32.5t23.5 -80.5q-5 -43 -39.5 -75.5t-85.5 -32.5zM319 903q43 -66 133 -90.5t191 -3.5q46 14 83 14t63 -12t39.5 -30.5t13 -42.5t-16.5 -46q-10 -14 -60 -87t-66.5 -95.5t-61 -83.5t-72.5 -94.5 t-70.5 -82t-84.5 -89.5q41 1 111.5 -20.5t121.5 -18.5q92 5 181.5 90.5t158.5 241.5q7 10 24.5 5.5t34.5 -20t13 -26.5q-88 -197 -215 -318t-262 -125q-58 -2 -109 14t-98 29.5t-101 7.5q-94 -75 -172 -50q-50 16 -62 63q-14 58 41 105q31 26 81 42q234 237 393 482 q-82 -13 -172 18.5t-137 99.5q-58 -179 -191 -436q-9 -11 -27 -8t-34 18t-10 27q51 108 74 158t57 137.5t63 181.5q-64 95 -24 169q26 48 77 57q55 9 83 -39q28 -50 9 -142z" />
<glyph unicode="&#x17d;" horiz-adv-x="1417" d="M1030 1567q-28 -19 -71 -18t-66 20q-15 11 -41 38t-46.5 50t-49 55.5t-33.5 38.5q-22 24 20 46q45 23 89 14q19 -4 28 -15l109 -125l166 131q33 25 84 6q42 -16 46 -43q1 -19 -16 -34q-96 -79 -219 -164zM1307 1393q64 29 109 17.5t68.5 -45t18.5 -71.5 q-82 -110 -174 -262t-161.5 -280t-160 -280.5t-169.5 -260.5q28 -27 75 -76t78 -79.5t75.5 -70t81.5 -60t82 -37t92.5 -13.5t96.5 23q26 -4 44 -39.5t15 -79t-32 -64.5q-68 -24 -135.5 -26t-123 12t-114 46.5t-103 66.5t-95.5 85t-85 89.5t-79 91.5l-15 18 q-73 -64 -134.5 -89.5t-149.5 -26.5q-137 -2 -220 55t-79 164q5 96 88 161t205 62q153 -5 286 -100q75 103 253.5 435.5t277.5 479.5q-57 -23 -127 -23.5t-130 13.5t-128.5 28t-122.5 20.5t-111 -9.5q-84 -21 -113 -87q-25 -55 4 -97q37 -51 122 -29q32 8 69 28q20 11 42 -9 t28 -46.5t-6 -42.5q-64 -56 -140.5 -76.5t-141.5 -6.5t-117 54t-72 99q-11 41 -13 84t16 87.5t47 82.5t80 68t117 44q73 16 147 14t135 -17.5t126.5 -30.5t122.5 -26t122.5 -4t127.5 36zM430 287q-63 1 -95.5 -41.5t-8 -84t99.5 -38.5q95 3 166 92q-69 72 -162 72z" />
<glyph unicode="&#x17e;" horiz-adv-x="968" d="M625 1012q-28 -19 -71.5 -18t-66.5 20q-15 11 -41 38t-46.5 50t-49 55.5t-33.5 38.5q-22 24 20 45q45 23 89 15q20 -5 29 -15l108 -125l166 131q33 25 84 6q42 -15 46 -43q3 -18 -15 -34q-96 -79 -219 -164zM319 903q43 -66 133 -90.5t191 -3.5q46 14 83 14t63 -12 t39.5 -30.5t13 -42.5t-16.5 -46q-10 -14 -60 -87t-66.5 -95.5t-61 -83.5t-72.5 -94.5t-70.5 -82t-84.5 -89.5q41 1 111.5 -20.5t121.5 -18.5q92 5 181.5 90.5t158.5 241.5q7 10 24.5 5.5t34.5 -20t13 -26.5q-88 -197 -215 -318t-262 -125q-58 -2 -109 14t-98 29.5t-101 7.5 q-94 -75 -172 -50q-50 16 -62 63q-14 58 41 105q31 26 81 42q234 237 393 482q-82 -13 -172 18.5t-137 99.5q-58 -179 -191 -436q-9 -11 -27 -8t-34 18t-10 27q51 108 74 158t57 137.5t63 181.5q-64 95 -24 169q26 48 77 57q55 9 83 -39q28 -50 9 -142z" />
<glyph unicode="&#x192;" horiz-adv-x="1390" d="M1335 1233q12 -16 4.5 -41t-27 -43t-41.5 -27.5t-38 6.5q-59 62 -146 62q-76 0 -122 -60.5t-76 -187.5l-55 -246h198q27 0 35.5 -34t-8.5 -68.5t-51 -34.5h-209l-185 -788q-19 -83 -39 -146t-50 -123t-66.5 -98.5t-87.5 -62.5t-113 -25q-86 -1 -151 31.5t-99 93.5 q-10 17 -5.5 38t18.5 37.5t33 29t37.5 11.5t31.5 -14q49 -57 129 -55q58 3 96.5 78t71.5 225l178 768h-168q-27 1 -35 35t8.5 68t49.5 34h178l63 273q42 183 126.5 277.5t223.5 101.5q80 5 163 -25.5t128 -89.5z" />
<glyph unicode="&#x218;" horiz-adv-x="1218" d="M1174 1069q-9 -29 -52 -38.5t-83.5 3.5t-45.5 41q9 105 -35.5 154t-126.5 49q-64 2 -112.5 -41t-54.5 -137q-4 -53 16.5 -105t56.5 -97t80 -91.5t88.5 -95.5t80.5 -99.5t56.5 -113.5t16.5 -129q-10 -187 -139 -288t-342 -99q-108 1 -190 34.5t-128 90t-67 131t-15 157.5 t35 168q14 23 58.5 26t84 -14t39.5 -45q-47 -178 16 -289t185 -114q107 -1 168 60.5t67 174.5q3 57 -18.5 111.5t-59 100.5t-82.5 92.5t-89.5 95t-80.5 100t-55 116t-12 134.5q15 150 120.5 233t281.5 82q186 -4 276 -101t62 -257zM485 -203q11 36 72 43q57 6 83 -19 q15 -14 7 -34l-104 -264q-10 -31 -61 -38q-52 -8 -73 17q-12 14 -6 35z" />
<glyph unicode="&#x219;" horiz-adv-x="913" d="M311 -23q-99 0 -169 66.5t-64 181.5q8 26 36 42t53.5 15t41.5 -12q-9 -64 21 -104.5t81 -40.5q30 0 57.5 14t41.5 35q-26 23 -29 57.5t15 59t46 24.5q2 76 -46 241t-54 245q-130 -128 -289 -457q-9 -11 -27.5 -8t-35 18t-10.5 29q164 354 331 508q78 73 166 72 q67 -1 89 -44q23 -43 -21 -102q9 -69 29 -144t37.5 -125t33 -114.5t16.5 -112t-12 -118.5q77 3 149 62.5t128 189.5q7 9 25 4t34.5 -20.5t11.5 -26.5q-139 -308 -391 -301q-44 -64 -123 -100t-172 -34zM246 -201q11 36 72 43q57 6 83 -19q15 -14 7 -34l-105 -264 q-11 -31 -62 -39q-51 -7 -72 18q-11 14 -5 35z" />
<glyph unicode="&#x21a;" horiz-adv-x="1447" d="M483 1395q115 31 200 28.5t179 -27.5t167 -54.5t163 -50.5t166 -17q94 4 139 46t47 122q13 28 61.5 30t65.5 -22q33 -82 8 -166t-84 -125q-61 -42 -138 -56.5t-142 -8t-156 25.5q-19 -61 -39.5 -135t-54 -194.5t-64.5 -229.5q-29 -94 -46 -146t-45 -123.5t-52 -109.5 t-60 -83t-76.5 -66.5t-94.5 -37t-119 -15.5q-63 0 -115.5 14t-88 38.5t-62.5 57t-38 70t-15 76.5t6 77q26 126 145 187q41 13 87.5 -21.5t37.5 -68.5q-50 -61 -57.5 -128.5t27.5 -112t100 -42.5q27 0 51.5 14.5t46 46t38.5 63.5t36 87t31.5 95.5t31.5 107.5q158 577 182 651 q-60 24 -100.5 38t-90.5 26t-92 11t-79 -14q-80 -25 -102 -90q-20 -55 14 -95q41 -49 124 -20q25 9 52 25q31 6 54.5 -29t15.5 -63q-64 -61 -137.5 -85.5t-137 -13.5t-116 49t-78.5 97q-16 38 -19 80.5t9.5 86t38.5 82t71 70t104 48.5zM500 -215q11 36 72 43q57 6 83 -19 q15 -14 7 -34l-105 -264q-11 -31 -62 -39q-51 -7 -72 18q-11 14 -5 35z" />
<glyph unicode="&#x21b;" horiz-adv-x="630" d="M252 -18q-58 -1 -103 14t-74 40t-46.5 66t-25.5 82.5t-6 100.5t7.5 109.5t20 119.5t26.5 120t31 122h-62q-29 18 -19.5 71.5t36.5 63.5h82q97 315 157 467q14 20 67 21t101.5 -16.5t49.5 -45.5q-71 -198 -140 -426h172q27 -22 18 -74.5t-34 -60.5h-193q-56 -192 -79 -301 q-75 -327 57 -330q89 -2 187.5 90t162.5 238q8 10 26 6t34.5 -20t11.5 -29q-184 -425 -465 -428zM123 -209q11 36 72 43q57 6 83 -19q15 -14 7 -34l-105 -264q-11 -31 -62 -39q-51 -7 -72 18q-11 14 -5 35z" />
<glyph unicode="&#x2c6;" horiz-adv-x="688" d="M352 1743q30 18 72.5 18t64.5 -18q19 -15 53 -51t72 -79.5t48 -53.5q22 -24 -21 -45q-47 -22 -92 -13q-19 4 -29 15l-110 120l-162 -129q-31 -25 -83 -6q-42 16 -47 43q-4 19 15 35q34 30 107 84.5t112 79.5z" />
<glyph unicode="&#x2c7;" horiz-adv-x="688" d="M416 1511q-28 -19 -71 -18t-66 20q-15 11 -41 38t-47 51t-48.5 55.5t-33.5 38.5q-22 24 20 46q45 23 89 14q19 -4 28 -15l108 -125l166 131q33 25 84 6q41 -16 46 -43q4 -19 -15 -35q-96 -79 -219 -164z" />
<glyph unicode="&#x2d8;" horiz-adv-x="643" d="M291 1493q-104 0 -173 60t-63 165q1 19 28 28.5t54.5 4t30.5 -24.5q18 -102 125 -102q123 -3 172 107q9 20 39.5 23t56 -10.5t19.5 -33.5q-24 -97 -100.5 -156.5t-188.5 -60.5z" />
<glyph unicode="&#x2d9;" horiz-adv-x="376" d="M188 1507q-55 0 -83 34.5t-23 76.5q6 45 40 77.5t87 33.5q52 1 80.5 -32.5t23.5 -80.5q-7 -43 -40.5 -76t-84.5 -33z" />
<glyph unicode="&#x2da;" horiz-adv-x="489" d="M264 1794q84 -2 130.5 -49t37.5 -123q-9 -74 -68 -120t-139 -44q-82 0 -128 48.5t-36 123.5q7 72 65 118t138 46zM256 1696q-30 0 -52 -19.5t-28 -50.5q-5 -31 11 -50.5t46 -19.5q32 0 55 19t27 51q6 32 -10.5 51t-48.5 19z" />
<glyph unicode="&#x2db;" horiz-adv-x="546" d="M451 -309q-41 -73 -108.5 -109.5t-128.5 -31.5t-104.5 52t-41.5 126q5 213 350 477q23 15 50 -6q24 -20 12 -40q-3 -5 -9 -9q-108 -87 -172.5 -200t-62.5 -194q3 -66 46.5 -70.5t108.5 64.5q17 15 33 6.5t25.5 -30.5t1.5 -35z" />
<glyph unicode="&#x2dc;" horiz-adv-x="694" d="M414 1516q-44 1 -109.5 35.5t-93.5 35.5q-50 0 -90 -55q-12 -9 -34 -1t-41 30.5t-11 37.5q25 52 71.5 88t108.5 35q47 0 110 -34t95 -35q29 -1 49 10t41 39q14 10 34 1.5t36 -31.5t8 -40q-24 -50 -69.5 -83.5t-104.5 -32.5z" />
<glyph unicode="&#x2dd;" horiz-adv-x="645" d="M154 1722q15 37 76 42q56 5 78 -19q11 -13 3 -31l-96 -186q-15 -30 -64 -35t-62 21q-6 14 1 32t20.5 54.5t24.5 67t19 54.5zM399 1722q13 36 74 42q55 5 78 -18q12 -14 4 -32l-96 -186q-17 -32 -67 -36q-47 -5 -60 21q-6 14 0 31q11 31 35 93t32 85z" />
<glyph unicode="&#x300;" d="M-598 1737q61 -83 125 -178q23 -34 -18 -54q-39 -19 -81 -5q-17 6 -26 16l-156 182q-23 27 20 49q45 23 95 13q29 -5 41 -23z" />
<glyph unicode="&#x301;" d="M-510 1737q23 33 90 24q58 -7 74 -34q7 -15 -4 -29l-156 -182q-22 -27 -76 -20q-51 6 -59 34q-4 14 6 29q64 95 125 178z" />
<glyph unicode="&#x302;" d="M-580 1743q28 18 71 18t67 -18q19 -15 51 -49t75 -83.5t44 -51.5q22 -24 -21 -45q-46 -22 -90 -13q-20 4 -29 15l-112 120l-162 -129q-31 -25 -83 -6q-42 16 -47 43q-4 19 15 35q34 29 107.5 83.5t113.5 80.5z" />
<glyph unicode="&#x303;" d="M-446 1516q-43 1 -109.5 35.5t-95.5 35.5q-48 0 -88 -55q-12 -9 -34.5 -1t-41 30.5t-10.5 37.5q23 52 70 88t110 35q45 0 108 -34t95 -35q52 -3 92 49q12 10 32 1.5t36 -32t8 -39.5q-22 -50 -68 -83.5t-104 -32.5z" />
<glyph unicode="&#x304;" d="M-760 1534q-28 1 -35.5 33t7.5 64t43 32q278 -4 413 -2q27 0 33.5 -31.5t-8 -63.5t-39.5 -32h-414z" />
<glyph unicode="&#x306;" d="M-539 1493q-105 0 -173 59.5t-62 165.5q1 19 27.5 28.5t54 4t30.5 -24.5q15 -102 123 -102q123 -3 172 107q9 20 40 23t56 -10.5t19 -33.5q-24 -97 -99.5 -156.5t-187.5 -60.5z" />
<glyph unicode="&#x307;" d="M-555 1505q-55 0 -83.5 34.5t-23.5 76.5q6 45 40 77t87 33q52 1 81 -32.5t24 -79.5q-7 -43 -40.5 -76t-84.5 -33z" />
<glyph unicode="&#x308;" d="M-688 1524q-52 0 -79.5 33t-25.5 75q5 43 37.5 74.5t83.5 34.5q49 0 77.5 -33.5t25.5 -77.5q-3 -41 -36 -73.5t-83 -32.5zM-377 1524q-52 0 -78.5 33t-23.5 75t35 74t82 35q52 0 80 -32.5t26 -76.5q-3 -43 -36.5 -75.5t-84.5 -32.5z" />
<glyph unicode="&#x30a;" d="M-526 1794q84 -2 131 -49t37 -123q-7 -74 -66.5 -120t-138.5 -44q-82 0 -128.5 48.5t-37.5 123.5q9 72 67 118t136 46zM-532 1696q-30 0 -52 -19.5t-28 -50.5t10 -50.5t47 -19.5q32 0 54 19t28 51q5 32 -11 51t-48 19z" />
<glyph unicode="&#x30b;" d="M-672 1722q14 36 75 42q56 5 78 -19q12 -13 3 -31l-94 -186q-17 -31 -67 -35q-49 -5 -61 23q-5 13 1 30zM-428 1722q14 36 76 42q55 5 78 -18q12 -14 4 -32l-99 -186q-17 -32 -67 -36q-47 -5 -60 21q-6 14 0 31q11 31 35 92.5t33 85.5z" />
<glyph unicode="&#x30c;" d="M-492 1511q-29 -19 -72 -18t-65 20q-19 15 -53 51t-71.5 79t-47.5 53q-22 24 20 46q45 23 89 14q19 -4 28 -15l109 -125l168 131q31 25 83 6q41 -16 46 -43q3 -19 -16 -35q-100 -83 -218 -164z" />
<glyph unicode="&#x326;" d="M-936 -211q11 36 72 43q57 6 83 -19q15 -14 7 -34l-105 -264q-11 -31 -62 -39q-52 -7 -73 19q-11 14 -6 34q10 33 42 130t42 130z" />
<glyph unicode="&#x327;" d="M-823 78l116 -12l-114 -166q65 -8 103 -42.5t40.5 -79t-18.5 -91.5q-20 -41 -58 -70.5t-87.5 -42.5t-111.5 -0.5t-122 53.5q-11 11 -7 33t20.5 39.5t31.5 9.5q64 -39 119 -34.5t80 51.5q10 25 10 47.5t-23.5 37.5t-66.5 13q-26 0 -36.5 15.5t5.5 41.5z" />
<glyph unicode="&#x328;" d="M-365 -309q-41 -73 -108.5 -109.5t-128.5 -31.5t-104.5 52t-41.5 126q5 212 351 477q23 15 50 -6q24 -20 12 -40q-3 -5 -9 -9q-108 -87 -173 -200t-63 -194q3 -66 47 -70.5t109 64.5q17 15 33 6.5t25 -30.5t1 -35z" />
<glyph unicode="&#x401;" horiz-adv-x="1144" d="M741 1552q-52 0 -80 33.5t-26 75.5q5 42 37.5 73.5t83.5 34.5q49 0 78 -33.5t24 -76.5q-2 -41 -35 -74t-82 -33zM1051 1552q-52 0 -79 33.5t-22 75.5q2 41 34 73t81 35q53 0 81 -32t28 -76q-3 -43 -37 -76t-86 -33zM543 1481q0 -93 24 -150q49 41 117 65.5t138 30 t138 -8.5t120.5 -43.5t83.5 -80t28 -114.5q-5 -106 -85 -168t-216 -56q-75 5 -145 36t-115 81q-20 -99 53.5 -185.5t206.5 -103.5q18 -11 19 -43t-14 -60.5t-36 -31.5q-41 6 -87.5 1.5t-92.5 -14.5t-89.5 -33t-78 -52.5t-58 -74.5t-30.5 -99q-9 -62 10 -110.5t57.5 -77 t85.5 -43.5t99 -17q151 -2 277.5 77t205.5 247q8 11 26 7t34.5 -20t11.5 -28q-97 -223 -254 -326.5t-356 -103.5q-69 0 -135 15t-124 47.5t-99 78t-60.5 111.5t-9.5 143q12 112 74.5 201t152 136.5t190.5 53.5q-93 34 -141 121.5t-42 187t58 176.5q-39 89 -36 226 q0 17 22.5 26.5t46 3.5t25.5 -28zM678 1192q88 -94 201 -94q52 -3 81 20.5t31 63.5q1 34 -23 57.5t-61.5 31t-79.5 3.5t-83 -25.5t-66 -56.5z" />
<glyph unicode="&#x402;" horiz-adv-x="1562" d="M786 -514q-190 -10 -294 102q-15 17 -8 44t27.5 47.5t45.5 31t45 -5.5q38 -31 76 -42.5t90 -8.5q239 10 369 590q12 54 20 91t16.5 82t11.5 75t4 63.5t-4.5 54.5t-15 39.5t-26 27.5t-39.5 11q-62 4 -151 -67.5t-156 -178.5q-76 -298 -113 -424q-6 -23 -81 -31 q-89 -8 -129 17q-20 13 -15 33q45 157 157 575.5t168 589.5q-91 41 -153 58.5t-117 7.5q-50 -4 -80 -34.5t-33 -68.5q-8 -57 29 -89.5t94 -12.5q24 8 44 -17t21.5 -52.5t-9.5 -37.5q-59 -35 -122 -41t-114.5 15t-90.5 59t-55.5 94.5t-4.5 118.5q20 100 106 161t213 64 q76 2 155 -17t148 -47.5t136.5 -58t144 -51t147.5 -22.5q94 0 139.5 37t49.5 118q2 29 60 32.5t69 -25.5q30 -80 -3.5 -161.5t-97.5 -119.5q-178 -109 -471 8q-38 -112 -125 -436q67 70 159 118.5t175 45.5q102 -5 150.5 -79t46 -206.5t-38.5 -318.5q-32 -164 -82.5 -297 t-120 -235.5t-163 -161t-204.5 -64.5z" />
<glyph unicode="&#x403;" horiz-adv-x="1171" d="M860 1794q25 33 91 24q57 -7 73 -34q8 -14 -4 -29l-154 -182q-22 -27 -77 -20q-50 7 -60 34q-4 14 6 29q22 32 69.5 99.5t55.5 78.5zM1184 453q8 11 26.5 7t34.5 -20t10 -28q-98 -212 -255.5 -321t-364.5 -111q-88 -2 -162 17.5t-130.5 58.5t-87 105t-26.5 152 q2 70 25 132.5t57.5 111t88.5 96t105.5 83t121.5 75.5q65 38 106 65.5t87.5 65.5t73 78.5t34.5 85.5q18 85 -24.5 131.5t-123.5 48.5q-82 3 -153.5 -46t-112.5 -148q-13 -28 -54 -36.5t-76 8t-32 50.5q27 156 159 240.5t304 79.5q163 -5 257 -93t81 -229q-3 -36 -12 -69 t-20.5 -60.5t-33 -56.5t-39 -50.5t-49 -48.5t-53 -44t-61.5 -44t-63.5 -42t-69.5 -44t-64 -40.5t-56 -38t-54.5 -42t-43 -43t-38 -50.5t-22 -54.5t-13.5 -65.5q-7 -100 54 -144.5t169 -47.5q144 -6 287.5 84.5t212.5 241.5z" />
</font>
</defs>
</svg>
